<svg><defs><style>.a-basket{fill:#616161}</style></defs><symbol id="basket" viewBox="0 0 24.073 20.098"><g transform="translate(-9 -18)"><path class="a-basket" d="M12.755 18.883a.25.25 0 01.133.133l.309.751h-2.872a.442.442 0 110-.883h2.429m19.436 3.754c-.287.95-2.142 5.411-2.761 6.913-.265.618-.42 1.016-.486 1.148-.066.2-.221.331-.287.331H18.409c-.044-.022-.11-.066-.155-.088l-3.2-8.3H32.19M12.755 18h-2.43a1.325 1.325 0 100 2.65h3l4.13 10.623a1.123 1.123 0 00.751.6 1.016 1.016 0 00.287.044h10.163a1.3 1.3 0 001.1-.883c.243-.64 3.313-7.907 3.313-8.393a.886.886 0 00-.883-.883h-17.2l-1.3-3.114a1.1 1.1 0 00-.928-.64z"/><path class="a-basket" d="M39.65 85.883a1.767 1.767 0 11-1.767 1.767 1.772 1.772 0 011.767-1.767m0-.883a2.65 2.65 0 102.65 2.65A2.658 2.658 0 0039.65 85z" transform="translate(-21.816 -52.203)"/><path class="a-basket" d="M92.65 85.883a1.767 1.767 0 11-1.767 1.767 1.772 1.772 0 011.767-1.767m0-.883a2.65 2.65 0 102.65 2.65A2.658 2.658 0 0092.65 85z" transform="translate(-63.111 -52.203)"/><circle class="a-basket" cx=".663" cy=".663" r=".663" transform="translate(17.172 34.785)"/><circle class="a-basket" cx=".663" cy=".663" r=".663" transform="translate(28.877 34.785)"/></g></symbol><symbol id="times" viewBox="0 0 352 512"><path fill="currentColor" d="M242.72 256l100.07-100.07c12.28-12.28 12.28-32.19 0-44.48l-22.24-22.24c-12.28-12.28-32.19-12.28-44.48 0L176 189.28 75.93 89.21c-12.28-12.28-32.19-12.28-44.48 0L9.21 111.45c-12.28 12.28-12.28 32.19 0 44.48L109.28 256 9.21 356.07c-12.28 12.28-12.28 32.19 0 44.48l22.24 22.24c12.28 12.28 32.2 12.28 44.48 0L176 322.72l100.07 100.07c12.28 12.28 32.2 12.28 44.48 0l22.24-22.24c12.28-12.28 12.28-32.19 0-44.48L242.72 256z"/></symbol></svg>