<svg xmlns="http://www.w3.org/2000/svg" xmlns:xlink="http://www.w3.org/1999/xlink" width="36" height="36" viewBox="0 0 36 36">
    <defs>
        <style>.a-camera,.c-camera{fill:#fff;}.a-camera{stroke:#707070;}.b-camera{clip-path:url(#a);}.c-camera{fill-rule:evenodd;}</style>
        <rect class="a-camera" width="36" height="36" transform="translate(1389 6045)" />
    </defs>
    <g class="b-camera" transform="translate(-1389 -6045)">
        <g transform="translate(1389 6045)">
            <path class="c-camera" d="M18,0A18,18,0,1,0,36,18,18,18,0,0,0,18,0Zm0,2.16A15.84,15.84,0,1,0,33.84,18,15.84,15.84,0,0,0,18,2.16Zm7.885,22.687c.014-.074.024-.148.035-.222V11.375c-.011-.073-.021-.145-.034-.218a1.746,1.746,0,0,0-1.443-1.421c-.03,0-.059-.011-.088-.016H11.646c-.077.014-.154.025-.229.043a1.757,1.757,0,0,0-1.321,1.5c0,.031-.01.062-.015.093V24.643c.014.084.026.169.044.253a1.744,1.744,0,0,0,1.438,1.367c.034,0,.068.011.1.017H24.337c.082-.015.165-.027.246-.045A1.756,1.756,0,0,0,25.885,24.847ZM11.794,23.831a.656.656,0,0,0,.629.656H23.574a.655.655,0,0,0,.631-.658q0-3.672,0-7.343v-.051H22.693a5.4,5.4,0,0,1,.2,2.179,5.217,5.217,0,0,1-.683,2.064,5.036,5.036,0,0,1-1.443,1.583,4.744,4.744,0,0,1-5.164.232,4.928,4.928,0,0,1-1.913-2.015,5.35,5.35,0,0,1-.384-4.045H11.794v.045Q11.794,20.155,11.794,23.831Zm6.133-2.477a3.36,3.36,0,1,0-3.136-3.4A3.284,3.284,0,0,0,17.926,21.354ZM24.2,13.307q0-.784,0-1.569a.654.654,0,0,0-.642-.674h-1.5a.656.656,0,0,0-.642.675c0,.518,0,1.037,0,1.555a.783.783,0,0,0,.038.231.64.64,0,0,0,.627.447h.722c.26,0,.522,0,.783,0A.651.651,0,0,0,24.2,13.307Zm0,0" />
        </g>
    </g>
</svg>
