<svg id="iconfinder_circle-close_226589" xmlns="http://www.w3.org/2000/svg" width="32.611" height="32.611" viewBox="0 0 32.611 32.611">
    <path id="Pfad_214" data-name="Pfad 214" d="M20.306,4A16.306,16.306,0,1,0,36.611,20.306,16.306,16.306,0,0,0,20.306,4Zm0,29.647A13.341,13.341,0,1,1,33.647,20.306,13.341,13.341,0,0,1,20.306,33.647Z" transform="translate(-4 -4)" />
    <path id="Pfad_215" data-name="Pfad 215" d="M40.458,38.362,43.6,35.218a1.482,1.482,0,1,0-2.1-2.1l-3.144,3.144-3.144-3.144a1.482,1.482,0,0,0-2.1,2.1l3.144,3.144-3.144,3.144a1.482,1.482,0,0,0,2.1,2.1l3.144-3.144L41.505,43.6a1.482,1.482,0,1,0,2.1-2.1Z" transform="translate(-22.056 -22.056)" />
</svg>
