<svg xmlns="http://www.w3.org/2000/svg" width="38.145" height="18.899" viewBox="0 0 38.145 18.899">
  <g id="Gruppe_49" data-name="Gruppe 49" transform="translate(-381.533 593.781) rotate(-90)">
    <path id="Pfad_62" data-name="Pfad 62" d="M584.341,419.678a32.468,32.468,0,0,1,9.44-11.952A13.291,13.291,0,0,0,585,410.974v-4.167c0-7.542,2.248-10.749,7.7-11.175v-14.1c-4.024.325-6.7,2.289-8.354,6.192a9.351,9.351,0,0,0-8.379-6.192v14.1c5.456.426,7.7,3.634,7.7,11.175v4.167a13.215,13.215,0,0,0-8.785-3.248,32.609,32.609,0,0,1,9.46,11.952Z" transform="translate(0 0)" />
  </g>
</svg>
