<svg xmlns="http://www.w3.org/2000/svg" width="15.997" height="68" viewBox="0 0 15.997 68">
  <g id="Gruppe_37" data-name="Gruppe 37" transform="translate(-574.881 -381.533)">
    <path id="Pfad_62" data-name="Pfad 62" d="M582.888,413.819a27.482,27.482,0,0,1,7.99-10.116,11.25,11.25,0,0,0-7.436,2.749v-3.527c0-6.383,1.9-9.1,6.516-9.459V381.533a7.8,7.8,0,0,0-7.071,5.241,7.915,7.915,0,0,0-7.092-5.241v11.933c4.618.361,6.521,3.076,6.521,9.459v3.527a11.185,11.185,0,0,0-7.436-2.749,27.6,27.6,0,0,1,8.007,10.116Z" transform="translate(0 0)" fill="#fff"/>
    <g id="Gruppe_36" data-name="Gruppe 36" transform="translate(580.229 426.04)">
      <path id="Pfad_63" data-name="Pfad 63" d="M578.776,391.894a2.709,2.709,0,0,1,1.035.2,2.531,2.531,0,0,1,1.413,1.409,2.766,2.766,0,0,1,0,2.075,2.53,2.53,0,0,1-1.413,1.409,2.753,2.753,0,0,1-2.07,0,2.532,2.532,0,0,1-1.414-1.409,2.766,2.766,0,0,1,0-2.075,2.532,2.532,0,0,1,1.414-1.409A2.71,2.71,0,0,1,578.776,391.894Z" transform="translate(-576.126 -391.894)" fill="#fff"/>
      <path id="Pfad_64" data-name="Pfad 64" d="M578.776,394.012a2.584,2.584,0,0,1,2.448,1.611,2.766,2.766,0,0,1,0,2.075,2.566,2.566,0,0,1-1.413,1.409,2.756,2.756,0,0,1-2.07,0,2.568,2.568,0,0,1-1.414-1.409,2.766,2.766,0,0,1,0-2.075,2.63,2.63,0,0,1,2.449-1.611Z" transform="translate(-576.126 -384.914)" fill="#fff"/>
      <path id="Pfad_65" data-name="Pfad 65" d="M578.776,396.13a2.584,2.584,0,0,1,2.448,1.611,2.766,2.766,0,0,1,0,2.075,2.566,2.566,0,0,1-1.413,1.409,2.755,2.755,0,0,1-2.07,0,2.567,2.567,0,0,1-1.414-1.409,2.766,2.766,0,0,1,0-2.075,2.63,2.63,0,0,1,2.449-1.611Z" transform="translate(-576.126 -377.934)" fill="#fff"/>
    </g>
  </g>
</svg>
