<svg id="Ebene_1" data-name="Ebene 1" xmlns="http://www.w3.org/2000/svg" viewBox="0 0 56.69 56.69"><defs><style>.cls-1{fill:#292a2a;}.cls-2{fill:#fff;}</style></defs><title>service-laufbandanalyse</title><rect class="cls-1" width="56.69" height="56.69"/><path class="cls-2" d="M31.89,39.33H19.49a.43.43,0,0,1-.25,0,9.43,9.43,0,0,0-.84-.56,13.67,13.67,0,0,0-3.61-1.05c0-.1,0-.2,0-.29.1-.7.19-1.39.32-2.09a21.84,21.84,0,0,1,6.42-11.74,1.17,1.17,0,0,1,.75-.37c.29,0,.58-.05.88-.08a1,1,0,0,0,.76-.31.36.36,0,0,1,.32-.13h6.55V21.42H25a2.09,2.09,0,0,1-.85-.15,13.06,13.06,0,0,0-4.88-1.15,3.83,3.83,0,0,0-2.09.26,4,4,0,0,1-1-2.94l.46.82a.92.92,0,0,0,1.17.44l.91-.38a.7.7,0,0,0,.34-1l-.56-1-2.26-4A.71.71,0,0,0,15,12.14l-.58.52a1,1,0,0,0-.2,1.31c.43.76.86,1.53,1.28,2.31a.51.51,0,0,1,0,.34A4.34,4.34,0,0,0,16,19.8c.21.37.48.7.73,1.06A5.15,5.15,0,0,0,16,23.37a.86.86,0,0,0,.54,1l-.15.16a15,15,0,0,0-1.78,2.2,26.93,26.93,0,0,0-2.8,5.7A43.17,43.17,0,0,0,10.16,38a.47.47,0,0,1-.14.26A6,6,0,0,0,8.49,40c-.38.65-.73,1.3-1.09,2s-.61,1.14-.88,1.73a.6.6,0,0,0,.59.91h.51v.52c0,.29,0,.29.29.29h7.54c.17,0,.23-.06.22-.23s0-.38,0-.58H44.59c0,.21,0,.4,0,.6s0,.21.2.21h3c.15,0,.19-.07.19-.2v-.61h3.34a.77.77,0,0,0,.87-.85V42.25a.78.78,0,0,0-.86-.87H50.7c0-.45,0-.86,0-1.27a.72.72,0,0,0-.59-.76,6,6,0,0,0-.85,0V40h0v-.69H33.45" transform="translate(0 0)"/><path class="cls-2" d="M33.45,39.31c5.25,0,16.39,0,16.66,0a.72.72,0,0,1,.59.76c0,.41,0,.82,0,1.27h.58a.78.78,0,0,1,.86.87v1.54a.77.77,0,0,1-.87.85H47.93v.61c0,.13,0,.2-.19.2h-3c-.16,0-.21-.06-.2-.21s0-.39,0-.6H15.67c0,.2,0,.39,0,.58s-.05.23-.22.23H7.91c-.29,0-.29,0-.29-.29v-.52H7.11a.6.6,0,0,1-.59-.91c.27-.59.58-1.16.88-1.73s.71-1.31,1.09-2A6,6,0,0,1,10,38.24a.47.47,0,0,0,.14-.26,43.17,43.17,0,0,1,1.6-5.57,26.93,26.93,0,0,1,2.8-5.7,15,15,0,0,1,1.78-2.2l.15-.16a.86.86,0,0,1-.54-1,5.15,5.15,0,0,1,.75-2.51c-.25-.36-.52-.69-.73-1.06a4.34,4.34,0,0,1-.42-3.18.51.51,0,0,0,0-.34c-.42-.78-.85-1.55-1.28-2.31a1,1,0,0,1,.2-1.31l.58-.52a.71.71,0,0,1,1.21.19l2.26,4,.56,1a.7.7,0,0,1-.34,1l-.91.38a.92.92,0,0,1-1.17-.44l-.46-.82a4,4,0,0,0,1,2.94,3.83,3.83,0,0,1,2.09-.26,13.06,13.06,0,0,1,4.88,1.15,2.09,2.09,0,0,0,.85.15h5.8v1.23H24.26a.36.36,0,0,0-.32.13,1,1,0,0,1-.76.31c-.3,0-.59.07-.88.08a1.17,1.17,0,0,0-.75.37,21.84,21.84,0,0,0-6.42,11.74c-.13.7-.22,1.39-.32,2.09,0,.09,0,.19,0,.29a13.67,13.67,0,0,1,3.61,1.05,9.43,9.43,0,0,1,.84.56.43.43,0,0,0,.25,0h12.4Z" transform="translate(0 0)"/></svg>