<svg xmlns="http://www.w3.org/2000/svg" xmlns:xlink="http://www.w3.org/1999/xlink" width="66.894" height="66.894" viewBox="0 0 66.894 66.894">
    <defs>
        <style>.a-service-direct-pickup,.c-service-direct-pickup{fill:#ddd;}.a-service-direct-pickup{stroke:#707070;}}</style>
    </defs>
    <g class="b-service-direct-pickup" transform="translate(-279 -1689)">
        <path class="c-service-direct-pickup" d="M6.25,66.894H64.783V16.724H56.421v-2.09A14.649,14.649,0,0,0,41.788,0a14.485,14.485,0,0,0-6.271,1.467A14.485,14.485,0,0,0,29.245,0,14.649,14.649,0,0,0,14.612,14.633v2.09H6.25ZM35.516,6.326A10.4,10.4,0,0,1,39.7,14.633v2.09H31.335v-2.09A10.4,10.4,0,0,1,35.516,6.326ZM52.24,14.633v2.09H43.878v-2.09A14.552,14.552,0,0,0,39.672,4.4,10.448,10.448,0,0,1,52.24,14.633Zm-33.447,0A10.448,10.448,0,0,1,31.36,4.4a14.552,14.552,0,0,0-4.206,10.235v2.09H18.793Z" transform="translate(276.931 1689)" />
    </g>
</svg>
