<svg xmlns="http://www.w3.org/2000/svg" width="67" height="67" viewBox="0 0 67 67">
    <path data-name="Pfad 325" d="M67 48.158A18.835 18.835 0 0 0 54.442 30.41V8.375h-4.188v-4.19h4.188V0H6.285a7.085 7.085 0 0 0-3.027.741A5.912 5.912 0 0 0 0 6.281v56.531C0 67 4.192 67 4.192 67H48.33l-.015-.008A18.834 18.834 0 0 0 67 48.158zM5.974 8.335a2.636 2.636 0 0 1-1.212-.5c-.289-.281-.538-.509-.569-1.556.069-1.353.406-1.436.936-1.792a3.093 3.093 0 0 1 .846-.262c.245-.046.308-.029.312-.042h39.78v4.19H6.286a1.659 1.659 0 0 1-.312-.038zm2.4 54.477V12.563H50.25v16.875A18.631 18.631 0 0 0 36.32 33.5H12.563v4.188h19.924a18.75 18.75 0 0 0-2.087 4.187H12.563v4.187h16.869a19.226 19.226 0 0 0-.124 2.1 18.792 18.792 0 0 0 7.01 14.654zm39.781 0a14.656 14.656 0 1 1 14.658-14.654 14.677 14.677 0 0 1-14.657 14.654zm-2.092-37.687h-33.5v4.188h33.5z" fill="#ddd"/>
    <path data-name="Pfad 326" d="M46.725 64h4V47h-4zm0-23v4h4v-4z" fill="#ddd"/>
</svg>
