<svg id="Ebene_1" data-name="Ebene 1" xmlns="http://www.w3.org/2000/svg" viewBox="0 0 56.69 56.69"><defs><style>.cls-1{fill:#292a2a;}.cls-2,.cls-3{fill:#fff;}.cls-3{stroke:#292a2a;stroke-miterlimit:10;stroke-width:0.25px;}</style></defs><title>service-fußvermessung#</title><rect class="cls-1" width="56.69" height="56.69"/><path class="cls-2" d="M21.92,44.31a5.46,5.46,0,0,0,.52,1.36A2.49,2.49,0,0,0,25.06,47a2.7,2.7,0,0,0,1.79-1.11,2.54,2.54,0,0,0,.43-2,8.1,8.1,0,0,0-2.13-4.18A6.1,6.1,0,0,1,23.38,36a4.25,4.25,0,0,1,1.45-3.81A6.65,6.65,0,0,0,26,31a4.22,4.22,0,0,0,.56-3.69,2.65,2.65,0,0,0-2.65-1.87A6.91,6.91,0,0,0,19.47,27a4.68,4.68,0,0,0-1.6,5.23,8.21,8.21,0,0,0,1.06,2.19c.48.77,1,1.54,1.44,2.32a5.41,5.41,0,0,1,.82,2.44c.06.73.13,1.46.2,2.2a18,18,0,0,0,.4,2.51l.13.43c0,.08,0,0,0,0" transform="translate(0 0)"/><path class="cls-2" d="M26.93,22.63a3,3,0,0,1-.22,1.23,1.76,1.76,0,0,1-.6.77,1.25,1.25,0,0,1-1.68-.27,2.88,2.88,0,0,1-.75-1.85A2.8,2.8,0,0,1,24,20.86a1.25,1.25,0,0,1,2-.34A2.72,2.72,0,0,1,26.93,22.63Z" transform="translate(0 0)"/><path class="cls-2" d="M23.34,23.32a1.6,1.6,0,0,1-.22.86.86.86,0,0,1-1.41.22,2.13,2.13,0,0,1-.45-2.35.92.92,0,0,1,.69-.56.93.93,0,0,1,.77.29A2.18,2.18,0,0,1,23.34,23.32Z" transform="translate(0 0)"/><path class="cls-2" d="M19.05,24.19a1.43,1.43,0,0,1,.23-.84.66.66,0,0,1,1.12,0,1.78,1.78,0,0,1,.43,1.63,1,1,0,0,1-.17.36.67.67,0,0,1-1,.16A1.63,1.63,0,0,1,19.05,24.19Z" transform="translate(0 0)"/><path class="cls-2" d="M19.09,26.13a1.15,1.15,0,0,1-.26.8.54.54,0,0,1-.71.13,1.36,1.36,0,0,1-.44-.42,1.44,1.44,0,0,1-.06-1.52.59.59,0,0,1,.94-.19,1.31,1.31,0,0,1,.5.91C19.08,25.94,19.08,26.05,19.09,26.13Z" transform="translate(0 0)"/><path class="cls-2" d="M17.6,28c0,.39-.14.63-.36.7a.63.63,0,0,1-.67-.28,1.14,1.14,0,0,1-.21-1,.5.5,0,0,1,.38-.4.46.46,0,0,1,.49.18A1.3,1.3,0,0,1,17.6,28Z" transform="translate(0 0)"/><path class="cls-2" d="M21.92,44.31h0" transform="translate(0 0)"/><path class="cls-2" d="M34.78,35.42a5.64,5.64,0,0,1-.53,1.36,2.5,2.5,0,0,1-2.61,1.3A2.69,2.69,0,0,1,29.85,37a2.61,2.61,0,0,1-.44-2,8.15,8.15,0,0,1,2.14-4.18,6,6,0,0,0,1.76-3.63,4.24,4.24,0,0,0-1.45-3.82,6.28,6.28,0,0,1-1.14-1.22,4.22,4.22,0,0,1-.57-3.69,2.68,2.68,0,0,1,2.65-1.87,6.89,6.89,0,0,1,4.42,1.59,4.67,4.67,0,0,1,1.6,5.23,8.5,8.5,0,0,1-1,2.19c-.48.78-1,1.54-1.45,2.32a5.57,5.57,0,0,0-.82,2.44c0,.73-.13,1.47-.2,2.2A19.41,19.41,0,0,1,34.91,35l-.14.42c0,.09,0,0,0,0" transform="translate(0 0)"/><path class="cls-2" d="M29.76,13.73A3.06,3.06,0,0,0,30,15a1.88,1.88,0,0,0,.6.77,1.27,1.27,0,0,0,1.68-.27A2.9,2.9,0,0,0,33,13.62,2.92,2.92,0,0,0,32.67,12a1.27,1.27,0,0,0-2-.34A2.72,2.72,0,0,0,29.76,13.73Z" transform="translate(0 0)"/><path class="cls-2" d="M33.35,14.43a1.65,1.65,0,0,0,.22.86.87.87,0,0,0,1.42.22,2.15,2.15,0,0,0,.44-2.35.9.9,0,0,0-.69-.57.94.94,0,0,0-.76.29A2.17,2.17,0,0,0,33.35,14.43Z" transform="translate(0 0)"/><path class="cls-2" d="M37.65,15.29a1.53,1.53,0,0,0-.23-.84.67.67,0,0,0-1.13,0,1.81,1.81,0,0,0-.43,1.64,1.69,1.69,0,0,0,.17.36.67.67,0,0,0,1,.16A1.66,1.66,0,0,0,37.65,15.29Z" transform="translate(0 0)"/><path class="cls-2" d="M37.6,17.23a1.11,1.11,0,0,0,.27.8.51.51,0,0,0,.7.13,1.33,1.33,0,0,0,.44-.41,1.43,1.43,0,0,0,.06-1.53.59.59,0,0,0-.94-.19,1.33,1.33,0,0,0-.5.91C37.61,17.05,37.61,17.16,37.6,17.23Z" transform="translate(0 0)"/><path class="cls-2" d="M39.1,19.09c0,.4.13.64.35.71a.63.63,0,0,0,.67-.29,1.09,1.09,0,0,0,.21-1A.53.53,0,0,0,40,18.1a.47.47,0,0,0-.49.19A1.21,1.21,0,0,0,39.1,19.09Z" transform="translate(0 0)"/><path class="cls-2" d="M34.78,35.42h0" transform="translate(0 0)"/><path class="cls-3" d="M35.51,28.35a27.17,27.17,0,0,1,7.38,1.16,9.55,9.55,0,0,1,1.79.82,4.59,4.59,0,0,1,.84.66,5.72,5.72,0,0,1,.37.46,2.67,2.67,0,0,1,.25.63,1.85,1.85,0,0,1-.2,1.35,3.38,3.38,0,0,1-.74.91,7.91,7.91,0,0,1-1.74,1.08,27,27,0,0,1-7.37,2,57.06,57.06,0,0,1-7.5.53,60.76,60.76,0,0,1-7.5-.46,30.21,30.21,0,0,1-7.38-1.83,9.78,9.78,0,0,1-1.76-1,3.14,3.14,0,0,1-1.4-1.85,2.05,2.05,0,0,1,.25-1.33,3.12,3.12,0,0,1,.78-.83,6.43,6.43,0,0,1,1.76-.95,24.37,24.37,0,0,1,7.36-1.3,30.88,30.88,0,0,0-7,2.2,5.79,5.79,0,0,0-1.42.92,2.12,2.12,0,0,0-.44.55.8.8,0,0,0-.05.47,2.05,2.05,0,0,0,.92.92,8.7,8.7,0,0,0,1.54.71,31.86,31.86,0,0,0,7,1.4,62.86,62.86,0,0,0,7.27.34,60.57,60.57,0,0,0,7.26-.4,29.12,29.12,0,0,0,7-1.52,6.64,6.64,0,0,0,1.45-.77c.4-.32.64-.64.57-.91s-.38-.72-.81-1a9.24,9.24,0,0,0-1.51-.86A35.56,35.56,0,0,0,35.51,28.35Z" transform="translate(0 0)"/><path class="cls-2" d="M26.54,27.28a2.65,2.65,0,0,0-2.65-1.87A6.91,6.91,0,0,0,19.47,27a4.62,4.62,0,0,0-1.66,4.93,19.55,19.55,0,0,1,8.8-2.46A4.3,4.3,0,0,0,26.54,27.28Z" transform="translate(0 0)"/><path class="cls-2" d="M36.32,27.84c.47-.78,1-1.54,1.45-2.32a8.5,8.5,0,0,0,1-2.19,4.67,4.67,0,0,0-1.6-5.23,6.89,6.89,0,0,0-4.42-1.59,2.68,2.68,0,0,0-2.65,1.87,4.22,4.22,0,0,0,.57,3.69,6.28,6.28,0,0,0,1.14,1.22,4.24,4.24,0,0,1,1.45,3.82,6.06,6.06,0,0,1-1.76,3.64s0,.05-.07.07c1.36,0,2.68.11,3.95.25,0-.26,0-.53.07-.79A5.57,5.57,0,0,1,36.32,27.84Z" transform="translate(0 0)"/></svg>