<svg id="Ebene_1" data-name="Ebene 1" xmlns="http://www.w3.org/2000/svg" viewBox="0 0 56.69 56.69"><defs><style>.cls-1{fill:#292a2a;}.cls-2{fill:#fff;}</style></defs><title>service-bikemontage</title><rect class="cls-1" width="56.69" height="56.69"/><path class="cls-2" d="M23.28,16.8c.25.6.47,1.14.71,1.69,0,.05.1.08.15.1a.25.25,0,0,0,.12,0H33.9l-.1-.28-.92-2.16a.72.72,0,0,1,.45-1.06l2.56-1a.69.69,0,1,1,.49,1.28l-2,.79L36.8,22a6.66,6.66,0,1,1-1.26.53l-.69-1.63-1.48,1.68L28,28.74a.91.91,0,0,1-.74.34c-.8,0-1.6,0-2.4,0-.16,0-.23,0-.26.21a6.63,6.63,0,1,1-6.33-7.55,6.87,6.87,0,0,1,2.63.64.44.44,0,0,0,.09-.11l1.78-2.84a.39.39,0,0,0,0-.3c-.28-.72-.58-1.44-.87-2.15-.05-.12-.11-.18-.24-.17h-.76a.7.7,0,0,1-.73-.69.69.69,0,0,1,.73-.68H25a.69.69,0,1,1,0,1.37Zm12.8,7a5.31,5.31,0,1,0,1.28-.52l.09.24c.64,1.52,1.27,3,1.9,4.55a.68.68,0,0,1-.34,1,.7.7,0,0,1-.93-.45c-.18-.45-.37-.89-.56-1.33C37.05,26.13,36.57,25,36.08,23.82Zm-16-.25a5.25,5.25,0,1,0-.41,9.76c1.85-.65,3.59-2.78,3.44-4.25H18.06a.76.76,0,0,1-.75-.36.79.79,0,0,1,.1-.83c.63-1,1.24-2,1.86-2.95ZM24.6,20l2.93,7.15L33.82,20Zm1.68,7.71-2.82-6.86L22,23.1a6.71,6.71,0,0,1,2.55,4.59Zm-5-3.42L19.15,27.7H23.2A5.24,5.24,0,0,0,21.3,24.27Z" transform="translate(0 0)"/><path class="cls-2" d="M43.84,41.58v0c0-.15,0-.22-.19-.26-.55-.15-1.1-.3-1.64-.47a.8.8,0,0,0-.55,0,4.49,4.49,0,0,1-1.91.4l-8.93-.15L27,41.05c0-.32,0-.6,0-.88s-.08-.37-.36-.38a8.23,8.23,0,0,0-.86,0,1.92,1.92,0,0,0-.72.14,2.73,2.73,0,0,1-2.49,0,4.85,4.85,0,0,0-2.07-.41q-3.87,0-7.74,0a1,1,0,0,0-.93.51,3.61,3.61,0,0,0,0,3.6,1,1,0,0,0,.9.48c1.74,0,3.48,0,5.22,0,.58,0,1.16,0,1.73,0a7.35,7.35,0,0,0,3.37-.58,1.67,1.67,0,0,1,1.67.13,1.44,1.44,0,0,0,.62.18c.43,0,.86,0,1.29,0s.37-.09.36-.37,0-.58,0-.88h.23l11.32-.19a6.37,6.37,0,0,1,2.93.36.69.69,0,0,0,.39.08c.44-.1.87-.24,1.31-.36.22-.07.53-.07.64-.22S43.83,41.81,43.84,41.58ZM13.22,40.44a.93.93,0,0,1,.08-.33,2.2,2.2,0,0,1,.47-.1h6.58a2.54,2.54,0,0,1,.39,0,.4.4,0,0,1,.36.36.39.39,0,0,1-.31.4.78.78,0,0,1-.22,0H13.75C13.45,40.82,13.23,40.68,13.22,40.44Zm0,1.38c0-.24.21-.4.53-.4h6c.28,0,.57,0,.85,0a.81.81,0,0,1,.4.15c.16.13.15.36,0,.56a1.14,1.14,0,0,1-.33.08H13.7A.44.44,0,0,1,13.22,41.82Zm7.34,1.8H13.74a.62.62,0,0,1-.33-.08.36.36,0,0,1,0-.65.93.93,0,0,1,.34-.06h6.78A.81.81,0,0,1,21,43c.19.13.19.39,0,.6A2.38,2.38,0,0,1,20.56,43.62Z" transform="translate(0 0)"/></svg>