<svg id="Ebene_1" data-name="Ebene 1" xmlns="http://www.w3.org/2000/svg" viewBox="0 0 56.69 56.69"><defs><style>.cls-1{fill:#292a2a;}.cls-2{fill:#fff;}</style></defs><title>service-skimontage</title><rect class="cls-1" width="56.69" height="56.69"/><path class="cls-2" d="M40.77,16.89h0c-.15,0-.22,0-.26.18-.14.55-.3,1.1-.46,1.65a.72.72,0,0,0,0,.54,4.69,4.69,0,0,1,.4,1.92c-.06,3-.1,5.95-.15,8.93,0,1.2,0,2.4-.06,3.63h-.88c-.28,0-.37.09-.37.37A8,8,0,0,0,39,35a1.89,1.89,0,0,0,.14.72,2.7,2.7,0,0,1,0,2.49,5,5,0,0,0-.41,2.07q0,3.89,0,7.75a1,1,0,0,0,.5.93,3.64,3.64,0,0,0,3.6,0,1,1,0,0,0,.49-.89c0-1.74,0-3.48,0-5.22,0-.58,0-1.16,0-1.74a7.44,7.44,0,0,0-.57-3.36A1.67,1.67,0,0,1,42.85,36a1.35,1.35,0,0,0,.18-.62c0-.43,0-.87,0-1.3,0-.27-.1-.36-.38-.36l-.87,0a2,2,0,0,1,0-.22L41.6,22.21A6.35,6.35,0,0,1,42,19.28a.68.68,0,0,0,.07-.39c-.1-.44-.23-.88-.36-1.31-.06-.23-.07-.53-.22-.65S41,16.89,40.77,16.89ZM39.64,47.51a2,2,0,0,1-.34-.08,3.08,3.08,0,0,1-.09-.48q0-3.29,0-6.57a2.61,2.61,0,0,1,0-.4.4.4,0,0,1,.36-.36.41.41,0,0,1,.4.32.71.71,0,0,1,0,.21v4.11c0,.91,0,1.81,0,2.72C40,47.27,39.87,47.5,39.64,47.51Zm1.37,0c-.24,0-.4-.21-.4-.53V41c0-.29,0-.57,0-.86a.77.77,0,0,1,.14-.39c.13-.17.36-.15.56,0a1.1,1.1,0,0,1,.09.33c0,2.3,0,4.61,0,6.91C41.41,47.31,41.24,47.51,41,47.51Zm1.81-7.35v5.51c0,.44,0,.88,0,1.31a.94.94,0,0,1-.08.34.36.36,0,0,1-.65,0A.83.83,0,0,1,42,47q0-3.39,0-6.78a.75.75,0,0,1,.12-.41c.12-.18.38-.18.59,0A2.1,2.1,0,0,1,42.82,40.16Z" transform="translate(0 0)"/><path class="cls-2" d="M18.41,23.28c.18-7.76.31-15.52.5-23.28H12.28q.33,10.34.62,20.67c.07,2.63.39,5.33-1,7.79-.08.14.08.4.12.6l.32-.08c.15-.67.31-1.34.46-2,0,6.22-.13,12.42-.3,18.62-.05,1.94-.2,3.89-.23,5.84a2.18,2.18,0,0,0,2.48,2.5h1.68c1.93,0,2.74-.89,2.68-2.86-.24-7.58-.45-15.17-.67-22.75,0-.38,0-.76,0-1.13h.12L19,29h.32c0-.29.1-.63,0-.85A9.84,9.84,0,0,1,18.41,23.28Z" transform="translate(0 0)"/><path class="cls-2" d="M23.81,48.15c0,2.83.49,5.72.06,8.54h5.58q.21-15.51.6-31c.11-4.13.41-8.25.59-12.38a6.33,6.33,0,0,0-2-5.29c-1.44-1.31-2.59-1.31-4,0a6.24,6.24,0,0,0-1.95,5.12c.09,2.3.27,4.6.35,6.9C23.33,29.39,23.7,38.77,23.81,48.15Z" transform="translate(0 0)"/></svg>