<svg id="Ebene_1" data-name="Ebene 1" xmlns="http://www.w3.org/2000/svg" viewBox="0 0 56.69 56.69"><defs><style>.cls-1{fill:#292a2a;}.cls-2{fill:#fff;}</style></defs><title>service-snowboardmontage</title><rect class="cls-1" width="56.69" height="56.69"/><path class="cls-2" d="M43.84,41.58v0c0-.15,0-.22-.19-.26-.55-.15-1.1-.3-1.64-.47a.8.8,0,0,0-.55,0,4.49,4.49,0,0,1-1.91.4l-8.93-.15L27,41.05c0-.32,0-.6,0-.88s-.08-.37-.36-.38a8.23,8.23,0,0,0-.86,0,1.92,1.92,0,0,0-.72.14,2.73,2.73,0,0,1-2.49,0,4.85,4.85,0,0,0-2.07-.41q-3.87,0-7.74,0a1,1,0,0,0-.93.51,3.61,3.61,0,0,0,0,3.6,1,1,0,0,0,.9.48c1.74,0,3.48,0,5.22,0,.58,0,1.16,0,1.73,0a7.35,7.35,0,0,0,3.37-.58,1.67,1.67,0,0,1,1.67.13,1.44,1.44,0,0,0,.62.18c.43,0,.86,0,1.29,0s.37-.09.36-.37,0-.58,0-.88h.23l11.32-.19a6.37,6.37,0,0,1,2.93.36.69.69,0,0,0,.39.08c.44-.1.87-.24,1.31-.36.22-.07.53-.07.64-.22S43.83,41.81,43.84,41.58ZM13.22,40.44a.93.93,0,0,1,.08-.33,2.2,2.2,0,0,1,.47-.1h6.58a2.54,2.54,0,0,1,.39,0,.4.4,0,0,1,.36.36.39.39,0,0,1-.31.4.78.78,0,0,1-.22,0H13.75C13.45,40.82,13.23,40.68,13.22,40.44Zm0,1.38c0-.24.21-.4.53-.4h6c.28,0,.57,0,.85,0a.81.81,0,0,1,.4.15c.16.13.15.36,0,.56a1.14,1.14,0,0,1-.33.08H13.7A.44.44,0,0,1,13.22,41.82Zm7.34,1.8H13.74a.62.62,0,0,1-.33-.08.36.36,0,0,1,0-.65.93.93,0,0,1,.34-.06h6.78A.81.81,0,0,1,21,43c.19.13.19.39,0,.6A2.38,2.38,0,0,1,20.56,43.62Z" transform="translate(0 0)"/><path class="cls-2" d="M41.84,18.34c4.19,0,6.92-1.43,6.94-4.16S46,10,41.84,10c-9.47.11-19,0-28.42.06-1.36,0-3,0-4,.65a5.89,5.89,0,0,0-2.51,3.45A5.89,5.89,0,0,0,9.4,17.63c1,.69,2.66.65,4,.65C22.89,18.33,32.37,18.23,41.84,18.34Z" transform="translate(0 0)"/><path class="cls-2" d="M21.29,31c6.34,0,12.67.36,19,.46,3.76.05,6.65-1.83,9.4-4.54-2.75-2.71-5.64-4.59-9.4-4.54-6.34.1-12.67.46-19,.46-4.51,0-9-.41-14.3-.67l3.84,4.63-.09.12.09.12L7,31.62C12.28,31.36,16.78,31,21.29,31Z" transform="translate(0 0)"/></svg>