<svg xmlns="http://www.w3.org/2000/svg" width="13.95" height="20.82" viewBox="0 0 13.95 20.82">
    <defs>
        <style>.a-store-marker{fill:#616161;}</style>
    </defs>
    <g transform="translate(-8)">
        <g transform="translate(8)">
            <path class="a-store-marker" d="M14.975,20.82l-.359-.519C14.346,19.91,8,10.68,8,6.975a6.975,6.975,0,1,1,13.95,0c0,3.705-6.346,12.935-6.616,13.326Zm0-19.948a6.11,6.11,0,0,0-6.1,6.1c0,2.959,4.745,10.269,6.1,12.3,1.358-2.031,6.1-9.341,6.1-12.3A6.11,6.11,0,0,0,14.975.872Z" transform="translate(-8)" />
            <g transform="translate(3.924 3.924)">
                <path class="a-store-marker" d="M20.052,15.1A3.052,3.052,0,1,1,23.1,12.052,3.055,3.055,0,0,1,20.052,15.1Zm0-5.231a2.18,2.18,0,1,0,2.18,2.18A2.182,2.182,0,0,0,20.052,9.872Z" transform="translate(-17 -9)" />
            </g>
        </g>
    </g>
</svg>
