<svg xmlns="http://www.w3.org/2000/svg" width="24.073" height="20.098" viewBox="0 0 24.073 20.098">
    <defs>
        <style>.a-basket{fill:#616161;}</style>
    </defs>
    <g transform="translate(-9 -18)">
        <path class="a-basket" d="M12.755,18.883a.25.25,0,0,1,.133.133l.309.751H10.325a.442.442,0,1,1,0-.883h2.429M32.19,22.638c-.287.95-2.142,5.411-2.761,6.913-.265.618-.42,1.016-.486,1.148-.066.2-.221.331-.287.331H18.409c-.044-.022-.11-.066-.155-.088l-3.2-8.3H32.19M12.755,18H10.325a1.325,1.325,0,1,0,0,2.65h3l4.13,10.623a1.123,1.123,0,0,0,.751.6,1.016,1.016,0,0,0,.287.044H28.656a1.3,1.3,0,0,0,1.1-.883c.243-.64,3.313-7.907,3.313-8.393a.886.886,0,0,0-.883-.883h-17.2l-1.3-3.114a1.1,1.1,0,0,0-.928-.64Z" />
        <path class="a-basket" d="M39.65,85.883a1.767,1.767,0,1,1-1.767,1.767,1.772,1.772,0,0,1,1.767-1.767m0-.883a2.65,2.65,0,1,0,2.65,2.65A2.658,2.658,0,0,0,39.65,85Z" transform="translate(-21.816 -52.203)" />
        <path class="a-basket" d="M92.65,85.883a1.767,1.767,0,1,1-1.767,1.767,1.772,1.772,0,0,1,1.767-1.767m0-.883a2.65,2.65,0,1,0,2.65,2.65A2.658,2.658,0,0,0,92.65,85Z" transform="translate(-63.111 -52.203)" />
        <circle class="a-basket" cx="0.663" cy="0.663" r="0.663" transform="translate(17.172 34.785)" />
        <circle class="a-basket" cx="0.663" cy="0.663" r="0.663" transform="translate(28.877 34.785)" />
    </g>
</svg>
