<svg xmlns="http://www.w3.org/2000/svg" width="160.5" height="18.9" viewBox="0 0 160.5 18.9">
    <g data-name="Gruppe 91">
        <path data-name="Pfad 217" d="M0 9.45h116.5" fill="#292929" stroke="#292929" stroke-width="5" stroke-dasharray="5"/>
        <path data-name="Pfad 218" d="M160.5 9.439a32.468 32.468 0 0 1-11.952-9.44 13.291 13.291 0 0 0 3.248 8.785h-4.167c-7.542 0-10.749-2.248-11.175-7.7h-14.099c.325 4.024 2.289 6.7 6.192 8.354a9.351 9.351 0 0 0-6.192 8.38h14.1c.426-5.456 3.634-7.7 11.175-7.7h4.167a13.215 13.215 0 0 0-3.249 8.781 32.609 32.609 0 0 1 11.952-9.46z" fill="#292929"/>
    </g>
</svg>
