<svg xmlns="http://www.w3.org/2000/svg" width="24.105" height="22.6" viewBox="0 0 24.105 22.6"><defs><style>.a{fill:#ef7f01;}</style></defs><g transform="translate(0 0)"><g transform="translate(0 0)"><path class="a" d="M-39.174-507c0-1.607-1.256-2.461-3.013-2.461h-5.072a15.52,15.52,0,0,0,.552-3.767c0-4.369-1.205-5.273-2.26-5.273a3.046,3.046,0,0,0-1.908.5.726.726,0,0,0-.352.5l-.753,4.068c-.8,2.159-2.863,4.018-4.52,5.273v10.747a4.549,4.549,0,0,1,1.908.653,5.89,5.89,0,0,0,2.611.8H-44.8a2.548,2.548,0,0,0,2.611-2.26,1.883,1.883,0,0,0-.05-.552,2.232,2.232,0,0,0,1.557-2.059,2.619,2.619,0,0,0-.251-1.155,2.469,2.469,0,0,0,1.155-1.858,2.1,2.1,0,0,0-.5-1.256,2.554,2.554,0,0,0,1.1-1.908Zm-1.557,0c0,.954-1,1.055-1.155,1.507-.151.5.6.7.6,1.607,0,.954-1.155.954-1.306,1.406-.2.552.352.753.352,1.657v.151c-.151.753-1.306.8-1.507,1.1-.2.352.05.552.05,1.356,0,.452-.5.753-1.1.753H-51.98a4.548,4.548,0,0,1-1.908-.653,8.486,8.486,0,0,0-1.858-.753v-7.985c1.858-1.406,4.269-3.566,5.223-6.177,0-.05,0-.1.05-.1l.7-3.767a2.092,2.092,0,0,1,.854-.1c.151,0,.753.9.753,3.767a13.89,13.89,0,0,1-.6,3.767h-.2a.772.772,0,0,0-.753.753.772.772,0,0,0,.753.753h6.78c.753,0,1.456.352,1.456.954Z" transform="translate(63.28 518.5)"/><path class="a" d="M-63.973-495.9h-4.52A1.48,1.48,0,0,1-70-497.407v-10.547a1.48,1.48,0,0,1,1.507-1.507h4.52a1.48,1.48,0,0,1,1.507,1.507v10.547a1.48,1.48,0,0,1-1.507,1.507Zm-4.52-12.053v10.547h4.52v-10.547ZM-70-518.5" transform="translate(70 518.5)"/></g></g></svg>