<svg xmlns="http://www.w3.org/2000/svg" width="105.487" height="105.487" viewBox="0 0 105.487 105.487">
    <g transform="translate(0 0)">
        <g transform="translate(11.126 0)">
            <path  d="M147.321.27a2.06,2.06,0,0,0-2.07.016L107.5,22.613a2.06,2.06,0,1,0,2.1,3.547l27.089-16.018L86.225,62.5l-25.1-7.678L93.88,35.451a2.06,2.06,0,0,0-2.1-3.547L55.011,53.648a2.06,2.06,0,0,0,.446,3.744l29.971,9.169L98.65,90.627a.487.487,0,0,0,.043.065,2.054,2.054,0,0,0,3.2.417L117.1,76.25,145.7,85a2.06,2.06,0,0,0,2.663-1.97V2.06A2.06,2.06,0,0,0,147.321.27ZM98.762,67.83A2.061,2.061,0,0,0,98.4,69v12.6L89.367,65.173,129.32,23.718Zm3.754,16.911V71.789l10.093,3.088Zm41.724-4.5L103.756,67.859,144.24,9.416Z" transform="translate(-53.999 0)" />
        </g>
        <g transform="translate(11.126 71.007)">
            <path  d="M76.75,345.252a2.061,2.061,0,0,0-2.914,0L54.6,364.485a2.06,2.06,0,0,0,2.914,2.914L76.75,348.165A2.06,2.06,0,0,0,76.75,345.252Z" transform="translate(-53.999 -344.648)" />
        </g>
        <g transform="translate(0 96.627)">
            <path  d="M8.256,469.6a2.061,2.061,0,0,0-2.914,0L.6,474.343a2.06,2.06,0,1,0,2.914,2.914l4.739-4.739A2.061,2.061,0,0,0,8.256,469.6Z" transform="translate(0 -469.001)" />
        </g>
        <g transform="translate(25.873 101.244)">
            <path  d="M129.1,492.014a2.059,2.059,0,1,0,.6,1.457A2.075,2.075,0,0,0,129.1,492.014Z" transform="translate(-125.58 -491.41)" />
        </g>
        <g transform="translate(31.015 85.915)">
            <path  d="M164.239,417.61a2.06,2.06,0,0,0-2.914,0L151.138,427.8a2.06,2.06,0,1,0,2.914,2.914l10.187-10.187A2.06,2.06,0,0,0,164.239,417.61Z" transform="translate(-150.534 -417.006)" />
        </g>
        <g transform="translate(66.146 85.133)">
            <path  d="M334.785,413.814a2.061,2.061,0,0,0-2.914,0l-10.215,10.215a2.06,2.06,0,1,0,2.914,2.914l10.215-10.215A2.061,2.061,0,0,0,334.785,413.814Z" transform="translate(-321.053 -413.211)" />
        </g>
        <g transform="translate(54.892 27.48)">
            <path  d="M269.947,133.984a2.059,2.059,0,1,0,.6,1.459A2.076,2.076,0,0,0,269.947,133.984Z" transform="translate(-266.43 -133.38)" />
        </g>
    </g>
</svg>
