<svg xmlns="http://www.w3.org/2000/svg" width="24.598" height="24.597" viewBox="0 0 24.598 24.597"><defs><style>.a{fill:#616161;}</style></defs><g transform="translate(12.299) rotate(45)"><path class="a" d="M13.164,0,0,13.164l4.229,4.229L17.393,4.229ZM4.229,16.452.941,13.164l.937-.941L3.045,13.4l.469-.469L2.34,11.752l.941-.941,1.662,1.662.462-.485L3.743,10.342,4.707,9.4l1.173,1.177.472-.472L5.176,8.933l.941-.941L7.779,9.637l.472-.472L6.605,7.52l.937-.937L8.7,7.756l.469-.469L7.992,6.11l.941-.941,1.646,1.646.469-.469L9.385,4.7l.974-.941,1.177,1.177L12,4.465,10.827,3.291l.941-.941L13.43,4l.472-.472L12.24,1.862l.941-.937,3.288,3.288Z" transform="translate(0 0)"/></g></svg>