<svg id="Ebene_1" data-name="Ebene 1" xmlns="http://www.w3.org/2000/svg" viewBox="0 0 56.69 56.69"><defs><style>.cls-1{fill:#292a2a;}.cls-2,.cls-3{fill:#fff;}.cls-2{stroke:#292a2a;stroke-miterlimit:10;stroke-width:0.25px;}</style></defs><title>service-snowboardservice</title><rect class="cls-1" width="56.69" height="56.69"/><path class="cls-2" d="M35.56,20.58" transform="translate(0 0)"/><path class="cls-2" d="M40.41,14.42" transform="translate(0 0)"/><path class="cls-2" d="M40.44,14.42" transform="translate(0 0)"/><path class="cls-2" d="M45.3,20.58" transform="translate(0 0)"/><path class="cls-2" d="M40.43,26.35" transform="translate(0 0)"/><path class="cls-2" d="M35.56,20.58" transform="translate(0 0)"/><path class="cls-2" d="M40.43,26.35" transform="translate(0 0)"/><path class="cls-2" d="M45.3,20.58" transform="translate(0 0)"/><ellipse class="cls-2" cx="40.43" cy="20.58" rx="4.87" ry="5.78"/><path class="cls-2" d="M40.44,14.42h0c0,.12,0,.25,0,.38C40.43,14.67,40.44,14.54,40.44,14.42Z" transform="translate(0 0)"/><path class="cls-3" d="M42.93,26.33" transform="translate(0 0)"/><path class="cls-3" d="M44.51,24.33" transform="translate(0 0)"/><path class="cls-3" d="M44.52,24.33" transform="translate(0 0)"/><path class="cls-3" d="M46.09,26.33" transform="translate(0 0)"/><path class="cls-3" d="M44.51,28.21" transform="translate(0 0)"/><path class="cls-3" d="M42.93,26.33" transform="translate(0 0)"/><path class="cls-3" d="M44.51,28.21" transform="translate(0 0)"/><path class="cls-3" d="M46.09,26.33" transform="translate(0 0)"/><ellipse class="cls-3" cx="44.51" cy="26.33" rx="1.58" ry="1.88"/><path class="cls-3" d="M44.52,24.33h0v.12A.49.49,0,0,1,44.52,24.33Z" transform="translate(0 0)"/><path class="cls-3" d="M45.3,19" transform="translate(0 0)"/><path class="cls-3" d="M46.88,17" transform="translate(0 0)"/><path class="cls-3" d="M46.89,17" transform="translate(0 0)"/><path class="cls-3" d="M48.47,19" transform="translate(0 0)"/><path class="cls-3" d="M46.89,20.89" transform="translate(0 0)"/><path class="cls-3" d="M45.3,19" transform="translate(0 0)"/><path class="cls-3" d="M46.89,20.89" transform="translate(0 0)"/><path class="cls-3" d="M48.47,19" transform="translate(0 0)"/><ellipse class="cls-3" cx="46.89" cy="19.01" rx="1.58" ry="1.88"/><path class="cls-3" d="M46.89,17h0s0,.08,0,.13Z" transform="translate(0 0)"/><path class="cls-3" d="M24.59,56.69H36.72c0-12.31-.07-24.63.07-36.94.07-6.19-2.11-10.22-6.14-10.25s-6.2,4.06-6.13,10.25C24.65,32.06,24.56,44.38,24.59,56.69Z" transform="translate(0 0)"/><path class="cls-3" d="M19.51,4.77A14.84,14.84,0,0,0,18.82,0H6.8a15.12,15.12,0,0,0-.68,4.77c.14,9.35.67,18.7.67,28.05,0,6.65-.6,13.31-1,21.11l6.84-5.67.17.13.18-.13,6.84,5.67c-.39-7.8-1-14.46-1-21.11C18.84,23.47,19.37,14.12,19.51,4.77Z" transform="translate(0 0)"/></svg>