<svg id="Ebene_1" data-name="Ebene 1" xmlns="http://www.w3.org/2000/svg" viewBox="0 0 56.69 56.69"><defs><style>.cls-1{fill:#292a2a;}.cls-2,.cls-3{fill:#fff;}.cls-3{stroke:#292a2a;stroke-miterlimit:10;stroke-width:0.25px;}</style></defs><title>service-skiservice</title><rect class="cls-1" width="56.69" height="56.69"/><path class="cls-2" d="M18.63,23.28c.18-7.76.31-15.52.5-23.28H12.5q.32,10.34.62,20.67c.07,2.63.39,5.33-1,7.79-.07.14.09.4.13.6l.32-.08c.15-.67.31-1.34.46-2,0,6.22-.13,12.42-.3,18.62-.05,1.94-.2,3.89-.23,5.84,0,1.69.81,2.49,2.48,2.5h1.68c1.93,0,2.74-.89,2.67-2.86Q19,39.7,18.66,28.32c0-.38,0-.76,0-1.13h.12L19.23,29h.32c0-.29.1-.63,0-.85A9.84,9.84,0,0,1,18.63,23.28Z" transform="translate(0 0)"/><path class="cls-2" d="M24,48.15c0,2.83.49,5.72.06,8.54h5.58q.21-15.51.6-31c.11-4.13.41-8.25.59-12.38A6.33,6.33,0,0,0,28.9,8c-1.44-1.31-2.59-1.31-4,0a6.24,6.24,0,0,0-1.95,5.12c.09,2.3.27,4.6.34,6.9C23.55,29.39,23.92,38.77,24,48.15Z" transform="translate(0 0)"/><path class="cls-3" d="M28.64,20.58" transform="translate(0 0)"/><path class="cls-3" d="M33.5,14.42" transform="translate(0 0)"/><path class="cls-3" d="M33.53,14.42" transform="translate(0 0)"/><path class="cls-3" d="M38.39,20.58" transform="translate(0 0)"/><path class="cls-3" d="M33.51,26.35" transform="translate(0 0)"/><path class="cls-3" d="M28.64,20.58" transform="translate(0 0)"/><path class="cls-3" d="M33.51,26.35" transform="translate(0 0)"/><path class="cls-3" d="M38.39,20.58" transform="translate(0 0)"/><ellipse class="cls-3" cx="33.51" cy="20.58" rx="4.87" ry="5.78"/><path class="cls-3" d="M33.53,14.42h0c0,.12,0,.25,0,.38C33.51,14.67,33.52,14.54,33.53,14.42Z" transform="translate(0 0)"/><path class="cls-2" d="M36,26.33" transform="translate(0 0)"/><path class="cls-2" d="M37.59,24.33" transform="translate(0 0)"/><path class="cls-2" d="M37.6,24.33" transform="translate(0 0)"/><path class="cls-2" d="M39.18,26.33" transform="translate(0 0)"/><path class="cls-2" d="M37.6,28.21" transform="translate(0 0)"/><path class="cls-2" d="M36,26.33" transform="translate(0 0)"/><path class="cls-2" d="M37.6,28.21" transform="translate(0 0)"/><path class="cls-2" d="M39.18,26.33" transform="translate(0 0)"/><ellipse class="cls-2" cx="37.6" cy="26.33" rx="1.58" ry="1.88"/><path class="cls-2" d="M37.6,24.33h0s0,.08,0,.12Z" transform="translate(0 0)"/><path class="cls-2" d="M38.39,19" transform="translate(0 0)"/><path class="cls-2" d="M40,17" transform="translate(0 0)"/><path class="cls-2" d="M40,17" transform="translate(0 0)"/><path class="cls-2" d="M41.56,19" transform="translate(0 0)"/><path class="cls-2" d="M40,20.89" transform="translate(0 0)"/><path class="cls-2" d="M38.39,19" transform="translate(0 0)"/><path class="cls-2" d="M40,20.89" transform="translate(0 0)"/><path class="cls-2" d="M41.56,19" transform="translate(0 0)"/><ellipse class="cls-2" cx="39.97" cy="19.01" rx="1.58" ry="1.88"/><path class="cls-2" d="M40,17h0v.13C40,17.09,40,17.05,40,17Z" transform="translate(0 0)"/></svg>