<svg id="Ebene_1" data-name="Ebene 1" xmlns="http://www.w3.org/2000/svg" viewBox="0 0 56.69 56.69"><defs><style>.cls-1{fill:#292a2a;}.cls-2{fill:#fff;}</style></defs><title>service-schuhanpassung</title><rect class="cls-1" width="56.69" height="56.69"/><path class="cls-2" d="M13.32,42.44l0-.08c0-.69.08-1.38.08-2.07s-.06-1.16.77-1.24c-.08-.8-.18-1.55-.2-2.3a3.35,3.35,0,0,0-.76-1.92,5.05,5.05,0,0,1-.94-2.45,9.41,9.41,0,0,1,.33-3.7c.31-1.1.75-2.16,1.15-3.24q1.79-4.86,3.59-9.74l1-2.73,1,.33c.22-.57.41-1.11.65-1.62a8.51,8.51,0,0,1,.57-.9l.52-.16a3.23,3.23,0,0,1,2.57,1.51c.38.56.64,1.19,1,1.76a8.25,8.25,0,0,0,2.75,2.76c.65.38,1.31.73,2,1.09l2.89,1.54c-.06.13-.1.24-.15.35q-1.91,4.22-3.83,8.44a.78.78,0,0,0-.1.36c.07.76.1,1.57,1.1,1.78a.93.93,0,0,1,.34.18.59.59,0,0,0,.92-.13.45.45,0,0,1,.64-.13c.55.27,1.12.48,1.68.72l1.15.49-.73,1.14,1.65,1,.84-.93c.57.41,1.11.86,1.7,1.22s.87.68.51,1.33c0,0,0,.07,0,.14l1.39.82c.25.14.52.27.78.4l.06.22c-.08.57-.17,1.14-.25,1.71s-.28.93-.13,1.28.68.56,1,.85A.8.8,0,0,1,41,41c.06.7.09,1.4.13,2.1l-.22.07c-.1,0-.2,0-.3,0H31.39c-.08-.42-.13-.82-.23-1.2a.44.44,0,0,0-.3-.25c-1.5-.07-3-.13-4.5-.17a.4.4,0,0,0-.31.18c-.19.35-.34.73-.54,1.07a.47.47,0,0,1-.35.2c-.71,0-1.41,0-2.11-.07ZM25.09,31.1c0-.12,0-.22,0-.32,0-.51,0-.51.49-.6L27,29.93l-.19-1.38L25,28.94,25,28.15,19,29l.71,3.16Zm2.45-9.92-5.19-1.95L20.78,22l5.54,1.89.3-.8,1.84.69.47-1.29-1.69-.61Zm3,15.18,2.23-3.56-.63-.43-2.24,2.85-.73-.34,1.48-3.36L30,31.28,27.7,35.17Zm3.53,1,1.46-3.28-.64-.28-2.24,3.92,2.76,1.18,2.06-3.58L36.62,35l-1.87,2.74Z" transform="translate(0.04 0)"/><path class="cls-2" d="M48.48,45.44v-.51H9.59V44.6H48.48v-.51l1.17.68Z" transform="translate(0.04 0)"/><path class="cls-2" d="M10.94,7.55h-.51V45.44H10.1V7.55H9.59l.67-1.17Z" transform="translate(0.04 0)"/></svg>