<svg id="Ebene_1" data-name="Ebene 1" xmlns="http://www.w3.org/2000/svg" viewBox="0 0 56.69 56.69"><defs><style>.cls-1{fill:#292a2a;}.cls-2{fill:#fff;}</style></defs><title>service-fellanpassung</title><rect class="cls-1" width="56.69" height="56.69"/><path class="cls-2" d="M13.25,27.35q4.66,3.82,9.32,7.67c.22.17.36.1.54,0l9.29-5.37c3.8-2.19,7.61-4.35,11.38-6.59a5.57,5.57,0,0,0,2.82-5.86,5.67,5.67,0,0,0-4.08-4.86c-.37-.13-.76-.19-1.13-.28H40.06a9.27,9.27,0,0,0-2.91,1.15c-4.76,2.77-9.53,5.51-14.29,8.26l-.41.23a3.94,3.94,0,0,1-.29-.5.56.56,0,0,0-.65-.36,6.44,6.44,0,0,0-4.76,2.57c-.34.43-.52.83-.08,1.29a1.33,1.33,0,0,1,.14.27L13,27.15ZM41.09,16.5A2.35,2.35,0,0,1,42,19.3l-3.66-2.57A2.25,2.25,0,0,1,41.09,16.5Zm-3.41,1.19q1.83,1.29,3.67,2.57a2.31,2.31,0,0,1-3.67-2.57Z" transform="translate(0 0)"/><path class="cls-2" d="M47.57,38.34H16.39l0-.09,4.76-2.76c-.48-.4-.93-.73-1.34-1.11a.55.55,0,0,0-.8-.06c-1.73,1-3.51,2-5.21,3a5.52,5.52,0,0,1-3.66,1,14.6,14.6,0,0,0-1.87,0v1.79h40V38.39C48,38.37,47.8,38.34,47.57,38.34Z" transform="translate(0 0)"/><path class="cls-2" d="M13.66,29.35c-.47,2.62-.92,5.17-1.39,7.81l6.39-3.7Z" transform="translate(0 0)"/></svg>