<svg id="Ebene_1" xmlns="http://www.w3.org/2000/svg" viewBox="0 0 250.72 113.04">
    <path d="M67.03 28.19s-.13-.02-.39-.05c-.4-.05-.8-.13-1.2-.23-.52-.14-.91-.26-1.17-.36-.12-.03-.49-.21-1.09-.52-.42-.23-.76-.43-1.04-.62-.26-.16-.59-.39-.99-.7-.09-.09-.13-.17-.13-.26s.03-.16.08-.23c.16-.19.28-.35.36-.47.09-.12.19-.25.31-.39l.7-.83.68-.83c.05-.09.14-.13.26-.13.09 0 .17.03.26.08l.94.62c.33.17.67.33 1.01.47.5.17.87.28 1.09.31.33.05.7.08 1.12.08.47 0 .86-.04 1.17-.13.48-.12.83-.31 1.04-.57.29-.29.44-.66.44-1.09 0-.38-.15-.72-.44-1.01-.23-.24-.52-.48-.88-.7-.29-.16-.63-.31-1.01-.47-.17-.09-.52-.23-1.04-.44-.16-.07-.33-.14-.52-.21-.19-.07-.4-.16-.62-.26-.09-.03-.46-.22-1.12-.55-.1-.05-.27-.14-.51-.27-.23-.13-.43-.26-.58-.38-.31-.23-.62-.49-.91-.81-.31-.33-.56-.67-.75-1.01-.23-.42-.38-.81-.47-1.17-.07-.35-.1-.78-.1-1.3 0-.43.03-.81.1-1.14.09-.47.21-.86.36-1.17.23-.43.44-.78.65-1.04.31-.36.6-.66.86-.88.28-.21.62-.42 1.04-.62.35-.21.73-.37 1.14-.49.45-.14.84-.23 1.17-.26.36-.07.77-.1 1.22-.1.52 0 .96.03 1.33.1.31.03.75.14 1.3.31.4.12.81.29 1.22.52.31.17.68.42 1.09.73.33.23.68.51 1.04.86.07.1.1.19.1.26 0 .1-.03.19-.1.26l-.75.78c-.14.14-.26.26-.38.35-.11.1-.25.23-.4.4l-.75.78c-.07.07-.16.1-.26.1s-.19-.03-.26-.1c-.03-.03-.14-.13-.31-.29-.17-.16-.36-.29-.57-.42-.4-.24-.75-.4-1.07-.47-.29-.07-.68-.1-1.14-.1-.43 0-.79.04-1.07.13-.38.09-.7.23-.96.44-.3.24-.44.56-.44.94 0 .43.23.81.68 1.12.21.17.61.4 1.2.68.14.05.31.13.51.22.2.1.45.2.74.32l1.09.44c.49.21.84.37 1.07.49.16.07.49.27 1.01.6.33.21.64.44.94.7.31.31.57.61.78.88.16.21.34.56.55 1.04.14.38.24.76.31 1.14.07.45.1.81.1 1.09 0 .31-.05.75-.16 1.3-.1.43-.24.83-.42 1.2-.19.38-.42.73-.68 1.04-.31.38-.61.68-.88.88-.31.23-.66.45-1.04.68-.33.16-.72.29-1.17.42-.35.12-.75.21-1.22.26-.26.05-.68.08-1.25.08-.55-.03-.82-.03-.82-.03zM76 27.77c-.05-.08-.06-.16-.03-.25.1-.35.16-.55.16-.6l.18-.57c.07-.24.14-.44.21-.6l.18-.57c.1-.28.18-.5.22-.66.04-.16.09-.34.14-.53.07-.21.13-.39.19-.55.06-.16.13-.36.19-.62l.36-1.17c.17-.52.3-.91.39-1.17.05-.16.09-.28.12-.38.03-.09.05-.17.06-.22 0 .05.05-.15.16-.6l.21-.57.21-.6.36-1.17c.14-.38.27-.77.39-1.17.07-.23.13-.42.17-.58.04-.16.1-.36.17-.58.07-.21.13-.39.19-.55.06-.16.13-.36.22-.62l.36-1.2.36-1.17c.07-.21.13-.39.19-.55.06-.16.13-.36.2-.62l.36-1.17c.09-.22.24-.34.47-.34h2.44c.24 0 .45 0 .61-.01s.37-.01.61-.01c.1 0 .2.04.3.1.1.07.16.16.19.26.07.23.13.42.17.59s.1.36.17.58l.21.6.21.57c.1.35.16.55.16.6.09.26.15.46.18.6l.21.57.21.57.36 1.2.36 1.17.36 1.17.39 1.17c.1.28.18.5.22.66.04.17.09.34.14.53.03.09.16.48.36 1.17l.42 1.17c.1.35.16.55.16.6l.18.57c.07.26.13.47.19.62.06.16.13.34.2.55l.39 1.2.36 1.17c.07.21.13.39.19.55.06.16.13.36.2.62v.08c0 .07-.03.13-.09.18-.06.05-.13.08-.19.08-.23 0-.42 0-.57.01-.16.01-.36.01-.6.01h-1.17c-.24 0-.44 0-.6-.01-.16-.01-.35-.01-.57-.01-.1 0-.2-.03-.3-.09s-.15-.14-.17-.25c-.14-.43-.27-.88-.39-1.33l-.42-1.3-.36-1.33c-.04-.12-.11-.18-.23-.18-.33 0-.56.01-.68.03h-1.33c-.1-.02-.32-.03-.65-.03l-1.35.03h-1.33c-.12 0-.2.05-.23.16-.14.43-.27.88-.39 1.33l-.39 1.3c-.05.21-.1.4-.14.58-.04.18-.12.43-.22.74-.02.1-.07.19-.17.25s-.2.09-.32.09h-2.34c-.24 0-.44 0-.6.01-.16.01-.35.01-.57.01-.05-.01-.12-.05-.17-.12zm7.72-8.05H85.83c.05 0 .09-.02.12-.05s.03-.07.01-.1l-.34-1.14c-.05-.19-.1-.36-.13-.51-.04-.15-.1-.35-.18-.61-.07-.23-.13-.41-.17-.56-.04-.15-.1-.33-.17-.56-.1-.38-.22-.75-.34-1.12-.07-.24-.13-.44-.18-.58-.05-.15-.1-.33-.16-.53 0-.03-.01-.05-.04-.05s-.04.02-.04.05l-.36 1.12-.13.55-.16.57-.18.57c-.07.17-.13.36-.18.55l-.31 1.12-.34 1.14c-.02.03-.01.07.01.12.03.04.06.06.12.06l1.04-.04zM97.93 27.78c-.08-.07-.13-.16-.17-.26-.12-.4-.25-.79-.39-1.17l-.36-1.17-.39-1.2-.36-1.17-.36-1.17-.36-1.17c-.03-.14-.1-.34-.18-.6l-.21-.57c-.05-.19-.1-.37-.14-.53-.04-.16-.12-.39-.22-.66l-.36-1.17-.36-1.17c-.14-.38-.27-.77-.39-1.17l-.36-1.17-.36-1.17-.36-1.2-.4-1.17c-.17-.52-.3-.91-.39-1.17v-.08c0-.07.03-.13.08-.2.05-.06.11-.09.18-.09h1.2c.23 0 .42 0 .57.01.16.01.35.01.6.01h1.17c.26 0 .42.11.47.34l.36 1.17c.1.4.22.79.34 1.17l.36 1.17c.02.1.14.49.36 1.17l.34 1.2.36 1.17c.12.38.23.77.34 1.17l.36 1.17c.12.38.23.77.34 1.17l.34 1.17.36 1.17c0 .02.01.03.04.03s.04-.01.04-.03l.36-1.17.36-1.17c.07-.24.13-.44.17-.6.04-.16.1-.35.17-.57l.36-1.17c.1-.4.22-.79.34-1.17l.34-1.17c.07-.21.13-.39.18-.55.05-.16.11-.36.18-.62l.36-1.2c.05-.21.1-.39.16-.55.05-.16.11-.36.18-.62l.36-1.17.34-1.17c.03-.1.1-.19.18-.26.09-.07.18-.1.29-.1h1.17l1.2.03h.57c.1-.02.3-.03.6-.03.09 0 .16.04.21.12.05.08.07.16.05.25l-.36 1.17c-.07.26-.13.47-.19.62-.06.16-.13.34-.19.55-.05.19-.1.37-.14.53-.04.17-.12.39-.22.66l-.39 1.17-.36 1.17-.36 1.17-.36 1.17c-.07.26-.13.47-.19.62-.06.16-.13.34-.2.55-.1.45-.16.65-.16.6l-.18.6c-.07.21-.13.39-.19.55-.06.16-.13.36-.2.62l-.36 1.17c-.05.16-.09.28-.12.38-.03.1-.05.17-.06.22l-.16.57c-.07.26-.13.47-.2.62-.06.16-.13.34-.19.55-.07.26-.13.47-.19.62-.06.16-.13.34-.2.55l-.36 1.2-.39 1.17c-.03.1-.09.19-.17.26-.08.07-.17.1-.27.1l-1.2-.03c-.23 0-.42 0-.57.01-.16.01-.36.01-.6.01h-1.17c-.14.01-.24-.02-.32-.09zM116.06 27.88h-2.52c-.24 0-.45 0-.62-.01-.17-.01-.39-.01-.65-.01h-1.25c-.1 0-.19-.03-.26-.1s-.1-.16-.1-.26v-1.25l-.03-1.25v-1.25c0-.31.01-.52.03-.62v-4.4l-.03-1.25c0-.31.01-.52.03-.62v-.62l-.03-1.25V10l.03-1.25c0-.1.03-.2.1-.27.07-.08.16-.12.26-.12h1.22c.26 0 .48 0 .65.01s.39.01.65.01H117.18l1.25-.03H120.9c.24 0 .45 0 .61.01.16.01.37.01.61.01.1 0 .19.04.26.1.07.07.1.15.1.23l.03 1.09-.03 1.09c0 .21 0 .38.01.52s.01.32.01.55c0 .1-.04.19-.12.26-.08.07-.17.1-.27.1H120.31l-.6.03c-.24 0-.45 0-.61-.01-.17-.01-.37-.01-.61-.01H114.89c-.05 0-.1.02-.14.05-.04.04-.06.08-.06.13v1.07c0 .23 0 .41.01.55.01.14.01.31.01.52s0 .38-.01.52-.01.32-.01.55c0 .05.02.1.06.13.04.04.09.05.14.05H120.55c.1 0 .19.03.26.1s.1.16.1.26c0 .29 0 .54-.01.74s-.01.45-.01.74 0 .54.01.74c.01.2.01.45.01.74 0 .1-.03.19-.1.27s-.16.12-.26.12h-1.14c-.23 0-.42 0-.57-.01-.16-.01-.34-.01-.55-.01l-1.14.03-1.14-.03h-1.12c-.05 0-.1.02-.14.05-.04.03-.06.08-.06.13 0 .33.01.55.03.68V22.39l-.03 1.3c0 .05.02.1.06.14.04.04.09.06.14.06l1.25-.03 1.25.03 1.25-.03h1.87c.1.02.31.03.62.03l1.25-.03c.1 0 .19.04.26.12.07.08.1.17.1.27v2.68l.03.55c0 .1-.04.19-.12.26-.08.07-.17.1-.27.1h-2.52c-.26 0-.48 0-.65.01-.17.01-.38.01-.62.01H116.06zM137.98 28.14c-.31-.04-.72-.12-1.22-.26-.52-.17-.91-.32-1.17-.44-.42-.21-.76-.42-1.04-.62-.35-.26-.67-.53-.96-.81-.19-.19-.46-.51-.81-.96-.28-.38-.5-.73-.68-1.04-.19-.35-.36-.72-.52-1.12-.1-.26-.23-.65-.36-1.17-.04-.12-.09-.3-.16-.55-.07-.24-.11-.47-.13-.68-.07-.38-.12-.79-.16-1.22-.03-.55-.05-.97-.05-1.25 0-.55.01-.96.03-1.22l.18-1.22c.1-.55.19-.95.26-1.2.09-.31.23-.7.42-1.17.19-.47.36-.84.52-1.12.1-.23.33-.56.68-1.01.29-.38.56-.69.81-.94.1-.09.25-.21.43-.38.18-.16.35-.3.51-.4.31-.23.67-.43 1.07-.62.29-.12.68-.26 1.17-.42.4-.1.8-.18 1.2-.23.52-.07.93-.1 1.22-.1.22 0 .46.02.71.05.25.04.43.06.53.08.52.07.92.14 1.2.21.35.09.73.23 1.14.44.47.23.83.42 1.09.6.22.16.55.41.96.75.1.1.37.42.81.94.31.45.54.8.68 1.04.19.35.36.72.52 1.12.16.36.29.75.39 1.17.14.52.23.92.29 1.2.05.26.1.67.13 1.22.04.26.05.67.05 1.22 0 .56-.01.97-.03 1.25-.02.31-.06.72-.13 1.22-.02.12-.12.53-.31 1.22-.07.26-.14.49-.21.68-.07.19-.13.36-.18.49-.16.4-.33.77-.52 1.12-.23.4-.45.75-.68 1.07-.24.36-.51.68-.81.94-.28.28-.6.55-.96.81-.24.17-.6.37-1.07.6-.35.17-.73.33-1.14.47-.5.14-.91.23-1.22.26-.4.05-.82.08-1.25.08-.42-.02-.83-.05-1.23-.1zm2.45-4.16c.38-.09.75-.25 1.09-.49.29-.21.58-.49.86-.86.24-.31.44-.66.6-1.04.16-.36.29-.75.39-1.14.12-.45.19-.85.21-1.2.04-.28.05-.63.05-1.07 0-.55-.02-1.01-.05-1.35-.09-.55-.16-.94-.21-1.17-.07-.36-.19-.75-.36-1.14-.12-.28-.33-.62-.62-1.01-.33-.36-.62-.62-.88-.78-.35-.24-.71-.41-1.09-.49-.31-.09-.71-.13-1.2-.13-.38 0-.77.04-1.17.13-.38.09-.75.25-1.09.49-.31.19-.6.46-.86.81-.29.4-.5.74-.62 1.01-.14.29-.26.67-.36 1.12-.1.42-.18.81-.23 1.17-.03.36-.05.81-.05 1.35 0 .16.02.51.05 1.07.07.54.14.94.21 1.2.09.29.23.67.42 1.12.17.42.37.76.6 1.04.24.36.52.65.83.86.36.26.73.43 1.09.52.31.09.71.13 1.2.13.48-.02.89-.06 1.19-.15zM152.98 27.88s-.08 0-.23-.01c-.16-.01-.34-.01-.55-.01-.23 0-.42 0-.57.01-.16.01-.34.01-.55.01-.1 0-.19-.04-.26-.12-.07-.08-.1-.17-.1-.27V24.38c-.02-.1-.03-.31-.03-.62s.01-.52.03-.62v-3.16l-.03-1.25v-1.25c0-.31.01-.52.03-.62v-1.24l-.03-.62v-1.25l.03-1.25v-.62l-.03-.62.03-1.25V8.72c0-.09.03-.16.1-.23s.16-.1.26-.1h2.24c.21 0 .39 0 .55-.01s.34-.01.55-.01c.24 0 .43.11.57.34l.6 1.09c.12.23.22.41.3.56.08.15.18.33.3.56.21.36.41.74.6 1.12l.65 1.09.6 1.09c.1.21.2.39.27.53.08.15.19.34.32.58l.62 1.12.6 1.09c.1.19.2.36.3.51.09.15.2.35.33.61.14.24.25.44.32.58.08.15.17.33.27.53h.05c.04 0 .05-.01.05-.03v-.62c-.02-.12-.03-.36-.03-.73 0-.19 0-.36.01-.52.01-.16.01-.35.01-.6V15.45c-.02-.1-.03-.31-.03-.62 0-.24 0-.45.01-.61.01-.16.01-.37.01-.61v-3.04c-.02-.1-.03-.31-.03-.62 0-.24 0-.45.01-.61.01-.16.01-.37.01-.61 0-.09.03-.17.1-.25.07-.08.16-.12.26-.12H164.86c.09 0 .17.04.25.12.08.08.12.16.12.25V24.39c-.02.1-.03.31-.03.62l.03 1.25-.03 1.25c0 .1-.04.19-.1.26-.07.07-.15.1-.23.1h-1.69c-.09.02-.27.03-.55.03-.21 0-.39 0-.55-.01-.16-.01-.35-.01-.57-.01-.26 0-.44-.1-.55-.31l-.62-1.12-.6-1.09c-.1-.17-.3-.55-.6-1.12l-.62-1.12-.62-1.09-.6-1.09-.31-.57c-.05-.14-.15-.32-.29-.55l-.6-1.12-.62-1.09c-.1-.19-.2-.36-.3-.51-.09-.15-.2-.35-.32-.61l-.05-.03c-.04 0-.05.02-.05.05 0 .24 0 .45.01.61.01.17.01.37.01.61v6.1c0 .24 0 .45-.01.61-.01.17-.01.37-.01.61s0 .45.01.61.01.37.01.61v1.22c0 .1-.04.19-.12.26-.08.07-.16.1-.25.1-.23 0-.42 0-.57.01-.16.01-.34.01-.55.01-.19.01-.31.01-.31.01zM179.76 27.82c-.04-.04-.05-.09-.05-.14 0-.16 0-.29-.01-.42-.01-.12-.01-.27-.01-.44 0-.16 0-.29.01-.42.01-.12.01-.27.01-.44v-1.72l-.03-.88v-.86c0-.16 0-.29.01-.42.01-.12.01-.27.01-.44v-.86c0-.09-.01-.15-.03-.18-.07-.16-.2-.44-.39-.86l-.42-.86-.37-.88-.44-.83c-.05-.14-.1-.27-.14-.39-.04-.12-.12-.29-.22-.49-.09-.17-.16-.32-.22-.44s-.13-.26-.2-.42c-.14-.28-.27-.56-.39-.86-.09-.17-.15-.32-.2-.43s-.11-.26-.19-.43c-.09-.19-.16-.34-.21-.46-.05-.11-.11-.25-.18-.4l-.42-.85-.39-.88c-.09-.17-.16-.32-.21-.44-.05-.12-.11-.26-.18-.42l-.42-.86c-.09-.17-.15-.32-.2-.43-.04-.11-.11-.26-.2-.43-.02-.03-.01-.07.01-.1.03-.03.06-.05.09-.05h1.01l1.04-.03c.19 0 .36 0 .49.01s.31.01.52.01.38 0 .52-.01.3-.01.49-.01c.14 0 .23.06.29.18.07.16.13.29.17.42.04.12.1.26.17.42l.34.81.18.36c.05.1.11.25.18.44l.36.83.34.83c.07.17.13.31.17.42s.1.23.17.39l.34.83c.07.16.13.29.19.4s.13.25.2.4c.03.09.16.36.36.81 0 .02.01.03.03.04s.03 0 .03-.01l.36-.83c.05-.14.1-.26.16-.38.05-.11.11-.26.18-.43l.34-.83.34-.83.36-.81c.07-.19.13-.34.19-.46.06-.11.12-.24.17-.38.16-.38.27-.65.34-.81.07-.16.13-.29.18-.39s.11-.24.18-.42l.36-.83c.07-.12.15-.18.23-.18h2.05c.19 0 .36 0 .49.01s.31.01.52.01h1.01c.05 0 .09.02.12.05.03.03.03.07.01.1-.09.19-.16.34-.21.46s-.11.25-.18.4l-.42.86c-.09.19-.16.34-.21.46-.05.11-.11.25-.18.4l-.34.9-.42.86c-.19.42-.32.7-.39.86-.12.29-.25.58-.39.86l-.42.86c-.07.16-.13.29-.18.42-.05.12-.12.27-.21.44l-.42.86-.37.84-.42.88-.39.86c-.05.14-.1.27-.14.39-.04.12-.12.29-.22.49-.04.07-.05.12-.05.16 0 .17 0 .32-.01.44s-.01.26-.01.42v.86l.03.88v4.3c0 .12-.06.18-.18.18l-.94.03h-.94c-.19 0-.35 0-.47-.01s-.27-.01-.44-.01l-.94.03c-.06-.02-.1-.04-.14-.08zM197.21 28.14c-.31-.04-.72-.12-1.22-.26-.52-.17-.91-.32-1.17-.44-.42-.21-.76-.42-1.04-.62-.35-.26-.67-.53-.96-.81-.19-.19-.46-.51-.81-.96-.28-.38-.5-.73-.68-1.04-.19-.35-.36-.72-.52-1.12-.1-.26-.23-.65-.36-1.17-.04-.12-.09-.3-.16-.55-.07-.24-.11-.47-.13-.68-.07-.38-.12-.79-.16-1.22-.04-.55-.05-.97-.05-1.25 0-.55.01-.96.03-1.22l.18-1.22c.1-.55.19-.95.26-1.2.09-.31.22-.7.42-1.17.19-.47.36-.84.52-1.12.1-.23.33-.56.68-1.01.29-.38.56-.69.81-.94.1-.09.25-.21.43-.38.18-.16.35-.3.51-.4.31-.23.67-.43 1.07-.62.29-.12.68-.26 1.17-.42.4-.1.8-.18 1.2-.23.52-.07.93-.1 1.22-.1.23 0 .46.02.71.05.25.04.43.06.53.08.52.07.92.14 1.2.21.35.09.73.23 1.14.44.47.23.83.42 1.09.6.23.16.55.41.96.75.1.1.37.42.81.94.31.45.54.8.68 1.04.19.35.36.72.52 1.12.16.36.29.75.39 1.17.14.52.23.92.29 1.2.05.26.09.67.13 1.22.03.26.05.67.05 1.22 0 .56-.01.97-.03 1.25-.02.31-.06.72-.13 1.22-.02.12-.12.53-.31 1.22-.07.26-.14.49-.21.68-.07.19-.13.36-.18.49-.16.4-.33.77-.52 1.12-.23.4-.45.75-.68 1.07-.24.36-.51.68-.81.94-.28.28-.6.55-.96.81-.24.17-.6.37-1.07.6-.35.17-.73.33-1.14.47-.5.14-.91.23-1.22.26-.4.05-.81.08-1.25.08-.42-.02-.83-.05-1.23-.1zm2.44-4.16c.38-.09.75-.25 1.09-.49.29-.21.58-.49.86-.86.24-.31.44-.66.6-1.04.16-.36.29-.75.39-1.14.12-.45.19-.85.21-1.2.03-.28.05-.63.05-1.07 0-.55-.02-1.01-.05-1.35-.09-.55-.16-.94-.21-1.17-.07-.36-.19-.75-.36-1.14-.12-.28-.33-.62-.62-1.01-.33-.36-.62-.62-.88-.78-.35-.24-.71-.41-1.09-.49-.31-.09-.71-.13-1.2-.13-.38 0-.77.04-1.17.13-.38.09-.75.25-1.09.49-.31.19-.6.46-.86.81-.29.4-.5.74-.62 1.01-.14.29-.26.67-.36 1.12-.1.42-.18.81-.23 1.17-.04.36-.05.81-.05 1.35 0 .16.02.51.05 1.07.07.54.14.94.21 1.2.09.29.22.67.42 1.12.17.42.37.76.6 1.04.24.36.52.65.83.86.36.26.73.43 1.09.52.31.09.71.13 1.2.13.49-.02.9-.06 1.19-.15zM215.98 28.17c-.47-.07-.87-.16-1.2-.26-.45-.12-.82-.26-1.12-.42-.36-.16-.7-.36-1.01-.62-.38-.29-.68-.57-.88-.83-.28-.29-.51-.62-.7-.96-.21-.4-.38-.76-.52-1.09-.09-.24-.2-.62-.34-1.14-.02-.12-.06-.3-.12-.55-.06-.24-.1-.46-.12-.65-.07-.45-.11-.85-.13-1.2-.02-.24-.03-.64-.03-1.2v-3.51c0-.22 0-.42-.01-.57-.01-.16-.01-.35-.01-.6 0-.23 0-.42.01-.57.01-.16.01-.35.01-.6V9.32c-.02-.1-.03-.29-.03-.57 0-.1.04-.2.12-.27.08-.08.17-.12.27-.12h1.12c.21 0 .39 0 .55.01s.35.01.57.01c.21 0 .39 0 .55-.01s.35-.01.57-.01c.09 0 .17.04.26.12.09.08.13.17.13.27l-.03.57-.03.57c0 .24 0 .44.01.6.01.16.01.35.01.57 0 .24 0 .44-.01.6-.01.16-.01.35-.01.57 0 .24 0 .44.01.6.01.16.01.35.01.57v4.68c0 .24 0 .44-.01.6-.01.16-.01.35-.01.57 0 .31.02.69.05 1.14 0 .12.05.49.16 1.12.09.52.19.88.31 1.09.14.38.35.69.62.94.29.24.63.41 1.01.49.33.07.71.1 1.14.1.47 0 .84-.04 1.12-.13.47-.1.81-.26 1.01-.47.23-.17.43-.49.62-.94.14-.33.24-.69.31-1.09.05-.24.09-.61.13-1.12.03-.49.05-.87.05-1.14v-3.5c0-.22 0-.42.01-.57.01-.16.01-.35.01-.6V13.4c0-.23 0-.42-.01-.57-.01-.16-.01-.36-.01-.6 0-.23 0-.42-.01-.57-.01-.16-.01-.35-.01-.6V8.75c0-.1.04-.19.12-.26.08-.07.17-.1.27-.1.21 0 .39 0 .55-.01.16-.01.35-.01.57-.01h2.24c.1 0 .19.04.26.12.07.08.1.17.1.27V14.58c0 .24 0 .44.01.6.01.16.01.35.01.57 0 .24 0 .44-.01.6-.01.16-.01.35-.01.57v1.17c0 .24 0 .44.01.6.01.16.01.35.01.57 0 .28-.02.68-.05 1.2-.02.35-.06.75-.13 1.2-.05.4-.13.8-.23 1.2-.05.29-.17.68-.34 1.14-.14.33-.31.69-.52 1.09-.28.45-.5.78-.68.99-.21.26-.5.53-.88.81-.31.23-.65.43-1.01.62-.35.17-.73.31-1.14.42-.36.1-.75.18-1.17.23-.38.05-.78.08-1.2.08-.51-.02-.91-.04-1.17-.07zM228.44 27.88c-.1 0-.19-.04-.26-.12-.07-.08-.1-.17-.1-.27v-6.24l-.03-1.25v-1.27l.03-1.25v-2.5l-.03-1.25.03-1.25-.03-1.25V10l.03-1.25c0-.1.04-.2.1-.27.07-.08.16-.12.26-.12h1.22l1.2.03h2.44c.24 0 .45 0 .61-.01s.37-.01.61-.01c.26 0 .49.01.68.03.19.02.36.04.49.05.5.07.9.13 1.2.18.26.05.63.17 1.12.34.45.17.81.34 1.09.49.28.17.59.42.94.73.31.26.58.56.81.88.21.29.39.65.55 1.07.16.42.27.79.34 1.12.03.26.05.66.05 1.2 0 .52-.04.96-.1 1.33-.12.52-.26.94-.42 1.27-.21.47-.43.85-.65 1.14-.35.43-.65.76-.91.99-.29.24-.67.49-1.12.75-.04.02-.06.05-.08.1-.02.05-.02.1 0 .13l.3.53c.08.15.18.33.3.53l.6 1.04c.16.26.25.43.29.52l.29.55.6 1.04c.1.19.2.36.27.51.08.15.19.33.33.56l.6 1.04c.1.19.2.36.27.51.08.15.19.33.33.56.02.02.03.05.03.1 0 .07-.02.13-.07.17s-.09.06-.14.06c-.28 0-.5 0-.68-.01-.17-.01-.39-.01-.65-.01s-.48 0-.65.01c-.17.01-.4.01-.68.01h-1.3c-.12 0-.23-.03-.34-.09-.1-.06-.18-.14-.23-.25l-.6-1.09-.6-1.09-.62-1.09-.62-1.07c-.12-.23-.22-.41-.3-.56-.08-.15-.18-.33-.3-.56l-.62-1.09c-.07-.1-.16-.16-.26-.16h-1.69c-.12 0-.18.06-.18.18v1.3l-.03 1.3.03 1.3c0 .26 0 .48-.01.65-.01.17-.01.38-.01.62v1.3c0 .1-.04.19-.1.26-.07.07-.15.1-.23.1h-1.12c-.23 0-.42 0-.57.01-.16.01-.34.01-.55.01h-1.16zm6.08-10.76c.45 0 .85-.04 1.2-.13.42-.09.79-.24 1.12-.47.4-.29.67-.59.81-.88.14-.33.21-.77.21-1.33 0-.42-.07-.75-.21-1.01-.12-.29-.4-.56-.83-.81-.35-.16-.72-.27-1.12-.34-.23-.03-.62-.05-1.17-.05l-1.09-.03-1.09.03c-.05 0-.1.02-.14.05-.04.04-.06.08-.06.13 0 .23 0 .42.01.57.01.16.01.36.01.6V16.93c0 .12.06.18.18.18h2.17z"/>
    <g>
        <path d="M202.88 56.51s-.13-.02-.39-.05c-.4-.05-.8-.13-1.2-.23-.52-.14-.91-.26-1.17-.36-.12-.03-.49-.21-1.09-.52-.42-.23-.76-.43-1.04-.62-.26-.16-.59-.39-.99-.7-.09-.09-.13-.17-.13-.26 0-.1.03-.18.08-.23.16-.19.28-.35.36-.47.09-.12.19-.25.31-.39l.7-.83.68-.86c.05-.07.14-.1.26-.1.09 0 .17.03.26.08l.94.62c.33.17.67.33 1.01.47.4.14.76.24 1.09.31.33.05.7.08 1.12.08.47 0 .86-.04 1.17-.13.45-.12.8-.31 1.04-.57.29-.29.44-.66.44-1.09 0-.38-.15-.72-.44-1.01-.26-.29-.56-.53-.88-.7-.29-.16-.63-.31-1.01-.47-.17-.09-.52-.23-1.04-.44-.16-.07-.33-.14-.52-.21-.19-.07-.4-.16-.62-.26-.09-.03-.46-.22-1.12-.55-.59-.33-.95-.55-1.09-.65-.35-.24-.65-.52-.91-.83-.29-.29-.55-.62-.75-.99-.23-.42-.38-.81-.47-1.17-.07-.35-.1-.79-.1-1.33 0-.42.03-.79.1-1.12.09-.47.21-.86.36-1.17.19-.4.41-.75.65-1.04.31-.36.6-.66.86-.88.21-.16.55-.37 1.04-.65.4-.19.78-.35 1.14-.47.45-.14.84-.23 1.17-.26.36-.07.77-.1 1.22-.1.47 0 .91.03 1.33.08.31.05.75.16 1.3.34.4.12.81.29 1.22.52.31.17.68.42 1.09.73.33.23.68.51 1.04.86.07.07.1.16.1.26s-.03.19-.1.26l-.75.78c-.4.36-.66.62-.78.75l-.75.78c-.07.07-.16.1-.26.1s-.19-.03-.26-.1c-.43-.38-.73-.62-.88-.73-.47-.24-.82-.39-1.07-.44-.29-.07-.68-.1-1.14-.1-.42 0-.77.03-1.07.1-.4.1-.72.26-.96.47-.3.24-.44.56-.44.94 0 .43.22.81.68 1.12.21.17.61.4 1.2.68.14.05.31.13.51.22s.45.2.74.32l1.09.44c.49.21.84.37 1.07.49.16.07.49.27 1.01.6.33.21.64.44.94.7.31.31.57.61.78.88.16.21.34.56.55 1.04.14.38.24.76.31 1.14.07.45.1.81.1 1.09 0 .31-.05.75-.16 1.3-.1.45-.24.84-.42 1.17-.16.31-.38.67-.68 1.07-.28.33-.57.62-.88.86-.31.26-.66.49-1.04.68-.31.17-.7.32-1.17.44-.35.12-.75.21-1.22.26-.38.05-.8.08-1.25.08-.55-.03-.82-.03-.82-.03zm1.56-1.74s.09-.02.26-.05c.42-.07.74-.14.96-.21.35-.09.64-.19.88-.31.29-.17.55-.34.75-.49.28-.24.48-.44.6-.6.19-.24.35-.49.47-.73.1-.19.2-.46.29-.81.07-.28.1-.58.1-.91 0-.28-.03-.55-.08-.83-.04-.19-.1-.44-.21-.75-.12-.29-.23-.52-.34-.68-.17-.23-.36-.42-.55-.6-.17-.17-.42-.35-.73-.55-.28-.21-.55-.38-.83-.52-.24-.12-.57-.27-.99-.44l-.57-.23-.45-.18-1.14-.49-.18-.1c-.62-.26-1.13-.54-1.53-.83-.9-.69-1.35-1.53-1.35-2.52 0-.43.09-.84.29-1.23.19-.39.46-.73.81-1.03.43-.38.97-.65 1.61-.81.42-.12.92-.18 1.51-.18.61 0 1.13.05 1.56.16.38.1.88.34 1.51.7.03.04.06.05.08.05.03.03.07.03.1 0l.29-.31c.05-.02.05-.05 0-.1l-.6-.39c-.26-.12-.57-.25-.94-.39-.31-.12-.65-.21-1.01-.26-.38-.03-.74-.05-1.07-.05s-.65.03-.96.08c-.29.02-.6.09-.91.21-.38.14-.67.26-.86.36-.33.16-.58.3-.75.44-.12.12-.32.33-.6.62-.12.14-.27.36-.44.68-.09.21-.16.47-.21.78-.07.26-.1.52-.1.78 0 .33.03.64.08.94.12.35.23.59.31.73.09.19.24.41.47.65.22.23.45.42.68.6.16.1.31.19.46.27s.28.15.4.22l.1.05c.43.23.74.38.91.47l.68.26.44.18c.12.05.27.11.46.18.18.07.39.17.64.29l.13.05c.4.17.75.34 1.04.49.55.31 1 .66 1.33 1.04.57.64.86 1.37.86 2.18 0 .9-.29 1.66-.88 2.29-.47.49-1.08.83-1.85 1.04-.52.14-1.07.21-1.64.21-.47 0-.95-.03-1.43-.1-.45-.09-.91-.22-1.38-.39-.54-.23-.95-.42-1.25-.6-.03-.03-.07-.03-.1.03l-.21.26-.05.03c-.04.05-.04.1 0 .13.05.03.28.16.68.39.17.09.45.2.83.34.28.1.6.21.96.31l.96.18c.19.02.52.03.99.03.46-.03.71-.03.71-.03zM225.37 55.27l.03.55c0 .1-.04.19-.12.26-.08.07-.17.1-.27.1h-2.52c-.26 0-.48 0-.65.01-.17.01-.38.01-.62.01H216.16c-.24 0-.45 0-.62-.01-.17-.01-.39-.01-.65-.01h-1.25c-.1 0-.19-.03-.26-.1s-.1-.16-.1-.26v-1.25l-.03-1.25v-1.25c0-.31.01-.52.03-.62V47.06l-.03-1.25c0-.31.01-.52.03-.62v-.62l-.03-1.25v-5l.03-1.25c0-.1.04-.2.1-.27.07-.08.16-.12.26-.12h1.22l1.25.03H219.8l1.25-.03H223.52l1.22.03c.12 0 .21.04.27.12s.09.15.09.22l.03 1.09-.03 1.09c0 .21 0 .38.01.52s.01.32.01.55c0 .1-.04.19-.12.26-.08.07-.17.1-.27.1H222.93l-.6.03c-.24 0-.45 0-.61-.01s-.37-.01-.61-.01H217.51c-.05 0-.1.02-.14.05-.04.04-.06.08-.06.13v1.07c0 .23 0 .41.01.55.01.14.01.31.01.52s0 .38-.01.52-.01.32-.01.55c0 .05.02.1.06.13.04.04.09.05.14.05H223.17c.1 0 .19.03.26.1s.1.16.1.26c0 .29 0 .54-.01.74s-.01.45-.01.74 0 .54.01.74c.01.2.01.45.01.74 0 .1-.03.19-.1.27s-.16.12-.26.12h-1.14c-.23 0-.42 0-.57-.01-.16-.01-.34-.01-.55-.01l-1.14.03-1.14-.03h-1.12c-.05 0-.1.02-.14.05s-.06.08-.06.13c0 .33.01.55.03.68V50.74l-.03 1.3c0 .05.02.1.06.14.04.04.09.06.14.06l1.25-.03 1.25.03 1.25-.03h1.87c.1.02.31.03.62.03l1.25-.04c.1 0 .19.04.26.12.07.08.1.17.1.27v2.68zm-1.74-1.25c0-.03-.03-.05-.08-.05l-.49-.03H215.72c-.1 0-.16-.04-.16-.13l.03-1.46V50.16c.02-.1.03-.52.03-1.25l-.03-1.12-.03-1.33c0-.03.02-.07.05-.1.03-.03.07-.05.1-.05h1.98l.65-.03c.33 0 .55.01.65.03h2.29c.17 0 .32-.01.44-.03.05 0 .08-.02.08-.05V45.89c0-.05-.03-.08-.08-.08-.21 0-.35-.01-.42-.03h-1.22c-.1.02-.31.03-.62.03h-3.74c-.09 0-.13-.05-.13-.16V42.27c-.02-.1-.03-.49-.03-1.14v-1.04c0-.05 0-.16.01-.31.01-.16.01-.4.01-.73 0-.09.04-.13.13-.13h2.99c.14 0 .25 0 .34-.01s.16-.01.21-.01H221.09c.35 0 .57.01.68.03h1.07c.07-.02.22-.03.44-.03.05 0 .08-.03.08-.08v-.32c0-.05-.03-.08-.08-.08h-4.73c-.31 0-.51.01-.6.03H216.07l-.7-.03h-.16c-.14 0-.22.02-.23.06-.02.04-.03.18-.03.4v4.4c0 .28.01.47.03.57v.68c0 .36-.01.61-.03.73v1.77c0 .16 0 .28.01.36.01.09.01.17.01.23v3.18c0 .36-.01.6-.03.7V53.95c0 .24.04.39.1.43s.21.06.42.06H222.46l.57-.03h.49c.05 0 .08-.02.08-.05v-.34zM232.88 56.2c-.1 0-.2-.04-.27-.12-.08-.08-.12-.17-.12-.27l.03-1.25-.03-1.25.03-.62v-1.24l-.03-.62.03-1.25-.03-1.25.03-1.25v-1.25l-.03-1.25.03-1.25v-1.25l.03-1.25c0-.05-.02-.1-.07-.13-.04-.03-.09-.05-.14-.05h-.55c-.09.02-.27.03-.55.03l-1.09-.03h-1.62c-.1.02-.29.03-.55.03-.1 0-.19-.04-.26-.12-.07-.08-.1-.17-.1-.27 0-.21 0-.39-.01-.55-.01-.16-.01-.35-.01-.57l.03-1.04-.03-1.09c0-.09.04-.17.12-.25.08-.08.17-.12.27-.12l1.2.03 1.2-.03H241.16c.1 0 .19.04.27.12.08.08.12.16.12.25v2.18c0 .21 0 .38-.01.52s-.01.32-.01.55c0 .1-.03.19-.1.26s-.16.1-.26.1l-1.09.03-.52-.03H236.83c-.12 0-.18.06-.18.18l.03 1.25-.03 1.25.03 1.25-.03.62v3.12l.03 1.25-.03.62v1.87l-.03 1.25.03.62.03.62v1.25c0 .1-.04.19-.12.26-.08.07-.17.1-.27.1h-.57c-.09.02-.27.03-.55.03h-2.29zm1.67-1.74h.26c.05 0 .08-.02.08-.05l-.03-.36v-3.92c.02-.09.03-.27.03-.55v-.55c-.02-.12-.03-.35-.03-.7v-2.5c0-.35.01-.58.03-.7v-1.1c-.02-.1-.03-.34-.03-.7v-.68c.02-.09.03-.28.03-.57 0-.26-.01-.44-.03-.55v-2.5c0-.09.04-.13.13-.13H239.61l.1.03c.05 0 .08-.03.08-.08v-.38c0-.05-.03-.08-.08-.08h-.96l-.55.03h-1.3c-.05 0-.12 0-.21-.01s-.2-.01-.34-.01h-.57c-.1.02-.3.03-.6.03h-5.76c-.04 0-.05.03-.05.08-.02.07-.03.16-.03.26v.08c0 .05.02.08.05.08h.75c.31 0 .52.01.62.03h2.52c.1-.02.29-.03.55-.03h.29c.09 0 .13.04.13.13v4.28c0 .33-.01.55-.03.65v1.2l.03.65v1.25c0 .35-.01.57-.03.68v.57c0 .28.01.47.03.57v.68c0 .36-.01.6-.03.7v.55c0 .26.01.44.03.55v1.4c-.02.1-.03.29-.03.55v.6l.03.47c0 .05.02.08.05.08h.25z"/>
    </g>
    <g>
        <path style="fill:#ef8005" d="M91.58 107.87s-.06-.01-.17-.02c-.18-.02-.36-.06-.53-.1-.23-.06-.41-.12-.52-.16-.05-.02-.22-.09-.49-.23-.19-.1-.34-.19-.46-.28-.12-.07-.26-.17-.44-.31-.04-.04-.06-.08-.06-.12s.01-.07.04-.1c.07-.08.12-.16.16-.21.04-.05.08-.11.14-.17l.31-.37.3-.37c.02-.04.06-.06.12-.06.04 0 .08.01.12.03l.42.28c.15.08.3.15.45.21.23.08.39.12.49.14.15.02.31.04.5.04.21 0 .38-.02.52-.06.22-.05.37-.14.46-.26.13-.13.2-.29.2-.49 0-.17-.07-.32-.2-.45-.1-.11-.23-.21-.4-.31-.13-.07-.28-.14-.45-.21-.08-.04-.23-.1-.46-.2-.07-.03-.15-.06-.23-.09-.09-.03-.18-.07-.28-.12l-.5-.24c-.05-.02-.12-.06-.23-.12-.1-.06-.19-.11-.26-.17-.14-.1-.28-.22-.41-.36-.14-.15-.25-.3-.34-.45-.1-.19-.17-.36-.21-.52-.03-.16-.05-.35-.05-.58 0-.19.02-.36.05-.51.04-.21.09-.38.16-.52.1-.19.2-.35.29-.46.14-.16.27-.29.38-.4.12-.09.28-.19.46-.28.15-.09.33-.17.51-.22.2-.06.38-.1.52-.12.16-.03.34-.05.55-.05.23 0 .43.02.59.05.14.02.33.06.58.14.18.05.36.13.55.23.14.08.3.19.49.33.15.1.3.23.46.38.03.05.05.08.05.12 0 .05-.02.08-.05.12l-.34.35c-.06.06-.12.11-.17.16-.05.04-.11.1-.18.18l-.34.35c-.03.03-.07.05-.12.05s-.09-.02-.12-.05c-.02-.02-.06-.06-.14-.13-.08-.07-.16-.13-.26-.19-.18-.11-.34-.18-.48-.21-.13-.03-.3-.05-.51-.05-.19 0-.35.02-.48.06-.17.04-.31.1-.43.2-.13.11-.2.25-.2.42 0 .19.1.36.3.5.09.08.27.18.53.3.06.02.14.06.23.1l.33.15.49.2c.22.09.38.17.48.22.07.03.22.12.45.27.15.09.29.2.42.31.14.14.26.27.35.4.07.09.15.25.24.46.06.17.11.34.14.51.03.2.05.36.05.49 0 .14-.02.33-.07.58-.05.19-.11.37-.19.53-.09.17-.19.33-.3.46-.14.17-.27.3-.4.4-.14.1-.29.2-.47.3-.15.07-.32.13-.52.19-.15.05-.34.09-.55.12-.12.02-.3.03-.56.03-.19-.04-.31-.04-.31-.04zM96.38 107.73c-.05 0-.09-.02-.12-.05-.03-.04-.05-.08-.05-.12l.01-.56v-3.37l-.01-.56c0-.14 0-.23.01-.28v-.56l-.01-.28.01-.56v-2.24c0-.05.02-.09.05-.12.03-.01.07-.03.11-.03h.5c.12 0 .21 0 .24.01h.26c.12 0 .21 0 .24-.01h.26c.04 0 .08.02.11.05.04.03.05.08.05.12v3.1c0 .05.03.08.08.08l.56-.01c.11 0 .2 0 .27.01s.16.01.27.01h.56l.56-.01c.11 0 .2 0 .27.01s.16.01.27.01c.05 0 .08-.03.08-.08v-.78c.01-.05.01-.14.01-.27 0-.12 0-.21-.01-.26v-.52c.01-.04.01-.12.01-.26v-.52l-.01-.51c0-.05.02-.08.05-.12.04-.03.07-.05.11-.05.1 0 .19 0 .26-.01s.15-.01.24-.01h.5c.1 0 .19 0 .26.01s.15.01.24.01c.05 0 .09.02.12.05s.05.07.05.12v.56l-.01.56.01.56v.56l-.01.56.01.56-.01.56v.56c0 .12 0 .21.01.29 0 .08.01.17.01.28l-.01.56v.28c.01.05.01.14.01.28l-.01.56V107.56c0 .05-.02.09-.05.12-.03.03-.07.05-.12.05h-1.5c-.04 0-.08-.02-.11-.05-.03-.03-.05-.07-.05-.12 0-.12 0-.21.01-.29 0-.08.01-.17.01-.28l-.01-.58c0-.11 0-.2.01-.28 0-.08.01-.17.01-.29v-.58c0-.11 0-.2-.01-.28s-.01-.17-.01-.29l.01-.58c0-.02-.01-.04-.03-.06s-.04-.02-.06-.02h-.28l-.27.01-.56-.01H98.11c-.02 0-.04.01-.06.02-.02.02-.03.03-.03.06 0 .16 0 .26.01.3v2.29c-.01.05-.01.14-.01.29 0 .12 0 .21.01.29 0 .08.01.17.01.28 0 .05-.02.09-.05.12-.03.03-.07.05-.11.05h-.5c-.12 0-.21 0-.26.01h-.74zM107.39 107.85c-.14-.02-.32-.05-.55-.12-.23-.08-.41-.14-.52-.2-.19-.09-.34-.19-.47-.28-.15-.12-.3-.24-.43-.36-.09-.09-.21-.23-.36-.43-.12-.17-.23-.33-.3-.46-.09-.15-.16-.32-.23-.5-.05-.12-.1-.29-.16-.52-.02-.05-.04-.14-.07-.24-.03-.11-.05-.21-.06-.3-.03-.17-.05-.35-.07-.55-.02-.25-.02-.43-.02-.56 0-.25 0-.43.01-.55l.08-.55c.05-.25.08-.43.12-.54.04-.14.1-.31.19-.52.08-.21.16-.38.23-.5.05-.1.15-.25.3-.45.13-.17.25-.31.36-.42.05-.04.11-.09.19-.17.08-.07.16-.13.23-.18.14-.1.3-.19.48-.28.13-.05.31-.12.52-.19.18-.05.36-.08.53-.1.23-.03.41-.05.55-.05.1 0 .21.01.32.02.11.02.19.03.24.04.23.03.41.06.53.09.15.04.33.1.51.2.21.1.37.19.49.27.1.07.24.18.43.34.05.05.17.19.36.42.14.2.24.36.3.46.08.16.16.32.23.5.07.16.13.34.17.52.06.23.1.41.13.54.02.12.04.3.06.55.02.12.02.3.02.55s0 .43-.01.56c-.01.14-.03.32-.06.55-.01.05-.05.24-.14.55-.03.12-.06.22-.09.3-.03.09-.06.16-.08.22-.07.18-.15.35-.23.5-.1.18-.2.34-.3.48-.11.16-.23.3-.36.42-.12.12-.27.24-.43.36-.11.08-.27.17-.48.27-.16.08-.33.15-.51.21-.23.06-.41.1-.55.12-.18.02-.36.03-.56.03-.18-.02-.36-.03-.54-.05zm1.09-1.86c.17-.04.33-.11.49-.22.13-.09.26-.22.38-.38.11-.14.2-.29.27-.46.07-.16.13-.33.17-.51.05-.2.08-.38.09-.54.02-.12.02-.28.02-.48 0-.25-.01-.45-.02-.6-.04-.25-.07-.42-.09-.52-.03-.16-.09-.33-.16-.51-.05-.12-.15-.28-.28-.45-.15-.16-.28-.28-.4-.35-.16-.11-.32-.18-.49-.22-.14-.04-.32-.06-.53-.06-.17 0-.34.02-.52.06-.17.04-.33.11-.49.22-.14.08-.27.21-.38.36-.13.18-.23.33-.28.45-.06.13-.12.3-.16.5-.05.19-.08.36-.1.52-.02.16-.02.36-.02.6 0 .07.01.23.02.48.03.24.06.42.09.54.04.13.1.3.19.5.08.19.17.34.27.47.11.16.23.29.37.38.16.12.33.19.49.23.14.04.32.06.53.06.23-.01.41-.03.54-.07zM115.41 107.73h-.75c-.08 0-.14 0-.2-.01s-.12-.01-.19-.01c-.05 0-.08-.03-.09-.08-.02-.08-.03-.14-.04-.2-.01-.05-.02-.12-.04-.21-.03-.13-.06-.27-.08-.41-.03-.13-.06-.27-.08-.41-.03-.13-.06-.27-.08-.41-.02-.08-.03-.15-.04-.2-.01-.06-.03-.13-.04-.2-.02-.09-.03-.17-.05-.22-.02-.05-.03-.12-.05-.19l-.07-.41c-.02-.09-.04-.17-.05-.23-.01-.06-.02-.12-.02-.18l-.09-.41c-.03-.16-.06-.3-.08-.41-.02-.14-.05-.28-.08-.41-.02-.14-.05-.27-.08-.41-.01-.06-.02-.12-.02-.18-.01-.06-.02-.13-.05-.23-.02-.08-.03-.16-.04-.21-.01-.05-.03-.12-.04-.2-.02-.09-.04-.17-.05-.23-.01-.06-.02-.12-.02-.18-.02-.07-.03-.13-.05-.19-.02-.05-.03-.13-.05-.22-.02-.1-.04-.18-.05-.23-.01-.05-.02-.12-.02-.19-.03-.13-.06-.27-.08-.41l-.09-.41-.08-.4c-.02-.08-.03-.16-.03-.21-.01-.05-.02-.12-.04-.21-.01-.02-.01-.03.01-.05s.03-.02.05-.02h1.27c.08 0 .16 0 .21-.01s.13-.01.22-.01c.05 0 .08.03.09.08l.07.42.08.42c.03.13.06.27.08.41l.07.42c.02.08.03.15.04.21.01.05.03.12.04.2l.08.42.07.42c.01.06.02.12.02.18.01.06.02.13.05.23.02.1.03.18.05.23.02.05.03.12.05.19.01.07.02.13.02.19.01.05.02.13.05.23l.07.41.07.42c.02.09.04.17.05.23.01.06.02.12.02.18.02.02.02.02.02 0 .07-.24.11-.38.12-.41.02-.07.03-.13.04-.19.01-.05.03-.13.06-.23.03-.14.07-.27.1-.41l.08-.42.1-.42c.05-.17.08-.31.1-.41.03-.1.05-.18.06-.23.01-.05.02-.12.03-.19l.1-.42c.02-.08.03-.14.05-.2.02-.05.03-.12.06-.21l.1-.42.09-.41c.02-.07.03-.13.03-.19.01-.05.03-.13.06-.23.01-.03.05-.17.12-.41.02-.06.05-.09.09-.09h.36l.37.01h.72c.06 0 .1.02.1.07l.1.42.09.41.1.42.1.42c.02.08.03.16.04.21.01.06.02.13.04.2l.1.41c.01.03.05.17.12.41l.09.42.1.42c.02.08.03.15.04.2.01.06.03.13.04.2l.1.42c.02.09.04.16.06.21.02.05.03.12.05.2l.1.42.08-.42c.02-.09.03-.17.05-.22.02-.05.03-.12.05-.19.01-.07.02-.13.02-.19.01-.05.02-.13.05-.23l.07-.41.07-.42.08-.41c.02-.1.04-.18.05-.23.01-.05.02-.12.02-.19l.08-.42c.02-.09.04-.17.05-.23s.02-.12.02-.18l.08-.42.07-.42.09-.41c.02-.14.05-.28.08-.41 0-.02.01-.04.02-.06.02-.02.03-.03.06-.03.08 0 .16 0 .21.01s.13.01.22.01h.84c.09 0 .16 0 .22-.01s.17.08.26.08c.02 0 .03.01.05.03s.02.04.01.05c-.01.07-.02.13-.02.19-.01.05-.02.13-.05.23-.02.08-.03.14-.04.2-.01.05-.03.12-.04.21-.02.08-.03.14-.04.2-.01.06-.02.13-.04.2-.02.09-.03.17-.05.22-.02.05-.03.12-.05.19l-.07.41c-.02.08-.03.14-.04.2-.01.05-.03.12-.04.21-.02.08-.03.15-.04.2-.01.06-.03.13-.04.2l-.08.41-.07.41c-.02.08-.03.14-.04.2-.01.06-.03.13-.04.2-.02.09-.03.16-.04.21-.01.05-.02.12-.04.2-.02.08-.03.15-.05.2-.02.05-.03.12-.05.2-.03.13-.06.27-.08.41-.02.08-.03.15-.04.2-.01.06-.03.13-.04.2-.02.14-.05.28-.08.41-.02.14-.05.28-.08.41l-.07.41-.09.41c-.02.14-.05.27-.08.41-.02.14-.05.28-.08.41-.01.06-.02.12-.02.18-.01.06-.02.13-.05.23-.02.05-.05.08-.09.08-.08 0-.14 0-.2.01-.05 0-.12.01-.19.01h-.75c-.07 0-.13 0-.19-.01-.05 0-.12-.01-.2-.01l-.37.01c-.05 0-.08-.03-.09-.09-.02-.08-.04-.14-.06-.2-.02-.06-.04-.12-.06-.19l-.08-.4-.12-.4c-.02-.07-.03-.13-.04-.19-.01-.05-.03-.13-.05-.22l-.09-.4-.1-.39-.1-.4c-.02-.08-.04-.16-.05-.21-.01-.05-.03-.12-.05-.2l-.08-.39c-.02-.06-.03-.12-.05-.17-.02-.05-.04-.13-.06-.22l-.1-.4-.09-.39-.01-.01v.01l-.1.39-.09.4-.1.4-.09.41-.1.4c-.03.09-.05.17-.06.22-.01.05-.02.11-.04.17-.02.06-.03.12-.05.17-.02.05-.04.13-.06.22-.02.08-.03.15-.04.2-.01.06-.03.13-.04.2-.02.06-.03.12-.05.17-.02.05-.04.13-.06.22l-.1.4-.09.4c-.02.08-.03.15-.04.2-.01.06-.03.13-.04.2-.01.05-.05.07-.12.07l-.37.01h-.46zM125.96 107.68c-.02-.04-.03-.07-.01-.11.05-.16.07-.24.07-.27l.08-.26c.03-.11.06-.2.09-.27l.08-.26c.05-.12.08-.22.1-.3.02-.07.04-.15.06-.24.03-.09.06-.17.09-.24.03-.07.06-.16.09-.28l.16-.52c.08-.23.14-.41.17-.52.02-.07.04-.13.05-.17s.02-.08.03-.1c0 .02.02-.07.07-.27l.09-.26.09-.27.16-.52c.06-.17.12-.34.17-.52.03-.1.06-.19.08-.26.02-.07.04-.16.08-.26.03-.09.06-.17.09-.24.03-.07.06-.16.1-.28l.16-.53.16-.52c.03-.09.06-.17.09-.24s.06-.16.09-.28l.16-.52c.04-.1.11-.15.21-.15h1.1c.11 0 .2 0 .27-.01s.16-.01.27-.01c.05 0 .09.02.13.05.04.03.07.07.09.12.03.1.06.19.08.26.02.07.04.16.08.26l.09.27.09.26c.05.16.07.24.07.27.04.12.07.21.08.27l.09.25.09.26.16.54.16.52.16.52.17.52c.05.12.08.22.1.3.02.07.04.15.06.24.02.04.07.21.16.52l.19.52c.05.16.07.24.07.27l.08.26c.03.12.06.21.09.28.03.07.06.15.09.24l.17.54.16.52c.03.09.06.17.09.24.03.07.06.16.09.28v.04c0 .03-.01.06-.04.08-.03.02-.06.04-.09.04-.1 0-.19 0-.26.01s-.16.01-.27.01h-.52c-.11 0-.2 0-.27-.01s-.16-.01-.26-.01c-.05 0-.09-.01-.13-.04-.04-.03-.07-.06-.08-.11-.06-.19-.12-.39-.17-.59l-.19-.58-.16-.59c-.02-.05-.05-.08-.1-.08-.15 0-.25 0-.3.01h-.59c-.05-.01-.14-.01-.29-.01l-.6.01h-.59c-.05 0-.09.02-.1.07-.06.19-.12.39-.17.59l-.17.58c-.02.09-.04.18-.06.26-.02.08-.05.19-.1.33-.01.05-.03.08-.08.11s-.09.04-.15.04h-1.04c-.11 0-.2 0-.27.01s-.16.01-.26.01c-.02-.03-.05-.05-.08-.08zm3.46-3.6h.94c.02 0 .04-.01.05-.02s.01-.03.01-.05l-.15-.51c-.02-.08-.04-.16-.06-.23-.02-.07-.04-.16-.08-.27-.03-.1-.06-.18-.08-.25-.02-.07-.04-.15-.08-.25-.05-.17-.1-.34-.15-.5-.03-.11-.06-.2-.08-.26-.02-.07-.05-.15-.07-.24 0-.02-.01-.02-.02-.02s-.02.01-.02.02l-.16.5-.06.24-.07.26-.08.26c-.03.08-.06.16-.08.24l-.14.5-.15.51c-.01.02-.01.03.01.05.01.02.03.03.05.03l.47-.01zM136.82 107.72h-.8l-.53.01c-.1 0-.19 0-.26-.01s-.16-.01-.27-.01h-.53c-.05 0-.08-.02-.12-.05-.03-.03-.05-.07-.05-.12l-.01-.56c0-.14 0-.23.01-.28v-1.12c-.01-.05-.01-.14-.01-.28v-.56c0-.14 0-.23.01-.28v-1.13c-.01-.05-.01-.14-.01-.28l.01-.56v-1.12l-.01-.56v-.56c0-.14 0-.23.01-.28V99.13c0-.05.02-.09.05-.12.03-.04.07-.05.12-.05.09 0 .17 0 .24.01s.16.01.26.01h.99c.05 0 .09.02.12.05.03.03.05.07.05.12 0 .14 0 .23.01.28V101.39l-.01.56v.55l.01.56-.01.56.01.56v.56l-.01.56.01.56c0 .05.03.08.08.08h.51c.09 0 .17 0 .24.01s.16.01.26.01h1.02l.51-.01.51.01c.05 0 .09.02.12.05.03.03.05.07.05.12v.48l-.01.49v.48c0 .05-.01.09-.04.12-.03.04-.06.05-.11.05h-.53l-.54-.01h-.53l-.53.01c-.15-.02-.24-.02-.29-.03zM143.12 107.72h-.8l-.54.01c-.1 0-.19 0-.26-.01-.07 0-.16-.01-.27-.01h-.53c-.05 0-.08-.02-.12-.05-.03-.03-.05-.07-.05-.12l-.01-.56c0-.14 0-.23.01-.28v-1.12c-.01-.05-.01-.14-.01-.28v-.56c0-.14 0-.23.01-.28v-1.13c-.01-.05-.01-.14-.01-.28l.01-.56v-1.12l-.01-.56v-.56c0-.14 0-.23.01-.28V99.13c0-.05.02-.09.05-.12.03-.04.07-.05.12-.05.09 0 .17 0 .24.01.07 0 .16.01.26.01h.99c.05 0 .09.02.12.05.03.03.05.07.05.12 0 .14 0 .23.01.28V101.39l-.01.56v.55l.01.56-.01.56.01.56v.56l-.01.56.01.56c0 .05.03.08.08.08h.51c.09 0 .17 0 .24.01.07 0 .16.01.26.01h1.02l.51-.01.51.01c.05 0 .09.02.12.05.03.03.05.07.05.12v.48l-.01.49v.48c0 .05-.01.09-.04.12-.03.04-.06.05-.11.05H145l-.54-.01h-.53l-.53.01c-.14-.02-.23-.02-.28-.03zM152.48 107.85c-.22-.04-.4-.08-.55-.12-.22-.07-.4-.14-.52-.2-.19-.09-.35-.19-.48-.29-.16-.11-.29-.22-.42-.35-.08-.09-.21-.23-.36-.43-.07-.09-.17-.25-.29-.46-.1-.17-.18-.34-.24-.5-.05-.12-.11-.29-.19-.52-.05-.17-.08-.35-.1-.55-.03-.17-.05-.35-.07-.55-.02-.25-.02-.43-.02-.56 0-.13.01-.31.02-.55 0-.03.02-.21.07-.55.04-.22.08-.4.12-.54.05-.19.1-.36.17-.52.06-.16.14-.33.24-.5.07-.13.17-.28.29-.45.1-.13.22-.27.37-.42.13-.13.27-.25.42-.35.17-.12.33-.21.48-.28.2-.08.37-.15.51-.19.12-.03.3-.06.55-.09.23-.03.41-.05.55-.05.12 0 .29.01.51.02.22.03.38.06.49.08.09.02.18.05.27.09s.17.07.2.08c.14.06.29.14.44.24.19.12.33.22.42.29.08.07.21.19.37.35.03.05.05.08.05.12 0 .05-.02.08-.05.12l-.33.35c-.06.07-.12.13-.17.17-.05.04-.11.1-.17.17l-.33.35c-.03.03-.07.05-.1.05s-.08-.02-.12-.06c-.16-.16-.3-.27-.43-.34-.18-.1-.34-.17-.5-.21-.18-.04-.36-.06-.55-.06-.19 0-.37.02-.54.07-.17.05-.33.11-.49.2-.15.09-.28.22-.39.37-.09.1-.18.25-.28.45-.07.16-.13.33-.17.51-.02.1-.05.27-.09.52-.02.26-.02.44-.02.54 0 .19.01.37.04.55.01.16.04.34.09.54.01.03.03.1.05.21s.06.21.11.31c.06.15.16.3.28.46.13.16.26.28.39.37.12.09.29.17.49.22.19.05.37.07.56.07.22 0 .42-.03.59-.08.19-.05.36-.13.53-.24.14-.09.28-.23.43-.42.02-.03.06-.05.12-.05.04 0 .07.01.11.04.07.06.13.11.18.15s.11.08.18.15c.17.15.29.26.35.31l.34.31c.05.03.07.07.07.13 0 .02-.02.06-.05.1-.08.1-.2.24-.37.41-.18.18-.32.31-.42.38-.1.07-.26.17-.48.29-.16.08-.34.15-.52.21-.16.05-.35.08-.55.1-.18.02-.36.03-.56.03-.17.03-.36.02-.53 0zM159.56 107.85c-.14-.02-.32-.05-.55-.12-.23-.08-.41-.14-.52-.2-.19-.09-.34-.19-.46-.28-.16-.12-.3-.24-.43-.36-.09-.09-.21-.23-.36-.43-.12-.17-.23-.33-.3-.46-.08-.15-.16-.32-.23-.5-.05-.12-.1-.29-.16-.52-.02-.05-.04-.14-.07-.24s-.05-.21-.06-.3c-.03-.17-.05-.35-.07-.55-.02-.25-.02-.43-.02-.56 0-.25 0-.43.01-.55l.08-.55c.05-.25.08-.43.12-.54.04-.14.1-.31.19-.52s.16-.38.23-.5c.05-.1.15-.25.3-.45.13-.17.25-.31.36-.42.05-.04.11-.09.19-.17s.16-.13.23-.18c.14-.1.3-.19.48-.28.13-.05.31-.12.52-.19.18-.05.36-.08.53-.1.23-.03.41-.05.55-.05.1 0 .21.01.32.02.11.02.19.03.24.04.23.03.41.06.53.09.16.04.33.1.51.2.21.1.37.19.49.27.1.07.24.18.43.34.05.05.17.19.36.42.14.2.24.36.3.46.08.16.16.32.23.5.07.16.13.34.17.52.06.23.1.41.13.54.02.12.04.3.06.55.01.12.02.3.02.55s0 .43-.01.56c-.01.14-.03.32-.06.55-.01.05-.05.24-.14.55-.03.12-.06.22-.09.3-.03.09-.06.16-.08.22-.07.18-.15.35-.23.5-.1.18-.2.34-.3.48-.11.16-.23.3-.36.42-.12.12-.27.24-.43.36-.11.08-.27.17-.48.27-.16.08-.33.15-.51.21-.22.06-.41.1-.55.12-.18.02-.36.03-.56.03-.19-.02-.38-.03-.55-.05zm1.09-1.86c.17-.04.33-.11.49-.22.13-.09.26-.22.38-.38.11-.14.2-.29.27-.46.07-.16.13-.33.17-.51.05-.2.08-.38.09-.54.02-.12.02-.28.02-.48 0-.25-.01-.45-.02-.6-.04-.25-.07-.42-.09-.52-.03-.16-.09-.33-.16-.51-.05-.12-.15-.28-.28-.45-.15-.16-.28-.28-.39-.35-.16-.11-.32-.18-.49-.22-.14-.04-.32-.06-.54-.06-.17 0-.34.02-.52.06-.17.04-.33.11-.49.22-.14.08-.27.21-.38.36-.13.18-.22.33-.28.45-.06.13-.12.3-.16.5-.05.19-.08.36-.1.52-.02.16-.02.36-.02.6 0 .07.01.23.02.48.03.24.06.42.09.54.04.13.1.3.19.5.08.19.17.34.27.47.11.16.23.29.37.38.16.12.33.19.49.23.14.04.32.06.53.06.22-.01.41-.03.54-.07zM166.26 107.73s-.03 0-.1-.01c-.07 0-.15-.01-.24-.01-.1 0-.19 0-.26.01-.07 0-.15.01-.24.01-.05 0-.08-.02-.12-.05-.03-.04-.05-.08-.05-.12V106.16c-.01-.05-.01-.14-.01-.28s0-.23.01-.28V104.19l-.01-.56v-.56c0-.14 0-.23.01-.28v-.56l-.01-.28v-.56l.01-.56v-.28l-.01-.28.01-.56v-.57c0-.04.02-.07.05-.1.03-.03.07-.05.12-.05h1c.09 0 .17 0 .24-.01s.15.02.24.02c.11 0 .19.05.26.15l.27.49c.05.1.1.18.13.25.04.07.08.15.13.25.09.16.18.33.27.5l.29.49.27.49c.05.09.09.17.12.24.04.07.08.15.15.26l.28.5.27.49c.05.08.09.16.13.23l.15.27c.06.11.11.2.15.26.04.07.08.15.12.24h.02c.01 0 .02 0 .02-.01v-.28c-.01-.05-.01-.16-.01-.33v-.23c0-.07.01-.16.01-.27V102.17c-.01-.05-.01-.14-.01-.28v-.27c0-.07.01-.16.01-.27v-1.37c-.01-.05-.01-.14-.01-.28v-.27c0-.07.01-.17.01-.27 0-.04.02-.08.05-.11.03-.04.07-.05.12-.05h1.5c.04 0 .08.02.11.05.04.03.05.07.05.11V106.18c-.01.05-.01.14-.01.28l.01.56-.01.56c0 .05-.02.09-.05.12-.03.03-.07.05-.11.05h-.76c-.04.01-.12.01-.24.01-.09 0-.17 0-.24-.01-.07 0-.16-.01-.26-.01-.12 0-.2-.05-.24-.14l-.28-.5-.27-.49c-.05-.08-.14-.24-.27-.5l-.28-.5-.28-.49-.27-.49-.14-.26c-.02-.06-.07-.14-.13-.24l-.27-.5-.28-.49c-.05-.08-.09-.16-.13-.23l-.15-.27-.02-.01c-.02 0-.02.01-.02.02v.27c0 .07.01.17.01.27v2.75c0 .11 0 .2-.01.27v.54c0 .07.01.17.01.27v.55c0 .05-.02.09-.05.12-.04.03-.07.05-.11.05-.1 0-.19 0-.26.01s-.15.01-.24.01c-.1-.03-.15-.03-.15-.03zM173.67 107.72c-.05 0-.09-.02-.12-.05-.04-.03-.05-.07-.05-.12 0-.14 0-.23.01-.28v-4.2l-.01-.56v-.56l.01-.56v-1.12l-.01-.56.01-.56c0-.05.02-.08.05-.12s.07-.05.12-.05c.11 0 .2 0 .28-.01.08 0 .17-.01.29-.01h.51c.12 0 .21 0 .29.01.08 0 .17.01.28.01.14 0 .23 0 .28-.01h.28c.11 0 .2 0 .27.01s.17.01.27.01l.56-.01H178.65c.05 0 .09.02.12.05.04.03.05.07.05.11v.49l-.01.49c0 .09 0 .17.01.23 0 .06.01.14.01.24 0 .05-.02.08-.05.12-.04.03-.08.05-.12.05h-.53l-.54.01-.53-.01h-1.08l-.54.01c-.06 0-.09.02-.09.07l.01.56v.55l-.01.56c0 .02.01.03.03.05.02.02.04.03.06.03h1.02c.11 0 .2 0 .27-.01.07 0 .16-.01.26-.01l.51.01h.51c.05 0 .09.02.12.05.03.03.05.07.05.12 0 .13 0 .24-.01.34 0 .09-.01.21-.01.36l.01.63c0 .05-.02.09-.05.12-.04.04-.08.05-.12.05l-.51-.01h-2.05c-.02 0-.04.01-.06.02-.02.02-.03.03-.03.06l.01.54c0 .11 0 .2-.01.27 0 .07-.01.17-.01.27v.54l.01.53-.01.54v.53c0 .05-.02.09-.05.12-.03.03-.07.05-.1.05h-1.52zM181 107.72h-.74c-.05 0-.08-.02-.12-.05-.03-.03-.05-.07-.05-.12v-.28c-.01-.05-.01-.14-.01-.28l.01-.56V105.59c-.01-.05-.01-.14-.01-.28l.01-.56v-.56c0-.12 0-.21-.01-.29s-.01-.17-.01-.28l.01-.56V101.38l-.01-.56.01-.56v-.56l-.01-.56c0-.05.02-.09.05-.12.04-.04.08-.05.12-.05h1.5c.04 0 .07.02.1.05.03.03.05.08.05.12l.01.56v1.12l-.01.56v2.81c0 .14 0 .23.01.28v.56c-.01.05-.01.14-.01.28v.56l.01.28V107.56c0 .05-.02.09-.05.12s-.07.05-.11.05h-.5c-.11 0-.19 0-.24-.01zM186.5 107.84c-.19-.02-.37-.06-.52-.12-.23-.08-.4-.14-.5-.2-.19-.09-.34-.19-.46-.28-.07-.05-.21-.17-.42-.36-.1-.1-.22-.24-.35-.41-.12-.16-.22-.31-.3-.45-.09-.18-.17-.34-.23-.49-.05-.11-.1-.28-.16-.51-.06-.23-.1-.41-.13-.52l-.07-.55c-.02-.37-.04-.57-.04-.59 0-.12.01-.28.02-.5.01-.12.03-.31.06-.56.04-.22.08-.4.12-.55.05-.2.11-.38.17-.52.09-.23.17-.4.22-.51.1-.17.2-.33.3-.46.08-.1.2-.24.37-.43.15-.15.29-.27.42-.36.15-.11.31-.2.49-.28.12-.06.3-.13.52-.2.17-.05.35-.08.55-.1.17-.02.36-.04.56-.04.19 0 .38.01.55.04.25.03.43.07.53.1.18.05.35.11.51.2.19.08.34.17.48.27.13.09.27.21.43.35-.01-.01.12.13.37.41.03.05.05.08.05.12 0 .05-.02.09-.06.13l-.39.31-.38.3-.38.31c-.03.02-.07.04-.1.04-.06 0-.11-.02-.14-.06-.12-.15-.26-.28-.4-.38-.18-.12-.35-.19-.51-.23-.16-.05-.34-.07-.55-.07-.18 0-.36.02-.53.06-.16.04-.32.11-.5.22-.12.08-.24.2-.38.37-.12.15-.21.31-.27.46-.09.22-.15.39-.17.51-.04.16-.07.33-.08.54-.02.16-.04.33-.04.5 0 .19.01.38.04.57.01.14.05.31.09.51.05.16.1.33.17.5.09.19.17.35.26.45.09.13.22.25.37.37.14.11.29.19.46.24.19.05.36.08.52.08.18 0 .34-.02.49-.07.16-.05.31-.12.45-.21.09-.06.21-.18.35-.35.1-.12.19-.27.26-.43.06-.16.11-.32.14-.48.01-.02 0-.04-.01-.06-.02-.02-.04-.02-.06-.02h-.57l-.58-.01-.58.01c-.04 0-.08-.02-.11-.05-.04-.04-.05-.07-.05-.11v-.34l.01-.33-.01-.67c0-.04.02-.07.05-.1.03-.03.07-.05.11-.05h1.18c.12 0 .21 0 .29-.01.08 0 .18-.01.3-.01l.58.01c.12 0 .22 0 .3-.01.08 0 .17-.01.29-.01h.59c.05 0 .08.02.12.05s.05.07.05.11l-.01.42c0 .09 0 .17.01.22 0 .05.01.09.01.12 0 .15-.02.36-.05.64-.03.25-.06.43-.08.55-.05.22-.11.4-.15.52-.05.19-.12.36-.21.52-.11.22-.2.38-.27.48-.12.16-.23.31-.34.43-.14.15-.28.27-.42.37-.15.11-.3.21-.46.29-.08.05-.18.09-.3.12-.11.04-.19.06-.23.08-.12.04-.3.08-.54.13-.25.03-.43.05-.55.05h-.04c-.2.01-.38 0-.53-.03zM194.58 107.86c-.21-.03-.39-.07-.54-.12-.2-.05-.37-.12-.5-.19-.16-.07-.31-.16-.45-.28-.17-.13-.3-.25-.4-.37-.12-.13-.23-.28-.31-.43-.09-.18-.17-.34-.23-.49-.04-.11-.09-.28-.15-.51l-.05-.24c-.03-.11-.04-.21-.05-.29-.03-.2-.05-.38-.06-.53-.01-.11-.01-.29-.01-.54v-1.56c0-.1 0-.19-.01-.25 0-.07-.01-.16-.01-.27 0-.1 0-.19.01-.26s.01-.16.01-.27v-1.81c-.01-.05-.01-.13-.01-.26 0-.05.02-.09.05-.12.04-.04.08-.05.12-.05h.5c.09 0 .17 0 .24.01.07 0 .16.01.26.01.09 0 .17 0 .24-.01s.16-.01.26-.01c.04 0 .08.02.12.05.04.03.06.08.06.12l-.01.26-.01.25c0 .11 0 .2.01.27 0 .07.01.16.01.26 0 .11 0 .2-.01.27 0 .07-.01.16-.01.26 0 .11 0 .2.01.27 0 .07.01.16.01.26v2.08c0 .11 0 .2-.01.27 0 .07-.01.16-.01.26 0 .14.01.31.02.51 0 .05.02.22.07.5.04.23.08.39.14.49.06.17.15.31.28.42.13.11.28.18.45.22.15.03.32.05.51.05.21 0 .38-.02.5-.06.21-.05.36-.12.45-.21.1-.08.19-.22.28-.42.06-.15.11-.31.14-.49.02-.11.04-.28.06-.5.02-.22.02-.39.02-.51v-1.57c0-.1 0-.19.01-.25 0-.07.01-.16.01-.27v-.52c0-.1 0-.19-.01-.26 0-.07-.01-.16-.01-.27 0-.1 0-.19-.01-.26 0-.07-.01-.16-.01-.27V99.2c0-.05.02-.08.05-.12.04-.03.08-.05.12-.05.09 0 .17 0 .24-.01.07 0 .16-.01.26-.01h1c.05 0 .08.02.12.05.03.03.05.08.05.12V101.77c0 .11 0 .2.01.27 0 .07.01.15.01.25 0 .11 0 .2-.01.27 0 .07-.01.16-.01.26v.52c0 .11 0 .2.01.27 0 .07.01.16.01.26 0 .12-.01.3-.02.54-.01.15-.03.33-.06.53-.02.18-.06.36-.1.54-.02.13-.07.3-.15.51-.06.15-.14.31-.23.49-.12.2-.22.35-.3.44-.09.12-.23.24-.4.36-.14.1-.29.19-.45.28-.16.08-.33.14-.51.19-.16.05-.34.08-.52.1-.17.02-.35.03-.54.03-.26 0-.44-.01-.55-.02zM200.14 107.73c-.05 0-.08-.02-.12-.05-.03-.04-.05-.08-.05-.12V104.76l-.01-.56v-.57l.01-.56v-1.12l-.01-.56.01-.56-.01-.56v-.56l.01-.56c0-.05.02-.09.05-.12.03-.04.07-.05.12-.05h.55l.53.01h1.1c.11 0 .2 0 .27-.01.07 0 .16-.01.27-.01.12 0 .22 0 .3.01s.16.02.22.02c.22.03.4.06.54.08.12.02.28.07.5.15.2.08.36.15.49.22.12.08.26.19.42.33.14.12.26.25.36.4.09.13.17.29.24.48.07.19.12.35.15.5.02.12.02.29.02.53 0 .23-.02.43-.05.59-.05.23-.12.42-.19.57-.09.21-.19.38-.29.51-.16.19-.29.34-.41.44-.13.11-.3.22-.5.34-.02.01-.03.02-.03.05-.01.02-.01.04 0 .06.05.09.1.17.13.24.04.07.08.15.13.24l.27.46c.07.12.11.19.13.23l.13.24.27.46c.05.08.09.16.12.23s.08.15.14.25l.27.46c.05.08.09.16.12.23.04.07.08.15.15.25.01.01.01.02.01.05 0 .03-.01.06-.03.08s-.04.03-.06.03c-.12 0-.23 0-.3-.01s-.17-.01-.29-.01-.21 0-.29.01-.18.01-.3.01h-.58c-.05 0-.1-.01-.15-.04-.05-.03-.08-.06-.1-.11l-.27-.49-.27-.49-.28-.49-.28-.48c-.05-.1-.1-.18-.13-.25-.04-.07-.08-.15-.13-.25l-.28-.49c-.03-.05-.07-.07-.12-.07h-.75c-.05 0-.08.03-.08.08v.58l-.01.58.01.58c0 .12 0 .21-.01.29v.86c0 .05-.02.09-.05.12-.03.03-.07.05-.1.05h-.5c-.1 0-.19 0-.26.01-.07 0-.15.01-.24.01h-.51zm2.72-4.81c.2 0 .38-.02.53-.06.19-.04.35-.11.5-.21.18-.13.3-.26.36-.39.06-.15.09-.34.09-.59 0-.19-.03-.34-.09-.45-.05-.13-.18-.25-.37-.36-.16-.07-.32-.12-.5-.15-.1-.02-.28-.02-.52-.02l-.49-.01-.49.01c-.02 0-.04.01-.06.02s-.03.04-.03.06v.26c0 .07.01.16.01.27v1.55c0 .05.03.08.08.08h.98zM207 107.68c-.02-.04-.03-.07-.01-.11.05-.16.07-.24.07-.27l.08-.26c.03-.11.06-.2.09-.27l.08-.26c.05-.12.08-.22.1-.3.02-.07.04-.15.06-.24.03-.09.06-.17.09-.24.03-.07.06-.16.09-.28l.16-.52c.08-.23.14-.41.17-.52.02-.07.04-.13.05-.17s.02-.08.03-.1c0 .02.02-.07.07-.27l.09-.26.09-.27.16-.52c.06-.17.12-.34.17-.52.03-.1.06-.19.08-.26.02-.07.04-.16.08-.26.03-.09.06-.17.09-.24.03-.07.06-.16.1-.28l.16-.53.16-.52c.03-.09.06-.17.09-.24s.06-.16.09-.28l.16-.52c.04-.1.11-.15.21-.15h1.1c.11 0 .2 0 .27-.01.07 0 .16-.01.27-.01.05 0 .09.02.13.05.04.03.07.07.09.12.03.1.06.19.08.26.02.07.04.16.08.26l.09.27.09.26c.05.16.07.24.07.27.04.12.07.21.08.27l.09.25.09.26.16.54.16.52.16.52.17.52c.05.12.08.22.1.3.02.07.04.15.06.24.02.04.07.21.16.52l.19.52c.05.16.07.24.07.27l.08.26c.03.12.06.21.09.28.03.07.06.15.09.24l.17.54.16.52c.03.09.06.17.09.24.03.07.06.16.09.28v.04c0 .03-.01.06-.04.08-.03.02-.06.04-.09.04-.1 0-.19 0-.26.01-.07 0-.16.01-.27.01h-.52c-.11 0-.2 0-.27-.01-.07 0-.16-.01-.26-.01-.05 0-.09-.01-.13-.04-.04-.03-.07-.06-.08-.11-.06-.19-.12-.39-.17-.59l-.19-.58-.16-.59c-.02-.05-.05-.08-.11-.08-.15 0-.25 0-.3.01h-.59c-.05-.01-.14-.01-.29-.01l-.6.01h-.59c-.05 0-.09.02-.11.07-.06.19-.12.39-.17.59l-.17.58c-.02.09-.04.18-.06.26s-.05.19-.1.33c-.01.05-.03.08-.08.11-.04.03-.09.04-.14.04h-1.04c-.11 0-.2 0-.27.01-.07 0-.16.01-.26.01-.02-.03-.05-.05-.07-.08zm3.45-3.6h.94c.02 0 .04-.01.05-.02s.01-.03.01-.05l-.15-.51c-.02-.08-.04-.16-.06-.23-.02-.07-.04-.16-.08-.27-.03-.1-.06-.18-.08-.25-.02-.07-.04-.15-.08-.25-.05-.17-.1-.34-.15-.5-.03-.11-.06-.2-.08-.26-.02-.07-.05-.15-.07-.24 0-.02-.01-.02-.02-.02s-.02.01-.02.02l-.16.5-.06.24-.07.26-.08.26c-.03.08-.06.16-.08.24l-.14.5-.15.51c-.01.02-.01.03.01.05.01.02.03.03.05.03l.47-.01zM216.37 107.73c-.05 0-.09-.02-.12-.05s-.05-.08-.05-.12l.01-.56-.01-.56.01-.28v-.56l-.01-.28.01-.56-.01-.56.01-.56v-.56l-.01-.56.01-.56v-.56l.01-.56c0-.02-.01-.04-.03-.06-.02-.02-.04-.02-.06-.02h-.24c-.04.01-.12.01-.24.01l-.49-.01h-.72c-.05.01-.13.01-.24.01-.05 0-.08-.02-.12-.05-.03-.04-.05-.08-.05-.12 0-.09 0-.17-.01-.24 0-.07-.01-.16-.01-.26l.01-.46c0-.1 0-.18-.01-.24 0-.06-.01-.14-.01-.23 0-.05.02-.09.05-.12.04-.04.08-.05.12-.05l.54.01h.53l.54-.01H220.04c.05 0 .09.02.12.05.04.03.05.08.05.12v.97c0 .09 0 .17-.01.23v.24c0 .05-.02.08-.05.12-.03.03-.07.05-.12.05l-.49.01-.23-.01h-1.22c-.05 0-.08.03-.08.08l.01.56-.01.56.01.56-.01.28V104.22l.01.56-.01.28V105.9l-.01.56.01.28.01.28v.56c0 .05-.02.09-.05.12-.03.03-.08.05-.12.05-.12 0-.21 0-.26.01h-1.22zM223.76 107.85c-.14-.02-.32-.05-.55-.12-.23-.08-.41-.14-.52-.2-.19-.09-.34-.19-.47-.28-.15-.12-.3-.24-.43-.36-.08-.09-.21-.23-.36-.43-.12-.17-.22-.33-.3-.46-.09-.15-.16-.32-.23-.5-.05-.12-.1-.29-.16-.52-.02-.05-.04-.14-.07-.24-.03-.11-.05-.21-.06-.3-.03-.17-.05-.35-.07-.55-.02-.25-.02-.43-.02-.56 0-.25 0-.43.01-.55l.08-.55c.05-.25.08-.43.12-.54.04-.14.1-.31.19-.52.08-.21.16-.38.23-.5.05-.1.15-.25.3-.45.13-.17.25-.31.36-.42.05-.04.11-.09.19-.17.08-.07.16-.13.23-.18.14-.1.3-.19.48-.28.13-.05.31-.12.52-.19.18-.05.36-.08.54-.1.23-.03.41-.05.55-.05.1 0 .21.01.32.02.11.02.19.03.24.04.23.03.41.06.54.09.15.04.33.1.51.2.21.1.37.19.49.27.1.07.24.18.43.34.05.05.17.19.36.42.14.2.24.36.3.46.08.16.16.32.23.5.07.16.13.34.17.52.06.23.1.41.13.54.02.12.04.3.06.55.02.12.02.3.02.55s0 .43-.01.56c-.01.14-.03.32-.06.55-.01.05-.05.24-.14.55-.03.12-.06.22-.09.3-.03.09-.06.16-.08.22-.07.18-.15.35-.23.5-.1.18-.2.34-.3.48-.11.16-.23.3-.36.42-.12.12-.27.24-.43.36-.11.08-.27.17-.48.27-.16.08-.33.15-.51.21-.23.06-.41.1-.55.12-.18.02-.36.03-.56.03-.2-.02-.38-.03-.56-.05zm1.09-1.86c.17-.04.33-.11.49-.22.13-.09.26-.22.38-.38.11-.14.2-.29.27-.46.07-.16.13-.33.17-.51.05-.2.08-.38.09-.54.02-.12.02-.28.02-.48 0-.25-.01-.45-.02-.6-.04-.25-.07-.42-.09-.52-.03-.16-.08-.33-.16-.51-.05-.12-.15-.28-.28-.45-.15-.16-.28-.28-.4-.35-.16-.11-.32-.18-.49-.22-.14-.04-.32-.06-.53-.06-.17 0-.34.02-.52.06-.17.04-.33.11-.49.22-.14.08-.27.21-.38.36-.13.18-.23.33-.28.45-.06.13-.12.3-.16.5-.05.19-.08.36-.1.52-.02.16-.02.36-.02.6 0 .07.01.23.02.48.03.24.06.42.09.54.04.13.1.3.19.5.08.19.17.34.27.47.11.16.23.29.37.38.16.12.33.19.49.23.14.04.32.06.54.06.22-.01.4-.03.53-.07zM229.62 107.73c-.05 0-.08-.02-.12-.05s-.05-.08-.05-.12V104.76l-.01-.56v-.57l.01-.56v-1.12l-.01-.56.01-.56-.01-.56v-.56l.01-.56c0-.05.02-.09.05-.12.03-.04.07-.05.12-.05h.55l.54.01h1.1c.11 0 .2 0 .27-.01.07 0 .17-.01.27-.01.12 0 .22 0 .3.01.09.01.16.02.22.02.22.03.4.06.53.08.12.02.28.07.5.15.2.08.36.15.49.22.12.08.26.19.42.33.14.12.26.25.36.4.09.13.17.29.24.48.07.19.12.35.15.5.02.12.02.29.02.53 0 .23-.02.43-.05.59-.05.23-.12.42-.19.57-.09.21-.19.38-.29.51-.16.19-.29.34-.41.44-.13.11-.3.22-.5.34-.02.01-.03.02-.04.05s-.01.04 0 .06c.05.09.1.17.13.24.04.07.08.15.13.24l.27.46c.07.12.11.19.13.23l.13.24.27.46c.05.08.09.16.12.23s.08.15.15.25l.27.46c.05.08.09.16.12.23s.08.15.14.25c.01.01.01.02.01.05 0 .03-.01.06-.03.08-.02.02-.04.03-.06.03-.12 0-.22 0-.3-.01-.08 0-.17-.01-.29-.01s-.21 0-.29.01c-.08 0-.18.01-.3.01h-.58c-.05 0-.1-.01-.15-.04-.05-.03-.08-.06-.1-.11l-.27-.49-.27-.49-.28-.49-.28-.48c-.05-.1-.1-.18-.13-.25s-.08-.15-.13-.25l-.28-.49c-.03-.05-.07-.07-.12-.07h-.76c-.05 0-.08.03-.08.08v.58l-.01.58.01.58c0 .12 0 .21-.01.29 0 .08-.01.17-.01.28v.58c0 .05-.02.09-.05.12-.03.03-.07.05-.1.05h-.5c-.1 0-.19 0-.26.01-.07 0-.15.01-.24.01h-.48zm2.72-4.81c.2 0 .38-.02.54-.06.19-.04.35-.11.5-.21.18-.13.3-.26.36-.39.06-.15.09-.34.09-.59 0-.19-.03-.34-.09-.45-.05-.13-.18-.25-.37-.36-.15-.07-.32-.12-.5-.15-.1-.02-.28-.02-.52-.02l-.49-.01-.49.01c-.02 0-.04.01-.06.02-.02.02-.03.04-.03.06 0 .1 0 .19.01.26 0 .07.01.16.01.27v1.55c0 .05.03.08.08.08h.96zM239.25 107.87s-.06-.01-.17-.02c-.18-.02-.36-.06-.53-.1-.23-.06-.41-.12-.52-.16-.05-.02-.22-.09-.49-.23-.19-.1-.34-.19-.46-.28-.12-.07-.26-.17-.44-.31-.04-.04-.06-.08-.06-.12s.01-.07.04-.1c.07-.08.12-.16.16-.21.04-.05.08-.11.14-.17l.31-.37.3-.37c.02-.04.06-.06.12-.06.04 0 .08.01.12.03l.42.28c.15.08.3.15.45.21.22.08.39.12.49.14.15.02.31.04.5.04.21 0 .38-.02.52-.06.22-.05.37-.14.46-.26.13-.13.2-.29.2-.49 0-.17-.07-.32-.2-.45-.1-.11-.23-.21-.39-.31-.13-.07-.28-.14-.45-.21-.08-.04-.23-.1-.46-.2-.07-.03-.15-.06-.23-.09-.08-.03-.18-.07-.28-.12l-.5-.24c-.05-.02-.12-.06-.23-.12-.1-.06-.19-.11-.26-.17-.14-.1-.28-.22-.41-.36-.14-.15-.25-.3-.34-.45-.1-.19-.17-.36-.21-.52-.03-.16-.05-.35-.05-.58 0-.19.02-.36.05-.51.04-.21.09-.38.16-.52.1-.19.2-.35.29-.46.14-.16.27-.29.38-.4.12-.09.28-.19.46-.28.16-.09.33-.17.51-.22.2-.06.38-.1.52-.12.16-.03.34-.05.55-.05.23 0 .43.02.59.05.14.02.33.06.58.14.18.05.36.13.55.23.14.08.3.19.49.33.15.1.3.23.46.38.03.05.05.08.05.12 0 .05-.02.08-.05.12l-.34.35c-.06.06-.12.11-.17.16-.05.04-.11.1-.18.18l-.34.35c-.03.03-.07.05-.12.05-.05 0-.09-.02-.12-.05-.02-.02-.06-.06-.14-.13-.08-.07-.16-.13-.26-.19-.18-.11-.34-.18-.48-.21-.13-.03-.3-.05-.51-.05-.19 0-.35.02-.48.06-.17.04-.31.1-.43.2-.13.11-.2.25-.2.42 0 .19.1.36.3.5.09.08.27.18.54.3.06.02.14.06.23.1l.33.15.49.2c.22.09.38.17.48.22.07.03.22.12.45.27.15.09.29.2.42.31.14.14.25.27.35.4.07.09.15.25.24.46.06.17.11.34.14.51.03.2.05.36.05.49 0 .14-.02.33-.07.58-.05.19-.11.37-.19.53-.08.17-.19.33-.3.46-.14.17-.27.3-.4.4-.14.1-.29.2-.46.3-.15.07-.32.13-.52.19-.15.05-.34.09-.55.12-.12.02-.3.03-.56.03-.22-.04-.34-.04-.34-.04z"/>
    </g>
    <g>
        <path d="M79.17 62.92c-.11-.11-.17-.25-.17-.41 0-.04.02-.12.06-.24l5.57-12.46c.02-.04.03-.11.03-.21-.06-.28-.09-.59-.09-.91 0-.77.18-1.46.53-2.07.35-.61.82-1.04 1.39-1.28.08-.04.13-.08.15-.12.79-2.01 1.71-3.96 2.76-5.86 1.05-1.9 2.11-3.45 3.2-4.66 1.09-1.21 2.05-1.81 2.88-1.81.26 0 .51.06.73.18.57.3.85.87.85 1.71 0 .85-.28 1.79-.85 2.8-.45.81-1.03 1.68-1.74 2.59-.71.91-1.74 2.18-3.08 3.81l-1.1 1.31c-.04.02-.08.08-.12.18l-2.13 4.78c-.04.06-.03.12.03.18.26.37.62.66 1.07.88.45.22.95.33 1.52.33.65 0 1.21-.21 1.69-.62s.93-.99 1.36-1.72c.18-.28.41-.43.67-.43.22 0 .42.09.58.26.16.17.24.4.24.69 0 .3-.1.63-.3.97-.55 1-1.22 1.73-2.01 2.21-.79.48-1.64.72-2.56.72-1.24 0-2.35-.29-3.32-.88-.06-.04-.11-.02-.15.06l-4.14 9.38c-.1.24-.27.44-.5.59-.23.15-.48.23-.75.23h-1.92c-.14-.01-.26-.07-.38-.18zm15.4-26.18c.2-.37.38-.76.52-1.19.14-.43.15-.64.03-.64-.14 0-.51.42-1.1 1.25-.57.87-1.23 2.2-1.98 3.99-.02.02-.02.04.02.05.03.01.06 0 .08-.02 1.11-1.38 1.92-2.52 2.43-3.44z"/>
        <path d="M102.96 55.64c-.62-.35-1.06-.81-1.32-1.36-.04-.08-.11-.14-.2-.17-.09-.03-.18 0-.26.08-1.32 1.32-2.73 1.98-4.23 1.98-.93 0-1.7-.24-2.28-.72-.59-.48-1-1.15-1.22-2.03-.12-.47-.18-.95-.18-1.46 0-.93.19-1.98.58-3.14.47-1.3 1.13-2.44 2-3.43.86-.98 1.8-1.74 2.82-2.25 1.02-.52 1.98-.78 2.89-.78.65 0 1.19.08 1.61.23.43.15.81.4 1.16.75.14.14.25.27.33.38.08.11.13.19.15.23h.06c.02-.04.12-.27.3-.7.12-.24.29-.44.52-.59.22-.15.47-.23.73-.23h1.92c.22 0 .39.09.49.26.1.17.11.36.03.56-1.04 2.29-1.86 4.15-2.48 5.57-.62 1.42-1.1 2.6-1.45 3.53-.04.1-.06.23-.06.4 0 .26.1.48.3.64.2.16.47.24.79.24.37 0 .7-.09 1-.27.65-.35 1.28-.9 1.9-1.66.62-.76 1.17-1.57 1.66-2.42.14-.28.37-.43.67-.43.2 0 .39.09.56.26.17.17.26.4.26.69 0 .3-.1.63-.3.97-1 1.71-1.99 3.03-2.98 3.97-1 .94-2.2 1.42-3.62 1.42-.81.02-1.53-.16-2.15-.52zm-3.9-2.71c.64-.36 1.28-.86 1.92-1.51s1.15-1.39 1.54-2.22c.71-1.42 1.07-2.4 1.07-2.92 0-.41-.12-.71-.37-.91-.24-.2-.58-.3-1-.3-.69 0-1.44.26-2.25.79-1.42 1-2.46 2.35-3.11 4.05-.3.83-.46 1.56-.46 2.19 0 .91.37 1.37 1.1 1.37.4-.01.92-.18 1.56-.54z"/>
        <path d="M110.35 55.38c-.67-.61-1-1.36-1-2.25 0-.45.08-.89.24-1.34.37-1.02.77-2.06 1.22-3.12.45-1.07 1.23-2.84 2.35-5.31.1-.24.27-.44.5-.59.23-.15.48-.23.75-.23h1.92c.2 0 .36.09.47.26.11.17.13.35.05.53-.97 2.19-1.76 3.95-2.35 5.28-.59 1.33-1.03 2.38-1.31 3.15-.08.16-.12.36-.12.58 0 .39.13.71.4.96.26.25.61.38 1.04.38.97 0 2.23-.77 3.78-2.31-.37-.83-.55-1.76-.55-2.77 0-.55.06-1.11.18-1.68.22-1.02.6-1.84 1.13-2.47.53-.63 1.1-1.08 1.71-1.34.39-.16.77-.24 1.16-.24.22 0 .44.03.64.09.39.12.71.36.97.72s.4.81.4 1.36c0 .26-.05.6-.15 1-.14.57-.45 1.31-.93 2.24-.48.92-1.05 1.84-1.72 2.76.2.24.43.41.67.5s.54.14.88.14c.35 0 .7-.07 1.07-.21.37-.14.69-.32.98-.55.49-.41.98-1.02 1.49-1.83.18-.28.42-.43.7-.43.2 0 .38.08.53.24.15.16.23.39.23.67 0 .41-.15.84-.46 1.31-.63 1.06-1.38 1.84-2.24 2.35-.86.51-1.74.76-2.63.76-1.1 0-2.01-.29-2.74-.88-1.08 1.22-2.11 2.06-3.11 2.51-1 .46-2.05.69-3.17.69-1.33-.01-2.31-.32-2.98-.93zm11.22-8.77c.31-.71.47-1.21.47-1.49 0-.32-.11-.49-.33-.49-.14 0-.3.08-.47.24-.17.16-.32.39-.44.67-.33.73-.49 1.61-.49 2.65 0 .3.01.53.03.67.51-.79.92-1.54 1.23-2.25z"/>
        <path d="M128.26 55.72c-.77-.45-1.37-1.06-1.8-1.84-.43-.78-.64-1.67-.64-2.67 0-1.32.38-2.63 1.13-3.93.79-1.44 1.85-2.63 3.18-3.58 1.33-.94 2.73-1.42 4.19-1.42 1.38 0 2.48.45 3.31 1.36.82.9 1.23 2.08 1.23 3.52 0 1.36-.38 2.75-1.13 4.17-.02.02-.01.06.03.12.41.12.78.18 1.13.18.61 0 1.16-.21 1.66-.62.5-.42.99-1.05 1.48-1.9.16-.28.4-.43.7-.43.2 0 .38.08.53.24s.23.39.23.67c0 .41-.15.84-.46 1.31-.57 1-1.26 1.76-2.09 2.28-.82.53-1.71.79-2.67.79-.65 0-1.29-.12-1.92-.37-.08-.04-.14-.03-.18.03-.79.91-1.65 1.6-2.56 2.06-.91.46-1.83.69-2.74.69-.97.01-1.84-.21-2.61-.66zm4.78-2.42c.49-.21.96-.52 1.43-.93.04-.02.06-.05.06-.08s-.02-.06-.06-.08c-.47-.61-.8-1.22-1-1.83-.28-.79-.43-1.56-.43-2.31 0-.69.12-1.33.35-1.93.23-.6.59-1.09 1.08-1.48.06-.02.09-.05.08-.08-.01-.03-.05-.04-.11-.02-1.06.06-2.07.53-3.03 1.42-.96.88-1.64 2.17-2.03 3.85-.1.33-.15.71-.15 1.16 0 .81.22 1.45.67 1.92.45.47 1.02.7 1.71.7.47.01.94-.1 1.43-.31zm3.23-3.26c.02-.01.04-.02.06-.05.45-.97.67-1.89.67-2.74l-.03-.43c-.04-.22-.11-.39-.21-.5-.1-.11-.21-.17-.33-.17-.16 0-.32.09-.46.26s-.23.39-.27.65c-.04.28-.06.5-.06.64 0 .83.2 1.6.61 2.31-.01.03 0 .04.02.03z"/>
        <path d="M147.65 55.61c-.66-.38-1.1-.94-1.33-1.69-.08-.24-.12-.54-.12-.88 0-.45.08-.89.24-1.34.39-1.1.88-2.36 1.49-3.78.02-.04.03-.09.03-.15 0-.16-.06-.27-.18-.33-.37-.18-1.04-.49-2.01-.91-.08-.04-.14-.06-.18-.05-.04.01-.08.07-.12.17l-2.34 4.14c-.12.2-.27.36-.46.47-.18.11-.37.17-.55.17-.14 0-.27-.03-.4-.09-.24-.1-.37-.3-.37-.61 0-.28.11-.61.34-.97.53-.91 1.26-2.25 2.19-4.02.04-.06.02-.11-.06-.15-.49-.3-.86-.69-1.13-1.16-.22-.45-.33-.86-.33-1.25 0-.3.06-.59.18-.85.12-.3.3-.57.55-.81.24-.23.53-.39.85-.47.22-.06.44-.09.64-.09.57 0 1.04.18 1.4.55.47.43.7 1 .7 1.71 0 .14-.02.38-.06.7l-.15.49c-.02.02-.02.04 0 .06.02.02.05.03.09.03 1.34.41 2.29.66 2.86.76.51.12.92.27 1.25.44.32.17.57.43.73.78.1.26.15.52.15.76 0 .33-.11.77-.33 1.34l-1.04 2.68c-.04.08-.13.3-.27.67-.14.37-.21.66-.21.88 0 .26.11.48.33.64.2.16.46.24.76.24.35 0 .68-.1 1.01-.3.65-.35 1.28-.9 1.9-1.66.62-.76 1.17-1.57 1.66-2.42.14-.28.37-.43.67-.43.2 0 .39.09.55.26.16.17.24.4.24.69 0 .35-.09.67-.27.97-.34.65-.69 1.23-1.04 1.74-.77 1.16-1.6 2.06-2.5 2.7s-1.93.96-3.11.96c-.84-.02-1.59-.21-2.25-.59zm-2.91-11.8l.09-.3c.02-.08.03-.18.03-.3 0-.18-.03-.3-.09-.37-.08-.04-.14-.06-.18-.06h-.09c-.12.04-.21.12-.27.24v.15c0 .14.03.26.09.37.06.14.15.25.27.33.06.06.11.04.15-.06z"/>
        <path d="M155.17 55.28c-.66-.6-.99-1.36-.99-2.27 0-.43.08-.86.24-1.31.33-.95.73-2 1.22-3.14s1.27-2.9 2.35-5.3c.1-.24.27-.44.5-.59.23-.15.48-.23.75-.23h1.92c.2 0 .36.09.47.26.11.17.13.36.05.56-.96 2.09-1.73 3.83-2.33 5.21-.6 1.38-1.04 2.45-1.33 3.2-.22.53-.33.9-.33 1.13 0 .26.11.48.33.64.2.16.46.24.76.24.34 0 .68-.1 1-.3 1.14-.59 2.33-1.95 3.56-4.08.14-.28.37-.43.67-.43.22 0 .42.09.58.26.16.17.24.4.24.69 0 .3-.1.63-.3.97-.3.59-.64 1.17-1 1.74-.79 1.16-1.63 2.06-2.53 2.7s-1.92.96-3.08.96c-1.17-.01-2.09-.31-2.75-.91zm5.48-15.46c-.36-.35-.53-.77-.53-1.28s.18-.93.53-1.28c.36-.35.78-.52 1.26-.52.51 0 .94.17 1.29.52.36.35.53.77.53 1.28s-.18.93-.53 1.28-.79.52-1.29.52c-.48 0-.9-.18-1.26-.52z"/>
        <path d="M163.15 55.29c-.68-.59-1.02-1.34-1.02-2.25 0-.41.08-.85.24-1.34.33-.97 2.07-5.03 5.24-12.15.02-.02.02-.05 0-.08s-.04-.05-.06-.05l-1.52-.03c-.18-.02-.33-.09-.44-.21-.11-.12-.17-.27-.17-.46s.06-.34.17-.47c.11-.13.26-.2.44-.2l2.19-.12c.08 0 .13-.03.15-.09l1.43-3.2c.1-.24.27-.44.5-.59s.48-.23.75-.23h1.92c.2 0 .37.09.49.26s.13.35.03.53l-1.34 2.98c-.02.02-.02.05 0 .08s.04.05.06.05l1.65-.09c.37-.02.65.07.87.26.21.19.32.43.32.72 0 .28-.11.53-.32.73-.21.2-.5.29-.87.27l-2.47-.06c-.06 0-.11.03-.15.09l-.46 1.04-.49 1.1c-1.2 2.66-2.13 4.75-2.8 6.26-.67 1.51-1.18 2.73-1.52 3.64-.16.39-.24.74-.24 1.07 0 .3.09.54.26.7.17.16.4.24.69.24.41 0 .86-.13 1.36-.4.5-.26.97-.64 1.42-1.13.71-.73 1.4-1.69 2.07-2.86.16-.28.39-.43.67-.43.22 0 .42.09.58.26.16.17.24.4.24.69 0 .3-.1.63-.3.97-.67 1.16-1.31 2.12-1.92 2.88-.61.76-1.29 1.37-2.04 1.81-.83.47-1.77.7-2.8.7-1.2 0-2.13-.3-2.81-.89z"/>
        <path d="M172.7 54.85c-.98-.96-1.46-2.2-1.46-3.7 0-1.32.38-2.64 1.13-3.96.79-1.4 1.83-2.58 3.12-3.55 1.29-.96 2.63-1.45 4.04-1.45 1.1 0 1.97.3 2.62.91.65.61.98 1.35.98 2.22 0 .91-.38 1.78-1.13 2.59-.85.89-1.89 1.53-3.11 1.92-1.22.39-2.62.63-4.2.73-.08 0-.12.03-.12.09-.04.91.23 1.67.81 2.25.58.59 1.41.88 2.48.88.69 0 1.43-.13 2.22-.4 1.81-.55 3.35-1.91 4.63-4.08.14-.28.37-.43.67-.43.22 0 .42.09.58.26.16.17.24.4.24.69 0 .3-.1.63-.3.97-2.19 3.66-5.21 5.48-9.05 5.48-1.8.03-3.18-.45-4.15-1.42zm7.22-7.9c.24-.22.45-.47.61-.73.16-.26.24-.51.24-.73 0-.45-.27-.67-.82-.67-.18 0-.5.05-.94.15-.79.24-1.54.68-2.25 1.31s-1.26 1.4-1.64 2.31c-.02.02-.02.04 0 .06.02.02.04.02.06 0 2.24-.32 3.82-.89 4.74-1.7z"/>
    </g>
    <g>
        <path d="M100.77 85.65c-.1 0-.19-.04-.26-.12-.07-.08-.1-.17-.1-.27v-6.25l-.03-1.25V76.5l.03-1.25v-2.5l-.03-1.25.03-1.25-.03-1.25v-1.25l.03-1.25c0-.1.03-.2.1-.27.07-.08.16-.12.26-.12h1.22l1.2.03h2.44c.24 0 .45 0 .61-.01.16-.01.37-.01.61-.01.26 0 .49.01.68.03.19.02.35.04.49.05.5.07.9.13 1.2.18.26.05.63.17 1.12.34.45.17.81.34 1.09.49.28.17.59.42.94.73.31.26.58.56.81.88.21.29.39.65.55 1.07.16.42.27.79.34 1.12.03.26.05.66.05 1.2 0 .52-.04.96-.1 1.33-.12.52-.26.94-.42 1.27-.21.47-.43.85-.65 1.14-.35.43-.65.76-.91.99-.29.24-.67.49-1.12.75-.04.02-.06.05-.08.1s-.02.1 0 .13l.3.53c.08.15.18.33.3.53l.6 1.04c.16.26.25.43.29.52l.29.55.6 1.04.27.51c.08.15.19.33.33.56l.6 1.04c.1.19.2.36.27.51.08.15.19.33.33.56.02.02.03.05.03.1 0 .07-.02.13-.06.17-.04.04-.09.06-.14.06-.28 0-.5 0-.68-.01-.17-.01-.39-.01-.65-.01s-.48 0-.65.01-.4.01-.68.01h-1.3c-.12 0-.23-.03-.34-.09-.1-.06-.18-.14-.23-.25l-.6-1.09-.6-1.09-.62-1.09-.62-1.07c-.12-.22-.22-.41-.3-.56-.08-.15-.18-.33-.3-.56l-.62-1.09c-.07-.1-.16-.16-.26-.16h-1.69c-.12 0-.18.06-.18.18v1.3l-.03 1.3.03 1.3c0 .26 0 .48-.01.65s-.01.38-.01.62v1.3c0 .1-.04.19-.1.26-.07.07-.15.1-.23.1H103c-.23 0-.42 0-.57.01-.16.01-.34.01-.55.01h-1.11zm6.08-10.76c.45 0 .85-.04 1.2-.13.42-.09.79-.24 1.12-.47.4-.29.67-.59.81-.88.14-.33.21-.77.21-1.33 0-.42-.07-.75-.21-1.01-.12-.29-.4-.56-.83-.81-.35-.16-.72-.27-1.12-.34-.23-.04-.62-.05-1.17-.05l-1.09-.03-1.09.03c-.05 0-.1.02-.14.05-.04.04-.06.08-.06.13 0 .23 0 .42.01.57.01.16.01.36.01.6V74.7c0 .12.06.18.18.18h2.17zM119.41 85.63H117.74c-.1 0-.19-.04-.26-.1-.07-.07-.1-.16-.1-.26v-.62c-.02-.1-.03-.31-.03-.62l.03-1.25v-1.87c-.02-.1-.03-.31-.03-.62l.03-1.25v-1.25c0-.26 0-.48-.01-.65-.01-.17-.01-.38-.01-.62l.03-1.25V71.5l-.03-1.25.03-1.25v-1.25l-.03-1.25c0-.1.04-.2.12-.27.08-.08.17-.12.27-.12H121.11c.09 0 .16.04.23.12.07.08.1.17.1.27l.03 1.25v2.5l-.03 1.25v6.27c0 .31.01.52.03.62v1.24c-.02.1-.03.31-.03.62v1.25l.03.62v3.12c0 .1-.04.2-.12.27-.08.08-.16.12-.25.12h-1.12c-.28.02-.47.01-.57 0zM131.71 85.89c-.43-.05-.82-.14-1.17-.26-.52-.17-.89-.32-1.12-.44-.42-.21-.76-.42-1.04-.62-.16-.1-.47-.37-.94-.81-.23-.23-.49-.53-.78-.91-.28-.36-.5-.7-.68-1.01-.21-.4-.38-.76-.52-1.09-.1-.24-.23-.62-.36-1.14-.14-.52-.23-.91-.29-1.17l-.16-1.22c-.05-.83-.08-1.27-.08-1.33 0-.26.02-.63.05-1.12.02-.28.06-.69.13-1.25.09-.49.17-.89.26-1.22.12-.45.25-.84.39-1.17.21-.52.37-.9.49-1.14.22-.38.45-.73.68-1.04.17-.22.45-.55.83-.96.35-.35.66-.62.94-.81.33-.24.69-.45 1.09-.62.28-.14.67-.29 1.17-.44.38-.1.79-.18 1.22-.23.38-.05.8-.08 1.25-.08.43 0 .84.03 1.22.08.55.07.95.15 1.2.23.4.1.78.25 1.14.44.42.19.77.39 1.07.6s.62.47.96.78c-.02-.02.26.29.83.91.07.1.1.19.1.26 0 .1-.04.2-.13.29l-.88.7-.86.68-.86.7c-.07.05-.15.08-.23.08-.14 0-.24-.04-.31-.13-.28-.35-.57-.63-.88-.86-.4-.26-.78-.43-1.14-.52-.35-.1-.75-.16-1.22-.16-.4 0-.8.04-1.2.13-.35.09-.72.25-1.12.49-.26.17-.55.45-.86.83-.26.35-.46.69-.6 1.04-.21.49-.34.87-.39 1.14-.09.35-.15.75-.18 1.2-.05.36-.08.74-.08 1.12 0 .43.03.86.08 1.27.03.31.1.69.21 1.14.1.36.23.74.39 1.12.19.43.38.77.57 1.01.21.29.48.57.83.83.31.24.66.42 1.04.55.42.12.81.18 1.17.18.4 0 .76-.05 1.09-.16.36-.1.7-.26 1.01-.47.21-.14.47-.4.78-.78.23-.28.42-.6.57-.96.14-.36.24-.72.31-1.07.02-.05.01-.1-.03-.13-.03-.04-.08-.05-.13-.05h-1.27l-1.3-.03-1.3.03c-.09 0-.17-.04-.25-.12-.08-.08-.12-.16-.12-.25v-.75l.03-.73-.03-1.51c0-.09.04-.17.12-.23.08-.07.16-.1.25-.1h2.66c.26 0 .48 0 .65-.01.17-.01.4-.01.68-.01l1.3.03c.28 0 .5 0 .68-.01.17-.01.39-.01.65-.01h1.33c.1 0 .19.04.26.12s.1.16.1.25l-.03.94c0 .21 0 .37.01.48.01.11.01.2.01.27 0 .33-.04.81-.1 1.43-.07.55-.13.96-.18 1.22-.12.5-.23.89-.34 1.17-.12.42-.28.81-.47 1.17-.24.49-.44.84-.6 1.07-.26.36-.51.68-.75.96-.31.33-.62.61-.94.83-.33.24-.68.46-1.04.65-.19.1-.41.19-.66.27s-.42.13-.51.17c-.28.09-.68.18-1.2.29-.56.07-.96.1-1.22.1h-.08c-.43-.02-.83-.06-1.17-.12zM144.37 85.65c-.1 0-.2-.04-.27-.12-.08-.08-.12-.17-.12-.27l.03-1.25V76.5l-.03-1.25c0-.31.01-.52.03-.62v-1.25l-.03-.62.03-1.25v-5c0-.1.04-.2.1-.27.07-.08.16-.12.26-.12h1.12c.28 0 .46.01.55.03h.57c.28 0 .46-.01.55-.03h.57c.09 0 .17.04.25.12.08.08.12.17.12.27V73.48c0 .12.06.18.18.18l1.25-.03c.24 0 .45 0 .61.01.17.01.37.01.61.01H152l1.25-.03c.24 0 .45 0 .61.01.17.01.37.01.61.01.12 0 .18-.06.18-.18V71.72c.02-.1.03-.3.03-.6 0-.28-.01-.47-.03-.57V69.4c.02-.09.03-.28.03-.57v-1.17l-.03-1.14c0-.1.04-.19.12-.26s.16-.1.25-.1c.23 0 .42 0 .57-.01s.34-.01.55-.01h1.12c.22 0 .42 0 .57.01.16.01.34.01.55.01.1 0 .19.04.27.1s.12.16.12.26v1.25l-.03 1.25.03 1.25v1.25l-.03 1.25.03 1.25-.03 1.25v1.25c0 .26 0 .48.01.65.01.17.01.38.01.62l-.03 1.25v.62c.02.1.03.31.03.62l-.03 1.25v3.75c0 .1-.03.19-.1.26s-.16.1-.26.1H155c-.09 0-.17-.04-.25-.1-.08-.07-.12-.16-.12-.26 0-.26 0-.48.01-.65.01-.17.01-.38.01-.62l-.03-1.3c0-.24 0-.45.01-.62.01-.17.01-.39.01-.65v-1.3c0-.24 0-.45-.01-.62-.01-.17-.01-.39-.01-.65l.03-1.3c0-.05-.02-.1-.07-.13-.04-.04-.09-.05-.14-.05h-.62l-.6.03-1.25-.03H148.25c-.05 0-.1.02-.14.05-.04.03-.06.08-.06.13 0 .35.01.57.03.68V83.37c-.02.1-.03.32-.03.65 0 .26 0 .48.01.65.01.17.01.38.01.62 0 .1-.04.19-.12.26-.08.07-.16.1-.25.1h-1.12c-.28 0-.47.01-.57.03H144.37zM166.5 85.65c-.1 0-.2-.04-.27-.12-.08-.08-.12-.17-.12-.27l.03-1.25-.03-1.25.03-.62V80.9l-.03-.62.03-1.25-.03-1.25.03-1.25v-1.25l-.03-1.25.03-1.25v-1.25l.03-1.25c0-.05-.02-.1-.07-.13-.04-.03-.09-.05-.14-.05h-.55c-.09.02-.27.03-.55.03l-1.09-.03h-1.62c-.1.02-.29.03-.55.03-.1 0-.19-.04-.26-.12s-.1-.17-.1-.27c0-.21 0-.39-.01-.55-.01-.16-.01-.35-.01-.57l.03-1.04c0-.23 0-.41-.01-.55s-.01-.31-.01-.52c0-.1.04-.2.12-.27.08-.08.17-.12.27-.12l1.2.03h1.2l1.2-.03H174.79c.1 0 .19.04.27.12.08.08.12.17.12.27v2.16c0 .21 0 .38-.01.52s-.01.32-.01.55c0 .1-.03.19-.1.26s-.16.1-.26.1l-1.09.03-.52-.03H170.46c-.12 0-.18.06-.18.18l.03 1.25-.03 1.25.03 1.25-.03.62v3.12l.03 1.25-.03.62v1.87l-.03 1.25.03.62.03.62v1.25c0 .1-.04.19-.12.26-.08.07-.17.1-.27.1-.28 0-.47.01-.57.03h-2.85zM186.12 85.65s-.08 0-.23-.01-.34-.01-.55-.01c-.23 0-.42 0-.57.01s-.34.01-.55.01c-.1 0-.19-.04-.26-.12-.07-.08-.1-.17-.1-.27v-3.12c-.02-.1-.03-.31-.03-.62s.01-.52.03-.62v-3.14l-.03-1.25v-1.25c0-.31.01-.52.03-.62v-1.26l-.03-.62v-1.25l.03-1.25v-.62l-.03-.62.03-1.25V66.5c0-.09.04-.16.1-.23.07-.07.16-.1.26-.1h2.24c.21 0 .39 0 .55-.01.16-.01.34-.01.55-.01.24 0 .43.11.57.34l.6 1.09c.12.23.22.41.3.56.08.15.18.33.3.56.21.36.41.74.6 1.12l.65 1.09.6 1.09c.1.21.19.39.27.53s.19.34.33.58l.62 1.12.6 1.09c.1.19.2.36.3.51.1.15.2.35.33.61.14.24.25.44.33.58s.17.33.27.53h.05c.03 0 .05-.01.05-.03v-.62c-.02-.12-.03-.36-.03-.73 0-.19 0-.36.01-.52.01-.16.01-.35.01-.6V73.23c-.02-.1-.03-.31-.03-.62 0-.24 0-.45.01-.61.01-.16.01-.37.01-.61v-3.04c-.02-.1-.03-.31-.03-.62 0-.24 0-.45.01-.61.01-.16.01-.37.01-.61 0-.09.03-.17.1-.25.07-.08.16-.12.26-.12H198.02c.09 0 .17.04.25.12.08.08.12.16.12.25V82.14c-.02.1-.03.31-.03.62l.03 1.25-.03 1.25c0 .1-.03.19-.1.26s-.15.1-.23.1h-1.69c-.09.02-.27.03-.55.03-.21 0-.39 0-.55-.01-.16-.01-.35-.01-.57-.01-.26 0-.44-.1-.55-.31l-.62-1.12-.6-1.09c-.1-.17-.3-.55-.6-1.12l-.62-1.12-.62-1.09-.6-1.09-.31-.57c-.05-.14-.15-.32-.29-.55l-.6-1.12-.62-1.09c-.1-.19-.2-.36-.3-.51-.1-.15-.2-.35-.33-.61l-.05-.03c-.04 0-.05.02-.05.05 0 .24 0 .45.01.61s.01.37.01.61v6.1c0 .24 0 .45-.01.61s-.01.37-.01.61 0 .45.01.61c.01.17.01.37.01.61v1.22c0 .1-.04.19-.12.26-.08.07-.16.1-.25.1-.22 0-.42 0-.57.01-.16.01-.34.01-.55.01-.2.03-.32.03-.32.03zM208.64 85.91c-.31-.04-.72-.12-1.22-.26-.52-.17-.91-.32-1.17-.44-.42-.21-.76-.42-1.04-.62-.35-.26-.67-.53-.96-.81-.19-.19-.46-.51-.81-.96-.28-.38-.5-.73-.68-1.04-.19-.35-.36-.72-.52-1.12-.1-.26-.23-.65-.36-1.17-.04-.12-.09-.3-.16-.55-.07-.24-.11-.47-.13-.68-.07-.38-.12-.79-.16-1.22-.04-.55-.05-.97-.05-1.25 0-.55.01-.96.03-1.22l.18-1.22c.1-.55.19-.95.26-1.2.09-.31.22-.7.42-1.17.19-.47.36-.84.52-1.12.1-.23.33-.56.68-1.01.29-.38.56-.69.81-.94.1-.09.25-.21.43-.38s.35-.3.51-.4c.31-.22.67-.43 1.07-.62.29-.12.68-.26 1.17-.42.4-.1.8-.18 1.2-.23.52-.07.93-.1 1.22-.1.23 0 .46.02.71.05.25.04.43.06.53.08.52.07.92.14 1.2.21.35.09.73.23 1.14.44.47.23.83.42 1.09.6.23.16.55.41.96.75.1.1.37.42.81.94.31.45.54.8.68 1.04.19.35.36.72.52 1.12.16.36.29.75.39 1.17.14.52.23.92.29 1.2.05.26.09.67.13 1.22.03.26.05.67.05 1.22s-.01.97-.03 1.25c-.02.31-.06.72-.13 1.22-.02.12-.12.53-.31 1.22-.07.26-.14.49-.21.68s-.13.36-.18.49c-.16.4-.33.77-.52 1.12-.23.4-.45.75-.68 1.07-.24.36-.51.68-.81.94-.28.28-.6.55-.96.81-.24.17-.6.37-1.07.6-.35.17-.73.33-1.14.47-.5.14-.91.23-1.22.26-.4.05-.81.08-1.25.08-.42-.02-.83-.05-1.23-.1zm2.44-4.16c.38-.09.75-.25 1.09-.49.29-.21.58-.49.86-.86.24-.31.44-.66.6-1.04.16-.36.29-.75.39-1.14.12-.45.19-.85.21-1.2.03-.28.05-.63.05-1.07 0-.55-.02-1.01-.05-1.35-.09-.55-.16-.94-.21-1.17-.07-.36-.19-.75-.36-1.14-.12-.28-.33-.62-.62-1.01-.33-.36-.62-.62-.88-.78-.35-.24-.71-.41-1.09-.49-.31-.09-.71-.13-1.2-.13-.38 0-.77.04-1.17.13-.38.09-.75.25-1.09.49-.31.19-.6.46-.86.81-.29.4-.5.74-.62 1.01-.14.29-.26.67-.36 1.12-.1.42-.18.81-.23 1.17-.04.36-.05.82-.05 1.35 0 .16.02.51.05 1.07.07.54.14.94.21 1.2.09.29.22.67.42 1.12.17.42.37.76.6 1.04.24.36.52.65.83.86.36.26.73.43 1.09.52.31.09.71.13 1.2.13.49-.02.9-.06 1.19-.15zM226.58 85.65h-1.69c-.17 0-.32 0-.44-.01s-.26-.01-.42-.01c-.1 0-.17-.06-.21-.18-.04-.17-.06-.32-.09-.44s-.06-.28-.09-.47c-.07-.29-.13-.6-.18-.91-.07-.29-.13-.6-.18-.91-.07-.29-.13-.6-.18-.91-.04-.17-.07-.33-.09-.46-.03-.13-.06-.28-.09-.46-.04-.21-.07-.37-.1-.49-.04-.12-.07-.26-.1-.42l-.16-.91c-.05-.21-.09-.38-.1-.51-.02-.13-.04-.26-.05-.4l-.21-.91c-.07-.36-.13-.67-.18-.91-.05-.31-.11-.62-.18-.91-.05-.31-.11-.62-.18-.91-.02-.14-.04-.27-.05-.4-.02-.13-.05-.3-.1-.51-.04-.19-.07-.35-.09-.47-.03-.12-.06-.27-.09-.44-.05-.21-.09-.38-.1-.51-.02-.13-.04-.26-.05-.4-.04-.16-.07-.29-.1-.42-.03-.12-.07-.29-.1-.49-.05-.23-.09-.4-.1-.52-.02-.12-.03-.26-.05-.42-.07-.29-.13-.6-.18-.91l-.21-.91-.18-.88c-.03-.19-.06-.35-.08-.47-.02-.12-.04-.28-.08-.47-.02-.03-.01-.07.01-.1.03-.04.06-.05.12-.05h2.84c.19 0 .35 0 .48-.01s.29-.01.48-.01c.1 0 .17.06.21.18l.16.94.18.94c.07.29.13.6.18.91l.16.94c.03.19.07.35.09.47.03.12.06.27.09.44l.18.94.16.94c.02.14.03.27.05.4.02.13.05.3.1.51.04.23.07.4.1.52s.07.26.1.42c.02.16.04.29.05.42.02.12.05.29.1.52l.16.91.16.94c.05.21.09.38.1.51.02.13.03.26.05.4.04.04.05.04.05 0 .16-.54.24-.84.26-.91.03-.16.06-.29.08-.42.02-.12.06-.29.13-.52.07-.31.15-.62.23-.91l.18-.94.23-.94c.1-.38.18-.68.23-.91.07-.22.11-.4.13-.52s.04-.26.08-.42l.23-.94c.03-.17.07-.32.1-.44s.08-.28.13-.47l.23-.94.21-.91c.03-.16.06-.29.08-.42.02-.12.06-.29.13-.52.02-.07.1-.37.26-.91.03-.14.1-.21.21-.21h.81l.83.03h1.62c.14 0 .22.05.23.16l.23.94.21.91.23.94.23.94c.04.19.07.35.09.48.03.13.06.28.09.46l.23.91c.02.07.1.37.26.91l.21.94.23.94c.04.17.07.33.09.46.03.13.06.28.09.46l.23.94c.05.19.1.35.13.47.04.12.07.27.1.44l.23.94.18-.94c.03-.21.07-.37.1-.49.04-.12.07-.26.1-.42.02-.16.03-.29.05-.42s.05-.29.1-.52l.16-.91.16-.94.18-.91c.05-.22.09-.4.1-.52.02-.12.03-.26.05-.42l.18-.94c.05-.21.09-.38.1-.51s.03-.26.05-.4l.18-.94.16-.94.21-.91c.05-.31.11-.62.18-.91 0-.05.02-.1.05-.14.03-.04.08-.06.13-.06.19 0 .35 0 .48.01s.29.01.48.01h1.88c.19 0 .35 0 .48-.01s.29-.01.48-.01c.04 0 .07.02.1.06.03.04.04.08.03.12-.02.16-.03.29-.05.42s-.05.29-.1.52c-.04.17-.07.32-.09.44-.03.12-.06.28-.09.47-.04.17-.06.33-.09.46s-.06.28-.09.46c-.04.21-.07.37-.1.49s-.07.26-.1.42l-.16.91c-.04.17-.06.32-.09.44s-.06.28-.09.47c-.04.17-.07.33-.09.46-.03.13-.06.28-.09.46l-.18.91-.16.91c-.03.17-.06.33-.09.46s-.06.28-.09.46c-.04.19-.07.35-.09.47-.03.12-.06.27-.09.44-.04.19-.07.34-.1.46-.04.11-.07.26-.1.46-.07.29-.13.6-.18.91-.04.17-.06.32-.09.46-.03.13-.06.28-.09.46-.05.31-.11.62-.18.91-.05.31-.11.62-.18.91l-.16.91-.21.91c-.05.31-.11.62-.18.91-.05.31-.11.62-.18.91-.02.14-.04.27-.05.4s-.05.3-.1.51c-.04.12-.1.18-.21.18-.17 0-.32 0-.44.01s-.26.01-.42.01h-1.69c-.16 0-.29 0-.42-.01-.12-.01-.27-.01-.44-.01l-.83.03c-.1 0-.17-.07-.21-.21-.04-.17-.08-.32-.13-.46-.05-.13-.1-.27-.13-.43l-.18-.88-.26-.88c-.03-.16-.06-.29-.09-.42-.03-.12-.06-.29-.12-.49l-.22-.97-.23-.88-.23-.88c-.05-.19-.09-.35-.12-.47s-.06-.27-.12-.44l-.18-.88c-.04-.14-.07-.27-.12-.39s-.09-.29-.14-.49l-.23-.88-.21-.88-.03-.03v.03l-.23.88-.21.88-.23.88-.21.91-.23.88c-.07.21-.11.37-.13.49-.02.12-.04.25-.08.39s-.07.27-.12.39-.09.29-.14.49c-.04.17-.07.32-.09.46-.03.13-.06.28-.09.46-.04.14-.07.27-.12.39-.04.12-.09.29-.14.49l-.23.88-.21.88c-.03.17-.06.33-.09.46s-.06.28-.09.46c-.02.1-.1.16-.26.16l-.83.03h-.87z"/>
    </g>
</svg>
