<svg id="Ebene_1" xmlns="http://www.w3.org/2000/svg" viewBox="0 0 250.72 113.04">
    <path d="M9.96 28.21s-.17-.04-.49-.1c-.38-.05-.75-.16-1.12-.31-.5-.19-.85-.35-1.04-.47-.36-.21-.68-.43-.94-.68-.14-.1-.29-.25-.44-.43-.16-.18-.27-.32-.34-.4-.21-.29-.42-.62-.65-.96-.02-.02-.03-.03-.04-.05l-.04-.08c-.03-.07-.05-.13-.05-.18 0-.14.06-.25.18-.34l.86-.57.88-.55.88-.55c.07-.03.14-.05.21-.05.1 0 .2.05.29.16l.1.18c.21.38.53.69.96.94.42.23.85.34 1.3.34 0-.02.01-.03.03-.03.47 0 .85-.11 1.14-.34.31-.24.55-.57.7-.99.1-.35.16-.75.16-1.2l.03-1.3c0-.24 0-.44.01-.58.01-.15.01-.34.01-.58l-.03-1.4v-2.54l-.03-1.3v-1.27l.03-1.3c0-.24 0-.45-.01-.62-.01-.17-.01-.39-.01-.65v-1.3c0-.1.04-.19.12-.26.08-.07.17-.1.27-.1h1.12c.21 0 .39 0 .55-.01.16-.01.35-.01.57-.01h1.09c.1 0 .19.04.27.12.08.08.12.17.12.27v3.19c-.02.1-.03.32-.03.65 0 .26 0 .48.01.65.01.17.01.38.01.62V18.97c0 .26 0 .48-.01.65-.01.17-.01.38-.01.62 0 .17 0 .31.01.4.01.1.01.18.01.25v.65c0 .47-.03.91-.08 1.33-.09.47-.19.91-.31 1.33-.19.54-.36.94-.52 1.22-.21.36-.49.72-.83 1.07-.26.28-.56.53-.88.75-.35.24-.7.42-1.07.55-.28.12-.66.23-1.14.31-.49.07-.88.1-1.17.1-.43.01-.64.01-.64.01zM25.81 27.85h-2.52c-.24 0-.45 0-.62-.01-.17-.01-.39-.01-.65-.01h-1.25c-.1 0-.19-.03-.26-.1s-.1-.16-.1-.26v-1.25l-.03-1.25v-1.25c0-.31.01-.52.03-.62V18.71l-.03-1.25c0-.31.01-.52.03-.62v-.64l-.03-1.25V9.96l.03-1.25c0-.1.03-.2.1-.27.07-.08.16-.12.26-.12h1.22c.26 0 .48 0 .65.01s.39.01.65.01H26.93l1.25-.03H30.65c.24 0 .45 0 .61.01.16.01.37.01.61.01.1 0 .19.04.26.1.07.07.1.15.1.23l.03 1.09-.03 1.09c0 .21 0 .38.01.52s.01.32.01.55c0 .1-.04.19-.12.26-.08.07-.17.1-.27.1H30.06l-.6.03c-.24 0-.45 0-.61-.01-.17-.01-.37-.01-.61-.01H24.64c-.05 0-.1.02-.14.05-.04.04-.06.08-.06.13v1.07c0 .23 0 .41.01.55.01.14.01.31.01.52s0 .38-.01.52-.01.32-.01.55c0 .05.02.1.06.13.04.04.09.05.14.05H30.3c.1 0 .19.03.26.1s.1.16.1.26c0 .29 0 .54-.01.74s-.01.45-.01.74 0 .54.01.74c.01.2.01.45.01.74 0 .1-.03.19-.1.27s-.16.12-.26.12h-1.14c-.23 0-.42 0-.57-.01-.16-.01-.34-.01-.55-.01l-1.14.03-1.14-.03h-1.12c-.05 0-.1.02-.14.05-.04.03-.06.08-.06.13 0 .33.01.55.03.68V22.35l-.03 1.3c0 .05.02.1.06.14.04.04.09.06.14.06l1.25-.03 1.25.03 1.25-.03h1.87c.1.02.31.03.62.03l1.25-.03c.1 0 .19.04.26.12.07.08.1.17.1.27v2.68l.03.55c0 .1-.04.19-.12.26-.08.07-.17.1-.27.1h-2.52c-.26 0-.48 0-.65.01-.17.01-.38.01-.62.01H25.81zM40.04 27.85c-.1 0-.19-.04-.27-.12-.08-.08-.12-.17-.12-.27l.03-1.25-.03-1.25.03-.62V23.1l-.03-.62.03-1.25-.03-1.25.03-1.25v-1.25l-.03-1.25.03-1.25v-1.25l.03-1.25c0-.05-.02-.1-.06-.13-.04-.03-.09-.05-.14-.05h-.55c-.09.02-.27.03-.55.03l-1.09-.03H35.7c-.1.02-.29.03-.55.03-.1 0-.19-.04-.26-.12-.07-.08-.1-.17-.1-.27 0-.21 0-.39-.01-.55-.01-.16-.01-.35-.01-.57l.03-1.04c0-.23 0-.41-.01-.55s-.01-.31-.01-.52c0-.1.04-.2.12-.27.08-.08.17-.12.27-.12l1.2.03h1.2l1.2-.03H48.34c.1 0 .19.04.27.12.08.08.12.17.12.27v2.16c0 .21 0 .38-.01.52s-.01.32-.01.55c0 .1-.03.19-.1.26s-.16.1-.26.1l-1.09.03-.52-.03H44.01c-.12 0-.18.06-.18.18l.03 1.25-.03 1.25.03 1.25-.03.62v3.12l.03 1.25-.03.62v1.87l-.03 1.25.03.62.03.62v1.25c0 .1-.04.19-.12.26-.08.07-.17.1-.27.1-.28 0-.47.01-.57.03H40.04zM50.8 27.85c-.09-.02-.28-.03-.57-.03-.1 0-.2-.03-.27-.1-.08-.07-.12-.16-.12-.26 0-.26.01-.43.03-.52v-.52c0-.23 0-.41-.01-.55-.01-.14-.01-.31-.01-.52s.08-.43.23-.68l.65-1.01.68-1.01.31-.52.31-.52c.1-.17.2-.33.3-.47.1-.14.21-.32.35-.55.36-.54.59-.88.68-1.01.23-.33.44-.67.65-1.01l.68-1.01c.14-.23.26-.41.35-.55.1-.14.2-.29.32-.47l.31-.52.31-.52.65-1.01c.09-.14.16-.24.21-.31.05-.07.09-.13.13-.18l.36-.49.62-1.04c.03-.03.04-.07.01-.1s-.06-.05-.09-.05l-1.14.03-1.14-.03h-2.26l-1.14.03c-.29 0-.49-.01-.57-.03h-.57c-.1 0-.19-.03-.26-.1s-.1-.16-.1-.26v-1.07l.03-1.09c0-.23 0-.41-.01-.55s-.01-.31-.01-.52c0-.1.03-.19.1-.26s.16-.1.26-.1h1.22l1.2-.03c.24 0 .45 0 .61.01.16.01.37.01.61.01h1.22l1.2-.03c.24 0 .45 0 .61.01s.37.01.61.01h2.42c.31 0 .52-.01.62-.03h1.2c.1.02.31.03.62.03.1 0 .19.04.26.1.07.07.1.16.1.26V10.82c0 .24-.07.46-.21.65l-.65 1.04c-.09.12-.3.46-.65 1.01l-.68 1.04-.65 1.01c-.23.33-.44.67-.65 1.01l-.68 1.01c-.14.23-.26.41-.35.55s-.2.29-.33.47c-.35.56-.56.89-.65 1.01l-.65 1.04c-.1.17-.2.33-.3.47-.1.14-.21.32-.35.55l-.68 1.01c-.23.33-.44.67-.65 1.01-.02.02-.02.04 0 .08.02.03.04.05.08.05H58.08c.26 0 .48 0 .65.01.17.01.38.01.62.01h3.87c.1 0 .19.04.27.1.08.07.12.16.12.26v2.16c0 .21 0 .38-.01.52s-.01.32-.01.55c0 .1-.03.19-.1.26s-.16.1-.26.1h-3.54l-1.2.03h-1.17l-1.2-.03c-.24 0-.44 0-.6.01-.16.01-.35.01-.57.01H50.8zM70.59 27.85c-.1 0-.19-.04-.27-.12-.08-.08-.12-.17-.12-.27l.03-1.25-.03-1.25.03-.62V23.1l-.03-.62.03-1.25-.03-1.25.03-1.25v-1.25l-.03-1.25.03-1.25v-1.25l.03-1.25c0-.05-.02-.1-.06-.13-.04-.03-.09-.05-.14-.05h-.55c-.09.02-.27.03-.55.03l-1.09-.03h-1.62c-.1.02-.29.03-.55.03-.1 0-.19-.04-.26-.12-.07-.08-.1-.17-.1-.27 0-.21 0-.39-.01-.55-.01-.16-.01-.35-.01-.57l.03-1.04c0-.23 0-.41-.01-.55s-.01-.31-.01-.52c0-.1.04-.2.12-.27.08-.08.17-.12.27-.12l1.2.03h1.2l1.2-.03H78.89c.1 0 .19.04.27.12.08.08.12.17.12.27v2.16c0 .21 0 .38-.01.52s-.01.32-.01.55c0 .1-.03.19-.1.26s-.16.1-.26.1l-1.09.03-.52-.03H74.56c-.12 0-.18.06-.18.18l.03 1.25-.03 1.25.03 1.25-.03.62v3.12l.03 1.25-.03.62v1.87l-.03 1.25.03.62.03.62v1.25c0 .1-.04.19-.12.26-.08.07-.17.1-.27.1-.28 0-.47.01-.57.03H70.59z"/>
    <g>
        <path d="M94.85 27.85h-1.69c-.17 0-.32 0-.44-.01s-.26-.01-.42-.01c-.1 0-.17-.06-.21-.18-.04-.17-.06-.32-.09-.44s-.06-.28-.09-.47c-.07-.29-.13-.6-.18-.91-.07-.29-.13-.6-.18-.91-.07-.29-.13-.6-.18-.91-.04-.17-.06-.33-.09-.46s-.06-.28-.09-.46c-.04-.21-.07-.37-.1-.49-.04-.12-.07-.26-.1-.42l-.16-.91c-.05-.21-.09-.38-.1-.51s-.03-.26-.05-.4l-.21-.91c-.05-.31-.11-.62-.18-.91-.05-.31-.11-.61-.18-.91-.05-.31-.11-.62-.18-.91-.02-.14-.04-.27-.05-.4s-.05-.3-.1-.51c-.03-.19-.06-.35-.09-.47s-.06-.27-.09-.44c-.05-.21-.09-.38-.1-.51-.02-.13-.04-.26-.05-.4-.03-.16-.07-.29-.1-.42-.03-.12-.07-.29-.1-.49-.05-.23-.09-.4-.1-.52-.02-.12-.03-.26-.05-.42-.07-.29-.13-.6-.18-.91l-.21-.91-.18-.88c-.03-.19-.06-.35-.08-.47-.02-.12-.04-.28-.08-.47-.02-.03-.01-.07.01-.1.03-.03.06-.05.12-.05h2.84c.19 0 .35 0 .48-.01s.29-.01.48-.01c.1 0 .17.06.21.18l.16.94.18.94c.07.29.13.6.18.91l.16.94c.03.19.06.35.09.47s.06.27.09.44l.18.94.1.91c.02.14.03.27.05.4.02.13.05.3.1.51.03.23.07.4.1.52s.07.26.1.42c.02.16.03.29.05.42.02.12.05.29.1.52l.16.91.16.94c.05.21.09.38.1.51s.03.26.05.4l.03.03c.02 0 .03-.01.03-.03.16-.54.24-.84.26-.91.03-.16.06-.29.08-.42.02-.12.06-.29.13-.52.07-.31.15-.62.23-.91l.18-.94.23-.94.26-.91c.07-.23.11-.4.13-.52.02-.12.04-.26.08-.42l.23-.94c.03-.17.07-.32.1-.44s.08-.28.13-.47l.23-.94.21-.91c.03-.16.06-.29.08-.42.02-.12.06-.29.13-.52.05-.23.1-.4.14-.52.04-.12.08-.26.12-.42.03-.12.1-.18.21-.18h.81l.83.03h1.62c.14 0 .22.05.23.16l.23.94.21.91.23.94.23.94c.03.19.06.35.09.48s.06.28.09.46l.23.91c.02.07.1.37.26.91l.21.94.23.94c.03.17.06.33.09.46s.06.28.09.46l.23.94c.05.19.1.35.13.47s.07.27.1.44c.05.19.1.35.13.47s.07.27.1.44v.05-.05l.18-.91c.03-.21.07-.37.1-.49s.07-.26.1-.42c.02-.16.03-.29.05-.42.02-.12.05-.29.1-.52l.16-.91.16-.94.18-.91c.05-.23.09-.4.1-.52.02-.12.03-.26.05-.42l.18-.94c.05-.21.09-.38.1-.51.02-.13.03-.26.05-.4l.18-.94.16-.94.21-.91c.05-.31.11-.62.18-.91 0-.14.06-.21.18-.21.19 0 .35 0 .48.01s.29.01.48.01h1.88c.19 0 .35 0 .48-.01s.29-.01.48-.01c.03 0 .07.02.1.06.03.04.04.08.03.12-.02.16-.03.29-.05.42-.02.12-.05.29-.1.52-.04.17-.06.32-.09.44s-.06.28-.09.47c-.04.17-.06.33-.09.46s-.06.28-.09.46c-.03.21-.07.37-.1.49s-.07.25-.1.39l-.16.94c-.04.17-.06.32-.09.44s-.06.28-.09.47c-.04.17-.06.33-.09.46s-.06.28-.09.46l-.18.91-.16.91c-.03.17-.06.33-.09.46s-.06.28-.09.46c-.03.19-.06.35-.09.47s-.06.27-.09.44c-.04.19-.07.34-.1.46-.04.11-.07.26-.1.46-.07.29-.13.6-.18.91-.04.17-.06.32-.09.46-.03.13-.06.28-.09.46-.05.31-.11.62-.18.91-.05.31-.11.62-.18.91l-.15.86-.21.91c-.05.31-.11.62-.18.91-.05.31-.11.62-.18.91-.02.14-.04.27-.05.4-.02.13-.05.3-.1.51-.03.12-.1.18-.21.18l-.86.03h-1.69l-.86-.03-.83.03c-.1 0-.17-.07-.21-.21-.04-.17-.08-.32-.13-.46-.05-.13-.1-.27-.13-.43l-.18-.88-.26-.88c-.03-.16-.06-.29-.09-.42-.03-.12-.06-.29-.12-.49l-.21-.88-.23-.88-.23-.88c-.05-.19-.09-.35-.12-.47s-.06-.27-.12-.44l-.18-.88c-.04-.14-.07-.27-.12-.39-.04-.12-.09-.29-.14-.49l-.23-.88c-.03-.16-.08-.35-.13-.58-.05-.23-.09-.34-.1-.33-.04.19-.07.34-.12.46-.04.11-.08.26-.12.46l-.21.88-.23.88-.21.88-.23.91c-.07.21-.11.37-.13.49-.02.12-.04.25-.08.39-.03.14-.07.27-.12.39-.04.12-.09.29-.14.49-.04.17-.06.32-.09.46-.03.13-.06.28-.09.46-.04.14-.07.27-.12.39-.04.12-.09.29-.14.49l-.23.88-.21.88c-.03.17-.06.32-.09.46-.03.13-.06.28-.09.46-.02.1-.1.16-.26.16l-.83.03h-.87zm-.47-1.72h.99c.05 0 .08-.02.08-.05l.08-.23c0-.05.05-.25.16-.6.05-.19.1-.39.13-.6l.18-.73.16-.62.16-.68.21-.75c0-.03.05-.22.16-.55.05-.29.1-.48.13-.57l.16-.75.34-1.3.16-.65.18-.68.16-.68.18-.62.13-.62.18-.68.16-.68.18-.62c.1-.52.16-.75.16-.7l.18-.62.18-.7c0 .05.05-.15.16-.6l.05-.21c.02-.05.04-.08.08-.08h.08c.04 0 .06.03.08.08l.03.16c.12.45.17.65.16.6l.21.73.16.6c.02.14.08.37.18.7l.16.62.16.68.18.68c0 .04.05.25.16.65l.16.6c.02.07.04.16.06.27.03.11.06.26.12.43.12.49.17.7.16.65-.02-.05.03.17.16.65l.34 1.3c.05.26.11.51.18.75l.13.57c.03.16.06.27.08.35.02.08.03.14.05.2l.21.75.18.68.16.62.16.75c.03.12.08.31.13.57l.18.6c0 .03.02.12.05.26.05.05.09.08.1.08h1.77c.03 0 .05-.02.05-.05l.03-.13.1-.44.1-.49c0-.07.03-.22.08-.44l.1-.49.08-.39.1-.44c0-.07.03-.23.08-.49l.1-.44c0-.09.03-.24.08-.47l.08-.42.1-.49.08-.42.08-.49.1-.47c.03-.14.06-.29.08-.44l.16-.57.08-.34.08-.47.1-.44.08-.42.08-.49.08-.39.1-.52.08-.47.1-.44c.02-.1.03-.19.04-.26.01-.07.02-.13.04-.18l.1-.47.08-.47.1-.44.05-.36.1-.55c.03-.17.06-.3.08-.39.02-.09.03-.16.05-.21l.08-.31.08-.42c.02-.03.03-.08.03-.14 0-.06.02-.14.05-.25 0-.05-.02-.08-.05-.08l-.36.03h-.18c-.02 0-.04.02-.08.05l-.03.18-.08.36c-.05.23-.08.38-.08.47l-.1.47-.08.47-.08.47c-.03.1-.05.19-.05.25s-.01.11-.03.14c0 .09-.03.26-.08.52-.05.29-.1.49-.13.57l-.08.36-.05.34c0 .12-.03.31-.08.57l-.1.52-.08.42c-.04.1-.05.19-.05.26s-.01.13-.03.18c-.04.12-.06.29-.08.49l-.1.44c0 .07-.03.23-.08.47l-.08.42c0 .02-.04.2-.1.55l-.21 1.12-.13.65-.21 1.12c-.09.54-.18 1.05-.29 1.53l-.34 1.59-.08.49c-.04.07-.08.1-.13.1H104c-.05 0-.1-.04-.13-.13l-.1-.44-.16-.62-.18-.68-.18-.73-.13-.57-.16-.6-.18-.7-.18-.7-.16-.62-.16-.68-.16-.62-.16-.6-.21-.7-.31-1.33c-.05-.17-.09-.32-.12-.43-.03-.11-.05-.2-.06-.27l-.13-.6-.18-.62-.16-.68-.18-.73c-.04-.21-.08-.41-.13-.6l-.16-.57-.21-.73-.13-.6c-.04-.03-.06-.05-.08-.05H99.07c-.05 0-.1.01-.13.03-.02.02-.03.04-.03.06 0 .03-.01.05-.03.06l-.13.55-.21.73-.16.57-.13.57c-.02.12-.08.36-.18.73-.1.42-.16.65-.16.7l-.16.62c-.1.35-.16.55-.16.6-.02.07-.04.16-.06.27-.03.11-.06.26-.12.43l-.31 1.3-.21.73-.16.57c-.09.4-.14.62-.16.65l-.16.68-.16.62-.16.68-.21.73-.16.57-.13.57c-.02.16-.08.41-.18.75l-.16.68-.16.62c-.07.24-.11.38-.13.42 0 .07-.04.1-.13.1H93.94c-.04 0-.06-.01-.09-.03-.03-.02-.04-.04-.04-.08l-.08-.39-.18-.88-.21-.99c-.02-.16-.06-.39-.13-.7l-.08-.52c-.07-.38-.13-.68-.18-.88l-.08-.39c-.02-.23-.06-.5-.13-.83l-.1-.49c0-.02-.02-.16-.05-.44l-.1-.47-.08-.47c-.05-.26-.08-.43-.08-.52-.02-.03-.03-.08-.03-.14 0-.06-.02-.14-.05-.25 0-.03-.03-.15-.08-.34-.02-.05-.03-.12-.05-.21-.02-.09-.04-.22-.08-.39-.05-.29-.08-.48-.08-.57 0 .02-.02-.1-.05-.34l-.1-.52-.05-.42-.1-.44c-.03-.19-.06-.36-.08-.49-.03-.1-.05-.19-.05-.25s-.01-.11-.03-.14l-.13-.52-.08-.55-.05-.39-.1-.44-.08-.49-.08-.36.02-.23c0-.03-.03-.05-.08-.05h-.5c-.02 0-.04.01-.05.03-.02.02-.02.03 0 .05l.05.31.1.49.1.44.08.47.1.55.05.36.08.36c.07.29.11.48.13.55.05.26.08.43.08.52l.08.39c.05.21.08.35.08.42.07.24.1.41.1.49l.1.52.08.39.08.47.1.44c.02.16.04.3.08.44l.1.47c.03.12.05.22.05.3 0 .08.01.14.03.19l.08.42.1.36.1.55.1.57c0 .02.03.23.1.65l.13.62c.07.31.12.59.16.83.1.52.16.81.18.88.07.31.1.49.1.52l.1.49.1.44.08.47.1.42c0 .07.01.12.03.16 0 .04.02.05.05.05h.85zM119.26 28.13c-.29-.04-.69-.12-1.2-.26-.45-.12-.82-.26-1.12-.42-.36-.16-.7-.36-1.01-.62-.38-.29-.68-.57-.88-.83-.28-.29-.51-.62-.7-.96-.21-.4-.38-.76-.52-1.09-.1-.28-.22-.67-.34-1.17-.14-.66-.22-1.05-.23-1.17-.07-.45-.11-.85-.13-1.2-.02-.24-.03-.64-.03-1.2V15.7c0-.22 0-.42-.01-.57-.01-.16-.01-.35-.01-.6 0-.23 0-.42.01-.57.01-.16.01-.35.01-.6V9.28c-.02-.1-.03-.3-.03-.6 0-.09.04-.17.12-.25.08-.08.17-.12.27-.12h1.12c.21 0 .39 0 .55.01.16.01.35.01.57.01.21 0 .39 0 .55-.01.16-.01.35-.01.57-.01.09 0 .17.04.26.12.09.08.13.16.13.25 0 .16 0 .28-.01.36-.01.09-.01.17-.01.23l-.03.57c0 .24 0 .44.01.6.01.16.01.35.01.57 0 .24 0 .44-.01.6-.01.16-.01.35-.01.57 0 .24 0 .44.01.6.01.16.01.35.01.57v4.68c0 .24 0 .44-.01.6-.01.16-.01.35-.01.57 0 .28.02.66.05 1.14 0 .12.05.49.16 1.12.1.52.21.88.31 1.09.14.38.35.69.62.94.24.21.58.37 1.01.49.33.07.71.1 1.14.1.36 0 .74-.04 1.12-.13.43-.09.77-.24 1.01-.47.23-.17.43-.49.62-.94.14-.33.24-.69.31-1.09.05-.24.09-.61.13-1.12.03-.49.05-.87.05-1.14V15.7c0-.22 0-.42.01-.57.01-.16.01-.35.01-.6v-1.17c0-.23 0-.42-.01-.57-.01-.16-.01-.36-.01-.6 0-.23 0-.42-.01-.57-.01-.16-.01-.35-.01-.6V8.68c0-.09.04-.16.12-.23.08-.07.17-.1.27-.1.21 0 .39 0 .55-.01s.35-.01.57-.01h2.24c.1 0 .19.04.26.12.07.08.1.16.1.25v5.85c0 .24 0 .44.01.6.01.16.01.35.01.57 0 .24 0 .44-.01.6-.01.16-.01.35-.01.57v1.17c0 .24 0 .44.01.6.01.16.01.35.01.57 0 .28-.02.68-.05 1.2-.02.28-.06.68-.13 1.2-.05.4-.13.8-.23 1.2-.05.29-.17.68-.34 1.14-.14.33-.31.69-.52 1.09-.28.45-.5.78-.68.99-.28.29-.57.56-.88.81-.31.23-.65.43-1.01.62-.35.17-.73.31-1.14.42-.36.1-.75.18-1.17.23-.38.05-.78.08-1.2.08-.27-.03-.67-.04-1.19-.08zm1.8-1.69s.13-.02.39-.05l.94-.18c.35-.12.62-.23.83-.31.31-.16.55-.3.7-.44.28-.22.49-.42.62-.57.14-.17.3-.42.49-.73.17-.29.31-.57.42-.83l.29-.94c.03-.14.09-.48.18-1.01.07-.48.1-.84.1-1.07.03-.52.05-.88.05-1.09V14.53c0-.28-.01-.46-.03-.55v-2.44l.03-.52v-.55c-.02-.07-.03-.19-.03-.36 0-.03-.03-.05-.08-.05h-.47c-.05 0-.08.03-.08.08v2.05l.03.52V16.3l-.03.57.03.57v1.77c0 .29-.02.65-.05 1.07v.18c-.02.43-.07.88-.16 1.33-.1.54-.24 1.02-.42 1.46-.29.68-.65 1.2-1.07 1.56-.47.43-1.07.73-1.79.88-.52.09-1.02.13-1.51.13-.64 0-1.14-.04-1.51-.13-.75-.19-1.34-.49-1.79-.88-.45-.43-.81-.94-1.09-1.53-.17-.36-.3-.85-.39-1.46l-.03-.05-.18-1.27c-.02-.26-.03-.68-.03-1.27v-.65l.03-.52-.03-.55V13.91l.03-.55-.03-.52V10.14c0-.02-.01-.03-.03-.05-.02-.02-.03-.03-.05-.03H114.89c-.05 0-.08.02-.08.05v1.51l-.03.57c0 .29.01.49.03.6v.57l-.03.65v2.86c0 .28.01.46.03.55v1.79c0 .52.01.88.03 1.09.03.47.07.82.1 1.07.03.17.1.5.21.99l.03.13c.09.36.16.64.23.83l.42.83c.09.17.25.42.49.73.16.17.36.36.62.57.19.14.43.29.73.44.28.14.55.24.83.31.47.1.78.16.94.18.19.04.52.05.99.05.43.01.63.01.63.01zM133.62 27.85s-.08 0-.23-.01c-.16-.01-.34-.01-.55-.01-.23 0-.42 0-.57.01-.16.01-.34.01-.55.01-.1 0-.19-.04-.26-.12-.07-.08-.1-.17-.1-.27v-3.12c-.02-.1-.03-.31-.03-.62s.01-.52.03-.62v-3.14l-.03-1.25v-1.25c0-.31.01-.52.03-.62v-1.26l-.03-.62V13.7l.03-1.25v-.62l-.03-.62.03-1.25V8.68c0-.09.03-.16.1-.23s.16-.1.26-.1h2.24c.21 0 .39 0 .55-.01.16-.01.34-.01.55-.01.24 0 .43.11.57.34l.6 1.09c.12.23.22.41.3.56.08.15.18.33.3.56.21.36.41.74.6 1.12l.65 1.09.6 1.09c.1.21.19.39.27.53.08.15.19.34.33.58l.62 1.12.6 1.09c.1.19.2.36.3.51.1.15.2.35.33.61.14.24.25.44.33.58.08.15.17.33.27.53h.05c.03 0 .05-.01.05-.03v-.62c-.02-.12-.03-.36-.03-.73 0-.19 0-.36.01-.52.01-.16.01-.35.01-.6V15.41c-.02-.1-.03-.31-.03-.62 0-.24 0-.45.01-.61.01-.16.01-.37.01-.61v-3.04c-.02-.1-.03-.31-.03-.62 0-.24 0-.45.01-.61.01-.16.01-.37.01-.61 0-.09.03-.17.1-.25.07-.08.16-.12.26-.12H145.52c.09 0 .17.04.25.12.08.08.12.16.12.25V24.35c-.02.1-.03.31-.03.62l.03 1.25-.03 1.25c0 .1-.03.19-.1.26s-.15.1-.23.1h-1.69c-.09.02-.27.03-.55.03-.21 0-.39 0-.55-.01-.16-.01-.35-.01-.57-.01-.26 0-.44-.1-.55-.31l-.62-1.14-.6-1.09c-.1-.17-.3-.55-.6-1.12l-.62-1.12-.62-1.09-.6-1.09-.31-.57c-.05-.14-.15-.32-.29-.55l-.6-1.12-.62-1.09c-.1-.19-.2-.36-.3-.51-.1-.15-.2-.35-.32-.61l-.05-.03c-.04 0-.05.02-.05.05 0 .24 0 .45.01.61.01.17.01.37.01.61v6.1c0 .24 0 .45-.01.61-.01.17-.01.37-.01.61s0 .45.01.61.01.37.01.61v1.22c0 .1-.04.19-.12.26-.08.07-.16.1-.25.1-.23 0-.42 0-.57.01-.16.01-.34.01-.55.01-.22.04-.33.04-.33.04zm.07-1.75v-2.93c.02-.1.03-.3.03-.6 0-.29-.01-.49-.03-.57v-4.92c0-.02 0-.26-.01-.74s0-1.12.01-1.94c.02-.92.03-2.11.03-3.59 0-.09.05-.13.16-.13h.13c.1 0 .18.04.23.13.19.35.38.68.56 1s.32.57.4.74l1.09 1.92c.26.43.55.94.87 1.51.32.57.55 1 .69 1.27.04.05.08.12.13.21s.11.21.18.36l.31.57.31.55.34.62.23.49.31.52.31.57c.07.1.13.2.17.29.04.09.08.16.12.21.05.07.17.27.34.6.12.19.23.39.34.6.04.09.13.26.29.52l.31.6c.03.09.13.26.29.52l.29.55.31.55.26.47c.04.04.07.05.1.05h.96c.03 0 .09 0 .18-.01s.14-.05.16-.12c.03-.03.05-.1.05-.21 0-.09 0-.19-.01-.31s-.01-.29-.01-.49l.03-.73.03-.52c0-.28-.01-.47-.03-.57V20.53c.02-.1.03-.3.03-.6v-1.25c0-.29-.01-.49-.03-.6V16.8c.02-.1.03-.3.03-.6v-.6l-.03-.65v-4.8c0-.05-.03-.08-.08-.08h-.26c-.09 0-.17-.01-.23-.03-.03 0-.05.03-.05.08v.31c.02.12.03.36.03.7v2.44c0 .35-.01.57-.03.68v1.1c.02.1.03.33.03.68v2.08c0 .78-.01 1.22-.03 1.33v3.38c.02.1.03.99.03 2.65 0 .1-.05.16-.16.16h-.13c-.1 0-.17-.04-.21-.13l-.31-.52c-.02-.03-.24-.44-.68-1.22l-.57-1.04c-.26-.43-.47-.81-.62-1.12-.52-.99-.82-1.52-.88-1.59l-.29-.52-.29-.52-.34-.57-.31-.6-.29-.52-.29-.52-.34-.57-.31-.6-.29-.52-.31-.57c-.1-.17-.2-.35-.29-.55-.09-.14-.15-.24-.18-.31-.04-.07-.07-.13-.1-.18l-.36-.6-.29-.57-.31-.55-.31-.57-.29-.52-.26-.49c-.02-.05-.06-.08-.13-.08h-.1l-.36.03h-.55c-.03 0-.08 0-.13-.01s-.09 0-.1.01c-.05.03-.08.12-.08.26 0 .12-.01.22-.03.29v.57c0 .26.01.43.03.52v1.43c-.02.09-.03.27-.03.55v1.24c0 .26.01.44.03.55v.7c0 .36-.01.61-.03.73v2.34l.03.68v2.52c0 .36-.01.6-.03.7v1.07c.02.12.03.36.03.73v.68c-.02.07-.03.2-.03.39 0 .02.01.03.03.05.02.02.04.03.08.03h.44c.05-.04.07-.04.07-.04zM154.88 28.16s-.13-.02-.39-.05c-.4-.05-.8-.13-1.2-.23-.52-.14-.91-.26-1.17-.36-.12-.03-.49-.21-1.09-.52-.42-.23-.76-.43-1.04-.62-.26-.16-.59-.39-.99-.7-.09-.09-.13-.17-.13-.26 0-.1.03-.18.08-.23.16-.19.28-.35.36-.47.09-.12.19-.25.31-.39l.7-.83.68-.86c.05-.07.14-.1.26-.1.09 0 .17.03.26.08l.94.62c.33.17.67.33 1.01.47.4.14.76.24 1.09.31.33.05.7.08 1.12.08.47 0 .86-.04 1.17-.13.45-.12.8-.31 1.04-.57.29-.29.44-.66.44-1.09 0-.38-.15-.72-.44-1.01-.26-.29-.55-.53-.88-.7-.29-.16-.63-.31-1.01-.47-.17-.09-.52-.23-1.04-.44-.16-.07-.33-.14-.52-.21-.19-.07-.4-.16-.62-.26-.09-.03-.46-.22-1.12-.55-.59-.33-.95-.55-1.09-.65-.35-.24-.65-.52-.91-.83-.29-.29-.55-.62-.75-.99-.23-.42-.38-.81-.47-1.17-.07-.35-.1-.79-.1-1.33 0-.42.03-.79.1-1.12.09-.47.21-.86.36-1.17.19-.4.41-.75.65-1.04.31-.36.6-.66.86-.88.21-.16.55-.37 1.04-.65.4-.19.78-.35 1.14-.47.45-.14.84-.23 1.17-.26.36-.07.77-.1 1.22-.1.47 0 .91.03 1.33.08.31.05.75.16 1.3.34.4.12.81.29 1.22.52.31.17.68.42 1.09.73.33.23.68.51 1.04.86.07.07.1.16.1.26s-.04.19-.1.26l-.75.78c-.4.36-.66.62-.78.75l-.75.78c-.07.07-.16.1-.26.1s-.19-.03-.26-.1c-.43-.38-.73-.62-.88-.73-.47-.24-.82-.39-1.07-.44-.29-.07-.68-.1-1.14-.1-.42 0-.77.03-1.07.1-.4.1-.72.26-.96.47-.29.24-.44.56-.44.94 0 .43.23.81.68 1.12.21.17.61.4 1.2.68.14.05.31.13.51.22.2.1.45.2.74.32l1.09.44c.49.21.84.37 1.07.49.16.07.49.27 1.01.6.33.21.64.44.94.7.31.31.57.61.78.88.16.21.34.56.55 1.04.14.38.24.76.31 1.14.07.45.1.81.1 1.09 0 .31-.05.75-.16 1.3-.1.45-.24.84-.42 1.17-.16.31-.38.67-.68 1.07-.28.33-.57.62-.88.86-.31.26-.66.49-1.04.68-.31.17-.7.32-1.17.44-.35.12-.75.21-1.22.26-.38.05-.8.08-1.25.08-.55-.03-.82-.03-.82-.03zm1.56-1.74s.09-.02.26-.05c.42-.07.74-.14.96-.21.35-.09.64-.19.88-.31.29-.17.55-.34.75-.49.28-.24.48-.44.6-.6.19-.24.35-.49.47-.73.1-.19.2-.46.29-.81.07-.28.1-.58.1-.91 0-.28-.03-.55-.08-.83-.04-.19-.1-.44-.21-.75-.12-.29-.23-.52-.34-.68-.17-.23-.36-.42-.55-.6-.17-.17-.42-.35-.73-.55-.28-.21-.55-.38-.83-.52-.24-.12-.57-.27-.99-.44l-.57-.23-.45-.19-1.14-.49-.18-.1c-.62-.26-1.14-.54-1.53-.83-.9-.69-1.35-1.53-1.35-2.52 0-.43.09-.84.29-1.23.19-.39.46-.73.81-1.03.43-.38.97-.65 1.61-.81.42-.12.92-.18 1.51-.18.61 0 1.13.05 1.56.16.38.1.88.34 1.51.7.04.04.06.05.08.05.04.03.07.03.1 0l.29-.31c.05-.02.05-.05 0-.1l-.6-.39c-.26-.12-.57-.25-.94-.39-.31-.12-.65-.21-1.01-.26-.38-.03-.74-.05-1.07-.05-.33 0-.65.03-.96.08-.29.02-.6.09-.91.21-.38.14-.67.26-.86.36-.33.16-.58.3-.75.44-.12.12-.32.33-.6.62-.12.14-.27.36-.44.68-.09.21-.16.47-.21.78-.07.26-.1.52-.1.78 0 .33.03.64.08.94.12.35.22.59.31.73.09.19.24.41.47.65.23.23.45.42.68.6.16.1.31.19.45.27s.28.15.4.22l.1.05c.43.23.74.38.91.47l.68.26.44.18c.12.05.27.11.46.18.18.07.39.17.64.29l.13.05c.4.17.75.34 1.04.49.55.31 1 .66 1.33 1.04.57.64.86 1.37.86 2.18 0 .9-.29 1.66-.88 2.29-.47.49-1.08.83-1.85 1.04-.52.14-1.07.21-1.64.21-.47 0-.94-.03-1.43-.1-.45-.09-.91-.22-1.38-.39-.54-.23-.95-.42-1.25-.6-.04-.03-.07-.03-.1.03l-.21.26-.05.03c-.04.05-.04.1 0 .13.05.03.28.16.68.39.17.09.45.2.83.34.28.1.6.21.96.31l.96.18c.19.02.52.03.99.03.47-.02.72-.02.72-.02zM171.84 28.11c-.49-.09-.89-.17-1.22-.26-.5-.16-.89-.3-1.17-.44-.42-.21-.77-.42-1.07-.65-.35-.24-.66-.5-.94-.78-.19-.19-.46-.51-.81-.96-.16-.21-.37-.55-.65-1.04-.23-.38-.41-.75-.55-1.12-.1-.26-.24-.65-.42-1.17-.1-.38-.18-.79-.23-1.22-.07-.38-.12-.79-.16-1.22-.03-.55-.05-.97-.05-1.25 0-.29.02-.7.05-1.22 0-.07.05-.48.16-1.22.09-.5.17-.9.26-1.2.1-.42.23-.81.39-1.17.14-.36.32-.74.55-1.12.16-.29.37-.63.65-1.01.22-.29.5-.61.83-.94.29-.29.61-.55.94-.78.38-.26.74-.47 1.07-.62.45-.19.83-.33 1.14-.42.26-.07.67-.14 1.22-.21.52-.07.93-.1 1.22-.1.28 0 .66.02 1.14.05.49.07.85.13 1.09.18.19.05.39.12.61.21.22.09.37.15.46.18.31.14.64.32.99.55.42.28.73.49.94.65.19.16.47.42.83.78.07.1.1.19.1.26 0 .1-.04.19-.1.26l-.73.78c-.14.16-.26.28-.38.38-.11.1-.24.22-.38.38l-.73.78c-.07.07-.15.1-.23.1s-.17-.04-.26-.13c-.35-.35-.67-.6-.96-.75-.4-.23-.77-.38-1.12-.47-.4-.09-.81-.13-1.22-.13-.43 0-.83.05-1.2.16-.38.1-.75.25-1.09.44-.33.21-.62.49-.88.83-.19.23-.4.56-.62 1.01-.16.35-.29.73-.39 1.14-.05.23-.12.62-.21 1.17-.03.59-.05.99-.05 1.2 0 .42.03.82.08 1.22.02.36.09.76.21 1.2.02.07.06.23.12.48.06.25.14.48.25.69.14.33.35.68.62 1.04.29.35.59.62.88.83.28.21.64.37 1.09.49.42.1.83.16 1.25.16.5 0 .94-.06 1.33-.18.42-.1.81-.29 1.2-.55.31-.21.63-.52.96-.94.05-.07.14-.1.26-.1.09 0 .16.03.23.08.16.14.29.25.4.33.11.08.25.19.4.33.38.35.64.58.78.7.02.02.27.25.75.7.1.07.16.17.16.29 0 .05-.04.13-.1.23-.17.23-.45.53-.83.91-.4.4-.71.68-.94.86-.23.16-.58.37-1.07.65-.36.17-.75.33-1.17.47-.36.1-.77.18-1.22.23-.4.05-.82.08-1.25.08-.41-.02-.82-.04-1.21-.09zm2.26-1.72c.43-.05.75-.11.96-.18.14-.03.42-.16.86-.36.38-.21.65-.37.81-.49.12-.09.29-.24.52-.47.03-.03.03-.07 0-.1l-.08-.08c-.05-.02-.09-.05-.1-.1-.05-.03-.1-.03-.13 0l-.26.21c-.52.35-1.09.62-1.72.81-.57.16-1.17.23-1.79.23-.57 0-1.14-.08-1.69-.23-.64-.16-1.19-.4-1.64-.73-.47-.31-.89-.71-1.27-1.2-.33-.42-.61-.88-.83-1.4-.19-.42-.35-.9-.47-1.46-.1-.4-.19-.88-.26-1.43-.05-.83-.08-1.3-.08-1.4 0-.4.03-.86.08-1.38.09-.68.17-1.14.23-1.4.16-.59.33-1.07.52-1.43.21-.5.49-.97.83-1.4.36-.47.8-.87 1.3-1.2.48-.29 1.02-.52 1.61-.68.55-.14 1.09-.21 1.61-.21.5 0 1.04.06 1.61.18.59.14 1.13.36 1.61.65l.16.1c.03.02.07.01.1-.03.09-.07.16-.14.21-.21l.05-.03c.02-.02.02-.03.01-.05-.01-.02-.02-.03-.04-.03-.05-.05-.18-.15-.39-.29-.31-.19-.56-.32-.75-.39-.45-.19-.72-.29-.81-.31-.29-.07-.59-.11-.88-.13-.19-.03-.5-.05-.94-.05-.4 0-.73.03-.99.08-.38.04-.7.09-.96.16-.4.12-.7.23-.91.34-.29.12-.56.28-.81.47-.1.07-.23.17-.36.29-.14.12-.26.23-.36.31-.28.28-.49.52-.62.73-.12.14-.3.42-.55.83-.21.36-.36.67-.44.91-.09.19-.2.51-.34.96-.1.45-.17.8-.21 1.04-.05.26-.09.62-.13 1.07-.04.26-.05.62-.05 1.09 0 .47.02.83.05 1.09.04.52.07.88.1 1.09.05.28.13.62.23 1.04.07.26.18.59.34.99.05.16.2.47.44.94.31.5.49.79.55.86.24.33.45.57.62.73.16.17.4.38.73.62.17.14.44.3.81.49.21.09.51.2.91.34l.94.21c.42.05.75.08 1.01.08.32-.01.67-.04 1.05-.09zM182.24 27.85c-.1 0-.2-.04-.27-.12-.08-.08-.12-.17-.12-.27l.03-1.25v-7.52l-.03-1.25c0-.31.01-.52.03-.62v-1.24l-.03-.62.03-1.25v-5c0-.1.04-.2.1-.27.07-.08.16-.12.26-.12h1.12c.28 0 .46.01.55.03h.57c.28 0 .46-.01.55-.03h.57c.09 0 .17.04.25.12.08.08.12.17.12.27V15.67c0 .12.06.18.18.18l1.25-.03c.24 0 .45 0 .61.01.17.01.37.01.61.01h1.25l1.25-.03c.24 0 .45 0 .61.01.17.01.37.01.61.01.12 0 .18-.06.18-.18V13.91c.02-.1.03-.3.03-.6 0-.28-.01-.47-.03-.57v-1.17c.02-.09.03-.28.03-.57V9.85l-.03-1.14c0-.1.04-.19.12-.26.08-.07.16-.1.25-.1.23 0 .42 0 .57-.01s.34-.01.55-.01h1.12c.22 0 .42 0 .57.01.16.01.34.01.55.01.1 0 .19.04.27.1.08.07.12.16.12.26v1.25l-.03 1.25.03 1.25v1.25l-.03 1.25.03 1.25-.03 1.25v1.25c0 .26 0 .48.01.65.01.17.01.38.01.62l-.03 1.25v.62c.02.1.03.31.03.62l-.03 1.25v3.75c0 .1-.03.19-.1.26s-.16.1-.26.1H192.88c-.09 0-.17-.03-.25-.1-.08-.07-.12-.16-.12-.26 0-.24 0-.45.01-.62.01-.17.01-.39.01-.65l-.03-1.3c0-.24 0-.45.01-.62.01-.17.01-.39.01-.65v-1.3c0-.24 0-.45-.01-.62-.01-.17-.01-.39-.01-.65l.03-1.3c0-.05-.02-.1-.07-.13-.04-.03-.09-.05-.14-.05h-.62l-.6.03-1.25-.03H186.13c-.05 0-.1.02-.14.05s-.06.08-.06.13c0 .35.01.57.03.68V25.56c-.02.1-.03.32-.03.65 0 .26 0 .48.01.65s.01.38.01.62c0 .1-.04.19-.12.26-.08.07-.16.1-.25.1h-1.12c-.28 0-.47.01-.57.03H182.24zm1.58-1.75c.12 0 .22-.01.31-.03.04 0 .05-.02.05-.05l.03-.6c0-.05 0-.12.01-.21s.01-.2.01-.34c0-.29-.01-.49-.03-.6v-2.6c.02-.07.03-.19.03-.36 0-.24 0-.42-.01-.55-.01-.12-.01-.22-.01-.29l-.03-2.39c0-.09.05-.13.16-.13h4.55c.14-.02.43-.03.88-.03h.83l.78.03h2.35l.39-.03c.03 0 .07.02.1.05.03.04.05.07.05.1l-.03 2.34v1.87c0 .31.01.52.03.62v.68c0 .35-.01.57-.03.68v1.2c.02.1.03.28.03.52 0 .05.02.08.05.08h.46c.05 0 .08-.03.08-.08V21.9c-.02-.12-.03-.35-.03-.7s.01-.57.03-.68v-.57c0-.28-.01-.47-.03-.57v-1.94c0-.33.01-.55.03-.68v-4.88c-.02-.1-.03-.33-.03-.68 0-.36.01-.6.03-.7v-.36c0-.05-.03-.08-.08-.08h-.44c-.07 0-.1.03-.1.08l.03.29v.6l-.03.68c0 .05 0 .12-.01.2-.01.08-.01.18-.01.3l.03.47.03.68-.03 1.22v2.76c0 .09-.05.13-.16.13h-2.84c-.4 0-.67.01-.81.03H184.36c-.04 0-.07-.02-.1-.05-.04-.03-.05-.07-.05-.1V10.4c0-.1.01-.18.03-.23 0-.05-.03-.08-.08-.08l-.34-.03h-.13c-.05 0-.08.03-.08.08V11.86c0 .07 0 .15-.01.23-.01.09-.01.21-.01.36v3.04c.02.12.03.36.03.7 0 .36-.01.61-.03.73v1.77c0 .29.01.49.03.6v3.85l-.03.57c0 .29.01.49.03.6v1.71c0 .05.03.08.08.08h.12zM205.35 28.16s-.13-.02-.39-.05c-.4-.05-.8-.13-1.2-.23-.52-.14-.91-.26-1.17-.36-.12-.03-.49-.21-1.09-.52-.42-.23-.76-.43-1.04-.62-.26-.16-.59-.39-.99-.7-.09-.09-.13-.17-.13-.26 0-.1.03-.18.08-.23.16-.19.28-.35.36-.47.09-.12.19-.25.31-.39l.7-.83.68-.86c.05-.07.14-.1.26-.1.09 0 .17.03.26.08l.94.62c.33.17.67.33 1.01.47.4.14.76.24 1.09.31.33.05.7.08 1.12.08.47 0 .86-.04 1.17-.13.45-.12.8-.31 1.04-.57.29-.29.44-.66.44-1.09 0-.38-.15-.72-.44-1.01-.26-.29-.56-.53-.88-.7-.29-.16-.63-.31-1.01-.47-.17-.09-.52-.23-1.04-.44-.16-.07-.33-.14-.52-.21-.19-.07-.4-.16-.62-.26-.09-.03-.46-.22-1.12-.55-.59-.33-.95-.55-1.09-.65-.35-.24-.65-.52-.91-.83-.29-.29-.55-.62-.75-.99-.23-.42-.38-.81-.47-1.17-.07-.35-.1-.79-.1-1.33 0-.42.03-.79.1-1.12.09-.47.21-.86.36-1.17.19-.4.41-.75.65-1.04.31-.36.6-.66.86-.88.21-.16.55-.37 1.04-.65.4-.19.78-.35 1.14-.47.45-.14.84-.23 1.17-.26.36-.07.77-.1 1.22-.1.47 0 .91.03 1.33.08.31.05.75.16 1.3.34.4.12.81.29 1.22.52.31.17.68.42 1.09.73.33.23.68.51 1.04.86.07.07.1.16.1.26s-.03.19-.1.26l-.75.78c-.4.36-.66.62-.78.75l-.75.78c-.07.07-.16.1-.26.1s-.19-.03-.26-.1c-.43-.38-.73-.62-.88-.73-.47-.24-.82-.39-1.07-.44-.29-.07-.68-.1-1.14-.1-.42 0-.77.03-1.07.1-.4.1-.72.26-.96.47-.3.24-.44.56-.44.94 0 .43.22.81.68 1.12.21.17.61.4 1.2.68.14.05.31.13.51.22s.45.2.74.32l1.09.44c.49.21.84.37 1.07.49.16.07.49.27 1.01.6.33.21.64.44.94.7.31.31.57.61.78.88.16.21.34.56.55 1.04.14.38.24.76.31 1.14.07.45.1.81.1 1.09 0 .31-.05.75-.16 1.3-.1.45-.24.84-.42 1.17-.16.31-.38.67-.68 1.07-.28.33-.57.62-.88.86-.31.26-.66.49-1.04.68-.31.17-.7.32-1.17.44-.35.12-.75.21-1.22.26-.38.05-.8.08-1.25.08-.55-.03-.82-.03-.82-.03zm1.56-1.74s.09-.02.26-.05c.42-.07.74-.14.96-.21.35-.09.64-.19.88-.31.29-.17.55-.34.75-.49.28-.24.48-.44.6-.6.19-.24.35-.49.47-.73.1-.19.2-.46.29-.81.07-.28.1-.58.1-.91 0-.28-.03-.55-.08-.83-.04-.19-.1-.44-.21-.75-.12-.29-.23-.52-.34-.68-.17-.23-.36-.42-.55-.6-.17-.17-.42-.35-.73-.55-.28-.21-.55-.38-.83-.52-.24-.12-.57-.27-.99-.44l-.57-.23-.47-.18-1.14-.49-.18-.1c-.62-.26-1.13-.54-1.53-.83-.9-.69-1.35-1.53-1.35-2.52 0-.43.09-.84.29-1.23.19-.39.46-.73.81-1.03.43-.38.97-.65 1.61-.81.42-.12.92-.18 1.51-.18.61 0 1.13.05 1.56.16.38.1.88.34 1.51.7.03.04.06.05.08.05.03.03.07.03.1 0l.29-.31c.05-.02.05-.05 0-.1l-.6-.39c-.26-.12-.57-.25-.94-.39-.31-.12-.65-.21-1.01-.26-.38-.03-.74-.05-1.07-.05s-.65.03-.96.08c-.29.02-.6.09-.91.21-.38.14-.67.26-.86.36-.33.16-.58.3-.75.44-.12.12-.32.33-.6.62-.12.14-.27.36-.44.68-.09.21-.16.47-.21.78-.07.26-.1.52-.1.78 0 .33.03.64.08.94.12.35.23.59.31.73.09.19.24.41.47.65.22.23.45.42.68.6.16.1.31.19.46.27s.28.15.4.22l.1.05c.43.23.74.38.91.47l.68.26.44.18c.12.05.27.11.46.18.18.07.39.17.64.29l.13.05c.4.17.75.34 1.04.49.55.31 1 .66 1.33 1.04.57.64.86 1.37.86 2.18 0 .9-.29 1.66-.88 2.29-.47.49-1.08.83-1.85 1.04-.52.14-1.07.21-1.64.21-.47 0-.95-.03-1.43-.1-.45-.09-.91-.22-1.38-.39-.54-.23-.95-.42-1.25-.6-.03-.03-.07-.03-.1.03l-.21.26-.05.03c-.04.05-.04.1 0 .13.05.03.28.16.68.39.17.09.45.2.83.34.28.1.6.21.96.31l.96.18c.19.02.52.03.99.03.48-.03.73-.03.73-.03zM227.84 26.91l.03.55c0 .1-.04.19-.12.26-.08.07-.17.1-.27.1h-2.52c-.26 0-.48 0-.65.01-.17.01-.38.01-.62.01H218.63c-.24 0-.45 0-.62-.01-.17-.01-.39-.01-.65-.01h-1.25c-.1 0-.19-.03-.26-.1s-.1-.16-.1-.26v-1.25l-.03-1.25v-1.25c0-.31.01-.52.03-.62V18.7l-.03-1.25c0-.31.01-.52.03-.62v-.63l-.03-1.25V9.96l.03-1.25c0-.1.04-.2.1-.27.07-.08.16-.12.26-.12h1.22l1.25.03H222.27l1.25-.03H225.99l1.22.03c.12 0 .21.04.27.12s.09.15.09.22l.03 1.09-.03 1.09c0 .21 0 .38.01.52s.01.32.01.55c0 .1-.04.19-.12.26-.08.07-.17.1-.27.1H225.4l-.6.03c-.24 0-.45 0-.61-.01s-.37-.01-.61-.01H219.98c-.05 0-.1.02-.14.05-.04.04-.06.08-.06.13v1.07c0 .23 0 .41.01.55.01.14.01.31.01.52s0 .38-.01.52-.01.32-.01.55c0 .05.02.1.06.13.04.04.09.05.14.05H225.64c.1 0 .19.03.26.1s.1.16.1.26c0 .29 0 .54-.01.74s-.01.45-.01.74 0 .54.01.74c.01.2.01.45.01.74 0 .1-.03.19-.1.27s-.16.12-.26.12h-1.14c-.23 0-.42 0-.57-.01-.16-.01-.34-.01-.55-.01l-1.14.03-1.14-.03h-1.12c-.05 0-.1.02-.14.05s-.06.08-.06.13c0 .33.01.55.03.68V22.38l-.03 1.3c0 .05.02.1.06.14.04.04.09.06.14.06l1.25-.03 1.25.03 1.25-.03h1.87c.1.02.31.03.62.03l1.25-.03c.1 0 .19.04.26.12.07.08.1.17.1.27v2.67zm-1.74-1.25c0-.03-.03-.05-.08-.05l-.49-.03H218.19c-.1 0-.16-.04-.16-.13l.03-1.46V21.8c.02-.1.03-.52.03-1.25l-.03-1.12-.03-1.33c0-.03.02-.07.05-.1.03-.03.07-.05.1-.05h1.98l.65-.03c.33 0 .55.01.65.03h2.29c.17 0 .32-.01.44-.03.05 0 .08-.02.08-.05V17.53c0-.05-.03-.08-.08-.08-.21 0-.35-.01-.42-.03h-1.22c-.1.02-.31.03-.62.03h-3.75c-.09 0-.13-.05-.13-.16V13.91c-.02-.1-.03-.49-.03-1.14v-1.04c0-.05 0-.16.01-.31.01-.16.01-.4.01-.73 0-.09.04-.13.13-.13h2.99c.14 0 .25 0 .34-.01s.16-.01.21-.01H223.57c.35 0 .57.01.68.03h1.07c.07-.02.22-.03.44-.03.05 0 .08-.03.08-.08v-.32c0-.05-.03-.08-.08-.08h-4.73c-.31 0-.51.01-.6.03H218.55l-.7-.03h-.16c-.14 0-.22.02-.23.06-.02.04-.03.18-.03.4v4.4c0 .28.01.47.03.57v.68c0 .36-.01.61-.03.73v1.77c0 .16 0 .28.01.36.01.09.01.17.01.23v3.18c0 .36-.01.6-.03.7V25.59c0 .24.04.39.1.43s.21.06.42.06H224.94l.57-.03h.49c.05 0 .08-.02.08-.05v-.34zM235.35 27.85c-.1 0-.19-.04-.27-.12-.08-.08-.12-.17-.12-.27l.03-1.25-.03-1.25.03-.62V23.1l-.03-.62.03-1.25-.03-1.25.03-1.25v-1.25l-.03-1.25.03-1.25v-1.25l.03-1.25c0-.05-.02-.1-.06-.13-.04-.03-.09-.05-.14-.05h-.55c-.09.02-.27.03-.55.03l-1.09-.03h-1.62c-.1.02-.29.03-.55.03-.1 0-.19-.04-.26-.12-.07-.08-.1-.17-.1-.27 0-.21 0-.39-.01-.55-.01-.16-.01-.35-.01-.57l.03-1.04-.03-1.09c0-.09.04-.17.12-.25.08-.08.17-.12.27-.12l1.2.03 1.2-.03H243.64c.1 0 .2.04.27.12.08.08.12.16.12.25v2.18c0 .21 0 .38-.01.52s-.01.32-.01.55c0 .1-.04.19-.1.26-.07.07-.16.1-.26.1l-1.09.03-.52-.03H239.31c-.12 0-.18.06-.18.18l.03 1.25-.03 1.25.03 1.25-.03.62v3.12l.03 1.25-.03.62v1.87l-.03 1.25.03.62.03.62v1.25c0 .1-.04.19-.12.26-.08.07-.17.1-.27.1h-.57c-.09.02-.27.03-.55.03h-2.3zm1.67-1.75h.26c.05 0 .08-.02.08-.05l-.03-.36v-3.92c.02-.09.03-.27.03-.55v-.55c-.02-.12-.03-.35-.03-.7v-2.5c0-.35.01-.58.03-.7v-1.1c-.02-.1-.03-.34-.03-.7v-.67c.02-.09.03-.28.03-.57 0-.26-.01-.44-.03-.55v-2.5c0-.09.04-.13.13-.13H242.08l.1.03c.05 0 .08-.03.08-.08v-.39c0-.05-.03-.08-.08-.08h-.96l-.55.03h-1.3c-.05 0-.12 0-.21-.01s-.2-.01-.34-.01h-.57c-.1.02-.3.03-.6.03h-5.76c-.04 0-.05.03-.05.08-.02.07-.03.16-.03.26v.08c0 .05.02.08.05.08h.75c.31 0 .52.01.62.03h2.52c.1-.02.29-.03.55-.03h.29c.09 0 .13.04.13.13v4.28c0 .33-.01.55-.03.65v1.2l.03.65v1.25c0 .35-.01.57-.03.68v.57c0 .28.01.47.03.57v.68c0 .36-.01.6-.03.7v.55c0 .26.01.44.03.55v1.4c-.02.1-.03.29-.03.55v.6l.03.47c0 .05.02.08.05.08h.25z"/>
    </g>
    <g>
        <path style="fill:#ef8005" d="M51.9 107.64c-.02-.04-.03-.07-.01-.11.05-.16.07-.24.07-.27l.08-.26c.03-.11.06-.2.09-.27l.08-.26c.05-.12.08-.22.1-.3.02-.07.04-.15.06-.24.03-.09.06-.17.09-.24.03-.07.06-.16.09-.28l.16-.52c.08-.23.14-.41.17-.52.02-.07.04-.13.05-.17s.02-.08.03-.1c0 .02.02-.07.07-.27l.09-.26.09-.27.16-.52c.06-.17.12-.34.17-.52.03-.1.06-.19.08-.26.02-.07.04-.16.08-.26.03-.09.06-.17.09-.24.03-.07.06-.16.1-.28l.16-.53.16-.52c.03-.09.06-.17.09-.24s.06-.16.09-.28l.16-.52c.04-.1.11-.15.21-.15h1.1c.11 0 .2 0 .27-.01s.16-.01.27-.01c.05 0 .09.02.13.05.04.03.07.07.09.12.03.1.06.19.08.26.02.07.04.16.08.26l.09.27.09.26c.05.16.07.24.07.27.04.12.07.21.08.27l.09.25.09.26.16.54.16.52.16.52.17.52c.05.12.08.22.1.3.02.07.04.15.06.24.02.04.07.21.16.52l.19.52c.05.16.07.24.07.27l.08.26c.03.12.06.21.09.28.03.07.06.15.09.24l.17.54.16.52c.03.09.06.17.09.24.03.07.06.16.09.28v.04c0 .03-.01.06-.04.08-.03.02-.06.04-.09.04-.1 0-.19 0-.26.01s-.16.01-.27.01h-.52c-.11 0-.2 0-.27-.01s-.16-.01-.26-.01c-.05 0-.09-.01-.13-.04-.04-.03-.07-.06-.08-.11-.06-.19-.12-.39-.17-.59l-.19-.58-.16-.59c-.02-.05-.05-.08-.1-.08-.15 0-.25 0-.3.01h-.59c-.05-.01-.14-.01-.29-.01l-.6.01h-.57c-.05 0-.09.02-.1.07-.06.19-.12.39-.17.59l-.17.58c-.02.09-.04.18-.06.26-.02.08-.05.19-.1.33-.01.05-.03.08-.08.11s-.09.04-.15.04h-1.04c-.11 0-.2 0-.27.01s-.16.01-.26.01c-.05-.03-.08-.04-.1-.08zm3.45-3.6h.94c.02 0 .04-.01.05-.02s.01-.03.01-.05l-.15-.51c-.02-.08-.04-.16-.06-.23-.02-.07-.04-.16-.08-.27-.03-.1-.06-.18-.08-.25-.02-.07-.04-.15-.08-.25-.05-.17-.1-.34-.15-.5-.03-.11-.06-.2-.08-.26-.02-.07-.05-.15-.07-.24 0-.02-.01-.02-.02-.02l-.01.02-.16.5-.06.24-.07.26-.08.26c-.03.08-.06.16-.08.24l-.14.5-.15.51c-.01.02-.01.03.01.05.01.02.03.03.05.03l.46-.01zM62.75 107.68h-.8l-.53.01c-.1 0-.19 0-.26-.01s-.16-.01-.27-.01h-.53c-.05 0-.08-.02-.12-.05-.03-.03-.05-.07-.05-.12l-.01-.56c0-.14 0-.23.01-.28v-1.12c-.01-.05-.01-.14-.01-.28v-.56c0-.14 0-.23.01-.28v-1.13c-.01-.05-.01-.14-.01-.28l.01-.56v-1.12l-.01-.56v-.56c0-.14 0-.23.01-.28v-.79c0-.05.02-.09.05-.12.03-.04.07-.05.12-.05.09 0 .17 0 .24.01s.16.01.26.01h.99c.05 0 .09.02.12.05.03.03.05.07.05.12 0 .14 0 .23.01.28V101.4l-.01.56v.55l.01.56-.01.56.01.56v.56l-.01.56.01.56c0 .05.03.08.08.08h.51c.09 0 .17 0 .24.01s.16.01.26.01h1.02l.51-.01.51.01c.05 0 .09.02.12.05.03.03.05.07.05.12v.48l-.01.49v.48c0 .05-.01.09-.04.12-.03.04-.06.05-.11.05h-.53l-.53-.01h-.53l-.53.01c-.16-.07-.25-.07-.3-.08zM69.05 107.68h-.8l-.53.01c-.1 0-.19 0-.26-.01s-.16-.01-.27-.01h-.53c-.05 0-.08-.02-.12-.05-.03-.03-.05-.07-.05-.12l-.01-.56c0-.14 0-.23.01-.28v-1.12c-.01-.05-.01-.14-.01-.28v-.56c0-.14 0-.23.01-.28v-1.13c-.01-.05-.01-.14-.01-.28l.01-.56v-1.12l-.01-.56v-.56c0-.14 0-.23.01-.28v-.79c0-.05.02-.09.05-.12.03-.04.07-.05.12-.05.09 0 .17 0 .24.01s.16.01.26.01h.99c.05 0 .09.02.12.05.03.03.05.07.05.12 0 .14 0 .23.01.28V101.4l-.01.56v.55l.01.56-.01.56.01.56v.56l-.01.56.01.56c0 .05.03.08.08.08h.51c.09 0 .17 0 .24.01s.16.01.26.01h1.02l.51-.01.51.01c.05 0 .09.02.12.05.03.03.05.07.05.12v.48l-.01.49v.48c0 .05-.01.09-.04.12-.03.04-.06.05-.11.05h-.53l-.53-.01h-.53l-.53.01c-.16-.07-.25-.07-.3-.08zM75.21 107.69h-1.13c-.11 0-.2 0-.28-.01s-.17-.01-.29-.01h-.56c-.05 0-.08-.02-.12-.05-.03-.03-.05-.07-.05-.12v-.56l-.01-.56v-.56c0-.14 0-.23.01-.28V103.57l-.01-.56c0-.14 0-.23.01-.28v-.28l-.01-.56V99.7l.01-.56c0-.05.02-.09.05-.12.03-.04.07-.05.12-.05h.55c.12 0 .21 0 .29.01s.17.01.29.01H75.71l.56-.01h1.11c.11 0 .2 0 .27.01s.16.01.27.01c.05 0 .08.02.12.05.03.03.05.07.05.1l.01.49-.01.49c0 .09 0 .17.01.23 0 .06.01.14.01.24 0 .05-.02.08-.05.12-.04.03-.08.05-.12.05h-.8l-.27.01c-.11 0-.2 0-.27-.01s-.16-.01-.27-.01H74.7c-.02 0-.04.01-.06.02-.02.02-.03.04-.03.06v.48c0 .1 0 .18.01.24 0 .06.01.14.01.23s0 .17-.01.23c0 .06-.01.14-.01.24 0 .02.01.04.03.06.02.02.04.02.06.02H77.23c.05 0 .09.02.12.05.03.03.05.07.05.12 0 .13 0 .24-.01.33 0 .09-.01.2-.01.33s0 .24.01.33c0 .09.01.2.01.33 0 .05-.02.09-.05.12-.03.04-.07.05-.12.05h-.51c-.1 0-.19 0-.26-.01s-.15-.01-.24-.01l-.51.02-.51-.01h-.5c-.02 0-.04.01-.06.02-.02.02-.03.03-.03.06 0 .15 0 .25.01.3V105.24l-.01.58c0 .02.01.04.03.06.02.02.04.03.06.03l.56-.01.56.01.56-.01H77.22c.05.01.14.01.28.01l.56-.01c.05 0 .08.02.12.05.03.04.05.08.05.12v1.2l.01.24c0 .05-.02.09-.05.12-.04.03-.08.05-.12.05h-1.13c-.12 0-.21 0-.29.01-.08 0-.17.01-.28.01h-1.16zM83.09 107.68h-.74c-.05 0-.08-.02-.12-.05-.03-.03-.05-.07-.05-.12l-.01-.56c0-.14 0-.23.01-.28V105.83l-.01-.56.01-.56V103.86c-.01-.05-.01-.14-.01-.28v-1.12c0-.14 0-.23.01-.28V100.78l-.01-.56.01-.56v-.56c0-.05.02-.08.05-.12.03-.03.07-.05.12-.05h1c.09 0 .17 0 .24-.01.07 0 .16-.01.26-.01.04 0 .08.02.11.05.04.03.05.08.05.12v.51c0 .11 0 .2-.01.27 0 .07-.01.16-.01.26 0 .11 0 .2.01.27 0 .07.01.16.01.26v1.56c0 .01.01.01.02.02s.02 0 .03-.01l.36-.45.36-.44.35-.45c.08-.09.14-.17.18-.24.04-.07.1-.14.17-.23.27-.34.39-.49.36-.45-.03.04.09-.11.36-.45l.35-.46c.07-.08.16-.13.27-.13.12 0 .23 0 .31.01.08 0 .19.01.3.01.15 0 .26 0 .31-.01H88.66c.03 0 .05.02.07.05.02.03.01.06-.01.08l-.16.22c-.02.03-.08.1-.16.22l-.35.43c.03-.04-.08.1-.34.43l-.34.44c-.11.15-.22.29-.34.43l-.34.44-.35.43-.34.43c-.09.12-.14.19-.16.22-.02.03-.04.06-.06.1-.03.04-.06.08-.1.12-.03.03-.03.07-.01.13l.35.44.34.44.36.44.35.43.16.23c.13.16.19.24.17.22.01.02.07.09.17.22s.17.21.17.22l.35.44c.09.12.14.19.16.22l.17.23c.08.1.14.17.17.21l.19.22.34.44.01.05c0 .05-.03.08-.08.08h-.98l-.49.01-.49-.01c-.11 0-.2-.04-.27-.13l-.34-.42c-.06-.08-.11-.16-.16-.21-.04-.06-.1-.13-.16-.21l-.34-.42-.16-.21c-.03-.03-.09-.1-.17-.21-.09-.12-.14-.19-.16-.22-.09-.11-.14-.18-.16-.21l-.33-.42-.34-.42c-.04-.04-.07-.04-.09 0-.09.12-.16.19-.2.23l-.19.24c-.03.03-.05.08-.05.14v1.15l.03.64v.57c0 .05-.02.09-.05.12-.03.03-.07.05-.1.05-.1 0-.19 0-.26.01-.07 0-.15.01-.24.01-.13-.02-.21-.02-.26-.03zM92.62 107.81c-.14-.02-.32-.05-.55-.12-.23-.08-.41-.14-.52-.2-.19-.09-.34-.19-.47-.28-.15-.12-.3-.24-.43-.36-.09-.09-.21-.23-.36-.43-.12-.17-.23-.33-.3-.46-.09-.15-.16-.32-.23-.5-.05-.12-.1-.29-.16-.52-.02-.05-.04-.14-.07-.24-.03-.11-.05-.21-.06-.3-.03-.17-.05-.35-.07-.55-.02-.25-.02-.43-.02-.56 0-.25 0-.43.01-.55l.08-.55c.05-.25.08-.43.12-.54.04-.14.1-.31.19-.52.08-.21.16-.38.23-.5.05-.1.15-.25.3-.45.13-.17.25-.31.36-.42.05-.04.11-.09.19-.17.08-.07.16-.13.23-.18.14-.1.3-.19.48-.28.13-.05.31-.12.52-.19.18-.05.36-.08.53-.1.23-.03.41-.05.55-.05.1 0 .21.01.32.02.11.02.19.03.24.04.23.03.41.06.53.09.15.04.33.1.51.2.21.1.37.19.49.27.1.07.24.18.43.34.05.05.17.19.36.42.14.2.24.36.3.46.08.16.16.32.23.5.07.16.13.34.17.52.06.23.1.41.13.54.02.12.04.3.06.55.02.12.02.3.02.55s0 .43-.01.56c-.01.14-.03.32-.06.55-.01.05-.05.24-.14.55-.03.12-.06.22-.09.3-.03.09-.06.16-.08.22-.07.18-.15.35-.23.5-.1.18-.2.34-.3.48-.11.16-.23.3-.36.42-.12.12-.27.24-.43.36-.11.08-.27.17-.48.27-.16.08-.33.15-.51.21-.23.06-.41.1-.55.12-.18.02-.36.03-.56.03-.18-.01-.36-.03-.54-.05zm1.1-1.86c.17-.04.33-.11.49-.22.13-.09.26-.22.38-.38.11-.14.2-.29.27-.46.07-.16.13-.33.17-.51.05-.2.08-.38.09-.54.02-.12.02-.28.02-.48 0-.25-.01-.45-.02-.6-.04-.25-.07-.42-.09-.52-.03-.16-.09-.33-.16-.51-.05-.12-.15-.28-.28-.45-.15-.16-.28-.28-.4-.35-.16-.11-.32-.18-.49-.22-.14-.04-.32-.06-.53-.06-.17 0-.34.02-.52.06-.17.04-.33.11-.49.22-.14.08-.27.21-.38.36-.13.18-.23.33-.28.45-.06.13-.12.3-.16.5-.05.19-.08.36-.1.52-.02.16-.02.36-.02.6 0 .07.01.23.02.48.03.24.06.42.09.54.04.13.1.3.19.5.08.19.17.34.27.47.11.16.23.29.37.38.16.12.33.19.49.23.14.04.32.06.53.06.22-.01.41-.03.54-.07zM99.33 107.69s-.03 0-.1-.01-.15-.01-.24-.01c-.1 0-.19 0-.26.01s-.15.01-.24.01c-.05 0-.08-.02-.12-.05-.03-.04-.05-.08-.05-.12V106.12c-.01-.05-.01-.14-.01-.28s0-.23.01-.28V104.15l-.01-.56v-.56c0-.14 0-.23.01-.28v-.56l-.01-.28v-.56l.01-.56v-.28l-.01-.28.01-.56v-.57c0-.04.02-.07.05-.1.03-.03.07-.05.12-.05h1c.09 0 .17 0 .24-.01.07 0 .15-.01.24-.01.11 0 .19.05.26.15l.27.49c.05.1.1.18.13.25.04.07.08.15.13.25.09.16.18.33.27.5l.29.49.27.49c.05.09.09.17.12.24.03.07.08.15.15.26l.28.5.27.49c.05.08.09.16.13.23l.15.27c.06.11.11.2.15.26.04.07.08.15.12.24h.02c.02 0 .02 0 .02-.01v-.28c-.01-.05-.01-.16-.01-.33 0-.08 0-.16.01-.23 0-.07.01-.16.01-.27V102.1c-.01-.05-.01-.14-.01-.28 0-.11 0-.2.01-.27 0-.07.01-.16.01-.27v-1.37c-.01-.05-.01-.14-.01-.28 0-.11 0-.2.01-.27 0-.07.01-.17.01-.27 0-.04.02-.08.05-.11.03-.04.07-.05.12-.05h1.5c.04 0 .08.02.11.05.04.03.05.07.05.11V106.11c-.01.05-.01.14-.01.28l.01.56-.01.56c0 .05-.02.09-.05.12-.03.03-.07.05-.1.05h-.76c-.04.01-.12.01-.24.01-.09 0-.17 0-.24-.01s-.15-.01-.26-.01c-.12 0-.2-.05-.24-.14l-.28-.5-.27-.49c-.05-.08-.14-.24-.27-.5l-.28-.5-.28-.49-.27-.49-.14-.26c-.02-.06-.07-.14-.13-.24l-.27-.5-.28-.49c-.05-.08-.09-.16-.13-.23l-.15-.27-.02-.01c-.02 0-.02.01-.02.02 0 .11 0 .2.01.27 0 .07.01.17.01.27v2.75c0 .11 0 .2-.01.27 0 .07-.01.16-.01.27 0 .11 0 .2.01.27 0 .07.01.17.01.27v.55c0 .05-.02.09-.05.12-.03.03-.07.05-.11.05-.1 0-.19 0-.26.01-.07 0-.15.01-.24.01h-.2zM106.73 107.68c-.05 0-.09-.02-.12-.05-.03-.03-.05-.07-.05-.12 0-.14 0-.23.01-.28V103.02l-.01-.56v-.56l.01-.56v-1.12l-.01-.56.01-.56c0-.05.02-.08.05-.12.03-.03.07-.05.12-.05.11 0 .2 0 .28-.01.08 0 .17-.01.29-.01h.51c.12 0 .21 0 .29.01s.17.01.28.01c.14 0 .23 0 .28-.01h.28c.11 0 .2 0 .27.01.07 0 .16.01.27.01l.56-.01H111.71c.05 0 .09.02.12.05.03.03.05.07.05.11v.49l-.01.49c0 .09 0 .17.01.23 0 .06.01.14.01.24 0 .05-.02.08-.05.12-.04.03-.08.05-.12.05h-.53l-.53.01-.53-.01h-1.08l-.53.01c-.06 0-.09.02-.09.07l.01.56v.55l-.01.56c0 .02.01.03.03.05.02.02.04.03.06.03h1.02c.11 0 .2 0 .27-.01s.16-.01.26-.01l.51.01h.51c.05 0 .09.02.12.05.03.03.05.07.05.12 0 .13 0 .24-.01.34 0 .09-.01.21-.01.36l.01.63c0 .05-.02.09-.05.12-.04.04-.08.05-.12.05l-.51-.01h-2.05c-.02 0-.04.01-.06.02-.02.02-.03.03-.03.06l.01.54c0 .11 0 .2-.01.27 0 .07-.01.17-.01.27v.54l.01.53-.01.54v.53c0 .05-.02.09-.05.12-.03.03-.07.05-.1.05h-1.54zM114.07 107.68h-.74c-.05 0-.08-.02-.12-.05-.03-.03-.05-.07-.05-.12v-.28c-.01-.05-.01-.14-.01-.28l.01-.56V105.55c-.01-.05-.01-.14-.01-.28l.01-.56v-.56c0-.12 0-.21-.01-.29s-.01-.17-.01-.28l.01-.56V101.34l-.01-.56.01-.56v-.52l-.01-.56c0-.05.02-.09.05-.12.04-.04.08-.05.12-.05h1.5c.04 0 .07.02.1.05.03.03.05.08.05.12l.01.56v1.12l-.01.56v2.81c0 .14 0 .23.01.28v.56c-.01.05-.01.14-.01.28v.56l.01.28V107.55c0 .05-.02.09-.05.12-.03.04-.07.05-.11.05h-.5c-.11-.03-.19-.03-.24-.04zM119.57 107.8c-.19-.02-.37-.06-.52-.12-.23-.08-.4-.14-.5-.2-.19-.09-.34-.19-.46-.28-.07-.05-.21-.17-.42-.36-.1-.1-.22-.24-.35-.41-.12-.16-.22-.31-.3-.45-.09-.18-.17-.34-.23-.49-.05-.11-.1-.28-.16-.51-.06-.23-.1-.41-.13-.52l-.07-.55c-.02-.37-.04-.57-.04-.59 0-.12.01-.28.02-.5.01-.12.03-.31.06-.56.04-.22.08-.4.12-.55.05-.2.11-.38.17-.52.09-.23.17-.4.22-.51.1-.17.2-.33.3-.46.08-.1.2-.24.37-.43.15-.15.29-.27.42-.36.15-.11.31-.2.49-.28.12-.06.3-.13.52-.2.17-.05.35-.08.55-.1.17-.02.36-.04.56-.04.19 0 .38.01.55.04.25.03.43.07.53.1.18.05.35.11.51.2.19.08.34.17.48.27.13.09.27.21.43.35-.01-.01.12.13.37.41.03.05.05.08.05.12 0 .05-.02.09-.06.13l-.4.31-.38.3-.38.31c-.03.02-.07.04-.1.04-.06 0-.11-.02-.14-.06-.12-.15-.26-.28-.4-.38-.18-.12-.35-.19-.51-.23-.16-.05-.34-.07-.55-.07-.18 0-.36.02-.53.06-.16.04-.32.11-.5.22-.12.08-.24.2-.38.37-.12.15-.21.31-.27.46-.09.22-.15.39-.17.51-.04.16-.07.33-.08.54-.02.16-.04.33-.04.5 0 .19.01.38.04.57.02.14.05.31.09.51.05.16.1.33.17.5.09.19.17.35.26.45.09.13.22.25.37.37.14.11.29.19.46.24.19.05.36.08.52.08.18 0 .34-.02.49-.07.16-.05.31-.12.45-.21.09-.06.21-.18.35-.35.1-.12.19-.27.26-.43.06-.16.11-.32.14-.48.01-.02 0-.04-.01-.06-.02-.02-.04-.02-.06-.02h-.57l-.58-.01-.58.01c-.04 0-.08-.02-.11-.05-.04-.04-.05-.07-.05-.11v-.34l.01-.33-.01-.67c0-.04.02-.07.05-.1.03-.03.07-.05.11-.05h1.18c.12 0 .21 0 .29-.01s.18-.01.3-.01l.58.01c.12 0 .22 0 .3-.01s.17-.01.29-.01h.59c.05 0 .09.02.12.05.03.04.05.07.05.11l-.01.42c0 .09 0 .17.01.22 0 .05.01.09.01.12 0 .15-.02.36-.05.64-.03.25-.06.43-.08.55-.05.22-.1.4-.15.52-.05.19-.12.36-.21.52-.11.22-.2.38-.27.48-.12.16-.23.31-.34.43-.14.15-.28.27-.42.37-.15.11-.3.21-.46.29-.09.05-.18.09-.3.12-.11.04-.19.06-.23.08-.12.04-.3.08-.53.13-.25.03-.43.05-.55.05h-.04c-.2.02-.38 0-.53-.03zM127.64 107.82c-.21-.03-.39-.07-.53-.12-.2-.05-.37-.12-.5-.19-.16-.07-.31-.16-.45-.28-.17-.13-.3-.25-.4-.37-.12-.13-.23-.28-.31-.43-.09-.18-.17-.34-.23-.49-.04-.11-.09-.28-.15-.51l-.05-.24c-.03-.11-.04-.21-.05-.29-.03-.2-.05-.38-.06-.53-.01-.11-.01-.29-.01-.54v-1.56c0-.1 0-.19-.01-.25 0-.07-.01-.16-.01-.27 0-.1 0-.19.01-.26s.01-.16.01-.27V99.4c-.01-.05-.01-.13-.01-.26 0-.05.02-.09.05-.12.04-.04.08-.05.12-.05h.5c.09 0 .17 0 .24.01s.15.01.26.01c.09 0 .17 0 .24-.01.07 0 .16-.01.26-.01.04 0 .08.02.12.05.04.03.06.08.06.12l-.01.26-.01.25c0 .11 0 .2.01.27 0 .07.01.16.01.26 0 .11 0 .2-.01.27 0 .07-.01.16-.01.26 0 .11 0 .2.01.27 0 .07.01.16.01.26v2.08c0 .11 0 .2-.01.27 0 .07-.01.16-.01.26 0 .14.01.31.02.51 0 .05.02.22.07.5.04.23.08.39.14.49.06.17.15.31.28.42.13.11.28.18.45.22.15.03.32.05.51.05.21 0 .38-.02.5-.06.21-.05.36-.12.45-.21.1-.08.19-.22.28-.42.06-.15.11-.31.14-.49.02-.11.04-.28.06-.5.02-.22.02-.39.02-.51v-1.57c0-.1 0-.19.01-.25 0-.07.01-.16.01-.27v-.52c0-.1 0-.19-.01-.26 0-.07-.01-.16-.01-.27 0-.1 0-.19-.01-.26 0-.07-.01-.16-.01-.27v-1.03c0-.05.02-.08.05-.12.04-.03.08-.05.12-.05.09 0 .17 0 .24-.01s.16-.01.26-.01h1c.05 0 .09.02.12.05.03.03.05.08.05.12V101.72c0 .11 0 .2.01.27 0 .07.01.15.01.25 0 .11 0 .2-.01.27 0 .07-.01.16-.01.26v.52c0 .11 0 .2.01.27 0 .07.01.16.01.26 0 .12-.01.3-.02.54-.01.15-.03.33-.06.53-.02.18-.06.36-.1.54-.02.13-.07.3-.15.51-.06.15-.14.31-.23.49-.12.2-.23.35-.3.44-.09.12-.23.24-.4.36-.14.1-.29.19-.45.28-.15.08-.33.14-.51.19-.16.05-.34.08-.52.1-.17.02-.35.03-.53.03-.27.02-.45.01-.57-.01zM133.21 107.69c-.05 0-.08-.02-.12-.05-.03-.04-.05-.08-.05-.12V104.72l-.01-.56v-.57l.01-.56v-1.12l-.01-.56.01-.56-.01-.56v-.53l.01-.56c0-.05.02-.09.05-.12.03-.04.07-.05.12-.05h.55l.53.01h1.1c.11 0 .2 0 .27-.01s.16-.01.27-.01c.12 0 .22 0 .3.01.09.01.16.02.22.02.22.03.4.06.53.08.12.02.28.07.5.15.2.08.36.15.49.22.12.08.26.19.42.33.14.12.26.25.36.4.09.13.17.29.24.48.07.19.12.35.15.5.02.12.02.29.02.53 0 .23-.02.43-.05.59-.05.23-.12.42-.19.57-.09.21-.19.38-.29.51-.16.19-.29.34-.41.44-.13.11-.3.22-.5.34-.02.01-.03.02-.03.05-.01.02-.01.04 0 .06.05.09.1.17.13.24.04.07.08.15.13.24l.27.46c.07.12.11.19.13.23l.13.24.27.46c.05.08.09.16.12.23s.08.15.14.25l.27.46c.05.08.09.16.12.23.04.07.08.15.15.25.01.01.01.02.01.05 0 .03-.01.06-.03.08s-.04.03-.06.03c-.12 0-.23 0-.3-.01s-.17-.01-.29-.01-.21 0-.29.01-.18.01-.3.01h-.58c-.05 0-.1-.01-.15-.04-.05-.03-.08-.06-.1-.11l-.27-.49-.27-.49-.28-.49-.28-.48c-.05-.1-.1-.18-.13-.25s-.08-.15-.13-.25l-.28-.49c-.03-.05-.07-.07-.12-.07h-.76c-.05 0-.08.03-.08.08v.58l-.01.58.01.58c0 .12 0 .21-.01.29 0 .08-.01.17-.01.28v.58c0 .05-.02.09-.05.12-.03.03-.07.05-.1.05h-.5c-.1 0-.19 0-.26.01s-.15.01-.24.01h-.48zm2.72-4.81c.2 0 .38-.02.53-.06.19-.04.35-.11.5-.21.18-.13.3-.26.36-.39.06-.15.09-.34.09-.59 0-.19-.03-.34-.09-.45-.05-.13-.18-.25-.37-.36-.15-.07-.32-.12-.5-.15-.1-.02-.28-.02-.52-.02l-.49-.01-.49.01c-.02 0-.04.01-.06.02-.02.02-.03.04-.03.06 0 .1 0 .19.01.26 0 .07.01.16.01.27v1.55c0 .05.03.08.08.08h.97zM140.07 107.64c-.02-.04-.03-.07-.01-.11.05-.16.07-.24.07-.27l.08-.26c.03-.11.06-.2.09-.27l.08-.26c.05-.12.08-.22.1-.3.02-.07.04-.15.06-.24.03-.09.06-.17.09-.24.03-.07.06-.16.09-.28l.16-.52c.08-.23.14-.41.17-.52.02-.07.04-.13.05-.17s.02-.08.03-.1c0 .02.02-.07.07-.27l.09-.26.09-.27.16-.52c.06-.17.12-.34.17-.52.03-.1.06-.19.08-.26.02-.07.04-.16.08-.26.03-.09.06-.17.09-.24.03-.07.06-.16.1-.28l.16-.53.16-.52c.03-.09.06-.17.09-.24s.06-.16.09-.28l.16-.52c.04-.1.11-.15.21-.15h1.1c.11 0 .2 0 .27-.01.07 0 .16-.01.27-.01.05 0 .09.02.13.05.04.03.07.07.09.12.03.1.06.19.08.26.02.07.04.16.08.26l.09.27.09.26c.05.16.07.24.07.27.04.12.07.21.08.27l.09.25.09.26.16.54.16.52.16.52.17.52c.05.12.08.22.1.3.02.07.04.15.06.24.02.04.07.21.16.52l.19.52c.05.16.07.24.07.27l.08.26c.03.12.06.21.09.28.03.07.06.15.09.24l.17.54.16.52c.03.09.06.17.09.24.03.07.06.16.09.28v.04c0 .03-.01.06-.04.08-.03.02-.06.04-.09.04-.1 0-.19 0-.26.01-.07 0-.16.01-.27.01h-.52c-.11 0-.2 0-.27-.01-.07 0-.16-.01-.26-.01-.05 0-.09-.01-.13-.04-.04-.03-.07-.06-.08-.11-.06-.19-.12-.39-.17-.59l-.19-.58-.16-.59c-.02-.05-.05-.08-.11-.08-.15 0-.25 0-.3.01h-.59c-.05-.01-.14-.01-.29-.01l-.6.01h-.59c-.05 0-.09.02-.11.07-.06.19-.12.39-.17.59l-.17.58c-.02.09-.04.18-.06.26s-.05.19-.1.33c-.01.05-.03.08-.08.11-.04.03-.09.04-.14.04h-1.04c-.11 0-.2 0-.27.01-.07 0-.16.01-.26.01-.02-.03-.05-.04-.07-.08zm3.45-3.6h.94c.02 0 .04-.01.05-.02s.01-.03.01-.05l-.15-.51c-.02-.08-.04-.16-.06-.23-.02-.07-.04-.16-.08-.27-.03-.1-.06-.18-.08-.25-.02-.07-.04-.15-.08-.25-.05-.17-.1-.34-.15-.5-.03-.11-.06-.2-.08-.26-.02-.07-.05-.15-.07-.24 0-.02-.01-.02-.02-.02s-.02.01-.02.02l-.16.5-.06.24-.07.26-.08.26c-.03.08-.06.16-.08.24l-.14.5-.15.51c-.01.02-.01.03.01.05.01.02.03.03.05.03l.47-.01zM149.44 107.69c-.05 0-.09-.02-.12-.05s-.05-.08-.05-.12l.01-.56-.01-.56.01-.28v-.56l-.01-.28.01-.56-.01-.56.01-.56v-.56l-.01-.56.01-.56v-.56l.01-.56c0-.02-.01-.04-.03-.06-.02-.02-.04-.02-.06-.02h-.24c-.04.01-.12.01-.24.01l-.49-.01h-.72c-.05.01-.13.01-.24.01-.05 0-.08-.02-.12-.05-.03-.04-.05-.08-.05-.12 0-.09 0-.17-.01-.24 0-.07-.01-.16-.01-.26l.01-.46c0-.1 0-.18-.01-.24 0-.06-.01-.14-.01-.23 0-.05.02-.09.05-.12.04-.04.08-.05.12-.05l.54.01h.53l.54-.01H153.11c.05 0 .09.02.12.05.04.03.05.08.05.12v.97c0 .09 0 .17-.01.23v.24c0 .05-.02.08-.05.12-.03.03-.07.05-.12.05l-.49.01-.23-.01h-1.22c-.05 0-.08.03-.08.08l.01.56-.01.56.01.56-.01.28V104.18l.01.56-.01.28V105.86l-.01.56.01.28.01.28v.56c0 .05-.02.09-.05.12-.03.03-.08.05-.12.05-.12 0-.21 0-.26.01h-1.22zM156.83 107.81c-.14-.02-.32-.05-.55-.12-.23-.08-.41-.14-.52-.2-.19-.09-.34-.19-.47-.28-.15-.12-.3-.24-.43-.36-.08-.09-.21-.23-.36-.43-.12-.17-.22-.33-.3-.46-.09-.15-.16-.32-.23-.5-.05-.12-.1-.29-.16-.52-.02-.05-.04-.14-.07-.24-.03-.11-.05-.21-.06-.3-.03-.17-.05-.35-.07-.55-.02-.25-.02-.43-.02-.56 0-.25 0-.43.01-.55l.08-.55c.05-.25.08-.43.12-.54.04-.14.1-.31.19-.52.08-.21.16-.38.23-.5.05-.1.15-.25.3-.45.13-.17.25-.31.36-.42.05-.04.11-.09.19-.17.08-.07.16-.13.23-.18.14-.1.3-.19.48-.28.13-.05.31-.12.52-.19.18-.05.36-.08.54-.1.23-.03.41-.05.55-.05.1 0 .21.01.32.02.11.02.19.03.24.04.23.03.41.06.54.09.15.04.33.1.51.2.21.1.37.19.49.27.1.07.24.18.43.34.05.05.17.19.36.42.14.2.24.36.3.46.08.16.16.32.23.5.07.16.13.34.17.52.06.23.1.41.13.54.02.12.04.3.06.55.02.12.02.3.02.55s0 .43-.01.56c-.01.14-.03.32-.06.55-.01.05-.05.24-.14.55-.03.12-.06.22-.09.3-.03.09-.06.16-.08.22-.07.18-.15.35-.23.5-.1.18-.2.34-.3.48-.11.16-.23.3-.36.42-.12.12-.27.24-.43.36-.11.08-.27.17-.48.27-.16.08-.33.15-.51.21-.23.06-.41.1-.55.12-.18.02-.36.03-.56.03-.2-.01-.38-.03-.56-.05zm1.09-1.86c.17-.04.33-.11.49-.22.13-.09.26-.22.38-.38.11-.14.2-.29.27-.46.07-.16.13-.33.17-.51.05-.2.08-.38.09-.54.02-.12.02-.28.02-.48 0-.25-.01-.45-.02-.6-.04-.25-.07-.42-.09-.52-.03-.16-.08-.33-.16-.51-.05-.12-.15-.28-.28-.45-.15-.16-.28-.28-.4-.35-.16-.11-.32-.18-.49-.22-.14-.04-.32-.06-.53-.06-.17 0-.34.02-.52.06-.17.04-.33.11-.49.22-.14.08-.27.21-.38.36-.13.18-.23.33-.28.45-.06.13-.12.3-.16.5-.05.19-.08.36-.1.52-.02.16-.02.36-.02.6 0 .07.01.23.02.48.03.24.06.42.09.54.04.13.1.3.19.5.08.19.17.34.27.47.11.16.23.29.37.38.16.12.33.19.49.23.14.04.32.06.54.06.22-.01.4-.03.53-.07zM162.69 107.69c-.05 0-.08-.02-.12-.05s-.05-.08-.05-.12V104.72l-.01-.56v-.57l.01-.56v-1.12l-.01-.56.01-.56-.01-.56v-.53l.01-.56c0-.05.02-.09.05-.12.03-.04.07-.05.12-.05h.55l.54.01h1.1c.11 0 .2 0 .27-.01.07 0 .17-.01.27-.01.12 0 .22 0 .3.01.09.01.16.02.22.02.22.03.4.06.53.08.12.02.28.07.5.15.2.08.36.15.49.22.12.08.26.19.42.33.14.12.26.25.36.4.09.13.17.29.24.48.07.19.12.35.15.5.02.12.02.29.02.53 0 .23-.02.43-.05.59-.05.23-.12.42-.19.57-.09.21-.19.38-.29.51-.16.19-.29.34-.41.44-.13.11-.3.22-.5.34-.02.01-.03.02-.04.05s-.01.04 0 .06c.05.09.1.17.13.24.04.07.08.15.13.24l.27.46c.07.12.11.19.13.23l.13.24.27.46c.05.08.09.16.12.23s.08.15.15.25l.27.46c.05.08.09.16.12.23s.08.15.14.25c.01.01.01.02.01.05 0 .03-.01.06-.03.08-.02.02-.04.03-.06.03-.12 0-.22 0-.3-.01-.08 0-.17-.01-.29-.01s-.21 0-.29.01c-.08 0-.18.01-.3.01h-.58c-.05 0-.1-.01-.15-.04-.05-.03-.08-.06-.1-.11l-.27-.49-.27-.49-.28-.49-.28-.48c-.05-.1-.1-.18-.13-.25s-.08-.15-.13-.25l-.28-.49c-.03-.05-.07-.07-.12-.07h-.76c-.05 0-.08.03-.08.08v.58l-.01.58.01.58c0 .12 0 .21-.01.29 0 .08-.01.17-.01.28v.58c0 .05-.02.09-.05.12-.03.03-.07.05-.1.05h-.5c-.1 0-.19 0-.26.01-.07 0-.15.01-.24.01h-.48zm2.72-4.81c.2 0 .38-.02.54-.06.19-.04.35-.11.5-.21.18-.13.3-.26.36-.39.06-.15.09-.34.09-.59 0-.19-.03-.34-.09-.45-.05-.13-.18-.25-.37-.36-.15-.07-.32-.12-.5-.15-.1-.02-.28-.02-.52-.02l-.49-.01-.49.01c-.02 0-.04.01-.06.02-.02.02-.03.04-.03.06 0 .1 0 .19.01.26 0 .07.01.16.01.27v1.55c0 .05.03.08.08.08h.96zM172.47 107.69h-1.13c-.11 0-.2 0-.28-.01-.08 0-.17-.01-.29-.01h-.56c-.05 0-.08-.02-.12-.05-.03-.03-.05-.07-.05-.12v-.56l-.01-.56v-.56c0-.14 0-.23.01-.28V103.57l-.01-.56c0-.14 0-.23.01-.28v-.28l-.01-.56V99.7l.01-.56c0-.05.02-.09.05-.12.03-.04.07-.05.12-.05h.55c.12 0 .21 0 .29.01.08 0 .17.01.29.01H172.97l.56-.01h1.11c.11 0 .2 0 .27.01.07 0 .16.01.27.01.05 0 .08.02.12.05.03.03.05.07.05.1l.01.49-.01.49c0 .09 0 .17.01.23 0 .06.01.14.01.24 0 .05-.02.08-.05.12-.04.03-.08.05-.12.05h-.81l-.27.01c-.11 0-.2 0-.27-.01-.07 0-.17-.01-.27-.01h-1.6c-.02 0-.04.01-.06.02s-.03.04-.03.06v.72c0 .06.01.14.01.23s0 .17-.01.23v.24c0 .02.01.04.03.06s.04.02.06.02H174.51c.05 0 .09.02.12.05.03.03.05.07.05.12 0 .13 0 .24-.01.33s-.01.2-.01.33 0 .24.01.33.01.2.01.33c0 .05-.02.09-.05.12-.03.04-.07.05-.12.05H174c-.1 0-.19 0-.26-.01-.07 0-.15-.01-.24-.01l-.51.01-.51-.01h-.5c-.02 0-.04.01-.06.02s-.03.03-.03.06c0 .15 0 .25.01.3V105.23l-.01.58c0 .02.01.04.03.06s.04.03.06.03l.56-.01.56.01.56-.01H174.5c.05.01.14.01.28.01l.56-.01c.05 0 .08.02.12.05.03.04.05.08.05.12v1.2l.01.24c0 .05-.02.09-.05.12-.04.03-.08.05-.12.05h-1.13c-.12 0-.21 0-.29.01-.08 0-.17.01-.28.01h-1.18zM177.84 107.69s-.03 0-.1-.01c-.07 0-.15-.01-.24-.01-.1 0-.19 0-.26.01-.07 0-.15.01-.24.01-.05 0-.08-.02-.12-.05-.03-.04-.05-.08-.05-.12V106.12c-.01-.05-.01-.14-.01-.28s0-.23.01-.28V104.15l-.01-.56v-.56c0-.14 0-.23.01-.28v-.56l-.01-.28v-.56l.01-.56v-.28l-.01-.28.01-.56v-.57c0-.04.02-.07.05-.1.03-.03.07-.05.12-.05h1c.09 0 .17 0 .24-.01s.15-.01.24-.01c.11 0 .19.05.26.15l.27.49c.05.1.1.18.13.25.04.07.08.15.13.25.09.16.18.33.27.5l.29.49.27.49c.05.09.09.17.12.24.04.07.08.15.15.26l.28.5.27.49c.05.08.09.16.13.23l.15.27c.06.11.11.2.15.26.04.07.08.15.12.24h.02c.01 0 .02 0 .02-.01v-.28c-.01-.05-.01-.16-.01-.33v-.23c0-.07.01-.16.01-.27V102.1c-.01-.05-.01-.14-.01-.28v-.27c0-.07.01-.16.01-.27v-1.37c-.01-.05-.01-.14-.01-.28v-.27c0-.07.01-.17.01-.27 0-.04.02-.08.05-.11.03-.04.07-.05.12-.05h1.5c.04 0 .08.02.11.05.04.03.05.07.05.11V106.11c-.01.05-.01.14-.01.28l.01.56-.01.56c0 .05-.02.09-.05.12-.03.03-.07.05-.11.05h-.76c-.04.01-.12.01-.24.01-.09 0-.17 0-.24-.01-.07 0-.16-.01-.26-.01-.12 0-.2-.05-.24-.14l-.28-.5-.27-.49c-.05-.08-.14-.24-.27-.5l-.28-.5-.28-.49-.27-.49-.14-.26c-.02-.06-.07-.14-.13-.24l-.27-.5-.28-.49c-.05-.08-.09-.16-.13-.23l-.15-.27-.02-.01c-.02 0-.02.01-.02.02v.27c0 .07.01.17.01.27v2.75c0 .11 0 .2-.01.27v.54c0 .07.01.17.01.27v.55c0 .05-.02.09-.05.12-.04.03-.07.05-.11.05-.1 0-.19 0-.26.01s-.15.01-.24.01h-.15zM187.31 107.64c-.02-.04-.03-.07-.01-.11.05-.16.07-.24.07-.27l.08-.26c.03-.11.06-.2.09-.27l.08-.26c.05-.12.08-.22.1-.3.02-.07.04-.15.06-.24.03-.09.06-.17.09-.24.03-.07.06-.16.09-.28l.16-.52c.08-.23.14-.41.17-.52.02-.07.04-.13.05-.17s.02-.08.03-.1c0 .02.02-.07.07-.27l.09-.26.09-.27.16-.52c.06-.17.12-.34.17-.52.03-.1.06-.19.08-.26.02-.07.04-.16.08-.26.03-.09.06-.17.09-.24.03-.07.06-.16.1-.28l.16-.53.16-.52c.03-.09.06-.17.09-.24s.06-.16.09-.28l.16-.52c.04-.1.11-.15.21-.15h1.1c.11 0 .2 0 .27-.01.07 0 .17-.01.27-.01.05 0 .09.02.13.05s.07.07.09.12c.03.1.06.19.08.26.02.07.04.16.08.26l.09.27.09.26c.05.16.07.24.07.27.04.12.07.21.08.27l.09.25.09.26.16.54.16.52.16.52.17.52c.05.12.08.22.1.3s.04.15.06.24c.01.04.07.21.16.52l.19.52c.05.16.07.24.07.27l.08.26c.03.12.06.21.09.28.03.07.06.15.09.24l.17.54.16.52c.03.09.06.17.09.24.03.07.06.16.09.28v.04c0 .03-.01.06-.04.08s-.06.04-.09.04c-.1 0-.19 0-.26.01-.07 0-.16.01-.27.01h-.52c-.11 0-.2 0-.27-.01-.07 0-.16-.01-.26-.01-.05 0-.09-.01-.13-.04s-.07-.06-.08-.11c-.06-.19-.12-.39-.17-.59l-.19-.58-.16-.59c-.02-.05-.05-.08-.1-.08-.15 0-.25 0-.3.01h-.59c-.05-.01-.14-.01-.29-.01l-.6.01h-.59c-.05 0-.09.02-.1.07-.06.19-.12.39-.17.59l-.17.58c-.02.09-.04.18-.06.26-.02.08-.05.19-.1.33-.01.05-.03.08-.08.11-.04.03-.09.04-.15.04h-1.04c-.11 0-.2 0-.27.01-.07 0-.16.01-.26.01-.03-.03-.06-.04-.08-.08zm3.45-3.6h.94c.02 0 .04-.01.05-.02s.01-.03.01-.05l-.15-.51c-.02-.08-.04-.16-.06-.23-.02-.07-.04-.16-.08-.27-.03-.1-.06-.18-.08-.25-.02-.07-.04-.15-.08-.25-.05-.17-.1-.34-.15-.5-.03-.11-.06-.2-.08-.26-.02-.07-.05-.15-.07-.24 0-.02-.01-.02-.02-.02s-.02.01-.02.02l-.16.5-.06.24-.07.26-.08.26c-.03.08-.06.16-.08.24l-.14.5-.15.51c-.01.02 0 .03.01.05.01.02.03.03.05.03l.47-.01zM196.62 107.69s-.04 0-.1-.01c-.07 0-.15-.01-.24-.01-.1 0-.19 0-.26.01-.07 0-.15.01-.24.01-.05 0-.08-.02-.12-.05s-.05-.08-.05-.12V106.12c-.01-.05-.01-.14-.01-.28s0-.23.01-.28V104.15l-.01-.56v-.56c0-.14 0-.23.01-.28v-.56l-.01-.28v-.56l.01-.56v-.28l-.01-.28.01-.56v-.57c0-.04.02-.07.05-.1s.07-.05.12-.05h1c.09 0 .17 0 .24-.01.07 0 .15-.01.24-.01.11 0 .19.05.26.15l.27.49c.05.1.1.18.13.25.04.07.08.15.13.25.09.16.18.33.27.5l.29.49.27.49c.05.09.09.17.12.24.03.07.08.15.15.26l.28.5.27.49c.05.08.09.16.13.23l.15.27c.06.11.11.2.14.26.04.07.08.15.12.24h.02c.02 0 .02 0 .02-.01v-.28c-.01-.05-.01-.16-.01-.33 0-.08 0-.16.01-.23 0-.07.01-.16.01-.27V102.1c-.01-.05-.01-.14-.01-.28 0-.11 0-.2.01-.27 0-.07.01-.16.01-.27v-1.37c-.01-.05-.01-.14-.01-.28 0-.11 0-.2.01-.27 0-.07.01-.17.01-.27 0-.04.02-.08.05-.11.03-.04.07-.05.12-.05h1.5c.04 0 .08.02.11.05.04.03.05.07.05.11V106.11c-.01.05-.01.14-.01.28l.01.56-.01.56c0 .05-.02.09-.05.12-.03.03-.07.05-.1.05h-.76c-.04.01-.12.01-.24.01-.09 0-.17 0-.24-.01-.07 0-.15-.01-.25-.01-.12 0-.2-.05-.24-.14l-.28-.5-.27-.49c-.05-.08-.14-.24-.27-.5l-.28-.5-.28-.49-.27-.49-.14-.26c-.02-.06-.07-.14-.13-.24l-.27-.5-.28-.49c-.05-.08-.09-.16-.13-.23-.04-.07-.09-.16-.14-.27l-.02-.01c-.02 0-.02.01-.02.02 0 .11 0 .2.01.27 0 .07.01.17.01.27v2.75c0 .11 0 .2-.01.27 0 .07-.01.16-.01.27 0 .11 0 .2.01.27 0 .07.01.17.01.27v.55c0 .05-.02.09-.05.12-.03.03-.07.05-.11.05-.1 0-.19 0-.26.01-.07 0-.15.01-.24.01h-.21zM203.87 107.69c-.04-.01-.12-.01-.26-.01-.05 0-.09-.02-.12-.05-.04-.03-.05-.07-.05-.12 0-.12 0-.19.01-.23v-.23c0-.1 0-.18-.01-.24 0-.06-.01-.14-.01-.23s.04-.19.1-.3l.29-.45.3-.45.14-.23.14-.23c.05-.08.09-.15.13-.21.04-.06.09-.14.16-.24l.3-.45c.1-.15.2-.3.29-.45l.3-.45c.06-.1.11-.18.16-.24.04-.06.09-.13.15-.21l.14-.23.14-.23.29-.45c.04-.06.07-.11.09-.14.02-.03.04-.06.06-.08l.16-.22.28-.46c.02-.02.02-.03.01-.05s-.03-.02-.04-.02l-.51.01-.51-.01h-1l-.51.01c-.13 0-.22 0-.26-.01h-.26c-.05 0-.09-.02-.12-.05-.03-.03-.05-.07-.05-.12v-.48l.01-.49c0-.1 0-.18-.01-.24 0-.06-.01-.14-.01-.23 0-.05.02-.08.05-.12.03-.03.07-.05.12-.05h.55l.54-.01c.11 0 .2 0 .27.01.07 0 .17.01.27.01h.55l.53-.01c.11 0 .2 0 .27.01.07 0 .16.01.27.01h1.08c.14 0 .23 0 .28-.01h.54c.05.01.14.01.28.01.05 0 .08.02.12.05s.05.07.05.12v.94c0 .11-.03.21-.09.29l-.29.46c-.04.05-.14.21-.29.45l-.3.46-.29.45c-.1.15-.2.3-.29.45l-.3.45c-.06.1-.11.18-.16.24-.04.06-.09.13-.15.21-.16.25-.25.4-.29.45l-.29.46c-.05.08-.09.15-.13.21-.04.06-.09.14-.16.24l-.3.45c-.1.15-.2.3-.29.45-.01.01-.01.02 0 .04s.02.02.04.02h1.15c.12 0 .21 0 .29.01.08 0 .17.01.28.01h1.73c.05 0 .09.02.12.05.04.03.05.07.05.12v.97c0 .09 0 .17-.01.23v.24c0 .05-.02.09-.05.12-.03.03-.07.05-.12.05h-1.57l-.53.01h-.52l-.53-.01c-.11 0-.2 0-.27.01-.07 0-.16.01-.26.01h-1.87zM213.36 107.69h-1.13c-.11 0-.2 0-.28-.01-.08 0-.17-.01-.29-.01h-.56c-.05 0-.08-.02-.12-.05-.03-.03-.05-.07-.05-.12v-.56l-.01-.56v-.56c0-.14 0-.23.01-.28V103.57l-.01-.56c0-.14 0-.23.01-.28v-.28l-.01-.56V99.7l.01-.56c0-.05.02-.09.05-.12.03-.04.07-.05.12-.05h.55c.12 0 .21 0 .29.01.08 0 .17.01.29.01H213.86l.56-.01h1.11c.11 0 .2 0 .27.01.07 0 .16.01.27.01.05 0 .08.02.12.05.03.03.05.07.05.1l.01.49-.01.49c0 .09 0 .17.01.23 0 .06.01.14.01.24 0 .05-.02.08-.05.12-.04.03-.08.05-.12.05h-.81l-.27.01c-.11 0-.2 0-.27-.01-.07 0-.17-.01-.27-.01h-1.6c-.02 0-.04.01-.06.02s-.03.04-.03.06v.72c0 .06.01.14.01.23s0 .17-.01.23v.24c0 .02.01.04.03.06s.04.02.06.02H215.4c.05 0 .09.02.12.05.03.03.05.07.05.12 0 .13 0 .24-.01.33s-.01.2-.01.33 0 .24.01.33.01.2.01.33c0 .05-.02.09-.05.12-.03.04-.07.05-.12.05h-.51c-.1 0-.19 0-.26-.01-.07 0-.15-.01-.24-.01l-.51.01-.51-.01h-.5c-.02 0-.04.01-.06.02s-.03.03-.03.06c0 .15 0 .25.01.3V105.23l-.01.58c0 .02.01.04.03.06s.04.03.06.03l.56-.01.56.01.56-.01H215.39c.05.01.14.01.28.01l.56-.01c.05 0 .08.02.12.05.03.04.05.08.05.12v1.2l.01.24c0 .05-.02.09-.05.12-.04.03-.08.05-.12.05h-1.13c-.12 0-.21 0-.29.01-.08 0-.17.01-.28.01h-1.18zM218.92 107.68h-.74c-.05 0-.09-.02-.12-.05-.03-.03-.05-.07-.05-.12v-.28c-.01-.05-.01-.14-.01-.28l.01-.56V105.55c-.01-.05-.01-.14-.01-.28l.01-.56v-.56c0-.12 0-.21-.01-.29s-.01-.17-.01-.28l.01-.56V101.34l-.01-.56.01-.56v-1.08c0-.05.02-.09.05-.12.03-.04.08-.05.12-.05h1.5c.04 0 .07.02.1.05.03.03.05.08.05.12l.01.56v1.12l-.01.56v2.81c0 .14 0 .23.01.28v.56c-.01.05-.01.14-.01.28v.56l.01.28V107.55c0 .05-.02.09-.05.12s-.07.05-.11.05h-.5c-.12-.03-.2-.03-.25-.04zM224.42 107.8c-.19-.02-.37-.06-.52-.12-.23-.08-.4-.14-.5-.2-.19-.09-.34-.19-.46-.28-.07-.05-.21-.17-.42-.36-.1-.1-.22-.24-.35-.41-.12-.16-.22-.31-.3-.45-.09-.18-.17-.34-.23-.49-.05-.11-.1-.28-.16-.51-.06-.23-.1-.41-.13-.52l-.07-.55c-.02-.37-.04-.57-.04-.59 0-.12.01-.28.02-.5.01-.12.03-.31.06-.56.04-.22.08-.4.12-.55.05-.2.11-.38.17-.52.09-.23.17-.4.22-.51.1-.17.2-.33.3-.46.08-.1.2-.24.37-.43.16-.15.29-.27.42-.36.15-.11.31-.2.49-.28.12-.06.3-.13.52-.2.17-.05.35-.08.55-.1.17-.02.36-.04.56-.04.19 0 .38.01.55.04.25.03.43.07.54.1.18.05.35.11.51.2.19.08.34.17.48.27.13.09.27.21.43.35-.01-.01.12.13.37.41.03.05.05.08.05.12 0 .05-.02.09-.06.13l-.4.31-.38.3-.38.31c-.03.02-.07.04-.1.04-.06 0-.11-.02-.14-.06-.12-.15-.26-.28-.4-.38-.18-.12-.35-.19-.51-.23-.15-.05-.34-.07-.55-.07-.18 0-.36.02-.53.06-.16.04-.32.11-.5.22-.12.08-.24.2-.38.37-.12.15-.21.31-.27.46-.09.22-.15.39-.17.51-.04.16-.07.33-.08.54-.02.16-.03.33-.03.5 0 .19.01.38.03.57.02.14.05.31.09.51.05.16.1.33.17.5.08.19.17.35.26.45.09.13.22.25.37.37.14.11.29.19.46.24.19.05.36.08.52.08.18 0 .34-.02.49-.07.16-.05.31-.12.45-.21.09-.06.21-.18.35-.35.1-.12.19-.27.26-.43.06-.16.11-.32.14-.48.01-.02 0-.04-.01-.06s-.03-.02-.06-.02h-.57l-.58-.01-.58.01c-.04 0-.08-.02-.11-.05-.03-.04-.05-.07-.05-.11v-.34l.01-.33-.01-.67c0-.04.02-.07.05-.1.04-.03.07-.05.11-.05h1.18c.12 0 .21 0 .29-.01s.18-.01.3-.01l.58.01c.12 0 .22 0 .3-.01s.17-.01.29-.01h.59c.05 0 .08.02.12.05.03.04.05.07.05.11l-.01.42c0 .09 0 .17.01.22 0 .05.01.09.01.12 0 .15-.02.36-.05.64-.03.25-.06.43-.08.55-.05.22-.1.4-.15.52-.05.19-.12.36-.21.52-.11.22-.2.38-.27.48-.12.16-.23.31-.34.43-.14.15-.28.27-.42.37-.15.11-.3.21-.46.29-.08.05-.18.09-.3.12-.11.04-.19.06-.23.08-.12.04-.3.08-.53.13-.25.03-.43.05-.55.05h-.03c-.22.02-.4 0-.55-.03zM232.33 107.69h-1.13c-.11 0-.2 0-.28-.01s-.17-.01-.29-.01h-.56c-.05 0-.08-.02-.12-.05-.03-.03-.05-.07-.05-.12v-.56l-.01-.56v-.56c0-.14 0-.23.01-.28V103.57l-.01-.56c0-.14 0-.23.01-.28v-.28l-.01-.56V99.7l.01-.56c0-.05.01-.09.05-.12.03-.04.07-.05.12-.05h.55c.12 0 .21 0 .29.01s.17.01.29.01H232.83l.56-.01h1.11c.11 0 .2 0 .27.01.07 0 .16.01.27.01.05 0 .09.02.12.05.03.03.05.07.05.1l.01.49-.01.49c0 .09 0 .17.01.23 0 .06.01.14.01.24 0 .05-.02.08-.05.12-.03.03-.08.05-.12.05h-.8l-.27.01c-.11 0-.2 0-.27-.01-.07 0-.17-.01-.27-.01h-1.61c-.02 0-.04.01-.06.02s-.03.04-.03.06v.48c0 .1 0 .18.01.24 0 .06.01.14.01.23s0 .17-.01.23c0 .06-.01.14-.01.24 0 .02.01.04.03.06s.04.02.06.02H234.37c.05 0 .08.02.12.05.03.03.05.07.05.12 0 .13 0 .24-.01.33s-.01.2-.01.33 0 .24.01.33.01.2.01.33c0 .05-.02.09-.05.12-.03.04-.07.05-.12.05h-.51c-.1 0-.19 0-.25-.01-.07 0-.15-.01-.24-.01l-.51.01-.51-.01h-.5c-.02 0-.04.01-.06.02s-.03.03-.03.06c0 .15 0 .25.01.3V105.23l-.01.58c0 .02.01.04.03.06s.04.03.06.03l.56-.01.56.01.56-.01H234.37c.05.01.14.01.28.01l.56-.01c.05 0 .09.02.12.05.03.04.05.08.05.12v1.2l.01.24c0 .05-.02.09-.05.12-.03.03-.08.05-.12.05h-1.13c-.12 0-.21 0-.29.01s-.17.01-.28.01h-1.19zM237.7 107.69s-.04 0-.1-.01-.15-.01-.24-.01c-.1 0-.19 0-.26.01-.07 0-.15.01-.24.01-.05 0-.08-.02-.12-.05s-.05-.08-.05-.12V106.12c-.01-.05-.01-.14-.01-.28s0-.23.01-.28V104.15l-.01-.56v-.56c0-.14 0-.23.01-.28v-.56l-.01-.28v-.56l.01-.56v-.28l-.01-.28.01-.56v-.57c0-.04.01-.07.05-.1s.07-.05.12-.05h1c.09 0 .17 0 .24-.01.07 0 .15-.01.24-.01.11 0 .19.05.25.15l.27.49c.05.1.1.18.13.25.04.07.08.15.13.25.09.16.18.33.27.5l.29.49.27.49c.05.09.09.17.12.24.04.07.08.15.15.26l.28.5.27.49c.05.08.09.16.13.23l.15.27c.06.11.11.2.15.26.03.07.08.15.12.24h.02c.02 0 .02 0 .02-.01v-.28c-.01-.05-.01-.16-.01-.33 0-.08 0-.16.01-.23 0-.07.01-.16.01-.27V102.1c-.01-.05-.01-.14-.01-.28 0-.11 0-.2.01-.27 0-.07.01-.16.01-.27v-1.37c-.01-.05-.01-.14-.01-.28 0-.11 0-.2.01-.27 0-.07.01-.17.01-.27 0-.04.02-.08.05-.11.03-.04.07-.05.12-.05h1.5c.04 0 .08.02.11.05.04.03.05.07.05.11V106.11c-.01.05-.01.14-.01.28l.01.56-.01.56c0 .05-.02.09-.05.12-.03.03-.07.05-.1.05h-.75c-.04.01-.12.01-.24.01-.09 0-.17 0-.24-.01-.07 0-.16-.01-.26-.01-.12 0-.2-.05-.24-.14l-.28-.5-.27-.49c-.05-.08-.13-.24-.27-.5l-.28-.5-.28-.49-.27-.49-.14-.26c-.02-.06-.07-.14-.13-.24l-.27-.5-.28-.49c-.05-.08-.09-.16-.13-.23l-.15-.27-.02-.01c-.02 0-.02.01-.02.02 0 .11 0 .2.01.27 0 .07.01.17.01.27v2.75c0 .11 0 .2-.01.27 0 .07-.01.16-.01.27 0 .11 0 .2.01.27 0 .07.01.17.01.27v.55c0 .05-.02.09-.05.12-.04.03-.07.05-.11.05-.1 0-.19 0-.26.01-.07 0-.15.01-.24.01h-.2z"/>
    </g>
    <g>
        <path d="M24.08 62.18c-.68-.58-1.02-1.27-1.02-2.09 0-.53.16-1.05.49-1.55.32-.51.78-.93 1.37-1.28.57-.33 1.16-.58 1.77-.78.61-.19 1.44-.4 2.5-.62.91-.2 1.82-.43 2.71-.67.08 0 .12-.04.12-.12.28-.81.42-1.54.4-2.19 0-.02-.02-.04-.05-.06-.03-.02-.06-.02-.08 0-.65.26-1.24.4-1.77.4-.71 0-1.27-.21-1.69-.64-.42-.43-.62-.91-.62-1.46 0-.63.23-1.14.7-1.52.47-.39 1.05-.58 1.74-.58.85 0 1.65.27 2.38.82.06.04.11.04.15 0 .49-.53.85-1.06 1.1-1.58.24-.53.37-1.03.37-1.49 0-.61-.2-1.1-.59-1.48-.4-.38-.94-.56-1.63-.56-1.04 0-1.94.34-2.71 1.01-.77.67-1.48 1.57-2.13 2.71-.75 1.36-1.19 2.13-1.31 2.31-.12.2-.27.36-.46.47-.18.11-.37.17-.55.17-.14 0-.27-.03-.4-.09-.24-.1-.37-.3-.37-.61 0-.28.11-.61.34-.97l1.19-2.16c.89-1.6 1.89-2.87 2.98-3.79 1.1-.92 2.43-1.39 3.99-1.39.93 0 1.74.2 2.42.61.68.41 1.2.94 1.57 1.61.37.67.55 1.39.55 2.16 0 .87-.23 1.72-.69 2.54-.46.82-1.13 1.52-2.03 2.09-.06.02-.07.07-.03.15.41.71.61 1.53.61 2.47 0 .02.02.04.05.06.03.02.06.02.08 0 .99-.39 1.89-.98 2.68-1.8.71-.71 1.45-1.72 2.22-3.02.14-.28.37-.43.67-.43.2 0 .39.09.56.26.17.17.26.4.26.69 0 .3-.1.63-.3.97-.75 1.32-1.45 2.35-2.1 3.08-1.18 1.3-2.69 2.23-4.54 2.8-.04 0-.08.04-.12.12-.41 1.06-1 2.07-1.77 3.03s-1.69 1.75-2.74 2.36c-1.06.61-2.19.91-3.41.91s-2.18-.29-2.86-.87zm4.72-1.97c.72-.68 1.38-1.52 1.96-2.51.02-.06 0-.09-.06-.09-.06.02-.74.17-2.04.46-.77.16-1.34.29-1.71.4-.37.1-.72.25-1.07.46-.65.37-.97.76-.97 1.19 0 .3.15.57.46.79.3.22.67.33 1.1.33.83-.01 1.61-.35 2.33-1.03zm2.73-9.07c.02 0 .04-.01.06-.03.02-.02.01-.03-.03-.03-.35-.18-.67-.27-.97-.27-.16 0-.3.03-.41.09-.11.06-.17.13-.17.21 0 .2.14.3.43.3.28.01.64-.08 1.09-.27z"/>
        <path d="M40.25 55.24c-.66-.6-.99-1.36-.99-2.27 0-.43.08-.86.24-1.31.37-1.02.77-2.06 1.22-3.12.45-1.07 1.23-2.84 2.35-5.31.1-.24.27-.44.5-.59.23-.15.48-.23.75-.23h1.92c.2 0 .36.09.47.26.11.17.13.35.05.53-.97 2.19-1.76 3.96-2.35 5.28-.59 1.33-1.03 2.38-1.31 3.15-.16.39-.24.74-.24 1.07 0 .63.31.94.94.94.37 0 .72-.1 1.07-.3.59-.32 1.21-.87 1.86-1.63.65-.76 1.19-1.65 1.61-2.67.59-1.38 1.44-3.32 2.56-5.82.1-.24.27-.44.5-.59.23-.15.48-.23.75-.23h1.92c.2 0 .36.09.47.26.11.17.13.35.05.53-1.91 4.22-3.13 7.04-3.66 8.44-.22.53-.33.9-.33 1.13 0 .26.11.48.33.64.2.16.45.24.73.24.35 0 .69-.1 1.04-.3.65-.35 1.28-.9 1.9-1.66.62-.76 1.17-1.57 1.66-2.42.14-.28.37-.43.67-.43.2 0 .39.09.55.26.16.17.24.4.24.69 0 .35-.09.67-.27.97-.35.65-.69 1.23-1.04 1.74-.77 1.14-1.6 2.03-2.5 2.68s-1.92.97-3.08.97c-.81 0-1.5-.15-2.07-.44-.57-.29-1-.7-1.28-1.2-.06-.08-.15-.12-.27-.12-.1 0-.18.03-.24.09-1.18 1.12-2.5 1.68-3.96 1.68-1.18-.01-2.1-.31-2.76-.91z"/>
        <path d="M58.76 55.39c-.75-.6-1.12-1.31-1.1-2.15 0-.81.32-1.49.97-2.03.65-.54 1.44-.81 2.38-.81.53 0 1.1.11 1.71.33.02.02.05.02.08 0s.05-.05.05-.09c.02-.69-.03-1.31-.15-1.86s-.31-1.19-.58-1.92c-.2-.55-.35-1-.44-1.37-.09-.37-.13-.74-.11-1.13 0-.06-.02-.11-.06-.14-.04-.03-.08-.03-.12.02-.63.73-1.39 1.9-2.28 3.5-.83 1.54-1.39 2.54-1.67 2.99-.12.2-.27.36-.46.47-.18.11-.37.17-.55.17-.14 0-.27-.03-.4-.09-.24-.1-.37-.3-.37-.61 0-.28.11-.61.34-.97.73-1.28 1.27-2.26 1.61-2.95.63-1.18 1.23-2.17 1.81-2.98.58-.81 1.27-1.49 2.07-2.04s1.71-.82 2.73-.82c.71 0 1.28.19 1.71.56.43.38.7.85.82 1.42.06.28 0 .54-.17.76-.17.22-.41.33-.72.33-.22 0-.42-.07-.58-.2-.16-.13-.26-.31-.3-.53-.08-.34-.29-.52-.64-.52-.37 0-.61.19-.73.58-.04.12-.06.28-.06.49 0 .37.09.73.26 1.08.17.36.52.96 1.05 1.81 1.1 1.75 1.59 3.4 1.49 4.96 0 .08.03.12.09.12.71 0 1.32-.22 1.83-.66.51-.44 1.02-1.06 1.52-1.87.18-.26.41-.4.67-.4.22 0 .42.09.58.26.16.17.24.4.24.69 0 .3-.09.6-.27.88-.67 1.16-1.4 1.95-2.18 2.39-.78.44-1.76.63-2.94.59-.08 0-.12.03-.12.09-.45.79-1.07 1.41-1.87 1.86-.8.45-1.65.67-2.54.67-.99.02-1.85-.28-2.6-.88zm2.8-1.67c.32-.21.6-.54.82-.99 0-.08-.01-.12-.03-.12-.49-.24-.94-.37-1.37-.37s-.78.1-1.07.29c-.28.19-.43.43-.43.72 0 .22.11.41.32.56.21.15.46.23.75.23.35 0 .69-.11 1.01-.32z"/>
        <path d="M79.03 55.61c-.62-.35-1.06-.81-1.32-1.36-.04-.08-.11-.14-.2-.17-.09-.03-.18 0-.26.08-1.32 1.32-2.73 1.98-4.23 1.98-.93 0-1.7-.24-2.28-.72-.59-.48-1-1.15-1.22-2.03-.12-.47-.18-.95-.18-1.46 0-.93.19-1.98.58-3.14.47-1.3 1.13-2.44 2-3.43.86-.98 1.8-1.74 2.82-2.25 1.02-.52 1.98-.78 2.89-.78.65 0 1.19.08 1.61.23.43.15.81.4 1.16.75.14.14.25.27.33.38.08.11.13.19.15.23h.06c.02-.04.12-.27.3-.7.12-.24.29-.44.52-.59.22-.15.47-.23.73-.23h1.92c.22 0 .39.09.49.26.1.17.11.36.03.56-1.04 2.29-1.86 4.15-2.48 5.57-.62 1.42-1.1 2.6-1.45 3.53-.04.1-.06.23-.06.4 0 .26.1.48.3.64.2.16.47.24.79.24.37 0 .7-.09 1-.27.65-.35 1.28-.9 1.9-1.66.62-.76 1.17-1.57 1.66-2.42.14-.28.37-.43.67-.43.2 0 .39.09.56.26.17.17.26.4.26.69 0 .3-.1.63-.3.97-1 1.71-1.99 3.03-2.98 3.97-1 .94-2.2 1.42-3.62 1.42-.82.01-1.53-.17-2.15-.52zm-3.9-2.71c.64-.36 1.28-.86 1.92-1.51s1.15-1.39 1.54-2.22c.71-1.42 1.07-2.4 1.07-2.92 0-.41-.12-.71-.37-.91-.24-.2-.58-.3-1-.3-.69 0-1.44.26-2.25.79-1.42 1-2.46 2.35-3.11 4.05-.3.83-.46 1.56-.46 2.19 0 .91.37 1.37 1.1 1.37.4-.01.92-.19 1.56-.54z"/>
        <path d="M102.04 55.33c-.67-.54-1-1.3-1-2.3 0-.59.1-1.2.3-1.83.08-.2.51-1.25 1.28-3.14l.37-.91c.28-.65.43-1.17.43-1.55 0-.53-.29-.79-.88-.79-.93 0-1.82.55-2.65 1.64s-1.55 2.31-2.16 3.66l-2.13 4.84c-.1.22-.26.41-.49.55-.22.14-.47.21-.73.21h-1.74c-.16 0-.3-.06-.41-.17-.11-.11-.17-.25-.17-.41 0-.04.02-.12.06-.24 1.46-3.25 2.58-5.79 3.35-7.61.28-.67.43-1.21.43-1.61 0-.63-.29-.94-.88-.94-1.04.02-1.99.55-2.85 1.6-.86 1.05-1.61 2.26-2.24 3.64-1.28 2.92-2.07 4.71-2.38 5.36-.1.24-.26.44-.49.59s-.47.23-.73.23H84.4c-.2 0-.36-.09-.47-.26-.11-.17-.13-.35-.05-.53l5.39-12.15c.1-.22.26-.41.49-.56.22-.15.47-.23.73-.23h1.89c.2 0 .37.09.49.26s.14.35.06.53l-.09.18c0 .02 0 .04.02.05.01.01.03.01.05-.02.87-.65 1.79-.97 2.74-.97.67 0 1.26.15 1.78.44.52.29.92.74 1.2 1.33.04.1.11.16.21.18.1.02.19 0 .27-.06.73-.61 1.41-1.08 2.03-1.4.62-.32 1.27-.49 1.96-.49 1.18 0 2.07.31 2.67.93.6.62.9 1.45.9 2.48 0 .75-.18 1.64-.55 2.68l-.49 1.16c-.79 1.91-1.19 2.94-1.19 3.11 0 .24.1.44.3.59.2.15.46.23.76.23.39 0 .73-.09 1.04-.27.65-.35 1.28-.9 1.9-1.66.62-.76 1.17-1.57 1.66-2.42.14-.28.37-.43.67-.43.2 0 .39.09.55.26.16.17.24.4.24.69s-.09.61-.27.97c-.2.39-.55.96-1.04 1.74-.75 1.16-1.58 2.06-2.48 2.7-.9.64-1.94.96-3.12.96-1.07-.03-1.94-.3-2.61-.84z"/>
        <path d="M125.52 55.33c-.67-.54-1-1.3-1-2.3 0-.59.1-1.2.3-1.83.08-.2.51-1.25 1.28-3.14l.37-.91c.28-.65.43-1.17.43-1.55 0-.53-.29-.79-.88-.79-.93 0-1.82.55-2.65 1.64s-1.55 2.31-2.16 3.66l-2.13 4.84c-.1.22-.26.41-.49.55-.22.14-.47.21-.73.21h-1.74c-.16 0-.3-.06-.41-.17-.11-.11-.17-.25-.17-.41 0-.04.02-.12.06-.24 1.46-3.25 2.58-5.79 3.35-7.61.28-.67.43-1.21.43-1.61 0-.63-.29-.94-.88-.94-1.04.02-1.99.55-2.85 1.6-.86 1.05-1.61 2.26-2.24 3.64-1.28 2.92-2.07 4.71-2.38 5.36-.1.24-.26.44-.49.59s-.47.23-.73.23h-1.92c-.2 0-.36-.09-.47-.26-.11-.17-.13-.35-.05-.53l5.39-12.15c.1-.22.26-.41.49-.56.22-.15.47-.23.73-.23h1.89c.2 0 .37.09.49.26s.14.35.06.53l-.09.18c0 .02 0 .04.02.05.01.01.03.01.05-.02.87-.65 1.79-.97 2.74-.97.67 0 1.26.15 1.78.44.52.29.92.74 1.2 1.33.04.1.11.16.21.18.1.02.19 0 .27-.06.73-.61 1.41-1.08 2.03-1.4.62-.32 1.27-.49 1.96-.49 1.18 0 2.07.31 2.67.93.6.62.9 1.45.9 2.48 0 .75-.18 1.64-.55 2.68l-.49 1.16c-.79 1.91-1.19 2.94-1.19 3.11 0 .24.1.44.3.59.2.15.46.23.76.23.39 0 .73-.09 1.04-.27.65-.35 1.28-.9 1.9-1.66.62-.76 1.17-1.57 1.66-2.42.14-.28.37-.43.67-.43.2 0 .39.09.55.26.16.17.24.4.24.69s-.09.61-.27.97c-.2.39-.55.96-1.04 1.74-.75 1.16-1.58 2.06-2.48 2.7-.9.64-1.94.96-3.12.96-1.07-.03-1.95-.3-2.62-.84z"/>
        <path d="M134.75 54.81c-.98-.96-1.46-2.2-1.46-3.7 0-1.32.38-2.64 1.13-3.96.79-1.4 1.83-2.58 3.12-3.55 1.29-.96 2.63-1.45 4.04-1.45 1.1 0 1.97.3 2.62.91.65.61.97 1.35.97 2.22 0 .91-.38 1.78-1.13 2.59-.85.89-1.89 1.53-3.11 1.92-1.22.39-2.62.63-4.2.73-.08 0-.12.03-.12.09-.04.91.23 1.67.81 2.25.58.59 1.41.88 2.48.88.69 0 1.43-.13 2.22-.4 1.81-.55 3.35-1.91 4.63-4.08.14-.28.37-.43.67-.43.22 0 .42.09.58.26.16.17.24.4.24.69 0 .3-.1.63-.3.97-2.19 3.66-5.21 5.48-9.05 5.48-1.78.03-3.16-.45-4.14-1.42zm7.22-7.9c.24-.22.45-.47.61-.73.16-.26.24-.51.24-.73 0-.45-.27-.67-.82-.67-.18 0-.5.05-.94.15-.79.24-1.54.68-2.25 1.31s-1.26 1.4-1.64 2.31c-.02.02-.02.04 0 .06.02.02.04.02.06 0 2.24-.32 3.83-.89 4.74-1.7z"/>
        <path d="M154.46 55.3c-.67-.56-1-1.33-1-2.33 0-.47.11-1.06.33-1.77.26-.73.68-1.77 1.25-3.11l.49-1.19c.24-.59.37-1.07.37-1.43 0-.51-.25-.76-.76-.76-.95 0-1.9.55-2.83 1.66-.93 1.11-1.68 2.31-2.22 3.61l-1.8 4.08-.58 1.25c-.1.24-.26.44-.49.59s-.47.23-.73.23h-1.92c-.2 0-.36-.09-.47-.26-.11-.17-.13-.35-.05-.53l5.39-12.15c.1-.24.26-.44.49-.58.22-.14.47-.21.73-.21h1.89c.2 0 .37.09.49.27.12.18.13.37.03.55l-.07.13c-.06.14-.04.16.06.06.77-.65 1.67-.97 2.68-.97.97 0 1.78.29 2.41.87.63.58.94 1.41.94 2.48 0 .81-.18 1.69-.55 2.62l-.52 1.31c-.49 1.08-.84 1.97-1.07 2.68-.06.12-.09.24-.09.37 0 .26.1.48.3.64s.46.24.76.24c.37 0 .71-.1 1.04-.3 1.14-.59 2.33-1.95 3.56-4.08.16-.28.38-.43.67-.43.22 0 .42.09.58.26.16.17.24.4.24.69 0 .3-.1.63-.3.97-.3.59-.64 1.17-1 1.74-.77 1.16-1.6 2.05-2.48 2.68-.88.63-1.9.95-3.06.97h-.12c-1.06-.01-1.92-.29-2.59-.85z"/>
        <path d="M165.06 55.39c-.75-.6-1.12-1.31-1.1-2.15 0-.81.32-1.49.97-2.03.65-.54 1.44-.81 2.38-.81.53 0 1.1.11 1.71.33.02.02.04.02.08 0 .03-.02.04-.05.04-.09.02-.69-.03-1.31-.15-1.86s-.31-1.19-.58-1.92c-.2-.55-.35-1-.44-1.37-.09-.37-.13-.74-.11-1.13 0-.06-.02-.11-.06-.14-.04-.03-.08-.03-.12.02-.63.73-1.39 1.9-2.28 3.5-.83 1.54-1.39 2.54-1.67 2.99-.12.2-.27.36-.46.47-.18.11-.37.17-.55.17-.14 0-.27-.03-.4-.09-.24-.1-.37-.3-.37-.61 0-.28.11-.61.34-.97.73-1.28 1.27-2.26 1.61-2.95.63-1.18 1.23-2.17 1.81-2.98.58-.81 1.27-1.49 2.07-2.04.8-.55 1.71-.82 2.73-.82.71 0 1.28.19 1.71.56.43.38.7.85.82 1.42.06.28 0 .54-.17.76-.17.22-.41.33-.72.33-.22 0-.42-.07-.58-.2-.16-.13-.26-.31-.3-.53-.08-.34-.29-.52-.64-.52-.37 0-.61.19-.73.58-.04.12-.06.28-.06.49 0 .37.09.73.26 1.08.17.36.52.96 1.05 1.81 1.1 1.75 1.59 3.4 1.49 4.96 0 .08.03.12.09.12.71 0 1.32-.22 1.83-.66.51-.44 1.02-1.06 1.52-1.87.18-.26.41-.4.67-.4.22 0 .42.09.58.26.16.17.24.4.24.69 0 .3-.09.6-.27.88-.67 1.16-1.4 1.95-2.18 2.39-.78.44-1.76.63-2.94.59-.08 0-.12.03-.12.09-.45.79-1.07 1.41-1.87 1.86-.8.45-1.65.67-2.54.67-.98.02-1.84-.28-2.59-.88zm2.8-1.67c.33-.21.6-.54.82-.99 0-.08-.01-.12-.03-.12-.49-.24-.94-.37-1.37-.37-.43 0-.78.1-1.07.29-.28.19-.43.43-.43.72 0 .22.11.41.32.56s.46.23.75.23c.35 0 .69-.11 1.01-.32z"/>
        <path d="M175.89 55.26c-.68-.59-1.02-1.34-1.02-2.25 0-.41.08-.85.24-1.34.32-.97 2.07-5.03 5.24-12.15.02-.02.02-.05 0-.08s-.04-.05-.06-.05l-1.52-.03c-.18-.02-.33-.09-.44-.21-.11-.12-.17-.27-.17-.46s.06-.34.17-.47c.11-.13.26-.2.44-.2l2.19-.12c.08 0 .13-.03.15-.09l1.43-3.2c.1-.24.27-.44.5-.59.23-.15.48-.23.75-.23h1.92c.2 0 .37.09.49.26s.13.35.03.53l-1.34 2.98c-.02.02-.02.05 0 .08s.04.05.06.05l1.64-.09c.37-.02.66.07.87.26s.32.43.32.72c0 .28-.11.53-.32.73-.21.2-.5.29-.87.27l-2.47-.06c-.06 0-.11.03-.15.09l-.46 1.04-.49 1.1c-1.2 2.66-2.13 4.75-2.8 6.26-.67 1.51-1.18 2.73-1.52 3.64-.16.39-.24.74-.24 1.07 0 .3.09.54.26.7.17.16.4.24.68.24.41 0 .86-.13 1.36-.4.5-.26.97-.64 1.42-1.13.71-.73 1.4-1.69 2.07-2.86.16-.28.38-.43.67-.43.22 0 .42.09.58.26.16.17.24.4.24.69 0 .3-.1.63-.3.97-.67 1.16-1.31 2.12-1.92 2.88-.61.76-1.29 1.37-2.04 1.81-.83.47-1.77.7-2.8.7-1.18-.01-2.11-.3-2.79-.89z"/>
        <path d="M185.44 54.81c-.98-.96-1.46-2.2-1.46-3.7 0-1.32.38-2.64 1.13-3.96.79-1.4 1.83-2.58 3.12-3.55 1.29-.96 2.63-1.45 4.04-1.45 1.1 0 1.97.3 2.62.91.65.61.98 1.35.98 2.22 0 .91-.38 1.78-1.13 2.59-.85.89-1.89 1.53-3.11 1.92-1.22.39-2.62.63-4.2.73-.08 0-.12.03-.12.09-.04.91.23 1.67.81 2.25.58.59 1.41.88 2.48.88.69 0 1.43-.13 2.22-.4 1.81-.55 3.35-1.91 4.63-4.08.14-.28.37-.43.67-.43.22 0 .42.09.58.26.16.17.24.4.24.69 0 .3-.1.63-.3.97-2.19 3.66-5.21 5.48-9.05 5.48-1.8.03-3.18-.45-4.15-1.42zm7.21-7.9c.24-.22.45-.47.61-.73.16-.26.24-.51.24-.73 0-.45-.27-.67-.82-.67-.18 0-.5.05-.94.15-.79.24-1.54.68-2.25 1.31s-1.26 1.4-1.64 2.31c-.02.02-.02.04 0 .06.02.02.04.02.06 0 2.25-.32 3.83-.89 4.74-1.7z"/>
        <path d="M198.18 54.83c-.64-.87-.96-2.03-.96-3.47 0-1.46.28-2.98.85-4.57.73-2.09 1.67-4.22 2.82-6.4 1.15-2.17 2.33-3.97 3.55-5.41 1.22-1.43 2.29-2.15 3.23-2.15.24 0 .49.06.73.18.57.33.85.89.85 1.71 0 .79-.29 1.73-.85 2.8-.45.81-1.03 1.68-1.74 2.59-.71.91-1.74 2.18-3.08 3.81-.2.2-.65.73-1.34 1.58-.04.04-.08.1-.12.18-.57 1.46-.83 2.13-.79 2.01-.53 1.42-.79 2.67-.79 3.75 0 .73.13 1.28.38 1.65s.59.55 1.02.55c.33 0 .66-.1 1.01-.3 1.08-.57 2.26-1.93 3.56-4.08.14-.28.37-.43.67-.43.2 0 .39.09.55.26.16.17.24.4.24.69s-.09.61-.27.97c-.45.77-.79 1.35-1.04 1.74-.77 1.14-1.6 2.03-2.5 2.68s-1.92.97-3.08.97c-1.29 0-2.26-.44-2.9-1.31zm8.58-18.12c.2-.37.38-.76.52-1.19.14-.43.15-.64.03-.64-.14 0-.51.42-1.1 1.25-.57.87-1.23 2.2-1.98 3.99-.02.02-.01.04.02.05s.06 0 .08-.02c1.11-1.38 1.92-2.53 2.43-3.44z"/>
        <path d="M207.23 54.83c-.64-.87-.96-2.03-.96-3.47 0-1.46.29-2.98.85-4.57.73-2.09 1.67-4.22 2.82-6.4 1.15-2.17 2.33-3.97 3.55-5.41 1.22-1.43 2.29-2.15 3.23-2.15.24 0 .49.06.73.18.57.33.85.89.85 1.71 0 .79-.28 1.73-.85 2.8-.45.81-1.03 1.68-1.74 2.59s-1.74 2.18-3.08 3.81c-.2.2-.65.73-1.34 1.58-.04.04-.08.1-.12.18-.57 1.46-.83 2.13-.79 2.01-.53 1.42-.79 2.67-.79 3.75 0 .73.13 1.28.38 1.65s.59.55 1.02.55c.32 0 .66-.1 1-.3 1.08-.57 2.26-1.93 3.56-4.08.14-.28.37-.43.67-.43.2 0 .39.09.55.26.16.17.24.4.24.69s-.09.61-.27.97c-.45.77-.79 1.35-1.04 1.74-.77 1.14-1.6 2.03-2.5 2.68-.89.65-1.92.97-3.08.97-1.28 0-2.25-.44-2.89-1.31zm8.57-18.12c.2-.37.38-.76.52-1.19.14-.43.15-.64.03-.64-.14 0-.51.42-1.1 1.25-.57.87-1.23 2.2-1.98 3.99-.02.02-.02.04.02.05.03.01.06 0 .08-.02 1.11-1.38 1.93-2.53 2.43-3.44z"/>
        <path d="M216.72 54.81c-.98-.96-1.46-2.2-1.46-3.7 0-1.32.38-2.64 1.13-3.96.79-1.4 1.83-2.58 3.12-3.55 1.29-.96 2.63-1.45 4.04-1.45 1.1 0 1.97.3 2.62.91.65.61.98 1.35.98 2.22 0 .91-.38 1.78-1.13 2.59-.85.89-1.89 1.53-3.11 1.92-1.22.39-2.62.63-4.2.73-.08 0-.12.03-.12.09-.04.91.23 1.67.81 2.25.58.59 1.41.88 2.48.88.69 0 1.43-.13 2.22-.4 1.81-.55 3.35-1.91 4.63-4.08.14-.28.37-.43.67-.43.22 0 .42.09.58.26.16.17.24.4.24.69 0 .3-.1.63-.3.97-2.19 3.66-5.21 5.48-9.05 5.48-1.8.03-3.18-.45-4.15-1.42zm7.22-7.9c.24-.22.45-.47.61-.73.16-.26.24-.51.24-.73 0-.45-.27-.67-.82-.67-.18 0-.5.05-.94.15-.79.24-1.54.68-2.25 1.31s-1.26 1.4-1.64 2.31c-.02.02-.02.04 0 .06.02.02.04.02.06 0 2.24-.32 3.82-.89 4.74-1.7z"/>
        <path d="M236.42 55.3c-.67-.56-1-1.33-1-2.33 0-.47.11-1.06.33-1.77.26-.73.68-1.77 1.25-3.11l.49-1.19c.24-.59.37-1.07.37-1.43 0-.51-.25-.76-.76-.76-.95 0-1.9.55-2.83 1.66-.93 1.11-1.68 2.31-2.22 3.61l-1.8 4.08-.58 1.25c-.1.24-.26.44-.49.59s-.47.23-.73.23h-1.92c-.2 0-.36-.09-.47-.26-.11-.17-.13-.35-.05-.53l5.39-12.15c.1-.24.26-.44.49-.58.22-.14.47-.21.73-.21h1.89c.2 0 .37.09.49.27.12.18.13.37.03.55l-.06.12c-.06.14-.04.16.06.06.77-.65 1.67-.97 2.68-.97.97 0 1.78.29 2.41.87.63.58.94 1.41.94 2.48 0 .81-.18 1.69-.55 2.62l-.52 1.31c-.49 1.08-.84 1.97-1.07 2.68-.06.12-.09.24-.09.37 0 .26.1.48.3.64s.46.24.76.24c.37 0 .71-.1 1.04-.3 1.14-.59 2.33-1.95 3.56-4.08.16-.28.38-.43.67-.43.22 0 .42.09.58.26.16.17.24.4.24.69 0 .3-.1.63-.3.97-.3.59-.64 1.17-1 1.74-.77 1.16-1.6 2.05-2.48 2.68-.88.63-1.9.95-3.06.97h-.12c-1.06 0-1.93-.28-2.6-.84z"/>
    </g>
    <g>
        <path d="M95.16 85.9c-.47-.07-.87-.16-1.2-.26-.45-.12-.82-.26-1.12-.42-.36-.16-.7-.36-1.01-.62-.38-.29-.68-.57-.88-.83-.28-.29-.51-.62-.7-.96-.21-.4-.38-.76-.52-1.09-.09-.24-.2-.62-.34-1.14-.02-.12-.06-.3-.12-.55-.06-.24-.1-.46-.12-.65-.07-.45-.11-.85-.13-1.2-.02-.24-.03-.64-.03-1.2v-3.51c0-.22 0-.42-.01-.57-.01-.16-.01-.35-.01-.6 0-.23 0-.42.01-.57.02-.16.02-.35.02-.6v-4.08c-.02-.1-.03-.29-.03-.57 0-.1.04-.2.12-.27.08-.08.17-.12.27-.12h1.12c.21 0 .39 0 .55.01.16.01.35.01.57.01.21 0 .39 0 .55-.01.16-.01.35-.01.57-.01.09 0 .17.04.26.12.09.08.13.17.13.27l-.03.57-.03.57c0 .24 0 .44.01.6s.01.35.01.57c0 .24 0 .44-.01.6s-.01.35-.01.57c0 .24 0 .44.01.6s.01.35.01.57v4.68c0 .24 0 .44-.01.6-.01.16-.01.35-.01.57 0 .31.02.69.05 1.14 0 .12.05.49.16 1.12.09.52.19.88.31 1.09.14.38.35.69.62.94.29.24.63.41 1.01.49.33.07.71.1 1.14.1.47 0 .84-.04 1.12-.13.47-.1.81-.26 1.01-.47.23-.17.43-.49.62-.94.14-.33.24-.69.31-1.09.05-.24.09-.61.13-1.12.03-.49.05-.87.05-1.14V73.46c0-.22 0-.42.01-.57.01-.16.01-.35.01-.6v-1.17c0-.23 0-.42-.01-.57-.01-.16-.01-.36-.01-.6 0-.23 0-.42-.01-.57-.01-.16-.01-.36-.01-.6V66.47c0-.1.04-.19.12-.26.08-.07.17-.1.27-.1.21 0 .39 0 .55-.01s.35-.01.57-.01h2.24c.1 0 .19.04.26.12.07.08.1.17.1.27V72.3c0 .24 0 .44.01.6.01.16.01.35.01.57 0 .24 0 .44-.01.6-.01.16-.01.35-.01.57v1.17c0 .24 0 .44.01.6.01.16.01.35.01.57 0 .28-.02.68-.05 1.2-.02.35-.06.75-.13 1.2-.05.4-.13.8-.23 1.2-.05.29-.17.68-.34 1.14-.14.33-.31.69-.52 1.09-.28.45-.5.78-.68.99-.21.26-.5.53-.88.81-.31.23-.65.43-1.01.62-.35.17-.73.31-1.14.42-.36.1-.75.18-1.17.23-.38.05-.78.08-1.2.08-.52-.01-.92-.02-1.18-.06zM109.51 85.61s-.08 0-.23-.01c-.16-.01-.34-.01-.55-.01-.23 0-.42 0-.57.01-.16.01-.34.01-.55.01-.1 0-.19-.04-.26-.12-.07-.08-.1-.17-.1-.27V82.1c-.02-.1-.03-.31-.03-.62s.01-.52.03-.62v-3.14l-.03-1.25v-1.25c0-.31.01-.52.03-.62v-1.24l-.03-.62v-1.25l.03-1.25v-.64l-.03-.62.03-1.25v-1.27c0-.09.03-.16.1-.23s.16-.1.26-.1h2.24c.21 0 .39 0 .55-.01.16-.01.34-.01.55-.01.24 0 .43.11.57.34l.6 1.09c.12.23.22.41.3.56.08.15.18.33.3.56.21.36.41.74.6 1.12l.65 1.09.6 1.09c.1.21.19.39.27.53.08.15.19.34.32.58l.62 1.12.6 1.09c.1.19.2.36.3.51.1.15.2.35.33.61.14.24.25.44.32.58.08.15.17.33.27.53h.05c.03 0 .05-.01.05-.03v-.62c-.02-.12-.03-.36-.03-.73 0-.19 0-.36.01-.52.01-.16.01-.35.01-.6V73.19c-.02-.1-.03-.31-.03-.62 0-.24 0-.45.01-.61.01-.16.01-.37.01-.61V68.3c-.02-.1-.03-.31-.03-.62 0-.24 0-.45.01-.61.01-.16.01-.37.01-.61 0-.09.03-.17.1-.25.07-.08.16-.12.26-.12H121.39c.09 0 .17.04.25.12.08.08.12.16.12.25V82.12c-.02.1-.03.31-.03.62l.03 1.25-.03 1.25c0 .1-.03.19-.1.26s-.15.1-.23.1h-1.69c-.09.02-.27.03-.55.03-.21 0-.39 0-.55-.01-.16-.01-.35-.01-.57-.01-.26 0-.44-.1-.55-.31l-.62-1.12-.6-1.09c-.1-.17-.3-.55-.6-1.12l-.62-1.12-.62-1.09-.6-1.09-.31-.57c-.05-.14-.15-.32-.29-.55l-.6-1.12-.62-1.09c-.1-.19-.2-.36-.3-.51-.1-.15-.2-.35-.32-.61l-.05-.03c-.04 0-.05.02-.05.05 0 .24 0 .45.01.61s.01.37.01.61v6.1c0 .24 0 .45-.01.61s-.01.37-.01.61 0 .45.01.61c.01.17.01.37.01.61v1.22c0 .1-.04.19-.12.26-.08.07-.16.1-.25.1-.23 0-.42 0-.57.01-.16.01-.34.01-.55.01-.19.01-.31.01-.31.01zM130.55 85.59h-1.27c-.12.02-.34.03-.65.03s-.53-.01-.65-.03H126.09c-.1 0-.19-.04-.26-.1-.07-.07-.1-.16-.1-.26l-.03-1.25v-3.75l.03-1.25v-2.52l-.03-1.25.03-1.25-.03-1.25.03-1.25v-3.75l-.03-1.25c0-.1.04-.19.12-.26s.17-.1.27-.1c.31 0 .51-.01.6-.03h.62l1.25.03H131.03c.57 0 1 .02 1.27.05.43.02.85.07 1.25.16.45.1.87.22 1.25.34.35.14.73.31 1.14.52.36.17.73.4 1.09.68.36.26.68.54.96.83.28.28.54.61.78.99.19.29.39.67.6 1.12.05.12.13.3.22.55.09.24.18.46.25.65.12.49.22.9.29 1.25.1.75.16 1.16.16 1.25.03.28.05.7.05 1.27s-.02 1-.05 1.27c-.02.43-.07.85-.16 1.25-.05.4-.15.82-.29 1.25-.09.36-.23.76-.44 1.2-.14.36-.33.74-.57 1.12-.23.36-.49.7-.78 1.01-.38.42-.68.71-.91.88-.45.35-.8.59-1.04.73-.38.23-.76.4-1.14.52-.28.12-.69.24-1.25.36-.28.05-.69.11-1.25.18-.42.05-.84.08-1.27.08-.33 0-.54 0-.64-.02zm1.9-4.06c.5-.09.91-.21 1.22-.36.36-.14.72-.36 1.07-.68.36-.33.63-.67.81-1.01.16-.29.29-.69.42-1.2.14-.48.22-.9.23-1.25.05-.4.08-.82.08-1.27 0-.23-.01-.46-.04-.71-.03-.25-.04-.44-.04-.56-.05-.45-.13-.88-.23-1.27-.14-.47-.3-.86-.49-1.17-.17-.33-.44-.66-.81-.99-.28-.24-.65-.43-1.12-.57-.36-.16-.78-.27-1.25-.34-.38-.05-.81-.08-1.27-.08h-1.04c-.05 0-.1.02-.14.07-.04.04-.06.09-.06.14 0 .24 0 .45.01.61s.01.37.01.61l-.03 1.25v2.5c0 .24 0 .45.01.61.01.17.01.37.01.61v1.25l-.03 1.25c0 .24 0 .45.01.61.01.17.01.37.01.61l-.03 1.25c0 .05.02.1.06.13.04.04.09.05.14.05h1.2c.46-.01.89-.03 1.29-.09zM154.26 85.93s-.13-.02-.39-.05c-.4-.05-.8-.13-1.2-.23-.52-.14-.91-.26-1.17-.36-.12-.03-.49-.21-1.09-.52-.42-.23-.76-.43-1.04-.62-.26-.16-.59-.39-.99-.7-.09-.09-.13-.17-.13-.26s.03-.17.08-.23c.16-.19.28-.35.36-.47.09-.12.19-.25.31-.39l.7-.83.68-.83c.05-.09.14-.13.26-.13.09 0 .17.03.26.08l.94.62c.33.17.67.33 1.01.47.5.17.87.28 1.09.31.33.05.7.08 1.12.08.47 0 .86-.04 1.17-.13.48-.12.83-.31 1.04-.57.29-.29.44-.66.44-1.09 0-.38-.15-.72-.44-1.01-.23-.24-.52-.48-.88-.7-.29-.16-.63-.31-1.01-.47-.17-.09-.52-.23-1.04-.44-.16-.07-.33-.14-.52-.21-.19-.07-.4-.16-.62-.26-.09-.04-.46-.22-1.12-.55-.1-.05-.27-.14-.51-.27-.23-.13-.43-.26-.58-.38-.31-.23-.62-.49-.91-.81-.31-.33-.56-.67-.75-1.01-.23-.42-.38-.81-.47-1.17-.07-.35-.1-.78-.1-1.3 0-.43.03-.81.1-1.14.09-.47.21-.86.36-1.17.23-.43.44-.78.65-1.04.31-.36.6-.66.86-.88.28-.21.62-.42 1.04-.62.35-.21.73-.37 1.14-.49.45-.14.84-.22 1.17-.26.36-.07.77-.1 1.22-.1.52 0 .96.03 1.33.1.31.04.75.14 1.3.31.4.12.81.29 1.22.52.31.17.68.42 1.09.73.33.22.68.51 1.04.86.07.1.1.19.1.26 0 .1-.03.19-.1.26l-.75.78c-.14.14-.26.26-.38.35-.11.1-.25.23-.4.4l-.75.78c-.07.07-.16.1-.26.1s-.19-.04-.26-.1c-.03-.03-.14-.13-.31-.29-.17-.16-.36-.29-.57-.42-.4-.24-.75-.4-1.07-.47-.29-.07-.68-.1-1.14-.1-.43 0-.79.04-1.07.13-.38.09-.7.23-.96.44-.3.24-.44.56-.44.94 0 .43.22.81.68 1.12.21.17.61.4 1.2.68.14.05.31.13.51.22.2.1.45.2.74.33l1.09.44c.49.21.84.37 1.07.49.16.07.49.27 1.01.6.33.21.64.44.94.7.31.31.57.61.78.88.16.21.34.55.55 1.04.14.38.24.76.31 1.14.07.45.1.82.1 1.09 0 .31-.05.75-.16 1.3-.1.43-.24.83-.42 1.2-.19.38-.42.73-.68 1.04-.31.38-.61.68-.88.88-.31.22-.66.45-1.04.68-.33.16-.72.29-1.17.42-.35.12-.75.21-1.22.26-.26.05-.68.08-1.25.08-.55-.04-.82-.04-.82-.04zM166.66 85.6c-.16-.01-.34-.01-.55-.01-.23 0-.42 0-.57.01s-.34.01-.55.01c-.1 0-.2-.04-.27-.12-.08-.08-.12-.17-.12-.27l.03-1.25v-.62c-.02-.1-.03-.31-.03-.62l.03-1.25-.03-1.25v-1.25l.03-1.25v-5.02l-.03-1.25.03-1.25v-1.25l-.03-1.25v-1.25c0-.1.04-.2.12-.27.08-.08.17-.12.27-.12h3.04c.1.02.31.03.62.03.24 0 .45 0 .61-.01.16-.01.37-.01.61-.01h1.22c.43 0 .84.03 1.22.08.52.07.92.14 1.2.21.38.07.77.19 1.17.36.47.19.84.36 1.12.52.23.14.54.39.94.75.33.29.6.6.81.91.21.31.4.68.57 1.09.14.33.25.72.34 1.17.09.52.13 1.02.13 1.51 0 .23-.02.55-.05.96-.09.47-.2.88-.34 1.22-.12.38-.31.75-.57 1.12-.23.38-.49.71-.78.99-.26.28-.58.55-.96.83-.36.26-.73.46-1.09.6-.4.21-.8.36-1.2.44-.38.1-.79.18-1.22.23-.28.04-.7.05-1.27.05-.28 0-.46.01-.55.03H168.9c-.05 0-.1.02-.14.05-.04.04-.06.08-.06.13v1.17c0 .24 0 .44.01.6.01.16.01.35.01.57l-.03 1.2c0 .23 0 .42.01.57.01.16.01.36.01.6s0 .44-.01.6c-.01.16-.01.35-.01.57 0 .1-.04.2-.1.27-.07.08-.16.12-.26.12h-1.09c-.23.01-.42.01-.58 0zm3.33-10.41h1.12c.38 0 .79-.04 1.22-.13.52-.12.9-.27 1.14-.44.35-.19.62-.49.81-.91.16-.31.23-.69.23-1.14 0-.5-.08-.9-.23-1.2-.17-.33-.45-.61-.83-.83-.31-.17-.69-.29-1.14-.36-.33-.05-.73-.08-1.2-.08-.28 0-.46-.01-.55-.03h-.57l-1.09.03c-.12 0-.18.05-.18.16V73.83l-.03 1.2c0 .04.02.07.06.12.04.04.09.06.14.06h1.1zM178.13 85.5c-.05-.08-.06-.16-.03-.25.1-.35.16-.55.16-.6l.18-.57c.07-.24.14-.44.21-.6l.18-.57c.1-.28.18-.5.22-.66.04-.17.09-.34.14-.53.07-.21.13-.39.19-.55.06-.16.13-.36.2-.62l.36-1.17c.17-.52.3-.91.39-1.17.05-.16.09-.28.12-.38.03-.09.05-.17.06-.22 0 .05.05-.15.16-.6l.21-.57.21-.6.36-1.17c.14-.38.27-.77.39-1.17.07-.23.13-.42.17-.58.04-.17.1-.36.17-.58.07-.21.13-.39.2-.55.06-.16.13-.36.22-.62l.36-1.2.36-1.17c.07-.21.13-.39.19-.55.06-.16.13-.36.2-.62l.36-1.17c.09-.22.24-.34.47-.34h2.44c.24 0 .45 0 .61-.01.17-.01.37-.01.61-.01.1 0 .2.04.3.1.1.07.16.16.2.26.07.23.13.42.17.59.04.16.1.36.17.58l.21.6.21.57c.1.35.16.55.16.6.09.26.15.46.18.6l.21.57.21.57.36 1.2.36 1.17.36 1.17.39 1.17c.1.28.18.5.22.66.04.17.09.34.14.53.04.09.16.48.36 1.17l.42 1.17c.1.35.16.55.16.6l.18.57c.07.26.13.47.2.62.06.16.13.34.2.55l.39 1.2.36 1.17c.07.21.13.39.19.55.06.16.13.36.2.62v.08c0 .07-.03.13-.09.18-.06.05-.13.08-.2.08-.23 0-.42 0-.57.01-.16.01-.36.01-.6.01h-1.17c-.24 0-.44 0-.6-.01-.16-.01-.35-.01-.57-.01-.1 0-.2-.03-.3-.09-.1-.06-.15-.14-.17-.25-.14-.43-.27-.88-.39-1.33l-.42-1.3-.36-1.33c-.04-.12-.11-.18-.23-.18-.33 0-.55.01-.68.03h-1.33c-.1-.02-.32-.03-.65-.03l-1.35.03h-1.33c-.12 0-.2.05-.23.16-.14.43-.27.88-.39 1.33l-.39 1.3c-.05.21-.1.4-.14.58-.04.18-.12.43-.22.74-.02.1-.07.19-.17.25s-.2.09-.33.09h-2.34c-.24 0-.44 0-.6.01-.16.01-.35.01-.57.01-.07-.01-.14-.04-.19-.12zm7.72-8.05H187.96c.05 0 .09-.02.12-.05.03-.03.03-.07.01-.1l-.34-1.14c-.05-.19-.1-.36-.13-.51-.04-.15-.1-.35-.18-.61-.07-.22-.13-.41-.17-.56s-.1-.33-.17-.56c-.1-.38-.22-.75-.34-1.12-.07-.24-.13-.44-.18-.58s-.1-.33-.16-.53c0-.03-.01-.05-.04-.05s-.04.02-.04.05l-.36 1.12-.13.55-.16.57-.18.57c-.07.17-.13.36-.18.55l-.31 1.12-.34 1.14c-.02.03-.01.07.01.12.03.04.06.06.12.06l1.04-.04zM197.06 85.61c-.1 0-.19-.04-.26-.12-.07-.08-.1-.17-.1-.27v-6.25l-.03-1.25v-1.27l.03-1.25v-2.5l-.03-1.25.03-1.25-.03-1.25V67.7l.03-1.25c0-.1.04-.2.1-.27.07-.08.16-.12.26-.12h1.22l1.2.03h2.44c.24 0 .45 0 .61-.01s.37-.01.61-.01c.26 0 .49.01.68.03.19.02.36.04.49.05.5.07.9.13 1.2.18.26.05.63.17 1.12.34.45.17.81.34 1.09.49.28.17.59.42.94.73.31.26.58.56.81.88.21.29.39.65.55 1.07.16.42.27.79.34 1.12.03.26.05.66.05 1.2 0 .52-.04.96-.1 1.33-.12.52-.26.94-.42 1.27-.21.47-.43.85-.65 1.14-.35.43-.65.76-.91.99-.29.24-.67.49-1.12.75-.04.02-.06.05-.08.1-.02.05-.02.1 0 .13l.3.53c.08.15.18.33.3.53l.6 1.04c.16.26.25.43.29.52l.29.55.6 1.04c.1.19.2.36.27.51.08.15.19.33.33.56l.6 1.04c.1.19.2.36.27.51.08.15.19.33.33.56.02.02.03.05.03.1 0 .07-.02.13-.07.17s-.09.06-.14.06c-.28 0-.5 0-.68-.01-.17-.01-.39-.01-.65-.01s-.48 0-.65.01c-.17.01-.4.01-.68.01h-1.3c-.12 0-.23-.03-.34-.09-.1-.06-.18-.14-.23-.25l-.6-1.09-.6-1.09-.65-1.07-.62-1.07c-.12-.22-.22-.41-.3-.56-.08-.15-.18-.33-.3-.56l-.62-1.09c-.07-.1-.16-.16-.26-.16h-1.69c-.12 0-.18.06-.18.18v1.3l-.03 1.3.03 1.3c0 .26 0 .48-.01.65s-.01.38-.01.62v1.3c0 .1-.04.19-.1.26-.07.07-.15.1-.23.1h-1.12c-.23 0-.42 0-.57.01s-.34.01-.55.01h-1.13zm6.08-10.76c.45 0 .85-.04 1.2-.13.42-.09.79-.24 1.12-.47.4-.29.67-.59.81-.88.14-.33.21-.77.21-1.33 0-.42-.07-.75-.21-1.01-.12-.29-.4-.56-.83-.81-.35-.16-.72-.27-1.12-.34-.23-.04-.62-.05-1.17-.05l-1.09-.03-1.09.03c-.05 0-.1.02-.14.05s-.06.08-.06.13c0 .23 0 .42.01.57.01.16.01.36.01.6V74.66c0 .12.06.18.18.18h2.17zM218.95 85.61h-2.52c-.24 0-.45 0-.62-.01-.17-.01-.39-.01-.65-.01h-1.25c-.1 0-.19-.04-.26-.1-.07-.07-.1-.16-.1-.26v-1.25l-.03-1.25v-1.25c0-.31.01-.52.03-.62V76.47l-.03-1.25c0-.31.01-.52.03-.62v-.62l-.03-1.25v-5l.03-1.25c0-.1.04-.2.1-.27.07-.08.16-.12.26-.12h1.22c.26 0 .48 0 .65.01.17.01.39.01.65.01H220.07l1.25-.03H223.79c.24 0 .45 0 .61.01.16.01.37.01.61.01.1 0 .19.04.26.1.07.07.1.15.1.23l.03 1.09-.03 1.09c0 .21 0 .38.01.52s.01.32.01.55c0 .1-.04.19-.12.26s-.17.1-.27.1H223.2l-.6.03c-.24 0-.45 0-.61-.01s-.37-.01-.61-.01h-3.58c-.05 0-.1.02-.14.05-.04.04-.06.08-.06.13v1.07c0 .23 0 .41.01.55.01.14.01.31.01.52s0 .38-.01.52-.01.32-.01.55c0 .05.02.1.06.13.04.04.09.05.14.05H223.46c.1 0 .19.03.26.1s.1.16.1.26c0 .29 0 .54-.01.74s-.01.45-.01.74 0 .54.01.74.01.45.01.74c0 .1-.03.19-.1.27s-.16.12-.26.12h-1.14c-.23 0-.42 0-.57-.01-.16-.01-.34-.01-.55-.01l-1.14.03-1.14-.03h-1.12c-.05 0-.1.02-.14.05-.04.03-.06.08-.06.13 0 .33.01.55.03.68V80.12l-.03 1.3c0 .05.02.1.06.14.04.04.09.07.14.07l1.25-.03 1.25.03 1.25-.03h1.87c.1.02.31.03.62.03l1.25-.03c.1 0 .19.04.26.12s.1.17.1.27v2.68l.03.55c0 .1-.04.19-.12.26-.08.07-.17.1-.27.1h-2.52c-.26 0-.48 0-.65.01-.17.01-.38.01-.62.01h-2.55zM230.96 85.61s-.08 0-.23-.01-.34-.01-.55-.01c-.23 0-.42 0-.57.01s-.34.01-.55.01c-.1 0-.19-.04-.26-.12-.07-.08-.1-.17-.1-.27V82.1c-.02-.1-.03-.31-.03-.62s.01-.52.03-.62v-3.14l-.03-1.25v-1.25c0-.31.01-.52.03-.62v-1.24l-.03-.62v-1.25l.03-1.25v-.64l-.03-.62.03-1.25v-1.27c0-.09.04-.16.1-.23.07-.07.16-.1.26-.1h2.24c.21 0 .39 0 .55-.01.16-.01.34-.01.55-.01.24 0 .43.11.57.34l.6 1.09c.12.23.22.41.3.56.08.15.18.33.3.56.21.36.41.74.6 1.12l.65 1.09.6 1.09c.1.21.19.39.27.53s.19.34.33.58l.62 1.12.6 1.09c.1.19.2.36.3.51.1.15.2.35.33.61.14.24.25.44.33.58s.17.33.27.53h.05c.03 0 .05-.01.05-.03v-.62c-.02-.12-.03-.36-.03-.73 0-.19 0-.36.01-.52.01-.16.01-.35.01-.6V73.19c-.02-.1-.03-.31-.03-.62 0-.24 0-.45.01-.61.01-.16.01-.37.01-.61V68.3c-.02-.1-.03-.31-.03-.62 0-.24 0-.45.01-.61.01-.16.01-.37.01-.61 0-.09.03-.17.1-.25.07-.08.16-.12.26-.12H242.86c.09 0 .17.04.25.12.08.08.12.16.12.25V82.12c-.02.1-.03.31-.03.62l.03 1.25-.03 1.25c0 .1-.03.19-.1.26s-.15.1-.23.1h-1.69c-.09.02-.27.03-.55.03-.21 0-.39 0-.55-.01-.16-.01-.35-.01-.57-.01-.26 0-.44-.1-.55-.31l-.62-1.12-.6-1.09c-.1-.17-.3-.55-.6-1.12l-.62-1.12-.62-1.09-.6-1.09-.31-.57c-.05-.14-.15-.32-.29-.55l-.6-1.12-.62-1.09c-.1-.19-.2-.36-.3-.51-.1-.15-.2-.35-.33-.61l-.05-.03c-.04 0-.05.02-.05.05 0 .24 0 .45.01.61s.01.37.01.61v6.1c0 .24 0 .45-.01.61s-.01.37-.01.61 0 .45.01.61c.01.17.01.37.01.61v1.22c0 .1-.04.19-.12.26-.08.07-.16.1-.25.1-.22 0-.42 0-.57.01-.16.01-.34.01-.55.01-.21.01-.32.01-.32.01z"/>
    </g>
</svg>
