<?xml version="1.0" encoding="UTF-8"?>
<svg width="98px" height="55px" viewBox="0 0 98 55" version="1.1" xmlns="http://www.w3.org/2000/svg" xmlns:xlink="http://www.w3.org/1999/xlink">
    <g id="Seitenrahmen" stroke="none" stroke-width="1" fill="none" fill-rule="evenodd">
        <g id="320-/-Pageframe-/-Header" transform="translate(-111.000000, -11.000000)">
            <g id="Header" transform="translate(111.000000, 10.566667)">
                <g id="Logo" transform="translate(0.000000, 0.433333)">
                    <g transform="translate(0.000000, 0.585106)">
                        <path d="M26.4539193,20.845 C29.6784735,13.7008511 35.436859,8.61569149 41.7968229,6.48648936 C43.5141843,5.14074468 45.3466663,4.03255319 47.2452687,3.17654255 C38.2227747,-1.78925532 27.2042687,-0.980638298 20.1476783,5.93765957 C11.3920277,14.5217553 12.0538229,29.2553191 21.6265337,38.8452128 C23.0563892,40.2781383 24.6090398,41.5039362 26.2372566,42.5425 C23.2494373,36.3 23.0882687,28.3004255 26.4539193,20.845" id="Fill-1" fill="#64B5C8"></path>
                        <path d="M37.4641012,40.4886596 C40.0239084,43.0426489 43.1581373,44.7353617 46.5432699,45.5913723 C49.5972096,44.6347234 52.4309446,43.0011064 54.8112819,40.667117 C63.5669325,32.0830213 62.9051373,17.3494574 53.3330169,7.75897872 C52.5177277,6.94217021 51.6569807,6.20025532 50.7714386,5.51217021 C47.7771253,5.15174468 44.7231855,5.50690426 41.7967639,6.48695745 C40.9985952,7.11185106 40.2228602,7.78355319 39.4813663,8.51493617 C30.0119687,17.8380213 29.1087157,32.153234 37.4641012,40.4886596" id="Fill-4" fill="#FEF9ED"></path>
                        <path d="M46.543506,45.5911968 C40.0436265,47.627367 32.5430843,46.5653989 26.2374337,42.5427926 C28.2340361,46.714016 31.4898795,50.102367 35.8071928,52.01625 C44.7063012,55.9627926 55.3115542,52.4158777 61.9005783,44.0628989 C56.895494,46.3003457 51.4541325,46.8327926 46.543506,45.5911968" id="Fill-6" fill="#FCCF66"></path>
                        <path d="M71.7549506,6.72614894 C65.4646494,0.449712766 55.7189627,-0.64443617 47.2449145,3.17630851 C48.4634205,3.84684043 49.6400108,4.6326383 50.7711434,5.51205319 C52.5959506,5.73146809 54.3983241,6.21242553 56.1351675,6.98242553 C66.9145771,11.7621596 71.1026012,25.718117 65.4888542,38.1539681 C64.5100349,40.3235426 63.2927096,42.2976915 61.9006373,44.0629574 C64.7072157,42.8079043 67.3786012,41.0233298 69.7382759,38.6998723 C79.2076735,29.3773723 80.1103361,15.0615745 71.7549506,6.72614894" id="Fill-8" fill="#E96E67"></path>
                        <path d="M56.1351675,6.98271809 C54.3983241,6.21271809 52.5959506,5.73117553 50.7711434,5.51176064 C51.6566855,6.20043085 52.5174325,6.94176064 53.333312,7.75915426 C62.9054325,17.349633 63.5672277,32.0826117 54.8115771,40.6667074 C52.4312398,43.0012819 49.5975048,44.6348989 46.5435651,45.5909628 C46.8151313,45.6600053 47.089059,45.7208564 47.3635771,45.7787819 C47.4137578,45.7893138 47.4627578,45.801016 47.5129386,45.8109628 C47.7744687,45.8642074 48.0371795,45.911016 48.3010711,45.9543138 C48.361288,45.9642606 48.4209145,45.9747926 48.480541,45.9835691 C48.7462036,46.0251117 49.0136373,46.0613883 49.2822518,46.092984 C49.3336133,46.0994202 49.3849747,46.1046862 49.4369265,46.1105372 C49.7185289,46.1415479 50.0007217,46.1684628 50.2840952,46.1883564 C50.3094807,46.1906968 50.3348663,46.191867 50.3602518,46.1936223 C54.1816614,46.4528245 58.163059,45.7337287 61.9006373,44.0626649 C63.2927096,42.2973989 64.5100349,40.32325 65.4888542,38.1536755 C71.1026012,25.7184096 66.9145771,11.7624521 56.1351675,6.98271809" id="Fill-10" fill="#FEDDA6"></path>
                        <path d="M39.4810711,8.51464362 C40.2231554,7.78384574 40.9988904,7.11214362 41.7964687,6.48666489 C35.4365048,8.61586702 29.6787096,13.7010266 26.4541554,20.8451755 C23.0885048,28.300016 23.2490831,36.2995904 26.2374928,42.5426755 C32.5431434,46.5652819 40.0436855,47.6278351 46.5435651,45.5910798 C43.1578422,44.7350691 40.0242036,43.0429415 37.463806,40.488367 C29.1090108,32.1529415 30.0116735,17.8377287 39.4810711,8.51464362" id="Fill-12" fill="#FCF6E0"></path>
                        <path d="M50.7711434,5.51193617 C49.6400108,4.63310638 48.4634205,3.8467234 47.2449145,3.17619149 C45.3469024,4.03220213 43.5144205,5.14039362 41.7964687,6.4867234 C44.7234807,5.50667021 47.7774205,5.15151064 50.7711434,5.51193617" id="Fill-14" fill="#F6E9DD"></path>
                        <path d="M87.7637229,21.0556383 L89.1605181,21.0556383 L89.1605181,19.596383 L87.7637229,19.596383 L87.7637229,21.0556383 Z M95.145012,20.0515957 C94.508012,20.0515957 94.0764578,19.5595213 94.0764578,18.8064894 C94.0764578,18.0540426 94.508012,17.5520213 95.145012,17.5520213 C95.7826024,17.5520213 96.214747,18.0540426 96.214747,18.8064894 C96.214747,19.5595213 95.7826024,20.0515957 95.145012,20.0515957 L95.145012,20.0515957 Z M95.145012,16.3993617 C93.7104337,16.3993617 92.7534578,17.3571809 92.7534578,18.8064894 C92.7534578,20.2476064 93.7104337,21.2042553 95.145012,21.2042553 C96.5801807,21.2042553 97.5365663,20.2476064 97.5365663,18.8064894 C97.5365663,17.3571809 96.5801807,16.3993617 95.145012,16.3993617 L95.145012,16.3993617 Z M90.4002771,15.658617 L91.8443012,15.658617 L91.8443012,14.3848404 L90.4002771,14.3848404 L90.4002771,15.658617 Z M90.4191687,21.0556383 L91.8159639,21.0556383 L91.8159639,16.5479787 L90.4191687,16.5479787 L90.4191687,21.0556383 Z M82.8082289,23.3352128 L82.8082289,29.3618085 L79.9449759,27.8604255 L82.7692651,23.3352128 L82.8082289,23.3352128 Z M67.6400723,25.7797872 L67.3626024,25.7797872 L67.3626024,22.5394681 L71.0257952,22.5394681 C71.0257952,23.8495213 69.0640241,25.7797872 67.6400723,25.7797872 L67.6400723,25.7797872 Z M74.0478554,30.3424468 L72.0483012,27.2396277 C72.0483012,27.2396277 75.2994217,24.1596277 75.2994217,20.245266 L75.2994217,19.6063298 L63.6864217,19.6063298 L63.6864217,33.0275 L67.3626024,33.0275 L67.3626024,28.7328191 L69.439494,28.7328191 L72.0890361,33.0275 L72.232494,33.0275 L72.226,33.0368617 L76.6371807,33.0368617 L78.0493253,30.6976064 L82.8082289,33.0368617 L86.4643373,33.0368617 L86.4643373,19.596383 L81.2992651,19.6156915 L74.0478554,30.3424468 Z M58.5467349,33.0275 L62.2229157,33.0275 L62.2229157,19.6063298 L58.5467349,19.6063298 L58.5467349,33.0275 Z M53.5127229,23.3352128 L53.5127229,29.3618085 L50.6494699,27.8604255 L53.4743494,23.3352128 L53.5127229,23.3352128 Z M34.3696627,29.3618085 L31.507,27.8604255 L34.3312892,23.3352128 L34.3696627,23.3352128 L34.3696627,29.3618085 Z M44.933,30.0750532 L41.8566265,26.3169149 L46.905988,19.6063298 L42.5916265,19.6063298 L38.0458434,25.607766 L38.0458434,19.6063298 L38.0263614,19.6063298 L38.0263614,19.596383 L35.4435301,19.6063298 L34.3696627,19.6063298 L34.3696627,19.6104255 L32.8612892,19.6156915 L27.405759,27.6848936 L27.405759,19.5870213 L22.2406867,19.6063298 L16.4374337,27.8311702 L16.4374337,17.0301064 L11.2723614,17.0494149 L0,33.0275 L4.57293976,33.0275 L12.7423614,21.3446809 L12.7813253,21.3446809 L12.7813253,33.0275 L17.3465904,33.0275 L23.6917952,23.9010106 L23.750241,23.9010106 L23.750241,33.0275 L23.7945181,33.0275 L23.7880241,33.0368617 L28.1992048,33.0368617 L29.6113494,30.6976064 L34.3696627,33.0368617 L38.0263614,33.0368617 L38.0263614,33.0275 L38.0458434,33.0275 L38.0458434,27.1992553 L42.8820843,33.0275 L42.9375783,33.0275 L42.930494,33.0368617 L47.3416747,33.0368617 L47.346988,33.0275 L47.3505301,33.0275 L47.348759,33.0251596 L48.7538193,30.6976064 L53.5127229,33.0368617 L57.1688313,33.0368617 L57.1688313,19.596383 L52.003759,19.6156915 L44.933,30.0750532 Z" id="Fill-16" fill="#61304C"></path>
                    </g>
                </g>
            </g>
        </g>
    </g>
</svg>