<?xml version="1.0" encoding="UTF-8"?>
<svg width="111px" height="74px" viewBox="0 0 111 74" version="1.1" xmlns="http://www.w3.org/2000/svg" xmlns:xlink="http://www.w3.org/1999/xlink">
    <!-- Generator: Sketch 63.1 (92452) - https://sketch.com -->
    <title>Logodummy</title>
    <desc>Created with Sketch.</desc>
    <g id="Logodummy" stroke="none" stroke-width="1" fill="none" fill-rule="evenodd">
        <path d="M27.1443402,61.6248233 C27.1167834,61.6768338 27.0695344,61.715633 27.013157,61.7325462 C26.9567796,61.7494594 26.8959759,61.7430761 26.8443402,61.7148233 L26.0443402,61.3648233 C25.9043402,61.3048233 25.8743402,61.1948233 25.9543402,61.0648233 C26.0627863,60.9461272 26.1102282,60.783942 26.0828455,60.6255137 C26.0554629,60.4670855 25.9563355,60.3302332 25.8143402,60.2548233 C25.3643402,59.9248233 25.1243402,60.1948233 24.8143402,60.6648233 L24.1843402,61.5348233 C23.8443402,62.0048233 23.6743402,62.3148233 24.1243402,62.6348233 C24.5743402,62.9548233 24.8143402,62.6948233 25.0243402,62.3948233 L24.6043402,62.1548233 C24.55044,62.1228679 24.5136257,62.0685123 24.5039523,62.0066027 C24.4942789,61.9446931 24.5127572,61.881698 24.5543402,61.8348233 L24.9043402,61.3448233 C24.9423223,61.2982442 24.9992381,61.2712156 25.0593402,61.2712156 C25.1194422,61.2712156 25.176358,61.2982442 25.2143402,61.3448233 L26.4343402,62.2248233 C26.4914306,62.2539777 26.5310865,62.3087313 26.5409826,62.3720667 C26.5508787,62.435402 26.5298158,62.499643 26.4843402,62.5448233 L25.8943402,63.3648233 C25.6376544,63.8083252 25.1915665,64.1094321 24.6842507,64.181627 C24.1769349,64.253822 23.6645576,64.089112 23.2943402,63.7348233 C22.8441278,63.4933852 22.5291901,63.0591595 22.4395197,62.5562254 C22.3498493,62.0532913 22.4953112,61.5369789 22.8343402,61.1548233 L23.9343402,59.6348233 C24.1910259,59.1913215 24.6371138,58.8902146 25.1444296,58.8180196 C25.6517454,58.7458247 26.1641227,58.9105346 26.5343402,59.2648233 C26.9489949,59.4771463 27.2529875,59.8567423 27.3695675,60.307773 C27.4861475,60.7588038 27.4041729,61.2381625 27.1443402,61.6248233 L27.1443402,61.6248233 Z M30.2343402,61.7048233 C30.1838181,61.6658955 30.117759,61.6533982 30.0565084,61.6711807 C29.9952578,61.6889631 29.9461613,61.7348926 29.9243402,61.7948233 L27.6043402,66.0048233 C27.5694336,66.0565031 27.5593025,66.1210242 27.5766902,66.1809152 C27.594078,66.2408063 27.6371855,66.2898709 27.6943402,66.3148233 L28.4143402,66.7148233 C28.4648622,66.7537512 28.5309213,66.7662484 28.5921719,66.748466 C28.6534225,66.7306835 28.702519,66.6847541 28.7243402,66.6248233 L31.0743402,62.4148233 C31.113268,62.3643013 31.1257652,62.2982422 31.1079828,62.2369916 C31.0902003,62.175741 31.0442709,62.1266445 30.9843402,62.1048233 L30.2343402,61.7048233 Z M35.9543402,64.4848233 C35.9002194,64.4509028 35.8331522,64.4448722 35.7738483,64.4685938 C35.7145445,64.4923153 35.6701376,64.5429355 35.6543402,64.6048233 L34.6543402,66.8448233 C34.6543402,66.9148233 34.5643402,66.9048233 34.5643402,66.8448233 L34.5643402,64.1348233 C34.5699977,64.0174358 34.4962063,63.9108482 34.3843402,63.8748233 L33.3843402,63.4448233 C33.3302194,63.4109028 33.2631522,63.4048722 33.2038483,63.4285938 C33.1445445,63.4523153 33.1001376,63.5029355 33.0843402,63.5648233 L31.1943402,67.9948233 C31.1645513,68.0497093 31.1607354,68.1150059 31.1839283,68.1729881 C31.2071212,68.2309703 31.2549165,68.2756223 31.3143402,68.2948233 L32.0943402,68.6248233 C32.1484609,68.6587438 32.2155281,68.6647744 32.274832,68.6410529 C32.3341358,68.6173313 32.3785427,68.5667111 32.3943402,68.5048233 L33.3943402,66.2648233 C33.3943402,66.1948233 33.4843402,66.2048233 33.4843402,66.2648233 L33.4843402,68.9748233 C33.4786826,69.0922108 33.552474,69.1987984 33.6643402,69.2348233 L34.6643402,69.6648233 C34.7184609,69.6987438 34.7855281,69.7047744 34.844832,69.6810529 C34.9041358,69.6573313 34.9485427,69.6067111 34.9643402,69.5448233 L36.8543402,65.1148233 C36.8882607,65.0607025 36.8942912,64.9936354 36.8705697,64.9343315 C36.8468482,64.8750276 36.796228,64.8306208 36.7343402,64.8148233 L35.9543402,64.4848233 Z M46.2643402,69.2948233 L45.6043402,72.4348233 C45.6043402,72.5948233 45.4743402,72.6748233 45.3343402,72.6448233 L44.5043402,72.4748233 C44.4400935,72.4724767 44.3808916,72.4393887 44.3452302,72.3858966 C44.3095688,72.3324045 44.301796,72.2650305 44.3243402,72.2048233 L44.4543402,71.5648233 C44.4768843,71.5046162 44.4691115,71.4372421 44.4334501,71.38375 C44.3977887,71.3302579 44.3385868,71.2971699 44.2743402,71.2948233 L43.6343402,71.1648233 C43.574133,71.1422792 43.506759,71.1500519 43.4532668,71.1857134 C43.3997747,71.2213748 43.3666867,71.2805766 43.3643402,71.3448233 L43.2343402,71.9848233 C43.2319936,72.04907 43.1989056,72.1082719 43.1454135,72.1439333 C43.0919213,72.1795947 43.0245473,72.1873675 42.9643402,72.1648233 L42.1343402,71.9948233 C42.0679617,71.9844732 42.0099503,71.9443613 41.9768295,71.8859127 C41.9437086,71.8274642 41.9391088,71.7570857 41.9643402,71.6948233 L42.6043402,68.5448233 C42.7943402,67.6148233 43.1543402,66.6548233 44.8143402,66.9948233 C46.4743402,67.3348233 46.4643402,68.3648233 46.2643402,69.2948233 Z M44.6043402,68.3948233 C44.1143402,68.2948233 44.0243402,68.4648233 43.9543402,68.8148233 L43.7843402,69.6248233 C43.7660757,69.6849407 43.7756888,69.7500779 43.810541,69.8023561 C43.8453931,69.8546344 43.9018224,69.8885608 43.9643402,69.8948233 L44.6043402,70.0248233 C44.6644575,70.0430878 44.7295947,70.0334747 44.7818729,69.9986225 C44.8341512,69.9637703 44.8680776,69.9073411 44.8743402,69.8448233 L45.0443402,69.0448233 C45.0743402,68.6948233 45.0543402,68.4948233 44.6043402,68.3948233 Z M51.8943402,68.1448233 C51.8333516,68.129042 51.7684921,68.1429183 51.7192994,68.1822724 C51.6701068,68.2216265 51.6423314,68.2818581 51.6443402,68.3448233 L51.4243402,70.7648233 C51.4243402,70.8348233 51.3543402,70.8448233 51.3343402,70.7648233 L50.5443402,68.1748233 C50.5168005,68.0586708 50.413705,67.9761944 50.2943402,67.9748233 L49.1943402,67.8748233 C49.1333516,67.859042 49.0684921,67.8729183 49.0192994,67.9122724 C48.9701068,67.9516265 48.9423314,68.0118581 48.9443402,68.0748233 L48.5043402,72.8748233 C48.4957857,72.9337973 48.5126893,72.9936287 48.5508387,73.0394079 C48.588988,73.0851871 48.6447904,73.1126028 48.7043402,73.1148233 L49.5443402,73.1948233 C49.6053287,73.2106047 49.6701882,73.1967283 49.7193809,73.1573742 C49.7685735,73.1180201 49.7963489,73.0577886 49.7943402,72.9948233 L50.0143402,70.5748233 C50.0143402,70.5048233 50.0843402,70.4948233 50.1043402,70.5748233 L50.8943402,73.1648233 C50.9218798,73.2809758 51.0249753,73.3634522 51.1443402,73.3648233 L52.2443402,73.4648233 C52.3053287,73.4806047 52.3701882,73.4667283 52.4193809,73.4273742 C52.4685735,73.3880201 52.4963489,73.3277886 52.4943402,73.2648233 L52.9343402,68.4648233 C52.9465075,68.4052795 52.9309403,68.3434335 52.8920336,68.2967454 C52.8531269,68.2500574 52.795102,68.2235929 52.7343402,68.2248233 L51.8943402,68.1448233 Z M59.1943402,70.0748233 L59.1943402,71.7248233 C59.1943402,72.9648233 58.7543402,73.5448233 57.3343402,73.5748233 L55.6043402,73.5948233 C55.5434857,73.6007299 55.4830787,73.579822 55.438896,73.5375604 C55.3947134,73.4952987 55.3711427,73.4358801 55.3743402,73.3748233 L55.3043402,68.5548233 C55.2952151,68.4923579 55.3146749,68.4291015 55.3573323,68.3825662 C55.3999897,68.3360308 55.4613185,68.3111542 55.5243402,68.3148233 L57.2043402,68.3148233 C58.6643402,68.2648233 59.1343402,68.8348233 59.1543402,70.0748233 L59.1943402,70.0748233 Z M57.9043402,71.7548233 C57.9043402,71.7548233 57.9043402,70.1048233 57.9043402,70.0948233 C57.9043402,69.6248233 57.7143402,69.5848233 57.3543402,69.5948233 L56.9443402,69.5948233 C56.8822865,69.5878107 56.8205188,69.6101858 56.7773529,69.6553138 C56.734187,69.7004418 56.7145779,69.7631424 56.7243402,69.8248233 L56.7243402,72.0548233 C56.7211427,72.1158801 56.7447134,72.1752987 56.788896,72.2175604 C56.8330787,72.259822 56.8934857,72.2807299 56.9543402,72.2748233 L57.3643402,72.2748233 C57.6943402,72.2648233 57.8743402,72.2048233 57.8643402,71.7548233 L57.9043402,71.7548233 Z M70.0743402,66.6448233 L66.3143402,67.4648233 C66.2518921,67.4701745 66.1955641,67.5044912 66.162169,67.5575304 C66.128774,67.6105697 66.1221744,67.6761968 66.1443402,67.7348233 L66.3243402,68.5548233 C66.3332698,68.6155207 66.368296,68.6692779 66.420213,68.7019664 C66.47213,68.7346549 66.5357456,68.7430055 66.5943402,68.7248233 L67.5943402,68.4948233 C67.6529667,68.4726576 67.7185938,68.4792571 67.7716331,68.5126522 C67.8246723,68.5460473 67.858989,68.6023753 67.8643402,68.6648233 L68.6043402,72.1148233 C68.6132698,72.1755207 68.648296,72.2292779 68.700213,72.2619664 C68.75213,72.2946549 68.8157456,72.3030055 68.8743402,72.2848233 L69.6943402,72.1048233 C69.7567882,72.0994721 69.8131162,72.0651555 69.8465113,72.0121162 C69.8799063,71.959077 69.8865059,71.8934499 69.8643402,71.8348233 L69.1043402,68.3948233 C69.0821744,68.3361968 69.088774,68.2705697 69.122169,68.2175304 C69.1555641,68.1644912 69.2118921,68.1301745 69.2743402,68.1248233 L70.2743402,67.8948233 C70.3367882,67.8894721 70.3931162,67.8551555 70.4265113,67.8021162 C70.4599063,67.749077 70.4665059,67.6834499 70.4443402,67.6248233 L70.2643402,66.8048233 C70.2569553,66.7515089 70.2283934,66.7034213 70.1851098,66.6714291 C70.1418263,66.6394369 70.0874749,66.6262408 70.0343402,66.6348233 L70.0743402,66.6448233 Z M76.9243402,68.2448233 C77.1711418,69.2027015 76.6376178,70.1888496 75.7008026,70.5063696 C74.7639874,70.8238896 73.7408116,70.3653624 73.3543402,69.4548233 L72.7143402,67.6948233 C72.4675385,66.7369452 73.0010625,65.750797 73.9378777,65.433277 C74.8746929,65.115757 75.8978687,65.5742842 76.2843402,66.4848233 L76.9243402,68.2448233 Z M75.5743402,68.2448233 L75.2243402,67.2448233 C75.0343402,66.6948233 74.8843402,66.3748233 74.3643402,66.5548233 C73.8443402,66.7348233 73.9143402,67.0748233 74.1043402,67.6248233 L74.4543402,68.6248233 C74.6443402,69.1748233 74.7943402,69.4948233 75.3143402,69.3148233 C75.8343402,69.1348233 75.7143402,68.8248233 75.5343402,68.2748233 L75.5743402,68.2448233 Z M81.6043402,62.4248233 C81.5861372,62.3647046 81.5407477,62.3166303 81.4817731,62.2950062 C81.4227984,62.2733822 81.3570908,62.2807209 81.3043402,62.3148233 L80.5443402,62.6848233 C80.4859683,62.7052949 80.4403541,62.7516244 80.420793,62.8103076 C80.4012319,62.8689908 80.4099257,62.933423 80.4443402,62.9848233 L81.5043402,65.1748233 C81.5043402,65.2448233 81.5043402,65.2848233 81.4343402,65.2348233 L79.4343402,63.4248233 C79.3423055,63.356485 79.2163748,63.356485 79.1243402,63.4248233 L78.1243402,63.9048233 C78.0642214,63.9230263 78.0161471,63.9684157 77.9945231,64.0273904 C77.972899,64.0863651 77.9802378,64.1520726 78.0143402,64.2048233 L80.1243402,68.5348233 C80.1456989,68.5924708 80.1912458,68.637864 80.2489652,68.6590278 C80.3066846,68.6801915 80.3707791,68.6750002 80.4243402,68.6448233 L81.1843402,68.2748233 C81.2444589,68.2566204 81.2925332,68.2112309 81.3141572,68.1522563 C81.3357813,68.0932816 81.3284425,68.027574 81.2943402,67.9748233 L80.2343402,65.7848233 C80.2343402,65.7148233 80.2343402,65.6748233 80.3043402,65.7248233 L82.3043402,67.5348233 C82.3963748,67.6031616 82.5223055,67.6031616 82.6143402,67.5348233 L83.6143402,67.0548233 C83.672712,67.0343517 83.7183262,66.9880223 83.7378873,66.929339 C83.7574484,66.8706558 83.7487546,66.8062237 83.7143402,66.7548233 L81.6043402,62.4248233 Z M84.7343402,60.4848233 C84.7083352,60.4281971 84.6574234,60.3869269 84.5966417,60.373202 C84.5358601,60.3594771 84.4721543,60.374866 84.4243402,60.4148233 L83.7243402,60.8648233 C83.667714,60.8908283 83.6264437,60.9417401 83.6127188,61.0025217 C83.598994,61.0633034 83.6143828,61.1270092 83.6543402,61.1748233 L86.2543402,65.2448233 C86.2830818,65.298644 86.3338102,65.3373034 86.3933261,65.3507425 C86.4528421,65.3641815 86.5152604,65.3510714 86.5643402,65.3148233 L87.2643402,64.8648233 C87.3209663,64.8388184 87.3622366,64.7879065 87.3759615,64.7271249 C87.3896863,64.6663433 87.3742975,64.6026374 87.3343402,64.5548233 L84.7343402,60.4848233 Z M91.5743402,59.4848233 L90.7943402,59.8748233 C90.7298477,59.9032692 90.6819599,59.9597168 90.6644057,60.027983 C90.6468515,60.0962493 90.6615695,60.1687956 90.7043402,60.2248233 C90.8843402,60.5248233 90.9243402,60.7448233 90.6043402,61.0048233 C90.2843402,61.2648233 89.9243402,61.1048233 89.6043402,60.6548233 L88.9243402,59.8148233 C88.5643402,59.3648233 88.3643402,59.0748233 88.7943402,58.7148233 C88.8912429,58.5998257 89.0339587,58.5334569 89.1843402,58.5334569 C89.3347216,58.5334569 89.4774374,58.5998257 89.5743402,58.7148233 C89.6218372,58.7703649 89.6912591,58.8023426 89.7643402,58.8023426 C89.8374212,58.8023426 89.9068431,58.7703649 89.9543402,58.7148233 L90.4843402,58.0448233 C90.5542554,57.9684015 90.5542554,57.8512451 90.4843402,57.7748233 C90.1861575,57.3963961 89.7366581,57.168227 89.2551816,57.1508939 C88.7737051,57.1335607 88.3089624,57.3288171 87.9843402,57.6848233 C87.5496592,57.9519939 87.260962,58.4032181 87.2005556,58.9098529 C87.1401491,59.4164876 87.3146617,59.9229406 87.6743402,60.2848233 L88.8643402,61.7348233 C89.1463374,62.1603202 89.607451,62.4334773 90.1161078,62.4763526 C90.6247646,62.5192279 91.1250966,62.3271122 91.4743402,61.9548233 C91.8853515,61.7074425 92.1674434,61.2925072 92.2463083,60.819318 C92.3251731,60.3461289 92.1929031,59.8621332 91.8843402,59.4948233 C91.8522766,59.4366698 91.7934392,59.3982236 91.7273049,59.3922114 C91.6611705,59.3861992 91.5963648,59.4134051 91.5543402,59.4648233 L91.5743402,59.4848233 Z M42.3043402,7.10482332 L41.1343402,2.43482332 C41.1126161,2.37645566 41.11792,2.31145643 41.1488193,2.25738281 C41.1797185,2.2033092 41.233025,2.16574005 41.2943402,2.15482332 L42.9243402,1.69482332 C44.2943402,1.34482332 44.9243402,1.79482332 45.1943402,2.99482332 L45.5943402,4.59482332 C45.8943402,5.79482332 45.5943402,6.47482332 44.2143402,6.81482332 L42.6043402,7.26482332 C42.5438521,7.2942952 42.4729046,7.29299763 42.4135346,7.26133366 C42.3541647,7.2296697 42.3135627,7.17147421 42.3043402,7.10482332 L42.3043402,7.10482332 Z M42.7043402,3.36482332 L43.2443402,5.52482332 C43.2557785,5.58368926 43.291837,5.63485711 43.343426,5.6654284 C43.3950151,5.69599969 43.4572128,5.70305773 43.5143402,5.68482332 L43.9043402,5.58482332 C44.2543402,5.49482332 44.4143402,5.39482332 44.3043402,4.95482332 L43.9043402,3.34482332 C43.7943402,2.89482332 43.6043402,2.89482332 43.2543402,2.98482332 L42.8643402,3.08482332 C42.8010655,3.092062 42.7450212,3.12900338 42.7134234,3.18429948 C42.6818257,3.23959559 42.6784525,3.30663476 42.7043402,3.36482332 L42.7043402,3.36482332 Z M49.1643402,5.89482332 L49.9843402,5.78482332 C50.0455544,5.78370885 50.1028861,5.75461768 50.139932,5.70587311 C50.1769779,5.65712854 50.1896564,5.59410099 50.1743402,5.53482332 L49.5343402,0.754823322 C49.5332257,0.693609043 49.5041345,0.636277365 49.4553899,0.599231491 C49.4066454,0.562185617 49.3436178,0.549507072 49.2843402,0.564823322 L48.4643402,0.674823322 C48.4031259,0.675937792 48.3457942,0.70502896 48.3087483,0.75377353 C48.2717024,0.802518101 48.2590239,0.86554565 48.2743402,0.924823322 L48.9143402,5.69482332 C48.9161419,5.75644264 48.9449273,5.81415818 48.9930645,5.85266792 C49.0412016,5.89117766 49.1038282,5.90659169 49.1643402,5.89482332 L49.1643402,5.89482332 Z M54.9243402,4.23482332 C54.7597454,4.25153017 54.5953001,4.20176121 54.4675915,4.09658948 C54.339883,3.99141775 54.2595048,3.83956735 54.2443402,3.67482332 C54.2443402,3.51482332 54.1443402,3.45482332 53.9943402,3.48482332 L53.1443402,3.69482332 C53.0857532,3.70225826 53.0326156,3.73293581 52.9968813,3.7799546 C52.961147,3.82697338 52.9458171,3.88638479 52.9543402,3.94482332 C52.9841217,4.43043055 53.2193435,4.88036148 53.6011067,5.18195433 C53.9828698,5.48354719 54.4750259,5.60824486 54.9543402,5.52482332 C56.7443402,5.52482332 56.9543402,4.13482332 56.9543402,3.91482332 C56.9543402,2.18482332 54.5243402,2.25482332 54.4043402,1.67482332 C54.4043402,1.50482332 54.5443402,1.32482332 54.8443402,1.31482332 C55.1615042,1.27760153 55.4536957,1.49129378 55.5143402,1.80482332 C55.5143402,1.95482332 55.6143402,2.02482332 55.7643402,1.98482332 L56.6143402,1.77482332 C56.6729271,1.76738838 56.7260647,1.73671083 56.761799,1.68969205 C56.7975333,1.64267326 56.8128632,1.58326185 56.8043402,1.52482332 C56.7506655,1.05489147 56.5058407,0.627801352 56.1274509,0.344009018 C55.7490611,0.0602166839 55.2705036,-0.0552299659 54.8043402,0.0248233218 C54.3487416,-0.0235610388 53.8941078,0.124452819 53.5543202,0.431788826 C53.2145325,0.739124833 53.0217782,1.17666997 53.0243402,1.63482332 C53.0243402,3.36482332 55.3343402,3.16482332 55.4943402,3.80482332 C55.6043402,3.99482332 55.2943402,4.22482332 54.9243402,4.23482332 L54.9243402,4.23482332 Z M61.5143402,5.81482332 C61.9757628,5.92068677 62.4604229,5.82199146 62.8437013,5.54411458 C63.2269798,5.26623771 63.4714821,4.8362903 63.5143402,4.36482332 C63.5339978,4.26351982 63.4733546,4.16389163 63.3743402,4.13482332 L62.6043402,3.84482332 C62.5378237,3.81966164 62.4634086,3.82668529 62.4027747,3.86384805 C62.3421407,3.90101081 62.3021082,3.9641324 62.2943402,4.03482332 C62.2143402,4.37482332 62.0843402,4.55482332 61.6643402,4.51482332 C61.2443402,4.47482332 61.1043402,4.10482332 61.1643402,3.51482332 L61.2743402,2.43482332 C61.3343402,1.85482332 61.4043402,1.50482332 61.9643402,1.56482332 C62.1143798,1.56045066 62.2587267,1.62239659 62.3589274,1.73415892 C62.4591281,1.84592126 62.5050063,1.99614947 62.4843402,2.14482332 C62.480852,2.21838834 62.5099783,2.28974866 62.5639468,2.33986229 C62.6179154,2.38997593 62.6912347,2.41374369 62.7643402,2.40482332 L63.6143402,2.30482332 C63.717122,2.29980074 63.7993176,2.21760516 63.8043402,2.11482332 C63.8636813,1.6357507 63.7089427,1.15486637 63.381354,0.800299691 C63.0537652,0.44573301 62.5866028,0.253501127 62.1043402,0.274823322 C61.6049095,0.155626224 61.0783904,0.271364172 60.6749875,0.589019636 C60.2715845,0.906675099 60.0355945,1.39136703 60.0343402,1.90482332 L59.8443402,3.77482332 C59.7376615,4.27532326 59.8649216,4.79715667 60.1900354,5.19235482 C60.5151491,5.58755298 61.0026632,5.81301994 61.5143402,5.80482332 L61.5143402,5.81482332 Z M66.4143402,4.69482332 L66.8543402,2.86482332 C67.1425153,1.90456585 68.130346,1.3364064 69.1052771,1.57017733 C70.0802081,1.80394826 70.7029684,2.75829845 70.5243402,3.74482332 L70.0843402,5.57482332 C69.796165,6.5350808 68.8083343,7.10324024 67.8334032,6.86946931 C66.8584722,6.63569838 66.2357119,5.68134819 66.4143402,4.69482332 L66.4143402,4.69482332 Z M68.1243402,5.69482332 C68.6643402,5.82482332 68.7843402,5.49482332 68.9243402,4.92482332 L69.1743402,3.87482332 C69.3043402,3.31482332 69.3543402,2.96482332 68.8143402,2.87482332 C68.2743402,2.78482332 68.1543402,3.07482332 68.0143402,3.64482332 L67.7643402,4.69482332 C67.6043402,5.14482332 67.6043402,5.49482332 68.1243402,5.62482332 L68.1243402,5.69482332 Z M74.6043402,8.92482332 C74.7124746,8.97806477 74.84337,8.93879615 74.9043402,8.83482332 L77.7343402,4.69482332 C77.7791784,4.64800489 77.7953779,4.58069252 77.7767502,4.5186003 C77.7581226,4.45650807 77.7075455,4.40922866 77.6443402,4.39482332 L76.8143402,4.06482332 C76.7062057,4.01158187 76.5753103,4.0508505 76.5143402,4.15482332 L74.8343402,6.69482332 C74.8343402,6.75482332 74.7343402,6.69482332 74.7443402,6.69482332 L75.1943402,3.69482332 C75.2202349,3.57676325 75.1503322,3.45880232 75.0343402,3.42482332 L74.1943402,3.09482332 C74.1380079,3.0622769 74.0684972,3.06266097 74.012528,3.09582788 C73.9565589,3.12899479 73.9228427,3.18978219 73.9243402,3.25482332 L73.1843402,8.14482332 C73.1584454,8.2628834 73.2283481,8.38084432 73.3443402,8.41482332 L74.6043402,8.92482332 Z M81.1943402,12.2948233 C81.2435071,12.3342094 81.3083576,12.3481281 81.3693564,12.3323864 C81.4303553,12.3166448 81.4803721,12.273083 81.5043402,12.2148233 L81.9243402,11.4848233 C81.9637263,11.4356563 81.9776449,11.3708059 81.9619032,11.309807 C81.9461616,11.2488082 81.9025998,11.1987914 81.8443402,11.1748233 L80.2743402,10.2548233 C80.2188696,10.2279309 80.1780167,10.1780237 80.1626129,10.1183336 C80.147209,10.0586435 80.15881,9.99519984 80.1943402,9.94482332 L80.3143402,9.73482332 C80.3383082,9.67656364 80.388325,9.63300187 80.4493239,9.61726023 C80.5103227,9.60151859 80.5751732,9.6154372 80.6243402,9.65482332 L81.6243402,10.2448233 C81.6735071,10.2842094 81.7383576,10.2981281 81.7993564,10.2823864 C81.8603553,10.2666448 81.9103721,10.223083 81.9343402,10.1648233 L82.3643402,9.43482332 C82.4037263,9.38565634 82.4176449,9.32080589 82.4019032,9.25980704 C82.3861616,9.19880819 82.3425998,9.14879139 82.2843402,9.12482332 L81.2843402,8.53482332 C81.2288696,8.50793086 81.1880167,8.45802369 81.1726129,8.39833359 C81.157209,8.3386435 81.16881,8.27519984 81.2043402,8.22482332 L81.3243402,8.01482332 C81.3483082,7.95656364 81.398325,7.91300187 81.4593239,7.89726023 C81.5203227,7.88151859 81.5851732,7.8954372 81.6343402,7.93482332 L83.2043402,8.85482332 C83.2535071,8.89420944 83.3183576,8.90812805 83.3793564,8.89238641 C83.4403553,8.87664478 83.4903721,8.833083 83.5143402,8.77482332 L83.9343402,8.04482332 C83.9737263,7.99565634 83.9876449,7.93080589 83.9719032,7.86980704 C83.9561616,7.80880819 83.9125998,7.75879139 83.8543402,7.73482332 L81.1243402,6.14482332 C81.0751732,6.1054372 81.0103227,6.09151859 80.9493239,6.10726023 C80.888325,6.12300187 80.8383082,6.16656364 80.8143402,6.22482332 L78.4243402,10.3948233 C78.38881,10.4451998 78.377209,10.5086435 78.3926129,10.5683336 C78.4080167,10.6280237 78.4488696,10.6779309 78.5043402,10.7048233 L81.1943402,12.2948233 Z M83.7943402,13.7848233 L86.8743402,10.0948233 C86.9161034,10.0474682 86.9762,10.0203396 87.0393402,10.0203396 C87.1024803,10.0203396 87.1625769,10.0474682 87.2043402,10.0948233 L88.4743402,11.1548233 C88.9153313,11.4013233 89.2129321,11.8427279 89.2760812,12.3439741 C89.3392304,12.8452202 89.1604114,13.3466461 88.7943402,13.6948233 C88.4913047,14.1653218 87.9738782,14.4540308 87.4143402,14.4648233 C87.3769188,14.4636393 87.3436814,14.4885673 87.3343402,14.5248233 L86.9943402,16.1748233 C86.9769713,16.2721955 86.9077507,16.3522768 86.8139172,16.3835546 C86.7200838,16.4148324 86.6166585,16.3922997 86.5443402,16.3248233 L85.8843402,15.7748233 C85.8242196,15.7318617 85.7964625,15.6565211 85.8143402,15.5848233 L86.1843402,13.9248233 C86.1950902,13.9027282 86.1950902,13.8769185 86.1843402,13.8548233 L85.9343402,13.6948233 C85.8925769,13.6474682 85.8324803,13.6203396 85.7693402,13.6203396 C85.7062,13.6203396 85.6461034,13.6474682 85.6043402,13.6948233 L84.8443402,14.6048233 C84.8010292,14.6494224 84.7415086,14.6745891 84.6793402,14.6745891 C84.6171717,14.6745891 84.5576511,14.6494224 84.5143402,14.6048233 L83.8643402,14.0648233 C83.7916945,13.9892351 83.7793571,13.874086 83.8343402,13.7848233 L83.7943402,13.7848233 Z M86.7543402,12.6948233 L87.0543402,12.9448233 C87.3343402,13.1748233 87.4943402,13.2548233 87.7943402,12.9448233 C88.0943402,12.6348233 87.9843402,12.4348233 87.7043402,12.2048233 L87.4143402,11.9648233 C87.3725769,11.9174682 87.3124803,11.8903396 87.2493402,11.8903396 C87.1862,11.8903396 87.1261034,11.9174682 87.0843402,11.9648233 L86.7243402,12.3948233 C86.6582643,12.4883482 86.671053,12.6162348 86.7543402,12.6948233 L86.7543402,12.6948233 Z M110.60434,37.0648233 C110.60434,45.9148233 105.27434,51.8548233 97.3343402,51.8548233 C92.5343402,51.8548233 88.8743402,50.3748233 85.6443402,49.0748233 C83.9536485,48.2895829 82.1690211,47.724955 80.3343402,47.3948233 L79.7043402,48.6948233 C77.2043402,54.4248233 74.5643402,58.2448233 69.8143402,58.2448233 C66.7125882,58.093835 64.2956323,55.4994879 64.3643402,52.3948233 C64.3643402,45.9248233 71.8443402,44.8848233 78.6743402,44.8148233 L79.3343402,43.3748233 C78.7741077,43.5292223 78.1954566,43.6066001 77.6143402,43.6048233 C76.4122888,43.6584991 75.2713904,43.072838 74.6143402,42.0648233 C74.6143402,41.9948233 74.5543402,41.9148233 74.5243402,41.8448233 C73.3626298,42.8822281 71.8800043,43.4893986 70.3243402,43.5648233 C69.8112318,43.5735017 69.3275135,43.326018 69.0343402,42.9048233 C68.4143402,42.0048233 68.8643402,40.8248233 69.6043402,38.9048233 C70.0943402,37.6048233 71.1343402,34.9048233 70.6643402,34.2248233 C70.4670034,34.0938252 70.2295744,34.0371257 69.9943402,34.0648233 C68.1243402,34.0648233 65.9943402,37.5448233 64.1043402,41.3648233 L63.3543402,42.8948233 C63.1715293,43.2768696 62.8076969,43.5403601 62.3876889,43.5948804 C61.9676809,43.6494007 61.5486339,43.4875339 61.2743402,43.1648233 C60.1984726,43.873346 58.7636997,43.6720495 57.9243402,42.6948233 C57.7515445,42.3863864 57.6427094,42.0462767 57.6043402,41.6948233 C56.4292878,43.2460507 54.8271525,44.4207183 52.9943402,45.0748233 L51.2843402,48.7848233 C50.8143402,49.7848233 48.2843402,54.8648233 44.2143402,54.8648233 C43.1213817,54.9111725 42.0594216,54.4951752 41.2887483,53.7187932 C40.518075,52.9424111 40.1099263,51.87741 40.1643402,50.7848233 C40.1643402,45.8448233 44.6543402,44.3048233 48.2143402,43.5448233 C47.3873434,43.351881 46.6691542,42.8419667 46.2143402,42.1248233 C46.1610825,42.0109023 46.1143405,41.8940473 46.0743402,41.7748233 C44.7513566,42.9871954 43.0286489,43.6705835 41.2343402,43.6948233 C40.7821521,43.695653 40.3647711,43.4522021 40.1428836,43.0581962 C39.920996,42.6641903 39.9292012,42.1810673 40.1643402,41.7948233 C42.0843402,38.6048233 43.4543402,34.9148233 42.9943402,34.1748233 C42.9943402,34.1748233 42.9243402,34.1748233 42.7643402,34.1748233 C40.6543402,34.1748233 39.0643402,36.5248233 37.0443402,40.5248233 L35.8343402,43.0048233 C35.6213981,43.4340224 35.1834601,43.7053114 34.7043402,43.7048233 C34.5176006,43.7059955 34.3330078,43.6649749 34.1643402,43.5848233 C33.9563039,43.4844097 33.7798757,43.3287378 33.6543402,43.1348233 C32.2243402,43.9848233 30.5543402,43.8248233 29.8943402,42.6548233 C29.6847012,42.2471349 29.5815055,41.7930739 29.5943402,41.3348233 C28.4021562,42.485104 26.9072879,43.2724244 25.2843402,43.6048233 C24.7343402,44.6948233 24.1643402,45.8048233 23.5243402,46.9248233 C26.0043402,48.0448233 28.5243402,49.5148233 31.1343402,51.0248233 C37.2043402,54.5448233 43.4843402,58.1848233 50.1343402,58.1848233 C55.2943402,58.1848233 59.4943402,55.2848233 59.4943402,51.7248233 C59.6081404,50.8579689 59.2206208,50.0015506 58.4943402,49.5148233 C57.8537715,49.2174515 57.1091105,49.2472379 56.4943402,49.5948233 C55.9144412,49.9731384 55.1376552,49.8097223 54.7593402,49.2298233 C54.3810251,48.6499243 54.5444412,47.8731384 55.1243402,47.4948233 C56.5208469,46.6257751 58.271056,46.5536407 59.7343402,47.3048233 C61.270194,48.2108575 62.1492374,49.9183798 61.9943402,51.6948233 C61.9943402,56.6948233 56.7843402,60.6948233 50.1243402,60.6948233 C42.7943402,60.6948233 35.9243402,56.6948233 29.8643402,53.1948233 C27.3875914,51.6956721 24.834101,50.3271348 22.2143402,49.0948233 C18.7843402,54.5548233 14.3543402,59.3848233 9.42434015,59.3848233 C5.97434015,59.3848233 3.36434015,57.0048233 3.36434015,53.8448233 C3.36434015,48.3848233 8.12434015,44.8448233 15.4843402,44.8448233 C17.4307195,44.8849228 19.3556005,45.2604268 21.1743402,45.9548233 C21.9243402,44.6548233 22.6043402,43.3348233 23.2443402,42.0348233 C23.2687237,41.9689789 23.2988393,41.9054017 23.3343402,41.8448233 C23.5443402,41.4148233 23.7743402,40.9748233 23.9743402,40.5548233 C22.1222859,42.2173567 19.7507488,43.1857638 17.2643402,43.2948233 C15.1843402,43.2948233 8.38434015,42.5048233 8.38434015,32.2948233 C8.35365027,27.635296 9.7494695,23.0779462 12.3843402,19.2348233 C9.67434015,17.0148233 7.08434015,15.1648233 4.49434015,15.1648233 C3.75434015,15.1648233 2.49434015,15.4548233 2.49434015,17.3548233 C2.49434015,18.8048233 4.72434015,19.3548233 4.74434015,19.3548233 C5.22581181,19.6198171 5.47772325,20.1681998 5.36508362,20.7061115 C5.25244399,21.2440232 4.8016797,21.6452643 4.25434015,21.6948233 C2.68434015,21.3648233 0.0143401501,20.0648233 0.0143401501,17.2848233 C-0.0863630804,16.0470321 0.346781893,14.8252167 1.20463402,13.9272424 C2.06248615,13.029268 3.26324099,12.540765 4.50434015,12.5848233 C7.89434015,12.5848233 10.8643402,14.6848233 13.9143402,17.1648233 C18.7043402,11.4948233 25.5343402,8.50482332 29.9143402,8.50482332 C38.4043402,8.50482332 39.3143402,14.0548233 39.3143402,16.4448233 C39.3143402,21.3148233 36.0843402,26.9948233 26.9843402,26.9948233 C22.0743402,26.9948233 17.9843402,23.7948233 14.3643402,20.7848233 C12.079925,24.1607071 10.8702722,28.1487266 10.8943402,32.2248233 C10.8943402,39.5848233 14.8943402,40.6848233 17.2643402,40.6848233 C22.7243402,40.6848233 27.0943402,32.8448233 27.1343402,32.7648233 C27.4235185,32.1544591 28.1452459,31.8841902 28.7642068,32.1544788 C29.3831677,32.4247674 29.6754838,33.1378501 29.4243402,33.7648233 C29.3143402,34.0948233 28.4243402,36.7048233 26.8643402,40.1548233 C29.2190528,38.3169263 31.1725039,36.0163462 32.6043402,33.3948233 L32.9643402,32.7748233 C33.3122796,32.1783558 34.0778726,31.976884 34.6743401,32.3248234 C35.2708076,32.6727628 35.4722795,33.4383558 35.1243402,34.0348233 L34.8043402,34.5848233 C33.2843402,37.2448233 32.1343402,40.0148233 32.0943402,41.0948233 C33.4043402,40.6648233 35.6743402,37.4548233 37.3543402,34.1948233 L38.0043402,32.8648233 C38.1714332,32.5196791 38.4877,32.2703263 38.8623059,32.1883812 C39.2369119,32.1064362 39.6284032,32.2009669 39.9243402,32.4448233 C40.7823196,31.9002128 41.7781105,31.6122315 42.7943402,31.6148233 C43.7771385,31.5537625 44.7101012,32.0531492 45.2043402,32.9048233 C46.2043402,34.6548233 45.0043402,37.9048233 43.8043402,40.3548233 C44.9056375,39.5878934 45.796303,38.5562346 46.3943402,37.3548233 C47.2343402,35.6248233 49.1843402,31.6348233 53.0943402,31.6348233 C54.2629009,31.6182543 55.3551281,32.2136698 55.9743402,33.2048233 C56.5243402,34.0748233 57.2143402,36.0248233 55.6643402,39.2948233 L55.6643402,39.3548233 L54.9343402,40.9448233 C56.5343402,39.3448233 58.0743402,36.7448233 59.7443402,32.9448233 C60.0204825,32.3096959 60.7592127,32.018681 61.3943401,32.2948234 C62.0294676,32.5709657 62.3204825,33.3096959 62.0443402,33.9448233 C60.8043402,36.8748233 59.9443402,40.0148233 60.0443402,41.1348233 C61.0443402,40.8248233 62.3543402,39.1348233 63.5143402,37.1348233 L65.5943402,32.8748233 C65.8910075,32.2724536 66.6079291,32.0085561 67.2243402,32.2748233 C67.3286089,32.3216081 67.4261425,32.3821462 67.5143402,32.4548233 C68.270062,31.9225026 69.1699949,31.6329893 70.0943402,31.6248233 C71.1573476,31.5393674 72.1892879,32.0080875 72.8243402,32.8648233 C74.0343402,34.6248233 72.9743402,37.4048233 72.0443402,39.8648233 C71.9243402,40.1848233 71.7843402,40.5448233 71.6643402,40.8648233 C73.0817579,40.2054562 74.1966233,39.0334182 74.7843402,37.5848233 L74.7843402,37.5348233 C74.7843402,37.5348233 74.7843402,37.4448233 74.8343402,37.3948233 C75.8343402,35.2448233 77.6243402,31.6448233 81.5443402,31.6448233 C82.7129009,31.6282543 83.8051281,32.2236698 84.4243402,33.2148233 C84.9743402,34.0848233 85.6643402,36.0348233 84.1143402,39.3048233 L84.0343402,39.4548233 L83.2643402,41.0548233 C84.6743402,40.3748233 86.2643402,37.2848233 88.1643402,32.9148233 C88.4404825,32.2796959 89.1792127,31.9886809 89.8143402,32.2648233 C90.4494676,32.5409657 90.7404825,33.2796959 90.4643402,33.9148233 C89.2243402,36.8448233 88.3643402,39.9848233 88.4643402,41.1048233 C89.4643402,40.7948233 90.7743402,39.1048233 91.9343402,37.1048233 L94.0143402,32.8448233 C94.3110075,32.2424536 95.0279291,31.9785561 95.6443402,32.2448233 C95.7486089,32.2916081 95.8461425,32.3521462 95.9343402,32.4248233 C96.690062,31.8925026 97.5899949,31.6029893 98.5143402,31.5948233 C99.5773476,31.5093674 100.609288,31.9780875 101.24434,32.8348233 C102.45434,34.5948233 101.39434,37.3748233 100.46434,39.8348233 L100.27434,40.3448233 C100.626546,40.0309124 100.960429,39.6970291 101.27434,39.3448233 C101.763798,38.9099862 102.504734,38.9224646 102.979272,39.3735367 C103.45381,39.8246089 103.503817,40.5639599 103.09434,41.0748233 C101.43434,42.8148233 100.09434,43.6348233 98.8143402,43.6348233 C98.3012318,43.6435017 97.8175135,43.396018 97.5243402,42.9748233 C96.9043402,42.0748233 97.3543402,40.8948233 98.0943402,38.9748233 C98.5843402,37.6748233 99.6243402,34.9748233 99.1543402,34.2948233 C98.9570034,34.1638252 98.7195744,34.1071257 98.4843402,34.1348233 C96.6143402,34.1348233 94.4843402,37.6148233 92.5943402,41.4348233 L91.8443402,42.9648233 C91.6615293,43.3468696 91.2976969,43.6103601 90.8776889,43.6648804 C90.4576809,43.7194007 90.0386339,43.5575339 89.7643402,43.2348233 C88.6652641,43.9452087 87.2073688,43.7122905 86.3843402,42.6948233 C86.2286392,42.4529975 86.1169198,42.1855479 86.0543402,41.9048233 C85.2531958,42.9886643 84.0013098,43.6477455 82.6543402,43.6948233 C82.4463967,43.6893819 82.243298,43.630862 82.0643402,43.5248233 L81.3543402,45.0648233 C83.1363092,45.4674699 84.8745945,46.0435491 86.5443402,46.7848233 C89.5443402,48.0048233 92.9843402,49.3848233 97.3043402,49.3848233 C103.94434,49.3848233 108.06434,44.6748233 108.06434,37.1048233 C108.06434,28.3148233 103.67434,24.3948233 93.8443402,24.3948233 C87.9143402,24.3948233 82.4043402,25.8348233 76.5643402,27.3948233 C70.7243402,28.9548233 64.5643402,30.5248233 58.0343402,30.5248233 C44.4543402,30.5248233 43.0343402,23.8348233 43.0343402,20.9648233 C43.0343402,17.2548233 45.2643402,14.8648233 48.7143402,14.8648233 C50.4899008,14.7937863 52.1566226,15.7197429 53.0343402,17.2648233 C53.887867,18.8424668 53.8111499,20.7603933 52.8343402,22.2648233 C52.5967585,22.6453112 52.1742362,22.8701482 51.7259333,22.8546404 C51.2776303,22.8391326 50.8716546,22.585636 50.6609333,22.1896404 C50.4502119,21.7936447 50.4667585,21.3153112 50.7043402,20.9348233 C51.1837704,20.2115679 51.2335298,19.2852773 50.8343402,18.5148233 C50.3916152,17.7777492 49.5718886,17.3524194 48.7143402,17.4148233 C46.0943402,17.4148233 45.5443402,19.4148233 45.5443402,21.0048233 C45.5443402,25.5548233 49.9943402,28.0548233 58.0843402,28.0548233 C64.3243402,28.0548233 70.2543402,26.5048233 75.9743402,25.0548233 C81.6943402,23.6048233 87.6343402,22.0548233 93.8843402,22.0548233 C105.10434,21.8448233 110.60434,26.8248233 110.60434,37.0648233 Z M15.8743402,18.8248233 C19.3243402,21.6948233 22.8743402,24.5248233 26.9743402,24.5248233 C36.0843402,24.5248233 36.7943402,18.3648233 36.7943402,16.5248233 C36.7943402,12.9148233 34.4743402,11.0948233 29.8943402,11.0948233 C26.4743402,11.0448233 20.2643402,13.6948233 15.8743402,18.8248233 Z M19.8743402,48.1048233 C18.4733384,47.6059717 17.0011812,47.3358511 15.5143402,47.3048233 C13.2543402,47.3048233 5.90434015,47.7748233 5.90434015,53.7848233 C5.90434015,55.5448233 7.39434015,56.7848233 9.45434015,56.7848233 C13.1243402,56.8148233 16.7843402,52.9148233 19.8443402,48.1048233 L19.8743402,48.1048233 Z M49.8743402,45.7248233 C45.7343402,46.5248233 42.6243402,47.4648233 42.6243402,50.7248233 C42.580848,51.1494934 42.729359,51.5713871 43.0292757,51.8751736 C43.3291923,52.1789601 43.7491474,52.3328677 44.1743402,52.2948233 C46.2843402,52.2948233 48.1743402,49.3948233 48.9643402,47.6748233 L49.8743402,45.7248233 Z M53.8143402,34.4948233 C53.6550417,34.2305987 53.3623277,34.0765387 53.0543402,34.0948233 C51.3843402,34.0948233 50.0543402,35.3548233 48.5943402,38.4248233 C48.1340609,39.1117091 48.02648,39.9760661 48.3043402,40.7548233 C48.5039206,41.0168926 48.8272452,41.1538301 49.1543402,41.1148233 C51.8343402,41.1148233 53.2343402,38.3948233 53.4243402,38.0048233 L53.4243402,37.9348233 L53.4243402,37.8748233 C54.2343402,36.1948233 54.1543402,35.0348233 53.8143402,34.5048233 L53.8143402,34.4948233 Z M77.6043402,47.3748233 C68.1943402,47.6748233 66.9243402,50.2048233 66.9243402,52.3748233 C66.8379386,54.1006911 68.1414573,55.5815592 69.8643402,55.7148233 C72.8643402,55.7148233 74.8643402,53.5348233 77.4543402,47.7148233 L77.6043402,47.3748233 Z M81.8343402,38.1948233 L81.9743402,37.9148233 L81.9743402,37.9148233 C82.7143402,36.2248233 82.6343402,35.0648233 82.3043402,34.5248233 C82.1450417,34.2605987 81.8523277,34.1065387 81.5443402,34.1248233 C79.5443402,34.1248233 78.4443402,35.6448233 77.0843402,38.4548233 C76.6240609,39.1417091 76.51648,40.0060661 76.7943402,40.7848233 C76.9939206,41.0468926 77.3172452,41.1838301 77.6443402,41.1448233 C80.0343402,41.1248233 81.4143402,38.9148233 81.7943402,38.1948233 L81.8343402,38.1948233 Z M35.3443402,27.9948233 L34.7243402,29.3148233 C34.4288678,29.9416665 34.697497,30.689351 35.3243402,30.9848233 C35.9511833,31.2802957 36.6988678,31.0116665 36.9943402,30.3848233 L37.6043402,29.0748233 C37.8998124,28.4479801 37.6311833,27.7002957 37.0043401,27.4048234 C36.377497,27.1093511 35.6298125,27.3779802 35.3343402,28.0048233 L35.3443402,27.9948233 Z M89.8743402,30.9948233 C90.0399612,31.0735185 90.220974,31.1145025 90.4043402,31.1148243 C90.8915899,31.1154342 91.335519,30.8350578 91.5443402,30.3948233 L92.1643402,29.0748233 C92.4598125,28.4479801 92.1911833,27.7002957 91.5643402,27.4048233 C90.937497,27.109351 90.1898125,27.3779801 89.8943402,28.0048233 L89.2743402,29.3248233 C88.9827497,29.9489561 89.2510873,30.6913568 89.8743402,30.9848233 L89.8743402,30.9948233 Z M62.8743402,23.3248233 L62.2543402,24.6448233 C61.9704632,25.0527352 61.9551923,25.5900659 62.2154441,26.0134418 C62.4756959,26.4368177 62.9620297,26.665809 63.4541698,26.5966983 C63.9463099,26.5275876 64.3507631,26.1735042 64.4843402,25.6948233 L65.1043402,24.3748233 C65.3998124,23.7479801 65.1311833,23.0002957 64.5043401,22.7048234 C63.877497,22.4093511 63.1298125,22.6779802 62.8343402,23.3048233 L62.8743402,23.3248233 Z" fill="#2B2B2B" fill-rule="nonzero"></path>
    </g>
</svg>