<svg id="Ebene_1" data-name="Ebene 1" xmlns="http://www.w3.org/2000/svg" viewBox="0 0 2647.93 501.6"><defs><style>.cls-1{fill:#008eb9;}.cls-2{fill:#d30025;}</style></defs><title>plentymarkets_Logo2020_Claim</title><path class="cls-1" d="M795.18,253.83c52.72,0,79.09,27.67,79.09,77.76,0,50.42-28.34,80.4-74.8,80.4-10.55,0-16.48-1.64-23.4-3.62v75.46H729.61V263.71c17.46-4.61,43.16-9.88,65.57-9.88m1,120.6c19.77,0,31-14.83,31-40.53,0-27-10.21-42.51-33.61-42.51a52.26,52.26,0,0,0-17.46,3V370.8A57.21,57.21,0,0,0,796.17,374.43Z" transform="translate(-50.73 -105.49)"/><rect class="cls-1" x="843.85" y="79.47" width="46.46" height="223.08"/><path class="cls-1" d="M1093.09,399.47A134.73,134.73,0,0,1,1035.43,412c-46.46,0-72.49-28-72.49-78.09,0-50.75,26-79.74,72.49-79.74,39.21,0,61.29,23.39,61.29,63.92a138.45,138.45,0,0,1-2.31,25h-89c2.31,22.41,12.2,34.6,34.93,34.6,15.49,0,29.33-4,45.14-10.21l7.91,32h-.33m-35.26-84.68c0-17.8-9.22-27.35-24-27.35-15.16,0-24.38,8.56-27.68,27.35Z" transform="translate(-50.73 -105.49)"/><path class="cls-1" d="M1214.17,254.81c30.64,0,48.11,17.14,48.11,55V408h-46.79v-92.6c0-12.85-5.93-19.77-18.45-19.77-9.89,0-20.11,5.94-31.31,13.84V408h-46.46V257.78h44.48v13.84c17.14-10.87,33.29-16.81,50.42-16.81" transform="translate(-50.73 -105.49)"/><path class="cls-1" d="M1352.58,412c-37.56,0-56-17.46-56-57.33V291.72h-21.75V257.78h21.75V211.65L1343,200.77v57h37.23v33.94H1343v61.62c0,14.17,5.93,20.43,18.12,20.43,7.91,0,14.5-1.65,19.77-2.64l6.59,35.92a124.9,124.9,0,0,1-34.93,4.94" transform="translate(-50.73 -105.49)"/><path class="cls-1" d="M1497.14,409c-21.75,54-51.4,68.54-91.6,71.83L1397.3,445c27.68-3,41.52-11.21,57-41.52L1392,257.78h51.4l34.27,90.29,31-90.29h48.1L1497.14,409" transform="translate(-50.73 -105.49)"/><path class="cls-1" d="M1613.56,272c17.46-11.2,33.28-17.14,50.08-17.14,17.47,0,31.64,5.61,39.22,20.1,24.71-16.47,39.87-20.1,54.7-20.1,26.69,0,46.13,13.84,46.13,52.73V408H1756.9V316.1c0-12.52-4.62-20.1-17.14-20.1-7.91,0-18.78,4.29-30.31,13.84V408h-46.79V316.1c0-12.52-4.62-20.1-17.14-20.1-8.24,0-19.11,4.95-30.31,13.51V408h-46.47V257.78h44.16v13.84l.66.33" transform="translate(-50.73 -105.49)"/><path class="cls-1" d="M1913.09,408c-1.32-4-2.64-7.58-4.29-13.18C1896.28,404.09,1884.09,412,1867,412c-26,0-45.47-16.8-45.47-43.82,0-36.58,35.59-49.43,81.39-51.74V308.2c0-12.85-5.93-19.12-21.42-19.12-10.54,0-24.38,2.31-43.49,9.23L1828.73,266c21.42-7.58,41.19-11.21,59.64-11.21,40.53,0,60.63,17.47,60.63,54.05v54c0,17.79,1.32,29.32,3,45.14h-38.88m-10.22-65.57c-21.75,1-35.26,5.93-35.26,21.08,0,8.9,4.62,14.5,12.19,14.5s14.83-4.28,23.4-11.2V342.79Z" transform="translate(-50.73 -105.49)"/><path class="cls-1" d="M2021.17,329.28V408H1974.7V257.78h46.14v24.71c20.1-23.06,36.9-31.3,62.6-25.7L2078.5,301c-19.44-3.63-37.56-2-57.33,28.33" transform="translate(-50.73 -105.49)"/><polyline class="cls-1" points="2109.64 247.85 2092.5 267.3 2092.5 302.55 2046.04 302.55 2046.04 79.47 2092.5 79.47 2092.5 210.29 2138.96 152.29 2194.32 152.29 2138.3 215.56 2196.96 302.55 2143.25 302.55 2109.64 247.85"/><path class="cls-1" d="M2373,399.47A134.77,134.77,0,0,1,2315.3,412c-46.46,0-72.49-28-72.49-78.09,0-50.75,26-79.74,72.49-79.74,39.21,0,61.29,23.39,61.29,63.92a138.45,138.45,0,0,1-2.31,25h-89c2.3,22.41,12.19,34.6,34.92,34.6,15.49,0,29.33-4,45.15-10.21l7.91,32H2373m-35.26-84.68c0-17.8-9.23-27.35-24.06-27.35-15.15,0-24.38,8.56-27.68,27.35Z" transform="translate(-50.73 -105.49)"/><path class="cls-1" d="M2466.55,412c-37.57,0-56-17.46-56-57.33V291.72h-21.75V257.78h21.75V211.65L2457,200.77v57h37.24v33.94H2457v61.62c0,14.17,5.93,20.43,18.12,20.43,7.91,0,14.5-1.65,19.78-2.64l6.59,35.92a125,125,0,0,1-34.93,4.94" transform="translate(-50.73 -105.49)"/><path class="cls-1" d="M2569.36,377.39c10.87,0,17.13-3,17.13-10.87,0-23.73-66.56-16.81-66.56-65.9,0-32.29,28-46.14,62.94-46.14,15.81,0,33,3.63,46.13,8.24l-10.55,33.94c-8.56-3.29-23.72-8.89-36.24-8.89-10.55,0-17.47,3.62-17.47,10.87,0,21.09,66.89,14.17,66.89,66.23,0,34.27-29,46.46-62.93,46.46-18.46,0-38.89-3.62-54.37-10.87l11.2-34.6c11.86,5.27,29.66,11.53,43.83,11.53" transform="translate(-50.73 -105.49)"/><path class="cls-1" d="M2667.11,185.15a31.71,31.71,0,0,1,31.55,32.09c0,17.79-14,32.17-31.55,32.17-17.27,0-31.3-14.38-31.3-32.17s14-32.09,31.3-32.09m0,57.16c13.5,0,23.84-11.05,23.84-25.07s-10.34-25-23.84-25c-13.24,0-23.5,11.05-23.5,25S2653.87,242.31,2667.11,242.31Zm-11-41.29h13.32c6.31,0,10.52,4,10.52,10.17a8.43,8.43,0,0,1-5.7,8.33v.17a9.15,9.15,0,0,1,1.14,1.84l6.05,11.58h-8.24l-5.43-11.84h-4.21v11.84h-7.45Zm11.57,15c2.89,0,4.65-1.84,4.65-4.82s-1.76-4.74-4.56-4.74h-4.21V216Z" transform="translate(-50.73 -105.49)"/><path class="cls-2" d="M191.86,116.55c-32.68,14.9-60.69,32.55-82.15,52.1-50.91,45.1-65.82,100-56.25,169.85,8.89,56.25,33.23,106.26,68.87,147.6,0,0,.77.5.62.33l59.39-314.64c3.1-16.39,9.52-55.24,9.52-55.24m238.36,52.09c0-30.79-12.63-63.15-49.74-63.15-42.62,0-82.11,48.14-96.31,123.94L270,312.31c12.63,11.84,30,18.95,52.1,18.95,60.79,0,108.16-86.84,108.16-162.62m118.57-33.58c-1.33-1.55-1-.95-1-.95A217.18,217.18,0,0,1,549.41,160c0,134.21-89.19,257.35-223.4,257.35-31.57,0-58.42-7.89-71.84-15.77h-1.58L221.21,563.9l1.13.89a403.65,403.65,0,0,0,114.49,39.32c72.71,10.35,123-6,164.07-54.17,41.38-46.46,71.25-122.45,85.69-214.1,10.94-88.74,1.22-155.23-37.8-200.78" transform="translate(-50.73 -105.49)"/><polyline class="cls-2" points="1878.5 452.33 1874.75 396.93 1850.87 452.33 1840.6 452.33 1816.99 397.49 1813.11 452.33 1798.67 452.33 1805.47 366.53 1819.77 366.53 1846.29 429.42 1873.37 366.53 1887.53 366.53 1894.19 452.33 1878.5 452.33"/><path class="cls-2" d="M1995.31,557.82c-.41-1.81-1-3.61-1.52-6.11-5.28,4-11.25,7.77-18.89,7.77-10.69,0-18.05-7.35-18.05-18.18,0-15.56,13.61-21.11,35.27-21.66v-4.45c0-6.66-3.19-9.72-10.55-9.72-4.86,0-10.56,1.25-18.33,4l-3.06-11.11c8.2-3.05,16.11-4.86,23.75-4.86,15.69,0,23.6,7.22,23.6,21.66v23.88a186,186,0,0,0,1.25,18.75h-13.47m-16-10.28c4.16,0,8.47-2.77,12.77-6.24V529.91c-12.5.28-19.58,2.22-19.58,9.58C1972.54,544.07,1975,547.54,1979.35,547.54Z" transform="translate(-50.73 -105.49)"/><polyline class="cls-2" points="2013.83 452.33 1997.17 426.79 1989.11 435.81 1989.11 452.33 1973.43 452.33 1973.43 358.33 1989.11 358.33 1989.11 416.51 2011.75 389.44 2030.63 389.44 2006.89 415.95 2032.16 452.33 2013.83 452.33"/><path class="cls-2" d="M2138.7,529.22H2100c.84,11.66,5.7,18.32,16.94,18.32,6.53,0,12.5-1.94,18.33-4.16l2.92,11a53.34,53.34,0,0,1-22.64,5.13c-19.43,0-29.85-11.94-29.85-33s10.55-33.19,29.16-33.19c16,0,24.71,9.72,24.71,27.08a53.84,53.84,0,0,1-.83,8.89m-38.32-10.56h25.83c-.14-9-4.59-13.6-11.81-13.6C2106.63,505.06,2101.77,509.36,2100.38,518.66Z" transform="translate(-50.73 -105.49)"/><path class="cls-2" d="M2183.34,474.65c0-5.42,3.75-9.16,9.44-9.16s9.72,3.74,9.72,9.16-3.88,9.16-9.72,9.16-9.44-3.61-9.44-9.16m1.67,20.27h15.69v62.9H2185Z" transform="translate(-50.73 -105.49)"/><path class="cls-2" d="M2243.72,559.48c-14.71,0-21.66-7.22-21.66-22.49V506.44h-9.3V494.92h9.3v-20l15.69-3.75v23.74h16.66v11.52h-16.66v30c0,6.66,2.64,10.13,8.75,10.13a31.76,31.76,0,0,0,9-1.53l2.23,12.36a48.29,48.29,0,0,1-14,2.08" transform="translate(-50.73 -105.49)"/><path class="cls-2" d="M2356.85,494.92l-25.13,65.26c-7.91,20.27-19.16,26.93-36.52,27.91l-2.63-12.36c12.35-.83,18.74-4.58,25.27-18.47l-26.38-62.34h17.35l16.66,43.46,15.14-43.46h16.24" transform="translate(-50.73 -105.49)"/><path class="cls-2" d="M2420.83,525.47c0,21.38-11.52,33.87-31.1,33.87-19,0-30.27-12.21-30.27-33s11.66-32.91,31.38-32.91c18.88,0,30,11.94,30,32.08m-45.4.27c0,13.75,5.55,21.53,15.27,21.53,9,0,14.16-7.64,14.16-21.11,0-13.19-5.27-20.69-14.72-20.69S2375.43,512.69,2375.43,525.74Z" transform="translate(-50.73 -105.49)"/><path class="cls-2" d="M2490.36,494.92v62.9h-14.85l-.14-6.67c-7.64,5.28-14.58,7.92-22.08,7.92-12.63,0-19.58-7.08-19.58-22.22V494.92h15.83v40.27c0,6.52,2.92,10.13,9.17,10.13,4.86,0,9.85-2.78,16-7.08V494.92h15.69" transform="translate(-50.73 -105.49)"/><path class="cls-2" d="M2523.51,523v34.85h-15.69v-62.9h15.55v11.8c7.78-9.85,15.55-15,26.66-12.22l-1.81,14.86c-9.16-1.94-16.8,1.25-24.71,13.61" transform="translate(-50.73 -105.49)"/><path class="cls-2" d="M2597,508.39c-3.75-1.53-9.58-3.47-14.85-3.47-5.7,0-9.45,1.94-9.45,6.11,0,11.1,29.45,7.77,29.45,29.57,0,13.75-11.52,18.61-25,18.61a57.22,57.22,0,0,1-21.94-4.31l3.89-11.8c5.28,2.22,12.36,4.58,18.2,4.58s9.71-1.94,9.71-6.52c0-12.08-29.44-8.75-29.44-29.44,0-12.77,11.11-18.19,24.71-18.19a55.59,55.59,0,0,1,18.33,3.2L2597,508.39" transform="translate(-50.73 -105.49)"/><path class="cls-2" d="M2613.31,549.21a9.65,9.65,0,1,1,9.58,9.58,9.46,9.46,0,0,1-9.58-9.58" transform="translate(-50.73 -105.49)"/></svg>