<?xml version="1.0" encoding="UTF-8"?><!DOCTYPE svg PUBLIC "-//W3C//DTD SVG 1.1//EN" "http://www.w3.org/Graphics/SVG/1.1/DTD/svg11.dtd"><svg xmlns="http://www.w3.org/2000/svg" xmlns:xlink="http://www.w3.org/1999/xlink"><defs/><symbol id="cart" viewBox="0 0 576 512"><path d="M551.991 64H144.28l-8.726-44.608C133.35 8.128 123.478 0 112 0H12C5.373 0 0 5.373 0 12v24c0 6.627 5.373 12 12 12h80.24l69.594 355.701C150.796 415.201 144 430.802 144 448c0 35.346 28.654 64 64 64s64-28.654 64-64a63.681 63.681 0 0 0-8.583-32h145.167a63.681 63.681 0 0 0-8.583 32c0 35.346 28.654 64 64 64 35.346 0 64-28.654 64-64 0-18.136-7.556-34.496-19.676-46.142l1.035-4.757c3.254-14.96-8.142-29.101-23.452-29.101H203.76l-9.39-48h312.405c11.29 0 21.054-7.869 23.452-18.902l45.216-208C578.695 78.139 567.299 64 551.991 64zM208 472c-13.234 0-24-10.766-24-24s10.766-24 24-24 24 10.766 24 24-10.766 24-24 24zm256 0c-13.234 0-24-10.766-24-24s10.766-24 24-24 24 10.766 24 24-10.766 24-24 24zm23.438-200H184.98l-31.31-160h368.548l-34.78 160z"/></symbol><symbol id="search" viewBox="0 0 512 512"><path d="M508.5 468.9L387.1 347.5c-2.3-2.3-5.3-3.5-8.5-3.5h-13.2c31.5-36.5 50.6-84 50.6-136C416 93.1 322.9 0 208 0S0 93.1 0 208s93.1 208 208 208c52 0 99.5-19.1 136-50.6v13.2c0 3.2 1.3 6.2 3.5 8.5l121.4 121.4c4.7 4.7 12.3 4.7 17 0l22.6-22.6c4.7-4.7 4.7-12.3 0-17zM208 368c-88.4 0-160-71.6-160-160S119.6 48 208 48s160 71.6 160 160-71.6 160-160 160z"/></symbol><symbol id="user" viewBox="0 0 512 512"><path d="M384 336c-40.6 0-47.6-1.5-72.2 6.8-17.5 5.9-36.3 9.2-55.8 9.2s-38.3-3.3-55.8-9.2c-24.6-8.3-31.5-6.8-72.2-6.8C57.3 336 0 393.3 0 464v16c0 17.7 14.3 32 32 32h448c17.7 0 32-14.3 32-32v-16c0-70.7-57.3-128-128-128zm80 128H48c0-21.4 8.3-41.5 23.4-56.6C86.5 392.3 106.6 384 128 384c41.1 0 41-1.1 56.8 4.2 23 7.8 47 11.8 71.2 11.8 24.2 0 48.2-4 71.2-11.8 15.8-5.4 15.7-4.2 56.8-4.2 44.1 0 80 35.9 80 80zM256 320c88.4 0 160-71.6 160-160S344.4 0 256 0 96 71.6 96 160s71.6 160 160 160zm0-272c61.8 0 112 50.2 112 112s-50.2 112-112 112-112-50.2-112-112S194.2 48 256 48z"/></symbol></svg>